G04 EAGLE Gerber RS-274X export*
G75*
%MOMM*%
%FSLAX34Y34*%
%LPD*%
%INBottom Copper*%
%IPPOS*%
%AMOC8*
5,1,8,0,0,1.08239X$1,22.5*%
G01*
%ADD10C,2.540000*%
%ADD11C,1.800000*%
%ADD12C,1.422400*%
%ADD13C,1.108000*%
%ADD14R,1.422400X1.422400*%
%ADD15C,1.422400*%
%ADD16C,1.524000*%
%ADD17C,0.706400*%
%ADD18C,6.000000*%
%ADD19C,0.800000*%
%ADD20C,0.600000*%
%ADD21C,1.300000*%
%ADD22C,0.812800*%
%ADD23C,0.200000*%
%ADD24C,0.400000*%

G36*
X39970Y896956D02*
X39970Y896956D01*
X39902Y896956D01*
X35273Y896653D01*
X35230Y896645D01*
X35185Y896644D01*
X34984Y896605D01*
X26042Y894209D01*
X25955Y894174D01*
X25865Y894149D01*
X25750Y894093D01*
X25721Y894082D01*
X25707Y894072D01*
X25680Y894059D01*
X17664Y889431D01*
X17589Y889375D01*
X17508Y889327D01*
X17412Y889243D01*
X17386Y889224D01*
X17376Y889212D01*
X17353Y889192D01*
X10808Y882647D01*
X10749Y882573D01*
X10684Y882507D01*
X10612Y882400D01*
X10593Y882376D01*
X10586Y882361D01*
X10569Y882336D01*
X5941Y874320D01*
X5904Y874234D01*
X5858Y874152D01*
X5816Y874031D01*
X5804Y874002D01*
X5801Y873986D01*
X5791Y873958D01*
X3395Y865017D01*
X3389Y864972D01*
X3375Y864930D01*
X3347Y864727D01*
X3044Y860098D01*
X3045Y860069D01*
X3041Y860000D01*
X3041Y680000D01*
X3044Y679970D01*
X3044Y679902D01*
X3347Y675273D01*
X3355Y675230D01*
X3356Y675185D01*
X3395Y674984D01*
X5791Y666042D01*
X5826Y665955D01*
X5851Y665865D01*
X5907Y665750D01*
X5918Y665721D01*
X5928Y665707D01*
X5941Y665680D01*
X10569Y657664D01*
X10625Y657589D01*
X10673Y657508D01*
X10757Y657412D01*
X10776Y657386D01*
X10788Y657376D01*
X10808Y657353D01*
X17353Y650808D01*
X17426Y650750D01*
X17493Y650684D01*
X17505Y650676D01*
X17510Y650671D01*
X17529Y650660D01*
X17600Y650612D01*
X17624Y650593D01*
X17639Y650586D01*
X17664Y650569D01*
X25680Y645941D01*
X25766Y645904D01*
X25848Y645858D01*
X25969Y645816D01*
X25998Y645804D01*
X26014Y645801D01*
X26042Y645791D01*
X34983Y643395D01*
X35028Y643389D01*
X35070Y643375D01*
X35273Y643347D01*
X39902Y643044D01*
X39931Y643045D01*
X40000Y643041D01*
X81260Y643041D01*
X82874Y641427D01*
X82995Y641330D01*
X83116Y641230D01*
X83132Y641222D01*
X83145Y641212D01*
X83286Y641146D01*
X83426Y641076D01*
X83442Y641072D01*
X83458Y641065D01*
X83611Y641033D01*
X83763Y640997D01*
X83780Y640997D01*
X83796Y640994D01*
X83952Y640997D01*
X84108Y640998D01*
X84125Y641001D01*
X84142Y641002D01*
X84293Y641041D01*
X84445Y641077D01*
X84460Y641085D01*
X84476Y641089D01*
X84614Y641162D01*
X84754Y641232D01*
X84767Y641242D01*
X84782Y641250D01*
X84900Y641353D01*
X85020Y641453D01*
X85030Y641466D01*
X85043Y641478D01*
X85133Y641604D01*
X85228Y641729D01*
X85237Y641749D01*
X85244Y641758D01*
X85255Y641784D01*
X85319Y641913D01*
X85713Y642864D01*
X87136Y644287D01*
X88994Y645057D01*
X91006Y645057D01*
X92864Y644287D01*
X93940Y643211D01*
X93968Y643189D01*
X93991Y643163D01*
X94103Y643082D01*
X94211Y642997D01*
X94243Y642982D01*
X94272Y642961D01*
X94399Y642908D01*
X94524Y642850D01*
X94559Y642843D01*
X94591Y642829D01*
X94728Y642807D01*
X94862Y642779D01*
X94898Y642779D01*
X94933Y642774D01*
X95070Y642784D01*
X95208Y642787D01*
X95242Y642796D01*
X95278Y642798D01*
X95409Y642839D01*
X95542Y642874D01*
X95574Y642890D01*
X95608Y642901D01*
X95726Y642971D01*
X95848Y643035D01*
X95875Y643059D01*
X95905Y643077D01*
X96060Y643211D01*
X97136Y644287D01*
X98994Y645057D01*
X101006Y645057D01*
X102864Y644287D01*
X103940Y643211D01*
X103968Y643189D01*
X103991Y643163D01*
X104103Y643082D01*
X104211Y642997D01*
X104243Y642982D01*
X104272Y642961D01*
X104399Y642908D01*
X104524Y642850D01*
X104559Y642843D01*
X104591Y642829D01*
X104728Y642807D01*
X104862Y642779D01*
X104898Y642779D01*
X104933Y642774D01*
X105070Y642784D01*
X105208Y642787D01*
X105242Y642796D01*
X105278Y642798D01*
X105409Y642839D01*
X105542Y642874D01*
X105574Y642890D01*
X105608Y642901D01*
X105726Y642971D01*
X105848Y643035D01*
X105875Y643059D01*
X105905Y643077D01*
X106060Y643211D01*
X107136Y644287D01*
X108994Y645057D01*
X111006Y645057D01*
X112864Y644287D01*
X113940Y643211D01*
X113968Y643189D01*
X113991Y643163D01*
X114103Y643082D01*
X114211Y642997D01*
X114243Y642982D01*
X114272Y642961D01*
X114399Y642908D01*
X114524Y642850D01*
X114559Y642843D01*
X114591Y642829D01*
X114728Y642807D01*
X114862Y642779D01*
X114898Y642779D01*
X114933Y642774D01*
X115070Y642784D01*
X115208Y642787D01*
X115242Y642796D01*
X115278Y642798D01*
X115409Y642839D01*
X115542Y642874D01*
X115574Y642890D01*
X115608Y642901D01*
X115726Y642971D01*
X115848Y643035D01*
X115875Y643059D01*
X115905Y643077D01*
X116060Y643211D01*
X117136Y644287D01*
X118994Y645057D01*
X121006Y645057D01*
X122864Y644287D01*
X124287Y642864D01*
X124681Y641913D01*
X124757Y641776D01*
X124830Y641638D01*
X124841Y641626D01*
X124849Y641611D01*
X124955Y641495D01*
X125057Y641378D01*
X125071Y641368D01*
X125082Y641355D01*
X125211Y641267D01*
X125338Y641176D01*
X125354Y641170D01*
X125368Y641160D01*
X125513Y641104D01*
X125658Y641044D01*
X125674Y641041D01*
X125690Y641035D01*
X125845Y641014D01*
X125999Y640989D01*
X126016Y640990D01*
X126032Y640988D01*
X126187Y641002D01*
X126344Y641013D01*
X126360Y641018D01*
X126377Y641020D01*
X126525Y641070D01*
X126674Y641116D01*
X126688Y641125D01*
X126704Y641130D01*
X126837Y641213D01*
X126972Y641292D01*
X126988Y641306D01*
X126998Y641312D01*
X127018Y641332D01*
X127126Y641427D01*
X128740Y643041D01*
X571260Y643041D01*
X573041Y641260D01*
X573041Y598740D01*
X571260Y596959D01*
X128740Y596959D01*
X127655Y598044D01*
X127638Y598059D01*
X127623Y598076D01*
X127483Y598185D01*
X127346Y598297D01*
X127326Y598308D01*
X127308Y598322D01*
X127150Y598401D01*
X126993Y598483D01*
X126971Y598490D01*
X126951Y598500D01*
X126780Y598546D01*
X126610Y598596D01*
X126587Y598598D01*
X126565Y598604D01*
X126389Y598615D01*
X126212Y598630D01*
X126189Y598627D01*
X126166Y598629D01*
X125991Y598604D01*
X125815Y598584D01*
X125793Y598577D01*
X125771Y598574D01*
X125603Y598515D01*
X125435Y598460D01*
X125415Y598449D01*
X125394Y598441D01*
X125242Y598351D01*
X125088Y598263D01*
X125070Y598248D01*
X125051Y598237D01*
X124920Y598118D01*
X124786Y598001D01*
X124772Y597983D01*
X124755Y597968D01*
X124651Y597825D01*
X124543Y597684D01*
X124533Y597664D01*
X124519Y597646D01*
X124395Y597396D01*
X124287Y597136D01*
X122864Y595713D01*
X121006Y594943D01*
X118994Y594943D01*
X117136Y595713D01*
X116414Y596435D01*
X116390Y596454D01*
X116370Y596477D01*
X116236Y596581D01*
X116104Y596688D01*
X116078Y596702D01*
X116054Y596720D01*
X115901Y596795D01*
X115751Y596874D01*
X115722Y596883D01*
X115695Y596896D01*
X115530Y596939D01*
X115368Y596986D01*
X115338Y596989D01*
X115308Y596997D01*
X115139Y597006D01*
X114970Y597020D01*
X114940Y597017D01*
X114910Y597019D01*
X114742Y596994D01*
X114573Y596974D01*
X114544Y596965D01*
X114514Y596961D01*
X114355Y596903D01*
X114193Y596851D01*
X114167Y596836D01*
X114138Y596825D01*
X113993Y596737D01*
X113846Y596654D01*
X113823Y596634D01*
X113797Y596618D01*
X113586Y596435D01*
X112864Y595713D01*
X111006Y594943D01*
X108994Y594943D01*
X107136Y595713D01*
X106414Y596435D01*
X106390Y596454D01*
X106370Y596477D01*
X106236Y596581D01*
X106104Y596688D01*
X106078Y596702D01*
X106054Y596720D01*
X105901Y596795D01*
X105751Y596874D01*
X105722Y596883D01*
X105695Y596896D01*
X105530Y596939D01*
X105368Y596986D01*
X105338Y596989D01*
X105308Y596997D01*
X105139Y597006D01*
X104970Y597020D01*
X104940Y597017D01*
X104910Y597019D01*
X104742Y596994D01*
X104573Y596974D01*
X104544Y596965D01*
X104514Y596961D01*
X104355Y596903D01*
X104193Y596851D01*
X104167Y596836D01*
X104138Y596825D01*
X103993Y596737D01*
X103846Y596654D01*
X103823Y596634D01*
X103797Y596618D01*
X103586Y596435D01*
X102864Y595713D01*
X101006Y594943D01*
X98994Y594943D01*
X97136Y595713D01*
X96414Y596435D01*
X96390Y596454D01*
X96370Y596477D01*
X96236Y596581D01*
X96104Y596688D01*
X96078Y596702D01*
X96054Y596720D01*
X95901Y596795D01*
X95751Y596874D01*
X95722Y596883D01*
X95695Y596896D01*
X95530Y596939D01*
X95368Y596986D01*
X95338Y596989D01*
X95308Y596997D01*
X95139Y597006D01*
X94970Y597020D01*
X94940Y597017D01*
X94910Y597019D01*
X94742Y596994D01*
X94573Y596974D01*
X94544Y596965D01*
X94514Y596961D01*
X94355Y596903D01*
X94193Y596851D01*
X94167Y596836D01*
X94138Y596825D01*
X93993Y596737D01*
X93846Y596654D01*
X93823Y596634D01*
X93797Y596618D01*
X93586Y596435D01*
X92864Y595713D01*
X91006Y594943D01*
X88994Y594943D01*
X87136Y595713D01*
X85713Y597136D01*
X85605Y597396D01*
X85595Y597416D01*
X85588Y597437D01*
X85500Y597591D01*
X85416Y597748D01*
X85402Y597765D01*
X85391Y597785D01*
X85275Y597918D01*
X85161Y598055D01*
X85143Y598069D01*
X85129Y598086D01*
X84989Y598194D01*
X84850Y598305D01*
X84830Y598316D01*
X84812Y598330D01*
X84653Y598407D01*
X84495Y598489D01*
X84474Y598495D01*
X84453Y598505D01*
X84283Y598550D01*
X84111Y598599D01*
X84089Y598600D01*
X84067Y598606D01*
X83891Y598616D01*
X83713Y598629D01*
X83690Y598627D01*
X83668Y598628D01*
X83494Y598602D01*
X83317Y598581D01*
X83295Y598573D01*
X83273Y598570D01*
X83106Y598510D01*
X82938Y598454D01*
X82918Y598442D01*
X82897Y598435D01*
X82745Y598343D01*
X82592Y598254D01*
X82575Y598239D01*
X82555Y598228D01*
X82345Y598044D01*
X81260Y596959D01*
X40000Y596959D01*
X39954Y596955D01*
X39869Y596955D01*
X35306Y596656D01*
X35250Y596647D01*
X35193Y596645D01*
X34919Y596592D01*
X26104Y594230D01*
X25990Y594187D01*
X25873Y594153D01*
X25779Y594107D01*
X25730Y594089D01*
X25693Y594065D01*
X25622Y594030D01*
X17718Y589467D01*
X17619Y589396D01*
X17515Y589332D01*
X17436Y589264D01*
X17394Y589234D01*
X17364Y589201D01*
X17304Y589149D01*
X10851Y582696D01*
X10773Y582602D01*
X10689Y582513D01*
X10631Y582427D01*
X10598Y582387D01*
X10577Y582347D01*
X10533Y582282D01*
X5970Y574378D01*
X5920Y574267D01*
X5861Y574160D01*
X5827Y574062D01*
X5806Y574014D01*
X5796Y573971D01*
X5770Y573896D01*
X3408Y565081D01*
X3399Y565025D01*
X3382Y564971D01*
X3344Y564694D01*
X3045Y560131D01*
X3047Y560084D01*
X3041Y560000D01*
X3041Y40000D01*
X3045Y39954D01*
X3045Y39869D01*
X3344Y35306D01*
X3353Y35250D01*
X3355Y35193D01*
X3408Y34919D01*
X5770Y26104D01*
X5813Y25990D01*
X5847Y25873D01*
X5893Y25779D01*
X5911Y25730D01*
X5935Y25693D01*
X5970Y25622D01*
X10533Y17718D01*
X10604Y17619D01*
X10668Y17515D01*
X10736Y17436D01*
X10766Y17394D01*
X10799Y17364D01*
X10851Y17304D01*
X17304Y10851D01*
X17398Y10773D01*
X17487Y10689D01*
X17573Y10631D01*
X17613Y10598D01*
X17653Y10577D01*
X17718Y10533D01*
X25622Y5970D01*
X25733Y5920D01*
X25840Y5861D01*
X25938Y5827D01*
X25986Y5806D01*
X26029Y5796D01*
X26104Y5770D01*
X34919Y3408D01*
X34975Y3399D01*
X35029Y3382D01*
X35306Y3344D01*
X39869Y3045D01*
X39916Y3047D01*
X40000Y3041D01*
X660000Y3041D01*
X660046Y3045D01*
X660131Y3045D01*
X664694Y3344D01*
X664750Y3353D01*
X664807Y3355D01*
X665081Y3408D01*
X673896Y5770D01*
X674010Y5813D01*
X674127Y5847D01*
X674221Y5893D01*
X674270Y5911D01*
X674307Y5935D01*
X674378Y5970D01*
X682282Y10533D01*
X682381Y10604D01*
X682485Y10668D01*
X682564Y10736D01*
X682606Y10766D01*
X682636Y10799D01*
X682696Y10851D01*
X689149Y17304D01*
X689159Y17316D01*
X689171Y17326D01*
X689237Y17409D01*
X689311Y17487D01*
X689369Y17573D01*
X689402Y17613D01*
X689409Y17627D01*
X689419Y17639D01*
X689435Y17670D01*
X689467Y17718D01*
X694030Y25622D01*
X694080Y25733D01*
X694139Y25840D01*
X694173Y25938D01*
X694194Y25986D01*
X694204Y26029D01*
X694230Y26104D01*
X696592Y34919D01*
X696601Y34975D01*
X696618Y35029D01*
X696656Y35306D01*
X696955Y39869D01*
X696953Y39916D01*
X696959Y40000D01*
X696959Y560000D01*
X696955Y560046D01*
X696955Y560131D01*
X696656Y564694D01*
X696647Y564750D01*
X696645Y564807D01*
X696592Y565081D01*
X694230Y573896D01*
X694187Y574010D01*
X694153Y574127D01*
X694107Y574221D01*
X694089Y574270D01*
X694065Y574307D01*
X694030Y574378D01*
X689467Y582282D01*
X689396Y582381D01*
X689332Y582485D01*
X689264Y582564D01*
X689234Y582606D01*
X689201Y582636D01*
X689149Y582696D01*
X682696Y589149D01*
X682602Y589227D01*
X682513Y589311D01*
X682427Y589369D01*
X682387Y589402D01*
X682347Y589423D01*
X682282Y589467D01*
X674378Y594030D01*
X674267Y594080D01*
X674160Y594139D01*
X674062Y594173D01*
X674014Y594194D01*
X673971Y594204D01*
X673896Y594230D01*
X665081Y596592D01*
X665025Y596601D01*
X664971Y596618D01*
X664694Y596656D01*
X660131Y596955D01*
X660084Y596953D01*
X660000Y596959D01*
X618740Y596959D01*
X616959Y598740D01*
X616959Y641260D01*
X618740Y643041D01*
X660000Y643041D01*
X660046Y643045D01*
X660131Y643045D01*
X664694Y643344D01*
X664750Y643353D01*
X664807Y643355D01*
X665081Y643408D01*
X673896Y645770D01*
X674010Y645813D01*
X674127Y645847D01*
X674221Y645893D01*
X674270Y645911D01*
X674307Y645935D01*
X674378Y645970D01*
X682282Y650533D01*
X682381Y650604D01*
X682485Y650668D01*
X682564Y650736D01*
X682606Y650766D01*
X682636Y650799D01*
X682696Y650851D01*
X689149Y657304D01*
X689227Y657398D01*
X689311Y657487D01*
X689369Y657573D01*
X689402Y657613D01*
X689423Y657653D01*
X689467Y657718D01*
X694030Y665622D01*
X694080Y665733D01*
X694139Y665840D01*
X694173Y665938D01*
X694194Y665986D01*
X694204Y666029D01*
X694230Y666104D01*
X696592Y674919D01*
X696601Y674975D01*
X696618Y675029D01*
X696656Y675306D01*
X696955Y679869D01*
X696953Y679916D01*
X696959Y680000D01*
X696959Y685000D01*
X696956Y685030D01*
X696958Y685060D01*
X696936Y685229D01*
X696919Y685397D01*
X696910Y685426D01*
X696906Y685456D01*
X696851Y685617D01*
X696801Y685779D01*
X696787Y685806D01*
X696777Y685834D01*
X696691Y685980D01*
X696610Y686129D01*
X696590Y686153D01*
X696575Y686179D01*
X696462Y686305D01*
X696352Y686435D01*
X696329Y686454D01*
X696308Y686476D01*
X696172Y686577D01*
X696039Y686683D01*
X696012Y686697D01*
X695988Y686715D01*
X695835Y686787D01*
X695683Y686864D01*
X695654Y686872D01*
X695627Y686885D01*
X695461Y686925D01*
X695298Y686970D01*
X695268Y686973D01*
X695239Y686980D01*
X694960Y686999D01*
X416999Y686999D01*
X416999Y894960D01*
X416996Y894990D01*
X416998Y895020D01*
X416976Y895189D01*
X416959Y895357D01*
X416950Y895386D01*
X416946Y895416D01*
X416891Y895577D01*
X416841Y895739D01*
X416827Y895766D01*
X416817Y895794D01*
X416731Y895940D01*
X416650Y896089D01*
X416630Y896113D01*
X416615Y896139D01*
X416502Y896265D01*
X416392Y896395D01*
X416368Y896414D01*
X416348Y896436D01*
X416212Y896537D01*
X416079Y896643D01*
X416052Y896657D01*
X416028Y896675D01*
X415875Y896747D01*
X415723Y896824D01*
X415694Y896832D01*
X415667Y896845D01*
X415501Y896885D01*
X415338Y896930D01*
X415308Y896933D01*
X415279Y896940D01*
X415000Y896959D01*
X40000Y896959D01*
X39970Y896956D01*
G37*
%LPC*%
G36*
X173901Y19475D02*
X173901Y19475D01*
X171870Y20316D01*
X160316Y31870D01*
X159475Y33901D01*
X159475Y80883D01*
X159471Y80929D01*
X159473Y80974D01*
X159451Y81127D01*
X159435Y81281D01*
X159422Y81324D01*
X159415Y81369D01*
X159363Y81515D01*
X159317Y81662D01*
X159296Y81702D01*
X159280Y81745D01*
X159200Y81877D01*
X159126Y82013D01*
X159096Y82048D01*
X159073Y82086D01*
X158890Y82297D01*
X123316Y117870D01*
X122475Y119901D01*
X122475Y308883D01*
X122471Y308929D01*
X122473Y308974D01*
X122451Y309127D01*
X122435Y309281D01*
X122422Y309324D01*
X122415Y309369D01*
X122363Y309515D01*
X122317Y309662D01*
X122296Y309702D01*
X122280Y309745D01*
X122200Y309877D01*
X122126Y310013D01*
X122096Y310048D01*
X122073Y310086D01*
X121890Y310297D01*
X80316Y351870D01*
X79475Y353901D01*
X79475Y402476D01*
X79472Y402506D01*
X79474Y402536D01*
X79452Y402705D01*
X79435Y402873D01*
X79426Y402902D01*
X79422Y402932D01*
X79367Y403093D01*
X79317Y403255D01*
X79303Y403282D01*
X79293Y403310D01*
X79207Y403456D01*
X79126Y403605D01*
X79106Y403629D01*
X79091Y403655D01*
X78978Y403781D01*
X78868Y403911D01*
X78845Y403930D01*
X78824Y403952D01*
X78688Y404053D01*
X78555Y404159D01*
X78528Y404173D01*
X78504Y404191D01*
X78351Y404263D01*
X78199Y404340D01*
X78170Y404348D01*
X78143Y404361D01*
X77977Y404401D01*
X77814Y404446D01*
X77784Y404449D01*
X77755Y404456D01*
X77476Y404475D01*
X60856Y404475D01*
X60811Y404471D01*
X60766Y404473D01*
X60613Y404451D01*
X60459Y404435D01*
X60415Y404422D01*
X60370Y404415D01*
X60225Y404363D01*
X60077Y404317D01*
X60037Y404296D01*
X59995Y404280D01*
X59862Y404200D01*
X59727Y404126D01*
X59692Y404096D01*
X59653Y404073D01*
X59442Y403890D01*
X57800Y402247D01*
X54439Y400855D01*
X35561Y400855D01*
X32200Y402247D01*
X29627Y404820D01*
X28235Y408181D01*
X28235Y411819D01*
X29627Y415180D01*
X32200Y417753D01*
X35561Y419145D01*
X54439Y419145D01*
X57800Y417753D01*
X59442Y416110D01*
X59477Y416082D01*
X59508Y416048D01*
X59632Y415956D01*
X59752Y415857D01*
X59792Y415836D01*
X59828Y415809D01*
X59968Y415743D01*
X60105Y415671D01*
X60148Y415658D01*
X60189Y415639D01*
X60340Y415602D01*
X60488Y415559D01*
X60533Y415555D01*
X60577Y415544D01*
X60856Y415525D01*
X77476Y415525D01*
X77506Y415528D01*
X77536Y415526D01*
X77705Y415548D01*
X77873Y415565D01*
X77902Y415574D01*
X77932Y415578D01*
X78093Y415633D01*
X78255Y415683D01*
X78282Y415697D01*
X78310Y415707D01*
X78456Y415793D01*
X78605Y415874D01*
X78629Y415894D01*
X78655Y415909D01*
X78781Y416022D01*
X78911Y416132D01*
X78930Y416155D01*
X78952Y416176D01*
X79053Y416312D01*
X79159Y416445D01*
X79173Y416472D01*
X79191Y416496D01*
X79263Y416649D01*
X79340Y416801D01*
X79348Y416830D01*
X79361Y416857D01*
X79401Y417023D01*
X79446Y417186D01*
X79449Y417216D01*
X79456Y417245D01*
X79475Y417524D01*
X79475Y423336D01*
X79470Y423389D01*
X79472Y423442D01*
X79450Y423587D01*
X79435Y423734D01*
X79420Y423784D01*
X79412Y423836D01*
X79411Y423838D01*
X79411Y551112D01*
X80262Y553166D01*
X91390Y564293D01*
X91418Y564329D01*
X91452Y564359D01*
X91544Y564483D01*
X91643Y564603D01*
X91664Y564643D01*
X91691Y564679D01*
X91757Y564819D01*
X91829Y564956D01*
X91842Y564999D01*
X91861Y565041D01*
X91898Y565191D01*
X91941Y565339D01*
X91945Y565384D01*
X91956Y565429D01*
X91975Y565707D01*
X91975Y566596D01*
X93197Y569546D01*
X95454Y571803D01*
X98404Y573025D01*
X101596Y573025D01*
X104546Y571803D01*
X106803Y569546D01*
X108025Y566596D01*
X108025Y563404D01*
X106803Y560454D01*
X104546Y558197D01*
X101596Y556975D01*
X100707Y556975D01*
X100662Y556971D01*
X100617Y556973D01*
X100464Y556951D01*
X100310Y556935D01*
X100266Y556922D01*
X100221Y556915D01*
X100076Y556863D01*
X99928Y556817D01*
X99888Y556796D01*
X99846Y556780D01*
X99714Y556700D01*
X99578Y556626D01*
X99543Y556596D01*
X99504Y556573D01*
X99293Y556390D01*
X91174Y548271D01*
X91146Y548235D01*
X91112Y548205D01*
X91020Y548081D01*
X90921Y547961D01*
X90900Y547921D01*
X90873Y547885D01*
X90807Y547745D01*
X90735Y547608D01*
X90722Y547565D01*
X90703Y547523D01*
X90666Y547373D01*
X90623Y547225D01*
X90619Y547180D01*
X90618Y547175D01*
X90617Y547173D01*
X90608Y547135D01*
X90589Y546857D01*
X90589Y423809D01*
X90562Y423719D01*
X90557Y423666D01*
X90544Y423615D01*
X90525Y423336D01*
X90525Y358117D01*
X90529Y358071D01*
X90527Y358026D01*
X90549Y357873D01*
X90565Y357719D01*
X90578Y357676D01*
X90585Y357631D01*
X90637Y357485D01*
X90683Y357338D01*
X90704Y357298D01*
X90720Y357255D01*
X90800Y357123D01*
X90874Y356987D01*
X90904Y356952D01*
X90927Y356914D01*
X91110Y356703D01*
X132684Y315130D01*
X133129Y314054D01*
X133132Y314048D01*
X133135Y314040D01*
X133228Y313870D01*
X133318Y313703D01*
X133323Y313697D01*
X133326Y313690D01*
X133451Y313543D01*
X133573Y313395D01*
X133579Y313390D01*
X133584Y313385D01*
X133733Y313266D01*
X133884Y313145D01*
X133891Y313141D01*
X133897Y313137D01*
X134068Y313049D01*
X134239Y312961D01*
X134246Y312959D01*
X134253Y312956D01*
X134438Y312904D01*
X134623Y312852D01*
X134631Y312851D01*
X134638Y312849D01*
X134828Y312836D01*
X135021Y312821D01*
X135029Y312822D01*
X135036Y312821D01*
X135225Y312846D01*
X135418Y312870D01*
X135425Y312872D01*
X135432Y312873D01*
X135613Y312935D01*
X135796Y312996D01*
X135803Y313000D01*
X135810Y313003D01*
X135976Y313100D01*
X136142Y313196D01*
X136148Y313201D01*
X136155Y313205D01*
X136298Y313333D01*
X136442Y313460D01*
X136447Y313466D01*
X136452Y313471D01*
X136567Y313625D01*
X136683Y313779D01*
X136686Y313786D01*
X136691Y313792D01*
X136772Y313965D01*
X136856Y314139D01*
X136858Y314146D01*
X136861Y314153D01*
X136906Y314339D01*
X136954Y314526D01*
X136954Y314534D01*
X136956Y314541D01*
X136975Y314819D01*
X136975Y332099D01*
X137816Y334130D01*
X178652Y374965D01*
X189749Y386062D01*
X189759Y386074D01*
X189770Y386084D01*
X189885Y386228D01*
X190002Y386372D01*
X190009Y386385D01*
X190018Y386397D01*
X190102Y386562D01*
X190188Y386725D01*
X190193Y386739D01*
X190199Y386753D01*
X190249Y386931D01*
X190301Y387108D01*
X190302Y387123D01*
X190306Y387138D01*
X190319Y387321D01*
X190335Y387506D01*
X190333Y387521D01*
X190334Y387536D01*
X190310Y387720D01*
X190289Y387903D01*
X190284Y387917D01*
X190282Y387932D01*
X190222Y388107D01*
X190165Y388283D01*
X190157Y388296D01*
X190152Y388310D01*
X190059Y388470D01*
X189968Y388630D01*
X189958Y388642D01*
X189950Y388655D01*
X189827Y388792D01*
X189706Y388932D01*
X189694Y388941D01*
X189684Y388952D01*
X189537Y389062D01*
X189389Y389175D01*
X189375Y389182D01*
X189363Y389191D01*
X189197Y389269D01*
X189030Y389351D01*
X189016Y389354D01*
X189002Y389361D01*
X188822Y389405D01*
X188644Y389451D01*
X188629Y389452D01*
X188614Y389456D01*
X188336Y389475D01*
X178117Y389475D01*
X178071Y389471D01*
X178026Y389473D01*
X177873Y389451D01*
X177719Y389435D01*
X177676Y389422D01*
X177631Y389415D01*
X177485Y389363D01*
X177338Y389317D01*
X177298Y389296D01*
X177255Y389280D01*
X177123Y389200D01*
X176987Y389126D01*
X176952Y389096D01*
X176914Y389073D01*
X176703Y388890D01*
X168130Y380316D01*
X166099Y379475D01*
X163901Y379475D01*
X161870Y380316D01*
X160316Y381870D01*
X159475Y383901D01*
X159475Y386099D01*
X160316Y388130D01*
X171870Y399684D01*
X173901Y400525D01*
X385099Y400525D01*
X385724Y400266D01*
X385732Y400264D01*
X385738Y400260D01*
X385923Y400206D01*
X386107Y400150D01*
X386114Y400150D01*
X386122Y400148D01*
X386314Y400131D01*
X386504Y400114D01*
X386512Y400114D01*
X386520Y400114D01*
X386711Y400136D01*
X386902Y400156D01*
X386909Y400159D01*
X386916Y400160D01*
X387099Y400219D01*
X387282Y400277D01*
X387289Y400281D01*
X387296Y400283D01*
X387463Y400378D01*
X387631Y400472D01*
X387637Y400477D01*
X387644Y400480D01*
X387789Y400607D01*
X387935Y400731D01*
X387939Y400737D01*
X387945Y400742D01*
X388063Y400896D01*
X388180Y401046D01*
X388184Y401053D01*
X388188Y401059D01*
X388273Y401232D01*
X388359Y401404D01*
X388361Y401411D01*
X388364Y401418D01*
X388412Y401603D01*
X388462Y401789D01*
X388463Y401797D01*
X388465Y401804D01*
X388475Y401993D01*
X388487Y402188D01*
X388486Y402196D01*
X388487Y402203D01*
X388460Y402388D01*
X388432Y402584D01*
X388430Y402591D01*
X388429Y402598D01*
X388364Y402779D01*
X388300Y402961D01*
X388296Y402967D01*
X388294Y402974D01*
X388196Y403135D01*
X388095Y403304D01*
X388090Y403309D01*
X388086Y403316D01*
X387903Y403526D01*
X387178Y404252D01*
X387178Y495748D01*
X411954Y520525D01*
X488408Y520525D01*
X488446Y520529D01*
X488484Y520526D01*
X488644Y520548D01*
X488806Y520565D01*
X488842Y520576D01*
X488879Y520581D01*
X489032Y520635D01*
X489187Y520683D01*
X489220Y520701D01*
X489256Y520713D01*
X489395Y520796D01*
X489538Y520874D01*
X489567Y520899D01*
X489599Y520918D01*
X489719Y521027D01*
X489843Y521132D01*
X489866Y521161D01*
X489894Y521187D01*
X489990Y521317D01*
X490091Y521445D01*
X490108Y521479D01*
X490131Y521509D01*
X490255Y521759D01*
X490713Y522864D01*
X492136Y524287D01*
X493994Y525057D01*
X496006Y525057D01*
X497864Y524287D01*
X499287Y522864D01*
X500057Y521006D01*
X500057Y520983D01*
X500060Y520953D01*
X500058Y520923D01*
X500080Y520755D01*
X500097Y520586D01*
X500106Y520557D01*
X500110Y520527D01*
X500165Y520367D01*
X500215Y520204D01*
X500229Y520178D01*
X500239Y520149D01*
X500325Y520003D01*
X500406Y519854D01*
X500426Y519831D01*
X500441Y519805D01*
X500554Y519678D01*
X500664Y519548D01*
X500687Y519530D01*
X500708Y519507D01*
X500844Y519406D01*
X500977Y519300D01*
X501004Y519287D01*
X501028Y519269D01*
X501181Y519196D01*
X501333Y519119D01*
X501362Y519111D01*
X501389Y519098D01*
X501555Y519058D01*
X501718Y519013D01*
X501748Y519011D01*
X501777Y519004D01*
X502056Y518984D01*
X502079Y518984D01*
X503937Y518214D01*
X505360Y516792D01*
X506129Y514933D01*
X506129Y512921D01*
X505360Y511063D01*
X503937Y509640D01*
X502079Y508871D01*
X500067Y508871D01*
X498208Y509640D01*
X497032Y510817D01*
X496997Y510846D01*
X496966Y510880D01*
X496842Y510972D01*
X496722Y511070D01*
X496682Y511091D01*
X496646Y511118D01*
X496506Y511184D01*
X496369Y511256D01*
X496326Y511269D01*
X496285Y511288D01*
X496134Y511325D01*
X495986Y511368D01*
X495941Y511372D01*
X495897Y511383D01*
X495618Y511403D01*
X415801Y511403D01*
X415756Y511398D01*
X415711Y511401D01*
X415558Y511378D01*
X415404Y511363D01*
X415361Y511349D01*
X415316Y511343D01*
X415170Y511290D01*
X415022Y511245D01*
X414982Y511223D01*
X414940Y511207D01*
X414808Y511127D01*
X414672Y511053D01*
X414637Y511024D01*
X414598Y511000D01*
X414388Y510817D01*
X396337Y492766D01*
X396308Y492731D01*
X396274Y492701D01*
X396182Y492577D01*
X396084Y492457D01*
X396063Y492417D01*
X396035Y492380D01*
X395970Y492240D01*
X395897Y492103D01*
X395885Y492060D01*
X395865Y492019D01*
X395829Y491869D01*
X395785Y491720D01*
X395781Y491675D01*
X395770Y491631D01*
X395751Y491352D01*
X395751Y426419D01*
X395753Y426396D01*
X395751Y426373D01*
X395773Y426197D01*
X395791Y426021D01*
X395798Y426000D01*
X395800Y425977D01*
X395856Y425809D01*
X395909Y425640D01*
X395920Y425620D01*
X395927Y425598D01*
X396015Y425445D01*
X396101Y425289D01*
X396115Y425272D01*
X396127Y425252D01*
X396244Y425119D01*
X396358Y424984D01*
X396376Y424970D01*
X396391Y424953D01*
X396532Y424846D01*
X396671Y424736D01*
X396691Y424725D01*
X396709Y424712D01*
X396869Y424635D01*
X397027Y424555D01*
X397049Y424549D01*
X397070Y424539D01*
X397242Y424495D01*
X397412Y424448D01*
X397435Y424447D01*
X397457Y424441D01*
X397634Y424433D01*
X397811Y424420D01*
X397833Y424423D01*
X397856Y424422D01*
X398031Y424449D01*
X398207Y424472D01*
X398228Y424480D01*
X398251Y424483D01*
X398515Y424572D01*
X400212Y425274D01*
X402224Y425274D01*
X404082Y424505D01*
X405259Y423328D01*
X405294Y423299D01*
X405324Y423266D01*
X405448Y423173D01*
X405568Y423075D01*
X405608Y423054D01*
X405645Y423027D01*
X405784Y422961D01*
X405921Y422889D01*
X405965Y422876D01*
X406006Y422857D01*
X406156Y422820D01*
X406305Y422777D01*
X406350Y422773D01*
X406394Y422762D01*
X406672Y422742D01*
X410393Y422742D01*
X416775Y416360D01*
X416775Y395156D01*
X416776Y395141D01*
X416775Y395125D01*
X416796Y394941D01*
X416815Y394758D01*
X416819Y394744D01*
X416821Y394729D01*
X416878Y394553D01*
X416933Y394377D01*
X416940Y394363D01*
X416945Y394349D01*
X417036Y394188D01*
X417124Y394026D01*
X417134Y394014D01*
X417142Y394001D01*
X417263Y393862D01*
X417382Y393721D01*
X417394Y393711D01*
X417404Y393700D01*
X417550Y393587D01*
X417695Y393473D01*
X417708Y393466D01*
X417720Y393457D01*
X417886Y393376D01*
X418051Y393292D01*
X418065Y393288D01*
X418079Y393281D01*
X418259Y393234D01*
X418436Y393185D01*
X418451Y393184D01*
X418466Y393180D01*
X418650Y393170D01*
X418834Y393157D01*
X418849Y393159D01*
X418864Y393158D01*
X419046Y393185D01*
X419230Y393209D01*
X419245Y393214D01*
X419260Y393216D01*
X419433Y393279D01*
X419608Y393339D01*
X419621Y393346D01*
X419636Y393351D01*
X419794Y393447D01*
X419953Y393541D01*
X419964Y393551D01*
X419977Y393559D01*
X420188Y393742D01*
X421016Y394570D01*
X442494Y416049D01*
X561666Y416049D01*
X561712Y416053D01*
X561757Y416051D01*
X561910Y416073D01*
X562064Y416089D01*
X562107Y416102D01*
X562152Y416109D01*
X562298Y416161D01*
X562445Y416207D01*
X562485Y416228D01*
X562528Y416244D01*
X562660Y416324D01*
X562796Y416398D01*
X562831Y416428D01*
X562869Y416451D01*
X563080Y416634D01*
X571890Y425444D01*
X571918Y425479D01*
X571952Y425509D01*
X572044Y425633D01*
X572143Y425753D01*
X572164Y425793D01*
X572191Y425830D01*
X572257Y425970D01*
X572329Y426107D01*
X572342Y426150D01*
X572361Y426191D01*
X572398Y426341D01*
X572441Y426490D01*
X572445Y426535D01*
X572456Y426579D01*
X572475Y426858D01*
X572475Y456046D01*
X586398Y469969D01*
X594545Y469969D01*
X594591Y469973D01*
X594636Y469971D01*
X594789Y469993D01*
X594943Y470009D01*
X594986Y470022D01*
X595031Y470029D01*
X595177Y470081D01*
X595324Y470127D01*
X595364Y470148D01*
X595407Y470164D01*
X595539Y470244D01*
X595675Y470318D01*
X595710Y470348D01*
X595748Y470371D01*
X595959Y470554D01*
X597136Y471731D01*
X598994Y472501D01*
X601006Y472501D01*
X602864Y471731D01*
X604287Y470308D01*
X605057Y468450D01*
X605057Y466438D01*
X604287Y464580D01*
X602864Y463157D01*
X600940Y462360D01*
X600907Y462342D01*
X600871Y462330D01*
X600731Y462248D01*
X600588Y462171D01*
X600559Y462147D01*
X600527Y462128D01*
X600406Y462020D01*
X600281Y461916D01*
X600257Y461887D01*
X600229Y461861D01*
X600132Y461731D01*
X600031Y461605D01*
X600013Y461571D01*
X599991Y461541D01*
X599922Y461394D01*
X599847Y461250D01*
X599837Y461214D01*
X599820Y461180D01*
X599782Y461022D01*
X599737Y460866D01*
X599735Y460828D01*
X599726Y460792D01*
X599706Y460513D01*
X599706Y459643D01*
X598936Y457785D01*
X597514Y456362D01*
X595655Y455593D01*
X593643Y455593D01*
X591785Y456362D01*
X590608Y457539D01*
X590573Y457568D01*
X590543Y457602D01*
X590419Y457694D01*
X590299Y457792D01*
X590259Y457813D01*
X590223Y457840D01*
X590083Y457906D01*
X589946Y457978D01*
X589902Y457991D01*
X589861Y458010D01*
X589711Y458047D01*
X589562Y458090D01*
X589517Y458094D01*
X589473Y458105D01*
X589195Y458125D01*
X587523Y458125D01*
X587478Y458120D01*
X587433Y458123D01*
X587280Y458100D01*
X587126Y458085D01*
X587083Y458071D01*
X587038Y458065D01*
X586892Y458012D01*
X586744Y457967D01*
X586704Y457945D01*
X586662Y457929D01*
X586530Y457849D01*
X586394Y457775D01*
X586359Y457746D01*
X586320Y457722D01*
X586110Y457539D01*
X581760Y453189D01*
X581731Y453154D01*
X581697Y453124D01*
X581605Y453000D01*
X581507Y452880D01*
X581486Y452840D01*
X581459Y452803D01*
X581393Y452663D01*
X581321Y452527D01*
X581308Y452483D01*
X581288Y452442D01*
X581252Y452292D01*
X581208Y452143D01*
X581204Y452098D01*
X581194Y452054D01*
X581174Y451775D01*
X581174Y422604D01*
X566046Y407475D01*
X446874Y407475D01*
X446829Y407471D01*
X446783Y407473D01*
X446630Y407451D01*
X446476Y407435D01*
X446433Y407422D01*
X446388Y407415D01*
X446243Y407363D01*
X446095Y407317D01*
X446055Y407296D01*
X446012Y407280D01*
X445880Y407200D01*
X445744Y407126D01*
X445710Y407096D01*
X445671Y407073D01*
X445460Y406890D01*
X428110Y389540D01*
X428082Y389505D01*
X428048Y389474D01*
X427956Y389350D01*
X427857Y389231D01*
X427836Y389190D01*
X427809Y389154D01*
X427743Y389014D01*
X427671Y388877D01*
X427658Y388834D01*
X427639Y388793D01*
X427602Y388642D01*
X427559Y388494D01*
X427555Y388449D01*
X427544Y388405D01*
X427525Y388126D01*
X427525Y243954D01*
X425460Y241890D01*
X407380Y223809D01*
X407370Y223797D01*
X407358Y223788D01*
X407243Y223643D01*
X407127Y223500D01*
X407120Y223486D01*
X407110Y223475D01*
X407026Y223310D01*
X406940Y223146D01*
X406936Y223132D01*
X406929Y223118D01*
X406880Y222941D01*
X406828Y222763D01*
X406827Y222748D01*
X406823Y222733D01*
X406810Y222550D01*
X406794Y222365D01*
X406796Y222350D01*
X406795Y222335D01*
X406819Y222151D01*
X406840Y221968D01*
X406845Y221954D01*
X406847Y221939D01*
X406907Y221764D01*
X406964Y221589D01*
X406971Y221575D01*
X406976Y221561D01*
X407070Y221402D01*
X407161Y221241D01*
X407171Y221230D01*
X407178Y221217D01*
X407302Y221079D01*
X407423Y220940D01*
X407435Y220930D01*
X407445Y220919D01*
X407592Y220810D01*
X407740Y220696D01*
X407753Y220690D01*
X407765Y220681D01*
X407932Y220602D01*
X408098Y220521D01*
X408113Y220517D01*
X408127Y220510D01*
X408307Y220466D01*
X408485Y220420D01*
X408500Y220419D01*
X408515Y220416D01*
X408793Y220396D01*
X450417Y220396D01*
X450462Y220401D01*
X450507Y220398D01*
X450660Y220421D01*
X450814Y220436D01*
X450857Y220449D01*
X450902Y220456D01*
X451048Y220508D01*
X451196Y220554D01*
X451236Y220576D01*
X451278Y220591D01*
X451410Y220671D01*
X451546Y220746D01*
X451581Y220775D01*
X451620Y220799D01*
X451830Y220982D01*
X453136Y222287D01*
X454994Y223057D01*
X457006Y223057D01*
X458864Y222287D01*
X460287Y220864D01*
X461057Y219006D01*
X461057Y216994D01*
X460287Y215136D01*
X458864Y213713D01*
X457006Y212943D01*
X454994Y212943D01*
X453136Y213713D01*
X452088Y214761D01*
X452052Y214790D01*
X452022Y214824D01*
X451898Y214916D01*
X451778Y215014D01*
X451738Y215035D01*
X451702Y215062D01*
X451562Y215128D01*
X451425Y215200D01*
X451382Y215213D01*
X451340Y215232D01*
X451190Y215269D01*
X451042Y215313D01*
X450997Y215316D01*
X450952Y215327D01*
X450674Y215347D01*
X356421Y215347D01*
X356409Y215353D01*
X356366Y215366D01*
X356325Y215385D01*
X356174Y215422D01*
X356026Y215465D01*
X355981Y215469D01*
X355937Y215480D01*
X355658Y215499D01*
X353994Y215499D01*
X352136Y216269D01*
X350713Y217692D01*
X349943Y219550D01*
X349943Y221562D01*
X350713Y223420D01*
X352136Y224843D01*
X353994Y225613D01*
X356006Y225613D01*
X357864Y224843D01*
X359287Y223420D01*
X360028Y221630D01*
X360046Y221597D01*
X360059Y221561D01*
X360140Y221421D01*
X360217Y221278D01*
X360242Y221249D01*
X360261Y221217D01*
X360369Y221096D01*
X360472Y220971D01*
X360502Y220947D01*
X360527Y220919D01*
X360657Y220822D01*
X360784Y220721D01*
X360817Y220703D01*
X360848Y220681D01*
X360994Y220612D01*
X361138Y220537D01*
X361175Y220527D01*
X361209Y220510D01*
X361366Y220472D01*
X361522Y220428D01*
X361560Y220425D01*
X361597Y220416D01*
X361875Y220396D01*
X379070Y220396D01*
X379093Y220398D01*
X379115Y220397D01*
X379291Y220418D01*
X379467Y220436D01*
X379489Y220443D01*
X379512Y220446D01*
X379680Y220502D01*
X379849Y220554D01*
X379869Y220565D01*
X379891Y220572D01*
X380043Y220660D01*
X380199Y220746D01*
X380217Y220760D01*
X380237Y220772D01*
X380369Y220889D01*
X380505Y221003D01*
X380519Y221021D01*
X380536Y221036D01*
X380643Y221177D01*
X380753Y221316D01*
X380763Y221337D01*
X380777Y221355D01*
X380853Y221514D01*
X380934Y221672D01*
X380940Y221694D01*
X380950Y221715D01*
X380993Y221887D01*
X381040Y222057D01*
X381042Y222080D01*
X381048Y222102D01*
X381056Y222279D01*
X381068Y222456D01*
X381065Y222478D01*
X381066Y222501D01*
X381039Y222676D01*
X381016Y222852D01*
X381016Y222853D01*
X381016Y222944D01*
X381013Y222974D01*
X381015Y223004D01*
X380993Y223173D01*
X380976Y223341D01*
X380967Y223370D01*
X380963Y223400D01*
X380908Y223561D01*
X380858Y223723D01*
X380843Y223750D01*
X380834Y223778D01*
X380748Y223924D01*
X380666Y224073D01*
X380647Y224097D01*
X380631Y224123D01*
X380518Y224249D01*
X380409Y224379D01*
X380385Y224398D01*
X380365Y224420D01*
X380229Y224521D01*
X380096Y224627D01*
X380069Y224641D01*
X380045Y224659D01*
X379891Y224731D01*
X379740Y224808D01*
X379711Y224816D01*
X379683Y224829D01*
X379518Y224869D01*
X379355Y224914D01*
X379325Y224917D01*
X379295Y224924D01*
X379017Y224943D01*
X378994Y224943D01*
X377136Y225713D01*
X375713Y227136D01*
X374943Y228994D01*
X374943Y231006D01*
X375713Y232864D01*
X377136Y234287D01*
X378994Y235057D01*
X381006Y235057D01*
X382864Y234287D01*
X384041Y233110D01*
X384076Y233082D01*
X384106Y233048D01*
X384230Y232956D01*
X384350Y232857D01*
X384390Y232836D01*
X384427Y232809D01*
X384567Y232743D01*
X384704Y232671D01*
X384747Y232658D01*
X384788Y232639D01*
X384938Y232602D01*
X385087Y232559D01*
X385132Y232555D01*
X385176Y232544D01*
X385455Y232525D01*
X403126Y232525D01*
X403171Y232529D01*
X403217Y232527D01*
X403370Y232549D01*
X403524Y232565D01*
X403567Y232578D01*
X403612Y232585D01*
X403757Y232637D01*
X403905Y232683D01*
X403945Y232704D01*
X403988Y232720D01*
X404120Y232800D01*
X404256Y232874D01*
X404290Y232904D01*
X404329Y232927D01*
X404540Y233110D01*
X418366Y246936D01*
X418394Y246971D01*
X418428Y247002D01*
X418520Y247126D01*
X418619Y247245D01*
X418640Y247286D01*
X418667Y247322D01*
X418733Y247462D01*
X418805Y247599D01*
X418818Y247642D01*
X418837Y247683D01*
X418874Y247834D01*
X418917Y247982D01*
X418921Y248027D01*
X418932Y248071D01*
X418951Y248350D01*
X418951Y260554D01*
X418950Y260569D01*
X418951Y260584D01*
X418930Y260768D01*
X418911Y260952D01*
X418907Y260966D01*
X418905Y260981D01*
X418848Y261156D01*
X418793Y261333D01*
X418786Y261346D01*
X418781Y261361D01*
X418691Y261521D01*
X418602Y261684D01*
X418592Y261695D01*
X418584Y261708D01*
X418463Y261848D01*
X418344Y261989D01*
X418332Y261998D01*
X418322Y262010D01*
X418176Y262123D01*
X418031Y262237D01*
X418018Y262244D01*
X418006Y262253D01*
X417840Y262334D01*
X417675Y262418D01*
X417660Y262422D01*
X417647Y262429D01*
X417468Y262475D01*
X417290Y262525D01*
X417275Y262526D01*
X417260Y262529D01*
X417077Y262540D01*
X416892Y262553D01*
X416877Y262551D01*
X416862Y262551D01*
X416679Y262525D01*
X416496Y262501D01*
X416481Y262496D01*
X416466Y262494D01*
X416292Y262431D01*
X416118Y262371D01*
X416105Y262363D01*
X416091Y262358D01*
X415933Y262262D01*
X415773Y262169D01*
X415762Y262159D01*
X415749Y262151D01*
X415538Y261968D01*
X397522Y243951D01*
X353334Y243951D01*
X353288Y243947D01*
X353243Y243949D01*
X353090Y243927D01*
X352936Y243911D01*
X352893Y243898D01*
X352848Y243891D01*
X352702Y243839D01*
X352555Y243793D01*
X352515Y243772D01*
X352472Y243756D01*
X352340Y243676D01*
X352204Y243602D01*
X352169Y243572D01*
X352131Y243549D01*
X351920Y243366D01*
X336634Y228080D01*
X336606Y228045D01*
X336572Y228015D01*
X336480Y227891D01*
X336381Y227771D01*
X336360Y227731D01*
X336333Y227694D01*
X336267Y227554D01*
X336195Y227417D01*
X336182Y227374D01*
X336163Y227333D01*
X336126Y227183D01*
X336083Y227034D01*
X336079Y226989D01*
X336068Y226945D01*
X336049Y226666D01*
X336049Y183350D01*
X336053Y183305D01*
X336051Y183259D01*
X336073Y183106D01*
X336089Y182952D01*
X336102Y182909D01*
X336109Y182864D01*
X336161Y182719D01*
X336207Y182571D01*
X336228Y182531D01*
X336244Y182488D01*
X336324Y182356D01*
X336398Y182220D01*
X336428Y182186D01*
X336451Y182147D01*
X336634Y181936D01*
X343348Y175222D01*
X343383Y175194D01*
X343414Y175160D01*
X343538Y175068D01*
X343657Y174969D01*
X343698Y174948D01*
X343734Y174921D01*
X343874Y174855D01*
X344011Y174783D01*
X344054Y174770D01*
X344095Y174751D01*
X344246Y174714D01*
X344394Y174671D01*
X344439Y174667D01*
X344483Y174656D01*
X344762Y174637D01*
X470635Y174637D01*
X470680Y174641D01*
X470725Y174639D01*
X470878Y174661D01*
X471032Y174677D01*
X471075Y174690D01*
X471120Y174697D01*
X471266Y174749D01*
X471414Y174795D01*
X471453Y174816D01*
X471496Y174832D01*
X471628Y174912D01*
X471764Y174986D01*
X471799Y175016D01*
X471838Y175039D01*
X472048Y175222D01*
X473225Y176399D01*
X475083Y177169D01*
X477095Y177169D01*
X478954Y176399D01*
X480376Y174976D01*
X481146Y173118D01*
X481146Y171106D01*
X480376Y169248D01*
X478954Y167825D01*
X477095Y167055D01*
X477056Y167055D01*
X477026Y167052D01*
X476996Y167054D01*
X476827Y167032D01*
X476659Y167015D01*
X476630Y167006D01*
X476600Y167002D01*
X476439Y166947D01*
X476277Y166897D01*
X476250Y166883D01*
X476222Y166873D01*
X476076Y166787D01*
X475927Y166706D01*
X475903Y166686D01*
X475877Y166671D01*
X475751Y166558D01*
X475621Y166448D01*
X475602Y166425D01*
X475580Y166404D01*
X475479Y166268D01*
X475373Y166135D01*
X475359Y166108D01*
X475341Y166084D01*
X475269Y165931D01*
X475192Y165779D01*
X475184Y165750D01*
X475171Y165723D01*
X475131Y165557D01*
X475086Y165394D01*
X475083Y165364D01*
X475076Y165335D01*
X475057Y165056D01*
X475057Y164961D01*
X475040Y164907D01*
X475038Y164884D01*
X475032Y164862D01*
X475020Y164686D01*
X475004Y164509D01*
X475006Y164486D01*
X475004Y164464D01*
X475027Y164288D01*
X475046Y164112D01*
X475053Y164090D01*
X475056Y164068D01*
X475114Y163900D01*
X475167Y163731D01*
X475178Y163711D01*
X475186Y163690D01*
X475275Y163537D01*
X475362Y163382D01*
X475376Y163365D01*
X475388Y163345D01*
X475506Y163213D01*
X475621Y163079D01*
X475639Y163065D01*
X475654Y163048D01*
X475797Y162942D01*
X475936Y162833D01*
X475957Y162823D01*
X475975Y162809D01*
X476135Y162734D01*
X476294Y162655D01*
X476316Y162649D01*
X476336Y162639D01*
X476508Y162597D01*
X476679Y162551D01*
X476702Y162550D01*
X476724Y162544D01*
X477003Y162525D01*
X551046Y162525D01*
X557928Y155642D01*
X557963Y155614D01*
X557994Y155580D01*
X558118Y155488D01*
X558237Y155389D01*
X558278Y155368D01*
X558314Y155341D01*
X558454Y155275D01*
X558591Y155203D01*
X558634Y155190D01*
X558675Y155171D01*
X558826Y155134D01*
X558974Y155091D01*
X559019Y155087D01*
X559063Y155076D01*
X559342Y155057D01*
X561006Y155057D01*
X562864Y154287D01*
X564287Y152864D01*
X565057Y151006D01*
X565057Y148994D01*
X564287Y147136D01*
X562864Y145713D01*
X561006Y144943D01*
X558994Y144943D01*
X557136Y145713D01*
X555713Y147136D01*
X554943Y148994D01*
X554943Y150658D01*
X554939Y150703D01*
X554941Y150749D01*
X554919Y150902D01*
X554903Y151056D01*
X554890Y151099D01*
X554883Y151144D01*
X554831Y151289D01*
X554785Y151437D01*
X554764Y151477D01*
X554748Y151520D01*
X554668Y151652D01*
X554594Y151788D01*
X554564Y151822D01*
X554541Y151861D01*
X554358Y152072D01*
X549540Y156890D01*
X549505Y156918D01*
X549474Y156952D01*
X549350Y157044D01*
X549231Y157143D01*
X549190Y157164D01*
X549154Y157191D01*
X549014Y157257D01*
X548877Y157329D01*
X548834Y157342D01*
X548793Y157361D01*
X548642Y157398D01*
X548494Y157441D01*
X548449Y157445D01*
X548405Y157456D01*
X548126Y157475D01*
X467922Y157475D01*
X467907Y157474D01*
X467892Y157475D01*
X467708Y157454D01*
X467524Y157435D01*
X467510Y157431D01*
X467495Y157429D01*
X467319Y157372D01*
X467143Y157317D01*
X467130Y157310D01*
X467115Y157305D01*
X466955Y157215D01*
X466792Y157126D01*
X466781Y157116D01*
X466768Y157108D01*
X466628Y156987D01*
X466487Y156868D01*
X466478Y156856D01*
X466466Y156846D01*
X466354Y156700D01*
X466239Y156555D01*
X466232Y156542D01*
X466223Y156530D01*
X466142Y156364D01*
X466058Y156199D01*
X466054Y156184D01*
X466047Y156171D01*
X466001Y155993D01*
X465951Y155814D01*
X465950Y155799D01*
X465947Y155784D01*
X465936Y155601D01*
X465923Y155416D01*
X465925Y155401D01*
X465925Y155386D01*
X465951Y155203D01*
X465975Y155020D01*
X465980Y155005D01*
X465982Y154990D01*
X466045Y154817D01*
X466105Y154642D01*
X466113Y154629D01*
X466118Y154615D01*
X466213Y154457D01*
X466307Y154297D01*
X466317Y154286D01*
X466325Y154273D01*
X466508Y154062D01*
X467928Y152642D01*
X467963Y152614D01*
X467994Y152580D01*
X468118Y152487D01*
X468237Y152389D01*
X468278Y152368D01*
X468314Y152341D01*
X468454Y152275D01*
X468591Y152203D01*
X468634Y152190D01*
X468675Y152171D01*
X468826Y152134D01*
X468974Y152091D01*
X469019Y152087D01*
X469063Y152076D01*
X469342Y152057D01*
X471006Y152057D01*
X472864Y151287D01*
X474287Y149864D01*
X475057Y148006D01*
X475057Y145994D01*
X474287Y144136D01*
X472864Y142713D01*
X471006Y141943D01*
X468994Y141943D01*
X467136Y142713D01*
X465713Y144136D01*
X464943Y145994D01*
X464943Y147658D01*
X464939Y147703D01*
X464941Y147749D01*
X464919Y147902D01*
X464903Y148056D01*
X464890Y148099D01*
X464883Y148144D01*
X464831Y148289D01*
X464785Y148437D01*
X464764Y148477D01*
X464748Y148520D01*
X464668Y148652D01*
X464594Y148788D01*
X464564Y148822D01*
X464541Y148861D01*
X464358Y149072D01*
X460064Y153366D01*
X460029Y153394D01*
X459998Y153428D01*
X459874Y153520D01*
X459755Y153619D01*
X459714Y153640D01*
X459678Y153667D01*
X459538Y153733D01*
X459401Y153805D01*
X459358Y153818D01*
X459317Y153837D01*
X459166Y153874D01*
X459018Y153917D01*
X458973Y153921D01*
X458929Y153932D01*
X458650Y153951D01*
X292478Y153951D01*
X273475Y172954D01*
X273475Y244126D01*
X273471Y244171D01*
X273473Y244217D01*
X273451Y244370D01*
X273435Y244524D01*
X273422Y244567D01*
X273415Y244612D01*
X273363Y244757D01*
X273317Y244905D01*
X273296Y244945D01*
X273280Y244988D01*
X273200Y245120D01*
X273126Y245256D01*
X273096Y245290D01*
X273073Y245329D01*
X272890Y245540D01*
X270475Y247954D01*
X270475Y250545D01*
X270471Y250591D01*
X270473Y250636D01*
X270451Y250789D01*
X270435Y250943D01*
X270422Y250986D01*
X270415Y251031D01*
X270363Y251176D01*
X270317Y251324D01*
X270295Y251364D01*
X270280Y251407D01*
X270200Y251539D01*
X270126Y251675D01*
X270096Y251710D01*
X270073Y251748D01*
X269890Y251959D01*
X268713Y253136D01*
X267943Y254994D01*
X267943Y257006D01*
X268713Y258864D01*
X270136Y260287D01*
X271994Y261057D01*
X274006Y261057D01*
X275864Y260287D01*
X277287Y258864D01*
X277939Y257291D01*
X277957Y257258D01*
X277969Y257222D01*
X278051Y257082D01*
X278128Y256939D01*
X278152Y256910D01*
X278171Y256877D01*
X278279Y256757D01*
X278383Y256632D01*
X278412Y256608D01*
X278437Y256580D01*
X278567Y256483D01*
X278694Y256381D01*
X278728Y256364D01*
X278758Y256341D01*
X278904Y256272D01*
X279049Y256198D01*
X279085Y256187D01*
X279119Y256171D01*
X279277Y256133D01*
X279433Y256088D01*
X279470Y256085D01*
X279507Y256076D01*
X279786Y256057D01*
X281006Y256057D01*
X282864Y255287D01*
X284287Y253864D01*
X285057Y252006D01*
X285057Y249994D01*
X284287Y248136D01*
X283110Y246959D01*
X283082Y246924D01*
X283048Y246894D01*
X282956Y246770D01*
X282857Y246650D01*
X282836Y246610D01*
X282809Y246573D01*
X282743Y246433D01*
X282671Y246296D01*
X282658Y246253D01*
X282639Y246212D01*
X282602Y246062D01*
X282559Y245913D01*
X282555Y245868D01*
X282544Y245824D01*
X282525Y245545D01*
X282525Y176874D01*
X282529Y176829D01*
X282527Y176783D01*
X282549Y176630D01*
X282565Y176476D01*
X282578Y176433D01*
X282585Y176388D01*
X282637Y176243D01*
X282683Y176095D01*
X282704Y176055D01*
X282720Y176012D01*
X282800Y175880D01*
X282874Y175744D01*
X282904Y175710D01*
X282927Y175671D01*
X283110Y175460D01*
X295460Y163110D01*
X295495Y163082D01*
X295526Y163048D01*
X295650Y162956D01*
X295769Y162857D01*
X295810Y162836D01*
X295846Y162809D01*
X295986Y162743D01*
X296123Y162671D01*
X296166Y162658D01*
X296207Y162639D01*
X296358Y162602D01*
X296506Y162559D01*
X296551Y162555D01*
X296595Y162544D01*
X296874Y162525D01*
X339078Y162525D01*
X339093Y162526D01*
X339108Y162525D01*
X339292Y162546D01*
X339476Y162565D01*
X339490Y162569D01*
X339505Y162571D01*
X339680Y162628D01*
X339857Y162683D01*
X339870Y162690D01*
X339885Y162695D01*
X340045Y162785D01*
X340208Y162874D01*
X340219Y162884D01*
X340232Y162892D01*
X340372Y163013D01*
X340513Y163132D01*
X340522Y163144D01*
X340534Y163154D01*
X340647Y163300D01*
X340761Y163445D01*
X340768Y163458D01*
X340777Y163470D01*
X340858Y163636D01*
X340942Y163801D01*
X340946Y163816D01*
X340953Y163829D01*
X340999Y164008D01*
X341049Y164186D01*
X341050Y164201D01*
X341053Y164216D01*
X341064Y164399D01*
X341077Y164584D01*
X341075Y164599D01*
X341075Y164614D01*
X341049Y164797D01*
X341025Y164980D01*
X341020Y164995D01*
X341018Y165010D01*
X340955Y165184D01*
X340895Y165358D01*
X340887Y165371D01*
X340882Y165385D01*
X340786Y165543D01*
X340693Y165703D01*
X340683Y165714D01*
X340675Y165727D01*
X340492Y165938D01*
X329540Y176890D01*
X327475Y178954D01*
X327475Y231046D01*
X348954Y252525D01*
X383126Y252525D01*
X383171Y252529D01*
X383217Y252527D01*
X383370Y252549D01*
X383524Y252565D01*
X383567Y252578D01*
X383612Y252585D01*
X383757Y252637D01*
X383905Y252683D01*
X383945Y252704D01*
X383988Y252720D01*
X384120Y252800D01*
X384256Y252874D01*
X384290Y252904D01*
X384329Y252927D01*
X384540Y253110D01*
X389390Y257960D01*
X389418Y257995D01*
X389452Y258026D01*
X389544Y258150D01*
X389643Y258269D01*
X389664Y258310D01*
X389691Y258346D01*
X389757Y258486D01*
X389829Y258623D01*
X389842Y258666D01*
X389861Y258707D01*
X389898Y258858D01*
X389941Y259006D01*
X389945Y259051D01*
X389956Y259095D01*
X389975Y259374D01*
X389975Y275545D01*
X389971Y275591D01*
X389973Y275636D01*
X389951Y275789D01*
X389935Y275943D01*
X389922Y275986D01*
X389915Y276031D01*
X389863Y276177D01*
X389817Y276324D01*
X389796Y276364D01*
X389780Y276407D01*
X389700Y276539D01*
X389626Y276675D01*
X389596Y276710D01*
X389573Y276748D01*
X389390Y276959D01*
X388213Y278136D01*
X387443Y279994D01*
X387443Y282006D01*
X388213Y283864D01*
X389636Y285287D01*
X391494Y286057D01*
X393158Y286057D01*
X393203Y286061D01*
X393249Y286059D01*
X393402Y286081D01*
X393556Y286097D01*
X393599Y286110D01*
X393644Y286117D01*
X393789Y286169D01*
X393937Y286215D01*
X393977Y286236D01*
X394020Y286252D01*
X394152Y286332D01*
X394288Y286406D01*
X394322Y286436D01*
X394361Y286459D01*
X394572Y286642D01*
X400621Y292692D01*
X400635Y292709D01*
X400653Y292724D01*
X400762Y292864D01*
X400874Y293001D01*
X400884Y293021D01*
X400898Y293039D01*
X400978Y293198D01*
X401060Y293354D01*
X401067Y293376D01*
X401077Y293396D01*
X401123Y293567D01*
X401172Y293737D01*
X401174Y293760D01*
X401180Y293782D01*
X401191Y293959D01*
X401206Y294135D01*
X401204Y294158D01*
X401205Y294181D01*
X401181Y294356D01*
X401160Y294532D01*
X401153Y294554D01*
X401150Y294576D01*
X401092Y294744D01*
X401037Y294912D01*
X401025Y294932D01*
X401018Y294953D01*
X400927Y295105D01*
X400840Y295259D01*
X400825Y295277D01*
X400813Y295296D01*
X400695Y295427D01*
X400578Y295561D01*
X400560Y295575D01*
X400544Y295592D01*
X400402Y295696D01*
X400261Y295804D01*
X400241Y295814D01*
X400222Y295828D01*
X399972Y295952D01*
X398136Y296713D01*
X396713Y298136D01*
X395943Y299994D01*
X395943Y302006D01*
X396713Y303864D01*
X396863Y304015D01*
X396883Y304038D01*
X396905Y304058D01*
X397009Y304192D01*
X397116Y304324D01*
X397130Y304351D01*
X397149Y304375D01*
X397223Y304527D01*
X397302Y304677D01*
X397311Y304706D01*
X397324Y304733D01*
X397367Y304898D01*
X397415Y305060D01*
X397417Y305091D01*
X397425Y305120D01*
X397434Y305289D01*
X397449Y305458D01*
X397445Y305489D01*
X397447Y305519D01*
X397422Y305687D01*
X397403Y305855D01*
X397393Y305884D01*
X397389Y305914D01*
X397331Y306074D01*
X397279Y306235D01*
X397264Y306261D01*
X397254Y306290D01*
X397166Y306435D01*
X397082Y306582D01*
X397062Y306605D01*
X397046Y306631D01*
X396863Y306842D01*
X396859Y306846D01*
X396089Y308705D01*
X396089Y310716D01*
X396859Y312575D01*
X398282Y313997D01*
X399919Y314676D01*
X399952Y314694D01*
X399988Y314706D01*
X400128Y314788D01*
X400271Y314865D01*
X400300Y314889D01*
X400333Y314908D01*
X400453Y315016D01*
X400578Y315120D01*
X400602Y315149D01*
X400630Y315174D01*
X400727Y315304D01*
X400829Y315431D01*
X400846Y315465D01*
X400869Y315495D01*
X400938Y315641D01*
X401012Y315786D01*
X401023Y315822D01*
X401039Y315856D01*
X401077Y316014D01*
X401122Y316170D01*
X401125Y316207D01*
X401134Y316244D01*
X401153Y316523D01*
X401153Y364514D01*
X401152Y364529D01*
X401153Y364544D01*
X401132Y364726D01*
X401113Y364911D01*
X401109Y364925D01*
X401107Y364940D01*
X401050Y365116D01*
X400995Y365293D01*
X400988Y365306D01*
X400983Y365320D01*
X400892Y365481D01*
X400804Y365643D01*
X400794Y365655D01*
X400786Y365668D01*
X400665Y365808D01*
X400546Y365948D01*
X400534Y365958D01*
X400524Y365969D01*
X400378Y366082D01*
X400233Y366196D01*
X400220Y366203D01*
X400208Y366213D01*
X400042Y366294D01*
X399877Y366377D01*
X399863Y366381D01*
X399849Y366388D01*
X399669Y366435D01*
X399492Y366484D01*
X399477Y366485D01*
X399462Y366489D01*
X399278Y366499D01*
X399094Y366512D01*
X399079Y366510D01*
X399064Y366511D01*
X398882Y366484D01*
X398698Y366460D01*
X398683Y366455D01*
X398668Y366453D01*
X398495Y366391D01*
X398320Y366330D01*
X398307Y366323D01*
X398292Y366318D01*
X398134Y366222D01*
X397975Y366128D01*
X397964Y366118D01*
X397951Y366110D01*
X397740Y365927D01*
X397130Y365316D01*
X395099Y364475D01*
X392901Y364475D01*
X390870Y365316D01*
X377297Y378890D01*
X377262Y378918D01*
X377232Y378952D01*
X377108Y379044D01*
X376988Y379143D01*
X376948Y379164D01*
X376911Y379191D01*
X376771Y379257D01*
X376635Y379329D01*
X376591Y379342D01*
X376550Y379361D01*
X376400Y379398D01*
X376251Y379441D01*
X376206Y379445D01*
X376162Y379456D01*
X375883Y379475D01*
X199617Y379475D01*
X199571Y379471D01*
X199526Y379473D01*
X199373Y379451D01*
X199219Y379435D01*
X199176Y379422D01*
X199131Y379415D01*
X198985Y379363D01*
X198838Y379317D01*
X198798Y379296D01*
X198755Y379280D01*
X198623Y379200D01*
X198487Y379126D01*
X198452Y379096D01*
X198414Y379073D01*
X198203Y378890D01*
X148610Y329297D01*
X148582Y329262D01*
X148548Y329232D01*
X148456Y329108D01*
X148357Y328988D01*
X148336Y328948D01*
X148309Y328911D01*
X148243Y328771D01*
X148171Y328635D01*
X148158Y328591D01*
X148139Y328550D01*
X148102Y328400D01*
X148059Y328251D01*
X148055Y328206D01*
X148044Y328162D01*
X148025Y327883D01*
X148025Y130617D01*
X148029Y130571D01*
X148027Y130526D01*
X148049Y130373D01*
X148065Y130219D01*
X148078Y130176D01*
X148085Y130131D01*
X148137Y129985D01*
X148183Y129838D01*
X148204Y129798D01*
X148220Y129755D01*
X148300Y129623D01*
X148374Y129487D01*
X148404Y129452D01*
X148427Y129414D01*
X148610Y129203D01*
X156703Y121110D01*
X156738Y121082D01*
X156768Y121048D01*
X156892Y120956D01*
X157012Y120857D01*
X157052Y120836D01*
X157089Y120809D01*
X157229Y120743D01*
X157365Y120671D01*
X157409Y120658D01*
X157450Y120639D01*
X157600Y120602D01*
X157749Y120559D01*
X157794Y120555D01*
X157838Y120544D01*
X158117Y120525D01*
X641883Y120525D01*
X641929Y120529D01*
X641974Y120527D01*
X642127Y120549D01*
X642281Y120565D01*
X642324Y120578D01*
X642369Y120585D01*
X642515Y120637D01*
X642662Y120683D01*
X642702Y120704D01*
X642745Y120720D01*
X642877Y120800D01*
X643013Y120874D01*
X643048Y120904D01*
X643086Y120927D01*
X643297Y121110D01*
X668890Y146703D01*
X668918Y146738D01*
X668952Y146768D01*
X669044Y146892D01*
X669143Y147012D01*
X669164Y147052D01*
X669191Y147089D01*
X669257Y147228D01*
X669329Y147365D01*
X669342Y147409D01*
X669361Y147450D01*
X669398Y147600D01*
X669441Y147749D01*
X669445Y147794D01*
X669456Y147838D01*
X669475Y148117D01*
X669475Y184364D01*
X669472Y184394D01*
X669474Y184424D01*
X669452Y184593D01*
X669435Y184761D01*
X669426Y184790D01*
X669422Y184820D01*
X669367Y184981D01*
X669317Y185143D01*
X669303Y185170D01*
X669293Y185198D01*
X669207Y185344D01*
X669126Y185493D01*
X669106Y185517D01*
X669091Y185543D01*
X668978Y185669D01*
X668868Y185799D01*
X668845Y185818D01*
X668824Y185840D01*
X668688Y185941D01*
X668555Y186047D01*
X668528Y186061D01*
X668504Y186079D01*
X668351Y186151D01*
X668199Y186228D01*
X668170Y186236D01*
X668143Y186249D01*
X667977Y186289D01*
X667814Y186334D01*
X667784Y186337D01*
X667755Y186344D01*
X667476Y186363D01*
X667256Y186363D01*
X666363Y187256D01*
X666363Y202744D01*
X667256Y203637D01*
X669814Y203637D01*
X669821Y203637D01*
X669829Y203637D01*
X670020Y203657D01*
X670211Y203677D01*
X670218Y203679D01*
X670226Y203680D01*
X670409Y203738D01*
X670593Y203795D01*
X670599Y203798D01*
X670607Y203801D01*
X670773Y203893D01*
X670943Y203986D01*
X670949Y203991D01*
X670956Y203995D01*
X671102Y204120D01*
X671248Y204244D01*
X671253Y204250D01*
X671259Y204255D01*
X671377Y204406D01*
X671497Y204557D01*
X671500Y204564D01*
X671505Y204570D01*
X671590Y204741D01*
X671678Y204913D01*
X671680Y204920D01*
X671683Y204927D01*
X671733Y205115D01*
X671784Y205298D01*
X671785Y205305D01*
X671787Y205313D01*
X671799Y205505D01*
X671812Y205696D01*
X671811Y205704D01*
X671811Y205711D01*
X671785Y205900D01*
X671760Y206092D01*
X671758Y206100D01*
X671757Y206107D01*
X671693Y206288D01*
X671631Y206470D01*
X671627Y206477D01*
X671624Y206484D01*
X671525Y206650D01*
X671428Y206815D01*
X671423Y206820D01*
X671419Y206827D01*
X671290Y206969D01*
X671162Y207112D01*
X671156Y207117D01*
X671151Y207122D01*
X670996Y207236D01*
X670842Y207351D01*
X670835Y207354D01*
X670829Y207358D01*
X670579Y207483D01*
X670108Y207678D01*
X667678Y210108D01*
X666363Y213282D01*
X666363Y216718D01*
X667678Y219892D01*
X670108Y222322D01*
X673282Y223637D01*
X676718Y223637D01*
X679892Y222322D01*
X680062Y222152D01*
X680074Y222142D01*
X680084Y222131D01*
X680229Y222016D01*
X680372Y221899D01*
X680385Y221892D01*
X680397Y221883D01*
X680562Y221799D01*
X680725Y221713D01*
X680739Y221709D01*
X680753Y221702D01*
X680930Y221653D01*
X681108Y221600D01*
X681123Y221599D01*
X681138Y221595D01*
X681321Y221582D01*
X681506Y221566D01*
X681521Y221568D01*
X681536Y221567D01*
X681719Y221591D01*
X681903Y221612D01*
X681917Y221617D01*
X681932Y221619D01*
X682107Y221679D01*
X682283Y221736D01*
X682296Y221744D01*
X682310Y221749D01*
X682469Y221842D01*
X682630Y221933D01*
X682642Y221943D01*
X682655Y221951D01*
X682792Y222074D01*
X682932Y222195D01*
X682941Y222207D01*
X682952Y222217D01*
X683062Y222365D01*
X683175Y222512D01*
X683182Y222526D01*
X683191Y222538D01*
X683269Y222704D01*
X683351Y222871D01*
X683354Y222885D01*
X683361Y222899D01*
X683405Y223079D01*
X683451Y223257D01*
X683452Y223272D01*
X683456Y223287D01*
X683475Y223566D01*
X683475Y239298D01*
X683471Y239343D01*
X683473Y239388D01*
X683451Y239541D01*
X683435Y239695D01*
X683422Y239738D01*
X683415Y239783D01*
X683363Y239929D01*
X683317Y240077D01*
X683296Y240116D01*
X683280Y240159D01*
X683200Y240291D01*
X683126Y240427D01*
X683096Y240462D01*
X683073Y240501D01*
X682890Y240711D01*
X671164Y252437D01*
X670475Y254100D01*
X670475Y269364D01*
X670472Y269394D01*
X670474Y269424D01*
X670452Y269593D01*
X670435Y269761D01*
X670426Y269790D01*
X670422Y269820D01*
X670367Y269981D01*
X670317Y270143D01*
X670303Y270170D01*
X670293Y270198D01*
X670207Y270344D01*
X670126Y270493D01*
X670106Y270517D01*
X670091Y270543D01*
X669978Y270669D01*
X669868Y270799D01*
X669845Y270818D01*
X669824Y270840D01*
X669688Y270941D01*
X669555Y271047D01*
X669528Y271061D01*
X669504Y271079D01*
X669351Y271151D01*
X669199Y271228D01*
X669170Y271236D01*
X669143Y271249D01*
X668977Y271289D01*
X668814Y271334D01*
X668784Y271337D01*
X668755Y271344D01*
X668476Y271363D01*
X667256Y271363D01*
X666363Y272256D01*
X666363Y287744D01*
X667256Y288637D01*
X669814Y288637D01*
X669821Y288637D01*
X669829Y288637D01*
X670020Y288657D01*
X670211Y288677D01*
X670218Y288679D01*
X670226Y288680D01*
X670408Y288737D01*
X670593Y288795D01*
X670599Y288798D01*
X670607Y288801D01*
X670771Y288892D01*
X670943Y288986D01*
X670949Y288991D01*
X670956Y288995D01*
X671100Y289118D01*
X671248Y289244D01*
X671253Y289250D01*
X671259Y289255D01*
X671377Y289406D01*
X671497Y289557D01*
X671500Y289564D01*
X671505Y289570D01*
X671590Y289741D01*
X671678Y289913D01*
X671680Y289920D01*
X671683Y289927D01*
X671732Y290111D01*
X671784Y290298D01*
X671785Y290305D01*
X671787Y290313D01*
X671798Y290503D01*
X671812Y290696D01*
X671811Y290704D01*
X671811Y290711D01*
X671785Y290901D01*
X671760Y291092D01*
X671758Y291099D01*
X671757Y291107D01*
X671693Y291289D01*
X671631Y291470D01*
X671627Y291477D01*
X671624Y291484D01*
X671526Y291648D01*
X671428Y291815D01*
X671423Y291820D01*
X671419Y291827D01*
X671290Y291970D01*
X671162Y292112D01*
X671156Y292117D01*
X671151Y292122D01*
X670994Y292237D01*
X670842Y292351D01*
X670835Y292354D01*
X670829Y292358D01*
X670579Y292483D01*
X670108Y292678D01*
X667678Y295108D01*
X666363Y298282D01*
X666363Y301718D01*
X667678Y304892D01*
X670108Y307322D01*
X673282Y308637D01*
X676718Y308637D01*
X679892Y307322D01*
X680062Y307152D01*
X680074Y307142D01*
X680084Y307131D01*
X680229Y307016D01*
X680372Y306899D01*
X680385Y306892D01*
X680397Y306883D01*
X680562Y306799D01*
X680725Y306713D01*
X680739Y306709D01*
X680753Y306702D01*
X680930Y306653D01*
X681108Y306600D01*
X681123Y306599D01*
X681138Y306595D01*
X681321Y306582D01*
X681506Y306566D01*
X681521Y306568D01*
X681536Y306567D01*
X681719Y306591D01*
X681903Y306612D01*
X681917Y306617D01*
X681932Y306619D01*
X682107Y306679D01*
X682283Y306736D01*
X682296Y306744D01*
X682310Y306749D01*
X682469Y306842D01*
X682630Y306933D01*
X682642Y306943D01*
X682655Y306951D01*
X682792Y307074D01*
X682932Y307195D01*
X682941Y307207D01*
X682952Y307217D01*
X683062Y307365D01*
X683175Y307512D01*
X683182Y307526D01*
X683191Y307538D01*
X683269Y307704D01*
X683351Y307871D01*
X683354Y307885D01*
X683361Y307899D01*
X683405Y308079D01*
X683451Y308257D01*
X683452Y308272D01*
X683456Y308287D01*
X683475Y308566D01*
X683475Y324298D01*
X683471Y324343D01*
X683473Y324388D01*
X683451Y324541D01*
X683435Y324695D01*
X683422Y324738D01*
X683415Y324783D01*
X683363Y324929D01*
X683317Y325077D01*
X683296Y325116D01*
X683280Y325159D01*
X683200Y325291D01*
X683126Y325427D01*
X683096Y325462D01*
X683073Y325501D01*
X682890Y325711D01*
X671164Y337437D01*
X670475Y339100D01*
X670475Y354364D01*
X670472Y354394D01*
X670474Y354424D01*
X670452Y354593D01*
X670435Y354761D01*
X670426Y354790D01*
X670422Y354820D01*
X670367Y354981D01*
X670317Y355143D01*
X670303Y355170D01*
X670293Y355198D01*
X670207Y355344D01*
X670126Y355493D01*
X670106Y355517D01*
X670091Y355543D01*
X669978Y355669D01*
X669868Y355799D01*
X669845Y355818D01*
X669824Y355840D01*
X669688Y355941D01*
X669555Y356047D01*
X669528Y356061D01*
X669504Y356079D01*
X669351Y356151D01*
X669199Y356228D01*
X669170Y356236D01*
X669143Y356249D01*
X668977Y356289D01*
X668814Y356334D01*
X668784Y356337D01*
X668755Y356344D01*
X668476Y356363D01*
X667256Y356363D01*
X666363Y357256D01*
X666363Y372744D01*
X667256Y373637D01*
X669814Y373637D01*
X669821Y373637D01*
X669829Y373637D01*
X670020Y373657D01*
X670211Y373677D01*
X670218Y373679D01*
X670226Y373680D01*
X670408Y373737D01*
X670593Y373795D01*
X670599Y373798D01*
X670607Y373801D01*
X670771Y373892D01*
X670943Y373986D01*
X670949Y373991D01*
X670956Y373995D01*
X671100Y374118D01*
X671248Y374244D01*
X671253Y374250D01*
X671259Y374255D01*
X671377Y374406D01*
X671497Y374557D01*
X671500Y374564D01*
X671505Y374570D01*
X671590Y374741D01*
X671678Y374913D01*
X671680Y374920D01*
X671683Y374927D01*
X671733Y375112D01*
X671784Y375298D01*
X671785Y375305D01*
X671787Y375313D01*
X671798Y375503D01*
X671812Y375696D01*
X671811Y375704D01*
X671811Y375711D01*
X671785Y375902D01*
X671760Y376092D01*
X671758Y376099D01*
X671757Y376107D01*
X671693Y376289D01*
X671631Y376470D01*
X671627Y376477D01*
X671624Y376484D01*
X671526Y376648D01*
X671428Y376815D01*
X671423Y376820D01*
X671419Y376827D01*
X671290Y376970D01*
X671162Y377112D01*
X671156Y377117D01*
X671151Y377122D01*
X670994Y377237D01*
X670842Y377351D01*
X670835Y377354D01*
X670829Y377358D01*
X670579Y377483D01*
X670108Y377678D01*
X667678Y380108D01*
X666363Y383282D01*
X666363Y386718D01*
X667678Y389892D01*
X670108Y392322D01*
X673282Y393637D01*
X676718Y393637D01*
X679892Y392322D01*
X682322Y389892D01*
X683637Y386718D01*
X683637Y383282D01*
X682322Y380108D01*
X679892Y377678D01*
X679421Y377483D01*
X679415Y377479D01*
X679407Y377477D01*
X679238Y377385D01*
X679069Y377294D01*
X679064Y377289D01*
X679057Y377286D01*
X678910Y377162D01*
X678762Y377039D01*
X678757Y377033D01*
X678752Y377028D01*
X678633Y376878D01*
X678512Y376728D01*
X678508Y376721D01*
X678503Y376715D01*
X678416Y376544D01*
X678328Y376373D01*
X678326Y376366D01*
X678322Y376359D01*
X678272Y376176D01*
X678219Y375989D01*
X678218Y375981D01*
X678216Y375974D01*
X678203Y375785D01*
X678188Y375591D01*
X678189Y375583D01*
X678188Y375576D01*
X678213Y375386D01*
X678237Y375194D01*
X678239Y375187D01*
X678240Y375180D01*
X678302Y374997D01*
X678363Y374816D01*
X678367Y374809D01*
X678369Y374802D01*
X678468Y374635D01*
X678563Y374470D01*
X678568Y374464D01*
X678572Y374457D01*
X678701Y374313D01*
X678827Y374170D01*
X678833Y374165D01*
X678838Y374160D01*
X678994Y374044D01*
X679146Y373929D01*
X679152Y373926D01*
X679158Y373921D01*
X679332Y373839D01*
X679506Y373756D01*
X679513Y373754D01*
X679520Y373751D01*
X679705Y373706D01*
X679893Y373658D01*
X679901Y373658D01*
X679908Y373656D01*
X680186Y373637D01*
X682744Y373637D01*
X683637Y372744D01*
X683637Y357256D01*
X682744Y356363D01*
X681524Y356363D01*
X681494Y356360D01*
X681464Y356362D01*
X681295Y356340D01*
X681127Y356323D01*
X681098Y356314D01*
X681068Y356310D01*
X680907Y356255D01*
X680745Y356205D01*
X680718Y356191D01*
X680690Y356181D01*
X680544Y356095D01*
X680395Y356014D01*
X680371Y355994D01*
X680345Y355979D01*
X680219Y355866D01*
X680089Y355756D01*
X680070Y355733D01*
X680048Y355712D01*
X679947Y355576D01*
X679841Y355443D01*
X679827Y355416D01*
X679809Y355392D01*
X679737Y355239D01*
X679660Y355087D01*
X679652Y355058D01*
X679639Y355031D01*
X679599Y354865D01*
X679554Y354702D01*
X679551Y354672D01*
X679544Y354643D01*
X679525Y354364D01*
X679525Y342702D01*
X679529Y342657D01*
X679527Y342612D01*
X679549Y342459D01*
X679565Y342305D01*
X679578Y342262D01*
X679585Y342217D01*
X679637Y342071D01*
X679683Y341923D01*
X679704Y341884D01*
X679720Y341841D01*
X679800Y341709D01*
X679874Y341573D01*
X679904Y341538D01*
X679927Y341499D01*
X680110Y341289D01*
X691836Y329563D01*
X692525Y327900D01*
X692525Y292100D01*
X691836Y290437D01*
X684222Y282823D01*
X684194Y282788D01*
X684160Y282758D01*
X684068Y282634D01*
X683969Y282514D01*
X683948Y282474D01*
X683921Y282438D01*
X683855Y282298D01*
X683783Y282161D01*
X683770Y282117D01*
X683751Y282076D01*
X683714Y281926D01*
X683671Y281777D01*
X683667Y281732D01*
X683656Y281688D01*
X683637Y281410D01*
X683637Y272256D01*
X682744Y271363D01*
X681524Y271363D01*
X681494Y271360D01*
X681464Y271362D01*
X681295Y271340D01*
X681127Y271323D01*
X681098Y271314D01*
X681068Y271310D01*
X680907Y271255D01*
X680745Y271205D01*
X680718Y271191D01*
X680690Y271181D01*
X680544Y271095D01*
X680395Y271014D01*
X680371Y270994D01*
X680345Y270979D01*
X680219Y270866D01*
X680089Y270756D01*
X680070Y270733D01*
X680048Y270712D01*
X679947Y270576D01*
X679841Y270443D01*
X679827Y270416D01*
X679809Y270392D01*
X679737Y270239D01*
X679660Y270087D01*
X679652Y270058D01*
X679639Y270031D01*
X679599Y269865D01*
X679554Y269702D01*
X679551Y269672D01*
X679544Y269643D01*
X679525Y269364D01*
X679525Y257702D01*
X679529Y257657D01*
X679527Y257612D01*
X679549Y257459D01*
X679565Y257305D01*
X679578Y257262D01*
X679585Y257217D01*
X679637Y257071D01*
X679683Y256923D01*
X679704Y256884D01*
X679720Y256841D01*
X679800Y256709D01*
X679874Y256573D01*
X679904Y256538D01*
X679927Y256499D01*
X680110Y256289D01*
X691836Y244563D01*
X692525Y242900D01*
X692525Y207100D01*
X691836Y205437D01*
X690282Y203883D01*
X684222Y197823D01*
X684194Y197788D01*
X684160Y197758D01*
X684068Y197634D01*
X683969Y197514D01*
X683948Y197474D01*
X683921Y197438D01*
X683855Y197298D01*
X683783Y197161D01*
X683770Y197117D01*
X683751Y197076D01*
X683714Y196926D01*
X683671Y196777D01*
X683667Y196732D01*
X683656Y196688D01*
X683637Y196410D01*
X683637Y187256D01*
X682744Y186363D01*
X682524Y186363D01*
X682494Y186360D01*
X682464Y186362D01*
X682295Y186340D01*
X682127Y186323D01*
X682098Y186314D01*
X682068Y186310D01*
X681907Y186255D01*
X681745Y186205D01*
X681718Y186191D01*
X681690Y186181D01*
X681544Y186095D01*
X681395Y186014D01*
X681371Y185994D01*
X681345Y185979D01*
X681219Y185866D01*
X681089Y185756D01*
X681070Y185733D01*
X681048Y185712D01*
X680947Y185576D01*
X680841Y185443D01*
X680827Y185416D01*
X680809Y185392D01*
X680737Y185238D01*
X680660Y185087D01*
X680652Y185058D01*
X680639Y185031D01*
X680599Y184865D01*
X680554Y184702D01*
X680551Y184672D01*
X680544Y184643D01*
X680525Y184364D01*
X680525Y143901D01*
X679684Y141870D01*
X677849Y140035D01*
X677848Y140035D01*
X649965Y112152D01*
X648130Y110316D01*
X646099Y109475D01*
X153901Y109475D01*
X151983Y110270D01*
X151976Y110272D01*
X151969Y110276D01*
X151784Y110330D01*
X151600Y110385D01*
X151593Y110386D01*
X151586Y110388D01*
X151393Y110404D01*
X151203Y110422D01*
X151195Y110421D01*
X151188Y110422D01*
X150997Y110400D01*
X150806Y110379D01*
X150798Y110377D01*
X150791Y110376D01*
X150609Y110317D01*
X150425Y110258D01*
X150418Y110254D01*
X150411Y110252D01*
X150245Y110158D01*
X150076Y110064D01*
X150070Y110059D01*
X150064Y110055D01*
X149920Y109930D01*
X149772Y109804D01*
X149768Y109798D01*
X149762Y109793D01*
X149645Y109641D01*
X149527Y109489D01*
X149523Y109482D01*
X149519Y109476D01*
X149435Y109306D01*
X149348Y109132D01*
X149346Y109124D01*
X149343Y109118D01*
X149295Y108934D01*
X149245Y108746D01*
X149244Y108738D01*
X149242Y108731D01*
X149232Y108542D01*
X149220Y108347D01*
X149221Y108340D01*
X149221Y108332D01*
X149248Y108143D01*
X149275Y107952D01*
X149277Y107945D01*
X149278Y107937D01*
X149344Y107754D01*
X149407Y107575D01*
X149411Y107568D01*
X149414Y107561D01*
X149514Y107395D01*
X149612Y107232D01*
X149617Y107226D01*
X149621Y107220D01*
X149804Y107009D01*
X167848Y88965D01*
X169684Y87130D01*
X170525Y85099D01*
X170525Y38117D01*
X170529Y38071D01*
X170527Y38026D01*
X170549Y37873D01*
X170565Y37719D01*
X170578Y37676D01*
X170585Y37631D01*
X170637Y37485D01*
X170683Y37338D01*
X170704Y37298D01*
X170720Y37255D01*
X170800Y37123D01*
X170874Y36987D01*
X170904Y36952D01*
X170927Y36914D01*
X171110Y36703D01*
X176703Y31110D01*
X176738Y31082D01*
X176768Y31048D01*
X176892Y30956D01*
X177012Y30857D01*
X177052Y30836D01*
X177089Y30809D01*
X177229Y30743D01*
X177365Y30671D01*
X177409Y30658D01*
X177450Y30639D01*
X177600Y30602D01*
X177749Y30559D01*
X177794Y30555D01*
X177838Y30544D01*
X178117Y30525D01*
X287476Y30525D01*
X287506Y30528D01*
X287536Y30526D01*
X287705Y30548D01*
X287873Y30565D01*
X287902Y30574D01*
X287932Y30578D01*
X288093Y30633D01*
X288255Y30683D01*
X288282Y30697D01*
X288310Y30707D01*
X288456Y30793D01*
X288605Y30874D01*
X288629Y30894D01*
X288655Y30909D01*
X288781Y31022D01*
X288911Y31132D01*
X288930Y31155D01*
X288952Y31176D01*
X289053Y31312D01*
X289159Y31445D01*
X289173Y31472D01*
X289191Y31496D01*
X289263Y31649D01*
X289340Y31801D01*
X289348Y31830D01*
X289361Y31857D01*
X289401Y32023D01*
X289446Y32186D01*
X289449Y32216D01*
X289456Y32245D01*
X289475Y32524D01*
X289475Y45370D01*
X289471Y45416D01*
X289473Y45461D01*
X289451Y45614D01*
X289435Y45768D01*
X289422Y45811D01*
X289415Y45856D01*
X289363Y46002D01*
X289317Y46149D01*
X289296Y46189D01*
X289280Y46232D01*
X289200Y46364D01*
X289126Y46500D01*
X289096Y46535D01*
X289073Y46573D01*
X288890Y46784D01*
X287678Y47996D01*
X286363Y51170D01*
X286363Y68830D01*
X287678Y72004D01*
X290108Y74434D01*
X293282Y75749D01*
X296718Y75749D01*
X299892Y74434D01*
X302322Y72004D01*
X303153Y69998D01*
X303160Y69984D01*
X303165Y69970D01*
X303254Y69809D01*
X303342Y69646D01*
X303352Y69634D01*
X303359Y69621D01*
X303479Y69481D01*
X303597Y69339D01*
X303609Y69329D01*
X303619Y69318D01*
X303764Y69204D01*
X303908Y69088D01*
X303922Y69081D01*
X303934Y69072D01*
X304099Y68989D01*
X304263Y68905D01*
X304277Y68900D01*
X304291Y68894D01*
X304469Y68846D01*
X304647Y68795D01*
X304662Y68794D01*
X304677Y68790D01*
X304860Y68779D01*
X305045Y68764D01*
X305060Y68766D01*
X305075Y68765D01*
X305257Y68790D01*
X305442Y68813D01*
X305456Y68818D01*
X305471Y68820D01*
X305645Y68881D01*
X305820Y68940D01*
X305833Y68947D01*
X305848Y68952D01*
X306007Y69047D01*
X306166Y69139D01*
X306178Y69149D01*
X306191Y69157D01*
X306327Y69281D01*
X306466Y69404D01*
X306475Y69416D01*
X306486Y69426D01*
X306596Y69575D01*
X306707Y69722D01*
X306713Y69736D01*
X306722Y69748D01*
X306847Y69998D01*
X307678Y72004D01*
X310108Y74434D01*
X313282Y75749D01*
X316718Y75749D01*
X319892Y74434D01*
X322322Y72004D01*
X323637Y68830D01*
X323637Y51170D01*
X322322Y47996D01*
X319892Y45566D01*
X316718Y44251D01*
X313282Y44251D01*
X310108Y45566D01*
X307678Y47996D01*
X306847Y50002D01*
X306840Y50015D01*
X306835Y50030D01*
X306745Y50192D01*
X306658Y50354D01*
X306648Y50366D01*
X306641Y50379D01*
X306521Y50519D01*
X306403Y50661D01*
X306391Y50671D01*
X306381Y50682D01*
X306236Y50796D01*
X306092Y50912D01*
X306078Y50919D01*
X306066Y50928D01*
X305902Y51010D01*
X305737Y51095D01*
X305722Y51100D01*
X305709Y51106D01*
X305532Y51154D01*
X305353Y51205D01*
X305338Y51206D01*
X305323Y51210D01*
X305140Y51221D01*
X304955Y51236D01*
X304940Y51234D01*
X304925Y51235D01*
X304742Y51210D01*
X304558Y51187D01*
X304544Y51182D01*
X304529Y51180D01*
X304354Y51118D01*
X304180Y51060D01*
X304166Y51053D01*
X304152Y51048D01*
X303993Y50952D01*
X303833Y50861D01*
X303822Y50851D01*
X303809Y50843D01*
X303672Y50718D01*
X303534Y50596D01*
X303525Y50584D01*
X303514Y50574D01*
X303404Y50425D01*
X303293Y50278D01*
X303286Y50264D01*
X303278Y50252D01*
X303153Y50002D01*
X302322Y47996D01*
X301110Y46784D01*
X301082Y46749D01*
X301048Y46719D01*
X300956Y46595D01*
X300857Y46475D01*
X300836Y46435D01*
X300809Y46398D01*
X300743Y46258D01*
X300671Y46122D01*
X300658Y46078D01*
X300639Y46037D01*
X300602Y45887D01*
X300559Y45738D01*
X300555Y45693D01*
X300544Y45649D01*
X300525Y45370D01*
X300525Y32524D01*
X300528Y32494D01*
X300526Y32464D01*
X300548Y32295D01*
X300565Y32127D01*
X300574Y32098D01*
X300578Y32068D01*
X300633Y31907D01*
X300683Y31745D01*
X300697Y31718D01*
X300707Y31690D01*
X300793Y31544D01*
X300874Y31395D01*
X300894Y31371D01*
X300909Y31345D01*
X301022Y31219D01*
X301132Y31089D01*
X301155Y31070D01*
X301176Y31048D01*
X301312Y30947D01*
X301445Y30841D01*
X301472Y30827D01*
X301496Y30809D01*
X301649Y30737D01*
X301801Y30660D01*
X301830Y30652D01*
X301857Y30639D01*
X302023Y30599D01*
X302186Y30554D01*
X302216Y30551D01*
X302245Y30544D01*
X302524Y30525D01*
X377476Y30525D01*
X377506Y30528D01*
X377536Y30526D01*
X377705Y30548D01*
X377873Y30565D01*
X377902Y30574D01*
X377932Y30578D01*
X378093Y30633D01*
X378255Y30683D01*
X378282Y30697D01*
X378310Y30707D01*
X378456Y30793D01*
X378605Y30874D01*
X378629Y30894D01*
X378655Y30909D01*
X378781Y31022D01*
X378911Y31132D01*
X378930Y31155D01*
X378952Y31176D01*
X379053Y31312D01*
X379159Y31445D01*
X379173Y31472D01*
X379191Y31496D01*
X379263Y31649D01*
X379340Y31801D01*
X379348Y31830D01*
X379361Y31857D01*
X379401Y32023D01*
X379446Y32186D01*
X379449Y32216D01*
X379456Y32245D01*
X379475Y32524D01*
X379475Y45370D01*
X379471Y45416D01*
X379473Y45461D01*
X379451Y45614D01*
X379435Y45768D01*
X379422Y45811D01*
X379415Y45856D01*
X379363Y46001D01*
X379317Y46149D01*
X379295Y46189D01*
X379280Y46232D01*
X379200Y46364D01*
X379126Y46500D01*
X379096Y46535D01*
X379073Y46573D01*
X378890Y46784D01*
X377678Y47996D01*
X376363Y51170D01*
X376363Y68830D01*
X377678Y72004D01*
X380108Y74434D01*
X383282Y75749D01*
X386718Y75749D01*
X389892Y74434D01*
X392322Y72004D01*
X393153Y69998D01*
X393160Y69984D01*
X393165Y69970D01*
X393254Y69809D01*
X393342Y69646D01*
X393352Y69634D01*
X393359Y69621D01*
X393479Y69481D01*
X393597Y69339D01*
X393609Y69329D01*
X393619Y69318D01*
X393764Y69204D01*
X393908Y69088D01*
X393922Y69081D01*
X393934Y69072D01*
X394099Y68989D01*
X394263Y68905D01*
X394277Y68900D01*
X394291Y68894D01*
X394469Y68846D01*
X394647Y68795D01*
X394662Y68794D01*
X394677Y68790D01*
X394860Y68779D01*
X395045Y68764D01*
X395060Y68766D01*
X395075Y68765D01*
X395257Y68790D01*
X395442Y68813D01*
X395456Y68818D01*
X395471Y68820D01*
X395645Y68881D01*
X395820Y68940D01*
X395833Y68947D01*
X395848Y68952D01*
X396007Y69047D01*
X396166Y69139D01*
X396178Y69149D01*
X396191Y69157D01*
X396327Y69281D01*
X396466Y69404D01*
X396475Y69416D01*
X396486Y69426D01*
X396596Y69575D01*
X396707Y69722D01*
X396713Y69736D01*
X396722Y69748D01*
X396847Y69998D01*
X397678Y72004D01*
X400108Y74434D01*
X403282Y75749D01*
X406718Y75749D01*
X409892Y74434D01*
X412322Y72004D01*
X413637Y68830D01*
X413637Y51170D01*
X412322Y47996D01*
X409892Y45566D01*
X406718Y44251D01*
X403282Y44251D01*
X400108Y45566D01*
X397678Y47996D01*
X396847Y50002D01*
X396840Y50015D01*
X396835Y50030D01*
X396745Y50192D01*
X396658Y50354D01*
X396648Y50366D01*
X396641Y50379D01*
X396521Y50519D01*
X396403Y50661D01*
X396391Y50671D01*
X396381Y50682D01*
X396236Y50796D01*
X396092Y50912D01*
X396078Y50919D01*
X396066Y50928D01*
X395902Y51010D01*
X395737Y51095D01*
X395722Y51100D01*
X395709Y51106D01*
X395532Y51154D01*
X395353Y51205D01*
X395338Y51206D01*
X395323Y51210D01*
X395140Y51221D01*
X394955Y51236D01*
X394940Y51234D01*
X394925Y51235D01*
X394742Y51210D01*
X394558Y51187D01*
X394544Y51182D01*
X394529Y51180D01*
X394354Y51118D01*
X394180Y51060D01*
X394166Y51053D01*
X394152Y51048D01*
X393993Y50952D01*
X393833Y50861D01*
X393822Y50851D01*
X393809Y50843D01*
X393672Y50718D01*
X393534Y50596D01*
X393525Y50584D01*
X393514Y50574D01*
X393404Y50425D01*
X393293Y50278D01*
X393286Y50264D01*
X393278Y50252D01*
X393153Y50002D01*
X392322Y47996D01*
X391110Y46784D01*
X391082Y46749D01*
X391048Y46719D01*
X390955Y46595D01*
X390858Y46475D01*
X390836Y46435D01*
X390809Y46398D01*
X390743Y46259D01*
X390671Y46122D01*
X390658Y46078D01*
X390639Y46037D01*
X390602Y45887D01*
X390559Y45738D01*
X390555Y45693D01*
X390544Y45649D01*
X390525Y45370D01*
X390525Y32524D01*
X390528Y32494D01*
X390526Y32464D01*
X390548Y32295D01*
X390565Y32127D01*
X390574Y32098D01*
X390578Y32068D01*
X390633Y31907D01*
X390683Y31745D01*
X390697Y31718D01*
X390707Y31690D01*
X390793Y31544D01*
X390874Y31395D01*
X390894Y31371D01*
X390909Y31345D01*
X391022Y31219D01*
X391132Y31089D01*
X391155Y31070D01*
X391176Y31048D01*
X391312Y30947D01*
X391445Y30841D01*
X391472Y30827D01*
X391496Y30809D01*
X391649Y30737D01*
X391801Y30660D01*
X391830Y30652D01*
X391857Y30639D01*
X392023Y30599D01*
X392186Y30554D01*
X392216Y30551D01*
X392245Y30544D01*
X392524Y30525D01*
X472476Y30525D01*
X472506Y30528D01*
X472536Y30526D01*
X472705Y30548D01*
X472873Y30565D01*
X472902Y30574D01*
X472932Y30578D01*
X473093Y30633D01*
X473255Y30683D01*
X473282Y30697D01*
X473310Y30707D01*
X473456Y30793D01*
X473605Y30874D01*
X473629Y30894D01*
X473655Y30909D01*
X473781Y31022D01*
X473911Y31132D01*
X473930Y31155D01*
X473952Y31176D01*
X474053Y31312D01*
X474159Y31445D01*
X474173Y31472D01*
X474191Y31496D01*
X474263Y31649D01*
X474340Y31801D01*
X474348Y31830D01*
X474361Y31857D01*
X474401Y32023D01*
X474446Y32186D01*
X474449Y32216D01*
X474456Y32245D01*
X474475Y32524D01*
X474475Y45370D01*
X474471Y45416D01*
X474473Y45461D01*
X474451Y45614D01*
X474435Y45768D01*
X474422Y45811D01*
X474415Y45856D01*
X474363Y46002D01*
X474317Y46149D01*
X474296Y46189D01*
X474280Y46232D01*
X474200Y46364D01*
X474126Y46500D01*
X474096Y46535D01*
X474073Y46573D01*
X473890Y46784D01*
X472678Y47996D01*
X471363Y51170D01*
X471363Y68830D01*
X472678Y72004D01*
X475108Y74434D01*
X478282Y75749D01*
X481718Y75749D01*
X484892Y74434D01*
X487322Y72004D01*
X488153Y69998D01*
X488160Y69985D01*
X488165Y69970D01*
X488254Y69809D01*
X488342Y69646D01*
X488352Y69634D01*
X488359Y69621D01*
X488479Y69481D01*
X488597Y69339D01*
X488609Y69329D01*
X488619Y69318D01*
X488765Y69203D01*
X488908Y69088D01*
X488921Y69081D01*
X488934Y69072D01*
X489100Y68989D01*
X489263Y68905D01*
X489277Y68901D01*
X489291Y68894D01*
X489469Y68846D01*
X489647Y68795D01*
X489662Y68794D01*
X489677Y68790D01*
X489861Y68779D01*
X490045Y68764D01*
X490060Y68766D01*
X490075Y68765D01*
X490258Y68790D01*
X490442Y68813D01*
X490456Y68818D01*
X490471Y68820D01*
X490645Y68881D01*
X490820Y68940D01*
X490834Y68947D01*
X490848Y68952D01*
X491006Y69047D01*
X491166Y69139D01*
X491178Y69149D01*
X491191Y69157D01*
X491326Y69280D01*
X491466Y69404D01*
X491475Y69416D01*
X491486Y69426D01*
X491595Y69575D01*
X491707Y69722D01*
X491713Y69736D01*
X491722Y69748D01*
X491847Y69998D01*
X492678Y72004D01*
X495108Y74434D01*
X498282Y75749D01*
X501718Y75749D01*
X504892Y74434D01*
X507322Y72004D01*
X508637Y68830D01*
X508637Y51170D01*
X507322Y47996D01*
X504892Y45566D01*
X501718Y44251D01*
X498282Y44251D01*
X495108Y45566D01*
X492678Y47996D01*
X491847Y50002D01*
X491840Y50015D01*
X491835Y50030D01*
X491745Y50191D01*
X491658Y50354D01*
X491648Y50366D01*
X491641Y50379D01*
X491521Y50519D01*
X491403Y50661D01*
X491391Y50671D01*
X491381Y50682D01*
X491236Y50796D01*
X491092Y50912D01*
X491078Y50919D01*
X491066Y50928D01*
X490902Y51010D01*
X490737Y51095D01*
X490723Y51100D01*
X490709Y51106D01*
X490531Y51154D01*
X490353Y51205D01*
X490338Y51206D01*
X490323Y51210D01*
X490140Y51221D01*
X489955Y51236D01*
X489940Y51234D01*
X489925Y51235D01*
X489742Y51210D01*
X489558Y51187D01*
X489544Y51182D01*
X489529Y51180D01*
X489354Y51119D01*
X489180Y51060D01*
X489166Y51053D01*
X489152Y51048D01*
X488993Y50953D01*
X488833Y50861D01*
X488822Y50851D01*
X488809Y50843D01*
X488672Y50718D01*
X488534Y50596D01*
X488525Y50584D01*
X488514Y50574D01*
X488404Y50424D01*
X488293Y50278D01*
X488287Y50264D01*
X488278Y50252D01*
X488153Y50002D01*
X487322Y47996D01*
X486110Y46784D01*
X486082Y46749D01*
X486048Y46719D01*
X485956Y46595D01*
X485857Y46475D01*
X485836Y46435D01*
X485809Y46398D01*
X485743Y46258D01*
X485671Y46122D01*
X485658Y46078D01*
X485639Y46037D01*
X485602Y45887D01*
X485559Y45738D01*
X485555Y45693D01*
X485544Y45649D01*
X485525Y45370D01*
X485525Y32524D01*
X485528Y32494D01*
X485526Y32464D01*
X485548Y32295D01*
X485565Y32127D01*
X485574Y32098D01*
X485578Y32068D01*
X485633Y31907D01*
X485683Y31745D01*
X485697Y31718D01*
X485707Y31690D01*
X485793Y31544D01*
X485874Y31395D01*
X485894Y31371D01*
X485909Y31345D01*
X486022Y31219D01*
X486132Y31089D01*
X486155Y31070D01*
X486176Y31048D01*
X486312Y30947D01*
X486445Y30841D01*
X486472Y30827D01*
X486496Y30809D01*
X486649Y30737D01*
X486801Y30660D01*
X486830Y30652D01*
X486857Y30639D01*
X487023Y30599D01*
X487186Y30554D01*
X487216Y30551D01*
X487245Y30544D01*
X487524Y30525D01*
X556883Y30525D01*
X556929Y30529D01*
X556974Y30527D01*
X557127Y30549D01*
X557281Y30565D01*
X557324Y30578D01*
X557369Y30585D01*
X557515Y30637D01*
X557662Y30683D01*
X557702Y30704D01*
X557745Y30720D01*
X557877Y30800D01*
X558013Y30874D01*
X558048Y30904D01*
X558086Y30927D01*
X558297Y31110D01*
X563890Y36703D01*
X563918Y36738D01*
X563952Y36768D01*
X564044Y36892D01*
X564143Y37012D01*
X564164Y37052D01*
X564191Y37089D01*
X564257Y37229D01*
X564329Y37365D01*
X564342Y37409D01*
X564361Y37450D01*
X564398Y37600D01*
X564441Y37749D01*
X564445Y37794D01*
X564456Y37838D01*
X564475Y38117D01*
X564475Y45370D01*
X564471Y45416D01*
X564473Y45461D01*
X564451Y45614D01*
X564435Y45768D01*
X564422Y45811D01*
X564415Y45856D01*
X564363Y46001D01*
X564317Y46149D01*
X564295Y46189D01*
X564280Y46232D01*
X564200Y46364D01*
X564126Y46500D01*
X564096Y46535D01*
X564073Y46573D01*
X563890Y46784D01*
X562678Y47996D01*
X561363Y51170D01*
X561363Y68830D01*
X562678Y72004D01*
X565108Y74434D01*
X568282Y75749D01*
X571718Y75749D01*
X574892Y74434D01*
X577322Y72004D01*
X578153Y69998D01*
X578160Y69985D01*
X578165Y69970D01*
X578254Y69809D01*
X578342Y69646D01*
X578352Y69634D01*
X578359Y69621D01*
X578479Y69481D01*
X578597Y69339D01*
X578609Y69329D01*
X578619Y69318D01*
X578765Y69203D01*
X578908Y69088D01*
X578921Y69081D01*
X578934Y69072D01*
X579100Y68989D01*
X579263Y68905D01*
X579277Y68901D01*
X579291Y68894D01*
X579469Y68846D01*
X579647Y68795D01*
X579662Y68794D01*
X579677Y68790D01*
X579861Y68779D01*
X580045Y68764D01*
X580060Y68766D01*
X580075Y68765D01*
X580258Y68790D01*
X580442Y68813D01*
X580456Y68818D01*
X580471Y68820D01*
X580645Y68881D01*
X580820Y68940D01*
X580834Y68947D01*
X580848Y68952D01*
X581006Y69047D01*
X581166Y69139D01*
X581178Y69149D01*
X581191Y69157D01*
X581326Y69280D01*
X581466Y69404D01*
X581475Y69416D01*
X581486Y69426D01*
X581595Y69575D01*
X581707Y69722D01*
X581713Y69736D01*
X581722Y69748D01*
X581847Y69998D01*
X582678Y72004D01*
X585108Y74434D01*
X588282Y75749D01*
X591718Y75749D01*
X594892Y74434D01*
X597322Y72004D01*
X598637Y68830D01*
X598637Y51170D01*
X597322Y47996D01*
X594892Y45566D01*
X591718Y44251D01*
X588282Y44251D01*
X585108Y45566D01*
X582678Y47996D01*
X581847Y50002D01*
X581840Y50015D01*
X581835Y50030D01*
X581745Y50191D01*
X581658Y50354D01*
X581648Y50366D01*
X581641Y50379D01*
X581521Y50519D01*
X581403Y50661D01*
X581391Y50671D01*
X581381Y50682D01*
X581236Y50796D01*
X581092Y50912D01*
X581078Y50919D01*
X581066Y50928D01*
X580902Y51010D01*
X580737Y51095D01*
X580723Y51100D01*
X580709Y51106D01*
X580531Y51154D01*
X580353Y51205D01*
X580338Y51206D01*
X580323Y51210D01*
X580140Y51221D01*
X579955Y51236D01*
X579940Y51234D01*
X579925Y51235D01*
X579742Y51210D01*
X579558Y51187D01*
X579544Y51182D01*
X579529Y51180D01*
X579354Y51119D01*
X579180Y51060D01*
X579166Y51053D01*
X579152Y51048D01*
X578993Y50953D01*
X578833Y50861D01*
X578822Y50851D01*
X578809Y50843D01*
X578672Y50718D01*
X578534Y50596D01*
X578525Y50584D01*
X578514Y50574D01*
X578404Y50424D01*
X578293Y50278D01*
X578287Y50264D01*
X578278Y50252D01*
X578153Y50002D01*
X577322Y47996D01*
X576110Y46784D01*
X576082Y46749D01*
X576048Y46719D01*
X575955Y46595D01*
X575858Y46475D01*
X575836Y46435D01*
X575809Y46398D01*
X575743Y46259D01*
X575671Y46122D01*
X575658Y46078D01*
X575639Y46037D01*
X575602Y45887D01*
X575559Y45738D01*
X575555Y45693D01*
X575544Y45649D01*
X575525Y45370D01*
X575525Y33901D01*
X574684Y31870D01*
X563130Y20316D01*
X561099Y19475D01*
X173901Y19475D01*
G37*
%LPD*%
%LPC*%
G36*
X206743Y277249D02*
X206743Y277249D01*
X206449Y277543D01*
X206449Y316057D01*
X206743Y316351D01*
X232557Y316351D01*
X232851Y316057D01*
X232851Y312000D01*
X232854Y311970D01*
X232852Y311940D01*
X232874Y311771D01*
X232891Y311603D01*
X232900Y311574D01*
X232904Y311544D01*
X232959Y311383D01*
X233009Y311221D01*
X233023Y311194D01*
X233033Y311166D01*
X233119Y311020D01*
X233200Y310871D01*
X233220Y310847D01*
X233235Y310821D01*
X233348Y310695D01*
X233458Y310565D01*
X233481Y310546D01*
X233502Y310524D01*
X233638Y310423D01*
X233771Y310317D01*
X233798Y310303D01*
X233822Y310285D01*
X233975Y310213D01*
X234127Y310136D01*
X234156Y310128D01*
X234183Y310115D01*
X234349Y310075D01*
X234512Y310030D01*
X234542Y310027D01*
X234571Y310020D01*
X234850Y310001D01*
X238907Y310001D01*
X239201Y309707D01*
X239201Y283893D01*
X238907Y283599D01*
X234850Y283599D01*
X234820Y283596D01*
X234790Y283598D01*
X234621Y283576D01*
X234453Y283559D01*
X234424Y283550D01*
X234394Y283546D01*
X234233Y283491D01*
X234071Y283441D01*
X234044Y283427D01*
X234016Y283417D01*
X233870Y283331D01*
X233721Y283250D01*
X233697Y283230D01*
X233671Y283215D01*
X233545Y283102D01*
X233415Y282992D01*
X233396Y282969D01*
X233374Y282948D01*
X233273Y282812D01*
X233167Y282679D01*
X233153Y282652D01*
X233135Y282628D01*
X233063Y282475D01*
X232986Y282323D01*
X232978Y282294D01*
X232965Y282267D01*
X232925Y282101D01*
X232880Y281938D01*
X232877Y281908D01*
X232870Y281879D01*
X232851Y281600D01*
X232851Y277543D01*
X232557Y277249D01*
X206743Y277249D01*
G37*
%LPD*%
%LPC*%
G36*
X298994Y169943D02*
X298994Y169943D01*
X297136Y170713D01*
X295713Y172136D01*
X294943Y173994D01*
X294943Y176006D01*
X295713Y177864D01*
X296890Y179041D01*
X296918Y179076D01*
X296952Y179106D01*
X297044Y179230D01*
X297143Y179350D01*
X297164Y179390D01*
X297191Y179427D01*
X297257Y179567D01*
X297329Y179704D01*
X297342Y179747D01*
X297361Y179788D01*
X297398Y179938D01*
X297441Y180087D01*
X297445Y180132D01*
X297456Y180176D01*
X297475Y180455D01*
X297475Y239545D01*
X297471Y239591D01*
X297473Y239636D01*
X297451Y239789D01*
X297435Y239943D01*
X297422Y239986D01*
X297415Y240031D01*
X297363Y240177D01*
X297317Y240324D01*
X297296Y240364D01*
X297280Y240407D01*
X297200Y240539D01*
X297126Y240675D01*
X297096Y240710D01*
X297073Y240748D01*
X296890Y240959D01*
X295713Y242136D01*
X294943Y243994D01*
X294943Y246006D01*
X295713Y247864D01*
X297136Y249287D01*
X298994Y250057D01*
X301006Y250057D01*
X301711Y249765D01*
X301733Y249758D01*
X301753Y249748D01*
X301924Y249701D01*
X302093Y249649D01*
X302116Y249647D01*
X302138Y249641D01*
X302315Y249629D01*
X302491Y249613D01*
X302514Y249615D01*
X302536Y249613D01*
X302712Y249636D01*
X302888Y249655D01*
X302910Y249662D01*
X302932Y249665D01*
X303100Y249723D01*
X303269Y249776D01*
X303289Y249787D01*
X303310Y249795D01*
X303463Y249885D01*
X303618Y249971D01*
X303635Y249985D01*
X303655Y249997D01*
X303787Y250115D01*
X303921Y250230D01*
X303935Y250248D01*
X303952Y250263D01*
X304058Y250406D01*
X304167Y250545D01*
X304177Y250566D01*
X304191Y250584D01*
X304266Y250745D01*
X304345Y250903D01*
X304351Y250925D01*
X304361Y250945D01*
X304403Y251118D01*
X304449Y251288D01*
X304450Y251311D01*
X304456Y251333D01*
X304475Y251612D01*
X304475Y254944D01*
X304472Y254974D01*
X304474Y255004D01*
X304452Y255173D01*
X304435Y255341D01*
X304426Y255370D01*
X304422Y255400D01*
X304368Y255561D01*
X304317Y255723D01*
X304303Y255750D01*
X304293Y255778D01*
X304207Y255924D01*
X304126Y256073D01*
X304106Y256097D01*
X304091Y256123D01*
X303978Y256249D01*
X303868Y256379D01*
X303845Y256398D01*
X303824Y256420D01*
X303688Y256521D01*
X303555Y256627D01*
X303528Y256641D01*
X303504Y256659D01*
X303351Y256731D01*
X303199Y256808D01*
X303170Y256816D01*
X303143Y256829D01*
X302977Y256869D01*
X302814Y256914D01*
X302784Y256917D01*
X302755Y256924D01*
X302476Y256943D01*
X301406Y256943D01*
X299548Y257713D01*
X298125Y259136D01*
X297355Y260994D01*
X297355Y263006D01*
X298125Y264864D01*
X299548Y266287D01*
X301406Y267057D01*
X303418Y267057D01*
X305276Y266287D01*
X306699Y264864D01*
X307469Y263006D01*
X307469Y261342D01*
X307473Y261297D01*
X307471Y261251D01*
X307493Y261098D01*
X307509Y260944D01*
X307522Y260901D01*
X307529Y260856D01*
X307581Y260711D01*
X307627Y260563D01*
X307649Y260523D01*
X307664Y260480D01*
X307744Y260349D01*
X307818Y260212D01*
X307848Y260178D01*
X307871Y260139D01*
X308054Y259928D01*
X309525Y258458D01*
X309525Y182006D01*
X309529Y181969D01*
X309526Y181931D01*
X309548Y181770D01*
X309565Y181609D01*
X309576Y181573D01*
X309581Y181535D01*
X309635Y181382D01*
X309683Y181227D01*
X309701Y181194D01*
X309713Y181158D01*
X309796Y181019D01*
X309874Y180877D01*
X309899Y180848D01*
X309918Y180815D01*
X310027Y180696D01*
X310132Y180571D01*
X310161Y180548D01*
X310187Y180520D01*
X310318Y180424D01*
X310445Y180323D01*
X310478Y180306D01*
X310509Y180284D01*
X310759Y180159D01*
X312864Y179287D01*
X314287Y177864D01*
X315057Y176006D01*
X315057Y173994D01*
X314287Y172136D01*
X312864Y170713D01*
X311006Y169943D01*
X308994Y169943D01*
X307136Y170713D01*
X306414Y171435D01*
X306390Y171454D01*
X306370Y171477D01*
X306236Y171580D01*
X306104Y171688D01*
X306078Y171702D01*
X306054Y171720D01*
X305901Y171795D01*
X305751Y171874D01*
X305722Y171883D01*
X305695Y171896D01*
X305531Y171939D01*
X305368Y171986D01*
X305338Y171989D01*
X305308Y171997D01*
X305140Y172006D01*
X304970Y172020D01*
X304940Y172017D01*
X304910Y172019D01*
X304742Y171994D01*
X304573Y171974D01*
X304544Y171965D01*
X304514Y171961D01*
X304354Y171903D01*
X304193Y171851D01*
X304167Y171836D01*
X304139Y171825D01*
X303993Y171737D01*
X303846Y171654D01*
X303823Y171634D01*
X303797Y171618D01*
X303586Y171435D01*
X302864Y170713D01*
X301006Y169943D01*
X298994Y169943D01*
G37*
%LPD*%
%LPC*%
G36*
X643994Y449943D02*
X643994Y449943D01*
X642136Y450713D01*
X640713Y452136D01*
X639943Y453994D01*
X639943Y456006D01*
X640713Y457864D01*
X640890Y458041D01*
X640918Y458076D01*
X640952Y458106D01*
X641045Y458230D01*
X641142Y458350D01*
X641164Y458390D01*
X641191Y458427D01*
X641257Y458567D01*
X641329Y458703D01*
X641342Y458747D01*
X641361Y458788D01*
X641398Y458938D01*
X641441Y459087D01*
X641445Y459132D01*
X641456Y459176D01*
X641475Y459455D01*
X641475Y479476D01*
X641472Y479506D01*
X641474Y479536D01*
X641452Y479705D01*
X641435Y479873D01*
X641426Y479902D01*
X641422Y479932D01*
X641367Y480093D01*
X641317Y480255D01*
X641303Y480282D01*
X641293Y480310D01*
X641207Y480456D01*
X641126Y480605D01*
X641106Y480629D01*
X641091Y480655D01*
X640978Y480781D01*
X640868Y480911D01*
X640845Y480930D01*
X640824Y480952D01*
X640688Y481053D01*
X640555Y481159D01*
X640528Y481173D01*
X640504Y481191D01*
X640351Y481263D01*
X640199Y481340D01*
X640170Y481348D01*
X640143Y481361D01*
X639977Y481401D01*
X639814Y481446D01*
X639784Y481449D01*
X639755Y481456D01*
X639476Y481475D01*
X567288Y481475D01*
X567243Y481471D01*
X567198Y481473D01*
X567045Y481451D01*
X566891Y481435D01*
X566847Y481422D01*
X566802Y481415D01*
X566657Y481363D01*
X566509Y481317D01*
X566469Y481296D01*
X566427Y481280D01*
X566295Y481200D01*
X566159Y481126D01*
X566124Y481096D01*
X566085Y481073D01*
X565874Y480890D01*
X558110Y473126D01*
X558082Y473090D01*
X558048Y473060D01*
X557956Y472936D01*
X557857Y472816D01*
X557836Y472776D01*
X557809Y472740D01*
X557743Y472600D01*
X557671Y472463D01*
X557658Y472420D01*
X557639Y472378D01*
X557602Y472228D01*
X557559Y472080D01*
X557555Y472034D01*
X557544Y471990D01*
X557525Y471712D01*
X557525Y460455D01*
X557529Y460409D01*
X557527Y460364D01*
X557549Y460211D01*
X557565Y460057D01*
X557578Y460014D01*
X557585Y459969D01*
X557637Y459823D01*
X557683Y459676D01*
X557704Y459636D01*
X557720Y459593D01*
X557800Y459461D01*
X557874Y459325D01*
X557904Y459290D01*
X557927Y459252D01*
X558110Y459041D01*
X558287Y458864D01*
X559057Y457006D01*
X559057Y454994D01*
X558287Y453136D01*
X556864Y451713D01*
X555006Y450943D01*
X552994Y450943D01*
X551136Y451713D01*
X549713Y453136D01*
X548943Y454994D01*
X548943Y457006D01*
X549713Y458864D01*
X549890Y459041D01*
X549918Y459076D01*
X549952Y459106D01*
X550044Y459230D01*
X550143Y459350D01*
X550164Y459390D01*
X550191Y459427D01*
X550257Y459567D01*
X550329Y459704D01*
X550342Y459747D01*
X550361Y459788D01*
X550398Y459938D01*
X550441Y460087D01*
X550445Y460132D01*
X550456Y460176D01*
X550475Y460455D01*
X550475Y475460D01*
X563540Y488525D01*
X640545Y488525D01*
X640591Y488529D01*
X640636Y488527D01*
X640789Y488549D01*
X640943Y488565D01*
X640986Y488578D01*
X641031Y488585D01*
X641177Y488637D01*
X641324Y488683D01*
X641364Y488705D01*
X641407Y488720D01*
X641539Y488800D01*
X641675Y488874D01*
X641710Y488904D01*
X641748Y488927D01*
X641959Y489110D01*
X642136Y489287D01*
X643994Y490057D01*
X646006Y490057D01*
X647864Y489287D01*
X649287Y487864D01*
X650057Y486006D01*
X650057Y483994D01*
X649287Y482136D01*
X649110Y481959D01*
X649082Y481924D01*
X649048Y481894D01*
X648955Y481770D01*
X648858Y481650D01*
X648836Y481610D01*
X648809Y481573D01*
X648743Y481433D01*
X648671Y481297D01*
X648658Y481253D01*
X648639Y481212D01*
X648602Y481062D01*
X648559Y480913D01*
X648555Y480868D01*
X648544Y480824D01*
X648525Y480545D01*
X648525Y459455D01*
X648529Y459409D01*
X648527Y459364D01*
X648549Y459211D01*
X648565Y459057D01*
X648578Y459014D01*
X648585Y458969D01*
X648637Y458823D01*
X648683Y458676D01*
X648705Y458636D01*
X648720Y458593D01*
X648800Y458461D01*
X648874Y458325D01*
X648904Y458290D01*
X648927Y458252D01*
X649110Y458041D01*
X649287Y457864D01*
X650057Y456006D01*
X650057Y453994D01*
X649287Y452136D01*
X647864Y450713D01*
X646006Y449943D01*
X643994Y449943D01*
G37*
%LPD*%
%LPC*%
G36*
X171994Y160943D02*
X171994Y160943D01*
X170136Y161713D01*
X168713Y163136D01*
X167943Y164994D01*
X167943Y167006D01*
X168713Y168864D01*
X170136Y170287D01*
X171994Y171057D01*
X174006Y171057D01*
X175864Y170287D01*
X177041Y169110D01*
X177076Y169082D01*
X177106Y169048D01*
X177230Y168956D01*
X177350Y168857D01*
X177390Y168836D01*
X177427Y168809D01*
X177567Y168743D01*
X177704Y168671D01*
X177747Y168658D01*
X177788Y168639D01*
X177938Y168602D01*
X178087Y168559D01*
X178132Y168555D01*
X178176Y168544D01*
X178455Y168525D01*
X218126Y168525D01*
X218171Y168529D01*
X218217Y168527D01*
X218370Y168549D01*
X218524Y168565D01*
X218567Y168578D01*
X218612Y168585D01*
X218757Y168637D01*
X218905Y168683D01*
X218945Y168704D01*
X218988Y168720D01*
X219120Y168800D01*
X219256Y168874D01*
X219290Y168904D01*
X219329Y168927D01*
X219540Y169110D01*
X225890Y175460D01*
X225918Y175495D01*
X225952Y175526D01*
X226044Y175650D01*
X226143Y175769D01*
X226164Y175810D01*
X226191Y175846D01*
X226257Y175986D01*
X226329Y176123D01*
X226342Y176166D01*
X226361Y176207D01*
X226398Y176358D01*
X226441Y176506D01*
X226445Y176551D01*
X226456Y176595D01*
X226475Y176874D01*
X226475Y184545D01*
X226471Y184591D01*
X226473Y184636D01*
X226451Y184789D01*
X226435Y184943D01*
X226422Y184986D01*
X226415Y185031D01*
X226363Y185177D01*
X226317Y185324D01*
X226296Y185364D01*
X226280Y185407D01*
X226200Y185539D01*
X226126Y185675D01*
X226096Y185710D01*
X226073Y185748D01*
X225890Y185959D01*
X224713Y187136D01*
X223943Y188994D01*
X223943Y191006D01*
X224713Y192864D01*
X225890Y194041D01*
X225918Y194076D01*
X225952Y194106D01*
X226044Y194230D01*
X226143Y194350D01*
X226164Y194390D01*
X226191Y194427D01*
X226257Y194567D01*
X226329Y194704D01*
X226342Y194747D01*
X226361Y194788D01*
X226398Y194938D01*
X226441Y195087D01*
X226445Y195132D01*
X226456Y195176D01*
X226475Y195455D01*
X226475Y209754D01*
X226471Y209799D01*
X226473Y209845D01*
X226451Y209998D01*
X226435Y210152D01*
X226422Y210195D01*
X226415Y210240D01*
X226363Y210385D01*
X226317Y210533D01*
X226296Y210573D01*
X226280Y210616D01*
X226200Y210748D01*
X226126Y210884D01*
X226096Y210918D01*
X226073Y210957D01*
X225890Y211168D01*
X220588Y216470D01*
X220553Y216498D01*
X220522Y216532D01*
X220398Y216624D01*
X220279Y216723D01*
X220238Y216744D01*
X220202Y216771D01*
X220062Y216837D01*
X219925Y216909D01*
X219882Y216922D01*
X219841Y216941D01*
X219690Y216978D01*
X219542Y217021D01*
X219497Y217025D01*
X219453Y217036D01*
X219174Y217055D01*
X211503Y217055D01*
X211457Y217051D01*
X211412Y217053D01*
X211259Y217031D01*
X211105Y217015D01*
X211062Y217002D01*
X211017Y216995D01*
X210871Y216943D01*
X210724Y216897D01*
X210684Y216876D01*
X210641Y216860D01*
X210509Y216780D01*
X210373Y216706D01*
X210338Y216676D01*
X210300Y216653D01*
X210089Y216470D01*
X208912Y215293D01*
X207054Y214523D01*
X205042Y214523D01*
X203184Y215293D01*
X201761Y216716D01*
X200991Y218574D01*
X200991Y220586D01*
X201761Y222444D01*
X203184Y223867D01*
X205042Y224637D01*
X207054Y224637D01*
X208912Y223867D01*
X210089Y222690D01*
X210124Y222662D01*
X210154Y222628D01*
X210278Y222536D01*
X210398Y222437D01*
X210438Y222416D01*
X210475Y222389D01*
X210615Y222323D01*
X210752Y222251D01*
X210795Y222238D01*
X210836Y222219D01*
X210986Y222182D01*
X211135Y222139D01*
X211180Y222135D01*
X211224Y222124D01*
X211503Y222105D01*
X222094Y222105D01*
X231525Y212674D01*
X231525Y195455D01*
X231529Y195409D01*
X231527Y195364D01*
X231549Y195211D01*
X231565Y195057D01*
X231578Y195014D01*
X231585Y194969D01*
X231637Y194823D01*
X231683Y194676D01*
X231704Y194636D01*
X231720Y194593D01*
X231800Y194461D01*
X231874Y194325D01*
X231904Y194290D01*
X231927Y194252D01*
X232110Y194041D01*
X233287Y192864D01*
X234057Y191006D01*
X234057Y188994D01*
X233287Y187136D01*
X232110Y185959D01*
X232082Y185924D01*
X232048Y185894D01*
X231956Y185770D01*
X231857Y185650D01*
X231836Y185610D01*
X231809Y185573D01*
X231743Y185433D01*
X231671Y185296D01*
X231658Y185253D01*
X231639Y185212D01*
X231602Y185062D01*
X231559Y184913D01*
X231555Y184868D01*
X231544Y184824D01*
X231525Y184545D01*
X231525Y173954D01*
X221046Y163475D01*
X178455Y163475D01*
X178409Y163471D01*
X178364Y163473D01*
X178211Y163451D01*
X178057Y163435D01*
X178014Y163422D01*
X177969Y163415D01*
X177823Y163363D01*
X177676Y163317D01*
X177636Y163296D01*
X177593Y163280D01*
X177461Y163200D01*
X177325Y163126D01*
X177290Y163096D01*
X177252Y163073D01*
X177041Y162890D01*
X175864Y161713D01*
X174006Y160943D01*
X171994Y160943D01*
G37*
%LPD*%
%LPC*%
G36*
X201999Y60000D02*
X201999Y60000D01*
X201999Y76568D01*
X202260Y76527D01*
X203705Y76058D01*
X205059Y75368D01*
X206288Y74475D01*
X207363Y73400D01*
X208256Y72171D01*
X208764Y71173D01*
X208838Y71058D01*
X208905Y70939D01*
X208946Y70890D01*
X208980Y70837D01*
X209076Y70739D01*
X209164Y70635D01*
X209214Y70596D01*
X209259Y70551D01*
X209372Y70473D01*
X209479Y70389D01*
X209536Y70361D01*
X209589Y70325D01*
X209715Y70272D01*
X209837Y70211D01*
X209898Y70195D01*
X209957Y70170D01*
X210091Y70143D01*
X210222Y70108D01*
X210286Y70104D01*
X210348Y70091D01*
X210485Y70091D01*
X210621Y70083D01*
X210684Y70091D01*
X210748Y70092D01*
X210882Y70119D01*
X211017Y70138D01*
X211077Y70159D01*
X211139Y70171D01*
X211265Y70225D01*
X211394Y70270D01*
X211448Y70303D01*
X211507Y70327D01*
X211619Y70405D01*
X211737Y70475D01*
X211784Y70518D01*
X211836Y70553D01*
X211931Y70651D01*
X212032Y70743D01*
X212070Y70795D01*
X212114Y70840D01*
X212187Y70955D01*
X212268Y71066D01*
X212305Y71139D01*
X212329Y71177D01*
X212348Y71225D01*
X212393Y71315D01*
X212678Y72004D01*
X215108Y74434D01*
X218282Y75749D01*
X221718Y75749D01*
X224892Y74434D01*
X227322Y72004D01*
X228637Y68830D01*
X228637Y51170D01*
X227322Y47996D01*
X224892Y45566D01*
X221718Y44251D01*
X218282Y44251D01*
X215108Y45566D01*
X212678Y47996D01*
X212393Y48685D01*
X212328Y48805D01*
X212271Y48929D01*
X212234Y48980D01*
X212204Y49036D01*
X212117Y49142D01*
X212036Y49252D01*
X211989Y49295D01*
X211949Y49344D01*
X211842Y49429D01*
X211742Y49522D01*
X211687Y49554D01*
X211638Y49594D01*
X211516Y49657D01*
X211399Y49727D01*
X211339Y49749D01*
X211283Y49778D01*
X211152Y49815D01*
X211023Y49861D01*
X210960Y49870D01*
X210899Y49887D01*
X210763Y49898D01*
X210627Y49917D01*
X210564Y49913D01*
X210501Y49918D01*
X210365Y49901D01*
X210229Y49893D01*
X210167Y49877D01*
X210104Y49869D01*
X209974Y49826D01*
X209843Y49791D01*
X209786Y49763D01*
X209725Y49743D01*
X209607Y49674D01*
X209485Y49614D01*
X209434Y49575D01*
X209379Y49543D01*
X209277Y49453D01*
X209169Y49369D01*
X209127Y49321D01*
X209080Y49279D01*
X208998Y49170D01*
X208908Y49066D01*
X208866Y48997D01*
X208839Y48960D01*
X208816Y48914D01*
X208764Y48827D01*
X208256Y47829D01*
X207363Y46600D01*
X206288Y45525D01*
X205059Y44632D01*
X203705Y43942D01*
X202260Y43473D01*
X201999Y43432D01*
X201999Y60000D01*
G37*
%LPD*%
%LPC*%
G36*
X111999Y60000D02*
X111999Y60000D01*
X111999Y76568D01*
X112260Y76527D01*
X113705Y76058D01*
X115059Y75368D01*
X116288Y74475D01*
X117363Y73400D01*
X118256Y72171D01*
X118764Y71173D01*
X118838Y71058D01*
X118905Y70939D01*
X118946Y70890D01*
X118980Y70837D01*
X119076Y70739D01*
X119164Y70635D01*
X119214Y70596D01*
X119259Y70551D01*
X119372Y70473D01*
X119479Y70389D01*
X119536Y70361D01*
X119589Y70325D01*
X119715Y70272D01*
X119837Y70211D01*
X119898Y70195D01*
X119957Y70170D01*
X120091Y70143D01*
X120222Y70108D01*
X120286Y70104D01*
X120348Y70091D01*
X120485Y70091D01*
X120621Y70083D01*
X120684Y70091D01*
X120748Y70092D01*
X120882Y70119D01*
X121017Y70138D01*
X121077Y70159D01*
X121139Y70171D01*
X121265Y70225D01*
X121394Y70270D01*
X121448Y70303D01*
X121507Y70327D01*
X121619Y70405D01*
X121737Y70475D01*
X121784Y70518D01*
X121836Y70553D01*
X121931Y70651D01*
X122032Y70743D01*
X122070Y70795D01*
X122114Y70840D01*
X122187Y70955D01*
X122268Y71066D01*
X122305Y71139D01*
X122329Y71177D01*
X122348Y71225D01*
X122393Y71315D01*
X122678Y72004D01*
X125108Y74434D01*
X128282Y75749D01*
X131718Y75749D01*
X134892Y74434D01*
X137322Y72004D01*
X138637Y68830D01*
X138637Y51170D01*
X137322Y47996D01*
X134892Y45566D01*
X131718Y44251D01*
X128282Y44251D01*
X125108Y45566D01*
X122678Y47996D01*
X122393Y48685D01*
X122328Y48805D01*
X122271Y48929D01*
X122234Y48980D01*
X122204Y49036D01*
X122117Y49142D01*
X122036Y49252D01*
X121989Y49295D01*
X121949Y49344D01*
X121842Y49429D01*
X121742Y49522D01*
X121687Y49554D01*
X121638Y49594D01*
X121516Y49657D01*
X121399Y49727D01*
X121339Y49749D01*
X121283Y49778D01*
X121152Y49815D01*
X121023Y49861D01*
X120960Y49870D01*
X120899Y49887D01*
X120763Y49898D01*
X120627Y49917D01*
X120564Y49913D01*
X120501Y49918D01*
X120365Y49901D01*
X120229Y49893D01*
X120167Y49877D01*
X120104Y49869D01*
X119974Y49826D01*
X119843Y49791D01*
X119786Y49763D01*
X119725Y49743D01*
X119607Y49674D01*
X119485Y49614D01*
X119434Y49575D01*
X119379Y49543D01*
X119277Y49453D01*
X119169Y49369D01*
X119127Y49321D01*
X119080Y49279D01*
X118998Y49170D01*
X118908Y49066D01*
X118866Y48997D01*
X118839Y48960D01*
X118816Y48914D01*
X118764Y48827D01*
X118256Y47829D01*
X117363Y46600D01*
X116288Y45525D01*
X115059Y44632D01*
X113705Y43942D01*
X112260Y43473D01*
X111999Y43432D01*
X111999Y60000D01*
G37*
%LPD*%
%LPC*%
G36*
X171740Y547473D02*
X171740Y547473D01*
X170295Y547942D01*
X168941Y548632D01*
X167712Y549525D01*
X166637Y550600D01*
X165744Y551829D01*
X165236Y552827D01*
X165162Y552942D01*
X165095Y553061D01*
X165054Y553110D01*
X165020Y553163D01*
X164924Y553261D01*
X164836Y553365D01*
X164786Y553404D01*
X164741Y553449D01*
X164628Y553527D01*
X164521Y553611D01*
X164464Y553639D01*
X164411Y553675D01*
X164285Y553728D01*
X164163Y553789D01*
X164102Y553805D01*
X164043Y553830D01*
X163909Y553857D01*
X163778Y553892D01*
X163714Y553896D01*
X163652Y553909D01*
X163515Y553909D01*
X163379Y553917D01*
X163316Y553909D01*
X163252Y553908D01*
X163118Y553881D01*
X162983Y553862D01*
X162923Y553841D01*
X162861Y553829D01*
X162735Y553775D01*
X162606Y553730D01*
X162552Y553697D01*
X162493Y553673D01*
X162381Y553595D01*
X162263Y553525D01*
X162216Y553482D01*
X162164Y553447D01*
X162069Y553349D01*
X161968Y553257D01*
X161930Y553205D01*
X161886Y553160D01*
X161813Y553045D01*
X161732Y552934D01*
X161695Y552861D01*
X161671Y552823D01*
X161652Y552775D01*
X161607Y552685D01*
X161322Y551996D01*
X158892Y549566D01*
X155718Y548251D01*
X152282Y548251D01*
X149108Y549566D01*
X146678Y551996D01*
X145363Y555170D01*
X145363Y572830D01*
X146678Y576004D01*
X149108Y578434D01*
X152282Y579749D01*
X155718Y579749D01*
X158892Y578434D01*
X161322Y576004D01*
X161607Y575315D01*
X161672Y575195D01*
X161729Y575071D01*
X161766Y575020D01*
X161796Y574964D01*
X161883Y574858D01*
X161964Y574748D01*
X162011Y574705D01*
X162051Y574656D01*
X162158Y574571D01*
X162258Y574478D01*
X162313Y574446D01*
X162362Y574406D01*
X162484Y574343D01*
X162601Y574273D01*
X162661Y574251D01*
X162717Y574222D01*
X162848Y574185D01*
X162977Y574139D01*
X163040Y574130D01*
X163101Y574113D01*
X163237Y574102D01*
X163373Y574083D01*
X163436Y574087D01*
X163499Y574082D01*
X163635Y574099D01*
X163771Y574107D01*
X163833Y574123D01*
X163896Y574131D01*
X164026Y574174D01*
X164157Y574209D01*
X164214Y574237D01*
X164275Y574257D01*
X164393Y574326D01*
X164515Y574386D01*
X164566Y574425D01*
X164621Y574457D01*
X164723Y574547D01*
X164831Y574631D01*
X164873Y574679D01*
X164920Y574721D01*
X165002Y574830D01*
X165092Y574934D01*
X165134Y575003D01*
X165161Y575040D01*
X165184Y575086D01*
X165236Y575173D01*
X165744Y576171D01*
X166637Y577400D01*
X167712Y578475D01*
X168941Y579368D01*
X170295Y580058D01*
X171740Y580527D01*
X172001Y580568D01*
X172001Y564000D01*
X172001Y547432D01*
X171740Y547473D01*
G37*
%LPD*%
%LPC*%
G36*
X54906Y761933D02*
X54906Y761933D01*
X54774Y761974D01*
X54739Y761976D01*
X54704Y761985D01*
X54500Y761999D01*
X38432Y761999D01*
X38473Y762260D01*
X38942Y763705D01*
X39632Y765059D01*
X40525Y766288D01*
X41600Y767363D01*
X42829Y768256D01*
X44183Y768946D01*
X44702Y769114D01*
X44850Y769182D01*
X44999Y769248D01*
X45008Y769254D01*
X45017Y769258D01*
X45145Y769358D01*
X45275Y769457D01*
X45282Y769464D01*
X45290Y769471D01*
X45391Y769597D01*
X45496Y769723D01*
X45500Y769732D01*
X45507Y769740D01*
X45577Y769886D01*
X45650Y770032D01*
X45652Y770042D01*
X45656Y770051D01*
X45691Y770211D01*
X45729Y770369D01*
X45729Y770379D01*
X45731Y770389D01*
X45728Y770552D01*
X45728Y770715D01*
X45726Y770725D01*
X45726Y770735D01*
X45686Y770893D01*
X45649Y771051D01*
X45644Y771060D01*
X45642Y771070D01*
X45567Y771215D01*
X45494Y771361D01*
X45488Y771368D01*
X45483Y771377D01*
X45377Y771501D01*
X45273Y771626D01*
X45265Y771632D01*
X45258Y771640D01*
X45127Y771736D01*
X44997Y771834D01*
X44985Y771840D01*
X44979Y771844D01*
X44960Y771852D01*
X44813Y771925D01*
X42996Y772678D01*
X40566Y775108D01*
X39251Y778282D01*
X39251Y781718D01*
X40566Y784892D01*
X42996Y787322D01*
X46170Y788637D01*
X63830Y788637D01*
X67004Y787322D01*
X69434Y784892D01*
X70749Y781718D01*
X70749Y778282D01*
X69434Y775108D01*
X67004Y772678D01*
X65187Y771925D01*
X65045Y771846D01*
X64902Y771769D01*
X64894Y771762D01*
X64885Y771757D01*
X64764Y771647D01*
X64643Y771539D01*
X64637Y771531D01*
X64630Y771524D01*
X64538Y771390D01*
X64444Y771257D01*
X64440Y771247D01*
X64434Y771239D01*
X64375Y771086D01*
X64315Y770936D01*
X64313Y770926D01*
X64310Y770916D01*
X64287Y770754D01*
X64263Y770594D01*
X64263Y770584D01*
X64262Y770574D01*
X64277Y770412D01*
X64290Y770249D01*
X64293Y770240D01*
X64294Y770230D01*
X64346Y770077D01*
X64396Y769920D01*
X64401Y769912D01*
X64404Y769902D01*
X64490Y769764D01*
X64574Y769624D01*
X64581Y769617D01*
X64587Y769608D01*
X64702Y769493D01*
X64816Y769377D01*
X64824Y769371D01*
X64831Y769364D01*
X64970Y769278D01*
X65107Y769191D01*
X65119Y769186D01*
X65125Y769182D01*
X65145Y769176D01*
X65298Y769114D01*
X65817Y768946D01*
X67171Y768256D01*
X68400Y767363D01*
X69475Y766288D01*
X70368Y765059D01*
X71058Y763705D01*
X71527Y762260D01*
X71568Y761999D01*
X55500Y761999D01*
X55465Y761995D01*
X55430Y761998D01*
X55294Y761975D01*
X55157Y761959D01*
X55123Y761947D01*
X55088Y761942D01*
X55006Y761907D01*
X54906Y761933D01*
G37*
%LPD*%
%LPC*%
G36*
X200171Y832775D02*
X200171Y832775D01*
X194942Y834941D01*
X190941Y838942D01*
X188775Y844171D01*
X188775Y849829D01*
X190941Y855058D01*
X194942Y859059D01*
X200171Y861225D01*
X205829Y861225D01*
X211058Y859059D01*
X215059Y855058D01*
X217225Y849829D01*
X217225Y844171D01*
X215059Y838942D01*
X211058Y834941D01*
X205829Y832775D01*
X200171Y832775D01*
G37*
%LPD*%
%LPC*%
G36*
X200171Y678775D02*
X200171Y678775D01*
X194942Y680941D01*
X190941Y684942D01*
X188775Y690171D01*
X188775Y695829D01*
X190941Y701058D01*
X194942Y705059D01*
X200171Y707225D01*
X205829Y707225D01*
X211058Y705059D01*
X215059Y701058D01*
X217225Y695829D01*
X217225Y690171D01*
X215059Y684942D01*
X211058Y680941D01*
X205829Y678775D01*
X200171Y678775D01*
G37*
%LPD*%
%LPC*%
G36*
X35561Y375455D02*
X35561Y375455D01*
X32200Y376847D01*
X29627Y379420D01*
X28235Y382781D01*
X28235Y386419D01*
X29627Y389780D01*
X32200Y392353D01*
X35561Y393745D01*
X54439Y393745D01*
X57800Y392353D01*
X60373Y389780D01*
X61765Y386419D01*
X61765Y382781D01*
X60373Y379420D01*
X57800Y376847D01*
X54439Y375455D01*
X35561Y375455D01*
G37*
%LPD*%
%LPC*%
G36*
X630000Y428799D02*
X630000Y428799D01*
X616619Y428799D01*
X616690Y429157D01*
X617299Y430628D01*
X618183Y431951D01*
X619309Y433077D01*
X620632Y433961D01*
X622103Y434570D01*
X623664Y434881D01*
X628316Y434881D01*
X628339Y434883D01*
X628361Y434881D01*
X628537Y434903D01*
X628714Y434921D01*
X628735Y434927D01*
X628758Y434930D01*
X628926Y434986D01*
X629095Y435039D01*
X629115Y435050D01*
X629137Y435057D01*
X629290Y435145D01*
X629446Y435230D01*
X629463Y435245D01*
X629483Y435256D01*
X629616Y435374D01*
X629751Y435488D01*
X629765Y435506D01*
X629782Y435521D01*
X629889Y435662D01*
X629999Y435801D01*
X630009Y435821D01*
X630023Y435839D01*
X630100Y435999D01*
X630180Y436157D01*
X630186Y436179D01*
X630196Y436199D01*
X630239Y436371D01*
X630287Y436542D01*
X630288Y436564D01*
X630294Y436587D01*
X630302Y436764D01*
X630315Y436940D01*
X630312Y436963D01*
X630313Y436986D01*
X630286Y437161D01*
X630263Y437336D01*
X630255Y437358D01*
X630252Y437380D01*
X630163Y437645D01*
X629209Y439948D01*
X629209Y442252D01*
X630091Y444380D01*
X631720Y446009D01*
X633848Y446891D01*
X636152Y446891D01*
X638280Y446009D01*
X639909Y444380D01*
X640791Y442252D01*
X640791Y439948D01*
X639909Y437820D01*
X639102Y437012D01*
X639085Y436992D01*
X639065Y436975D01*
X638959Y436837D01*
X638849Y436703D01*
X638837Y436680D01*
X638820Y436659D01*
X638744Y436503D01*
X638663Y436350D01*
X638655Y436324D01*
X638643Y436301D01*
X638599Y436133D01*
X638550Y435967D01*
X638548Y435940D01*
X638541Y435914D01*
X638531Y435741D01*
X638516Y435569D01*
X638519Y435542D01*
X638518Y435516D01*
X638542Y435344D01*
X638562Y435172D01*
X638570Y435147D01*
X638574Y435120D01*
X638632Y434956D01*
X638686Y434792D01*
X638699Y434769D01*
X638708Y434744D01*
X638797Y434595D01*
X638883Y434444D01*
X638900Y434424D01*
X638914Y434402D01*
X639031Y434274D01*
X639145Y434143D01*
X639166Y434127D01*
X639184Y434107D01*
X639405Y433936D01*
X640691Y433077D01*
X641817Y431951D01*
X642701Y430628D01*
X643310Y429157D01*
X643381Y428799D01*
X630000Y428799D01*
X630000Y428799D01*
G37*
%LPD*%
%LPC*%
G36*
X633848Y493109D02*
X633848Y493109D01*
X631720Y493991D01*
X630091Y495620D01*
X629209Y497748D01*
X629209Y500052D01*
X630163Y502355D01*
X630170Y502377D01*
X630180Y502397D01*
X630227Y502568D01*
X630278Y502737D01*
X630281Y502760D01*
X630287Y502782D01*
X630299Y502959D01*
X630315Y503135D01*
X630313Y503158D01*
X630315Y503180D01*
X630292Y503356D01*
X630272Y503532D01*
X630266Y503554D01*
X630263Y503576D01*
X630205Y503744D01*
X630151Y503913D01*
X630140Y503933D01*
X630133Y503954D01*
X630044Y504107D01*
X629957Y504262D01*
X629942Y504279D01*
X629931Y504299D01*
X629813Y504430D01*
X629698Y504565D01*
X629680Y504579D01*
X629664Y504596D01*
X629523Y504702D01*
X629383Y504811D01*
X629362Y504821D01*
X629344Y504835D01*
X629184Y504910D01*
X629025Y504989D01*
X629003Y504995D01*
X628983Y505005D01*
X628811Y505047D01*
X628639Y505093D01*
X628617Y505094D01*
X628595Y505100D01*
X628316Y505119D01*
X623664Y505119D01*
X622103Y505430D01*
X620632Y506039D01*
X619309Y506923D01*
X618183Y508049D01*
X617299Y509372D01*
X616690Y510843D01*
X616619Y511201D01*
X630000Y511201D01*
X643381Y511201D01*
X643310Y510843D01*
X642701Y509372D01*
X641817Y508049D01*
X640691Y506923D01*
X639405Y506064D01*
X639384Y506047D01*
X639361Y506034D01*
X639230Y505920D01*
X639096Y505810D01*
X639080Y505789D01*
X639060Y505772D01*
X638954Y505634D01*
X638845Y505499D01*
X638832Y505476D01*
X638816Y505455D01*
X638740Y505299D01*
X638660Y505145D01*
X638652Y505120D01*
X638641Y505096D01*
X638597Y504928D01*
X638549Y504762D01*
X638547Y504735D01*
X638540Y504710D01*
X638531Y504537D01*
X638516Y504364D01*
X638520Y504337D01*
X638518Y504311D01*
X638543Y504140D01*
X638564Y503967D01*
X638572Y503942D01*
X638576Y503916D01*
X638635Y503753D01*
X638689Y503588D01*
X638702Y503565D01*
X638711Y503540D01*
X638801Y503392D01*
X638887Y503241D01*
X638905Y503221D01*
X638919Y503198D01*
X639102Y502988D01*
X639909Y502180D01*
X640791Y500052D01*
X640791Y497748D01*
X639909Y495620D01*
X638280Y493991D01*
X636152Y493109D01*
X633848Y493109D01*
G37*
%LPD*%
%LPC*%
G36*
X113600Y387959D02*
X113600Y387959D01*
X111012Y389031D01*
X109031Y391012D01*
X107959Y393600D01*
X107959Y396400D01*
X109031Y398988D01*
X111012Y400969D01*
X113600Y402041D01*
X116400Y402041D01*
X118988Y400969D01*
X120969Y398988D01*
X122041Y396400D01*
X122041Y393600D01*
X120969Y391012D01*
X118988Y389031D01*
X116400Y387959D01*
X113600Y387959D01*
G37*
%LPD*%
%LPC*%
G36*
X113600Y417959D02*
X113600Y417959D01*
X111012Y419031D01*
X109031Y421012D01*
X107959Y423600D01*
X107959Y426400D01*
X109031Y428988D01*
X111012Y430969D01*
X113600Y432041D01*
X116400Y432041D01*
X118988Y430969D01*
X120969Y428988D01*
X122041Y426400D01*
X122041Y423600D01*
X120969Y421012D01*
X118988Y419031D01*
X116400Y417959D01*
X113600Y417959D01*
G37*
%LPD*%
%LPC*%
G36*
X47539Y437939D02*
X47539Y437939D01*
X47539Y445561D01*
X53420Y445561D01*
X54999Y445311D01*
X56520Y444816D01*
X57945Y444090D01*
X59239Y443150D01*
X60370Y442019D01*
X61310Y440725D01*
X62036Y439300D01*
X62479Y437939D01*
X47539Y437939D01*
G37*
%LPD*%
%LPC*%
G36*
X27521Y437939D02*
X27521Y437939D01*
X27964Y439300D01*
X28690Y440725D01*
X29630Y442019D01*
X30761Y443150D01*
X32055Y444090D01*
X33480Y444816D01*
X35001Y445311D01*
X36580Y445561D01*
X42461Y445561D01*
X42461Y437939D01*
X27521Y437939D01*
G37*
%LPD*%
%LPC*%
G36*
X47539Y425239D02*
X47539Y425239D01*
X47539Y432861D01*
X62479Y432861D01*
X62036Y431500D01*
X61310Y430075D01*
X60370Y428781D01*
X59239Y427650D01*
X57945Y426710D01*
X56520Y425984D01*
X54999Y425489D01*
X53420Y425239D01*
X47539Y425239D01*
G37*
%LPD*%
%LPC*%
G36*
X36580Y425239D02*
X36580Y425239D01*
X35001Y425489D01*
X33480Y425984D01*
X32055Y426710D01*
X30761Y427650D01*
X29630Y428781D01*
X28690Y430075D01*
X27964Y431500D01*
X27521Y432861D01*
X42461Y432861D01*
X42461Y425239D01*
X36580Y425239D01*
G37*
%LPD*%
%LPC*%
G36*
X56999Y750347D02*
X56999Y750347D01*
X56999Y758001D01*
X71568Y758001D01*
X71527Y757740D01*
X71058Y756295D01*
X70368Y754941D01*
X69475Y753712D01*
X68400Y752637D01*
X67171Y751744D01*
X65817Y751054D01*
X64372Y750585D01*
X62872Y750347D01*
X56999Y750347D01*
G37*
%LPD*%
%LPC*%
G36*
X47128Y750347D02*
X47128Y750347D01*
X45628Y750585D01*
X44183Y751054D01*
X42829Y751744D01*
X41600Y752637D01*
X40525Y753712D01*
X39632Y754941D01*
X38942Y756295D01*
X38473Y757740D01*
X38432Y758001D01*
X53001Y758001D01*
X53001Y750347D01*
X47128Y750347D01*
G37*
%LPD*%
%LPC*%
G36*
X175999Y565999D02*
X175999Y565999D01*
X175999Y580568D01*
X176260Y580527D01*
X177705Y580058D01*
X179059Y579368D01*
X180288Y578475D01*
X181363Y577400D01*
X182256Y576171D01*
X182946Y574817D01*
X183415Y573372D01*
X183653Y571872D01*
X183653Y565999D01*
X175999Y565999D01*
G37*
%LPD*%
%LPC*%
G36*
X175999Y562001D02*
X175999Y562001D01*
X183653Y562001D01*
X183653Y556128D01*
X183415Y554628D01*
X182946Y553183D01*
X182256Y551829D01*
X181363Y550600D01*
X180288Y549525D01*
X179059Y548632D01*
X177705Y547942D01*
X176260Y547473D01*
X175999Y547432D01*
X175999Y562001D01*
G37*
%LPD*%
%LPC*%
G36*
X100347Y61999D02*
X100347Y61999D01*
X100347Y67872D01*
X100585Y69372D01*
X101054Y70817D01*
X101744Y72171D01*
X102637Y73400D01*
X103712Y74475D01*
X104941Y75368D01*
X106295Y76058D01*
X107740Y76527D01*
X108001Y76568D01*
X108001Y61999D01*
X100347Y61999D01*
G37*
%LPD*%
%LPC*%
G36*
X190347Y61999D02*
X190347Y61999D01*
X190347Y67872D01*
X190585Y69372D01*
X191054Y70817D01*
X191744Y72171D01*
X192637Y73400D01*
X193712Y74475D01*
X194941Y75368D01*
X196295Y76058D01*
X197740Y76527D01*
X198001Y76568D01*
X198001Y61999D01*
X190347Y61999D01*
G37*
%LPD*%
%LPC*%
G36*
X107740Y43473D02*
X107740Y43473D01*
X106295Y43942D01*
X104941Y44632D01*
X103712Y45525D01*
X102637Y46600D01*
X101744Y47829D01*
X101054Y49183D01*
X100585Y50628D01*
X100347Y52128D01*
X100347Y58001D01*
X108001Y58001D01*
X108001Y43432D01*
X107740Y43473D01*
G37*
%LPD*%
%LPC*%
G36*
X197740Y43473D02*
X197740Y43473D01*
X196295Y43942D01*
X194941Y44632D01*
X193712Y45525D01*
X192637Y46600D01*
X191744Y47829D01*
X191054Y49183D01*
X190585Y50628D01*
X190347Y52128D01*
X190347Y58001D01*
X198001Y58001D01*
X198001Y43432D01*
X197740Y43473D01*
G37*
%LPD*%
%LPC*%
G36*
X268997Y437459D02*
X268997Y437459D01*
X267145Y438227D01*
X265727Y439645D01*
X264959Y441497D01*
X264959Y443503D01*
X265727Y445355D01*
X267145Y446773D01*
X268997Y447541D01*
X271003Y447541D01*
X272855Y446773D01*
X274273Y445355D01*
X275041Y443503D01*
X275041Y441497D01*
X274273Y439645D01*
X272855Y438227D01*
X271003Y437459D01*
X268997Y437459D01*
G37*
%LPD*%
%LPC*%
G36*
X428997Y437459D02*
X428997Y437459D01*
X427145Y438227D01*
X425727Y439645D01*
X424959Y441497D01*
X424959Y443503D01*
X425727Y445355D01*
X427145Y446773D01*
X428997Y447541D01*
X431003Y447541D01*
X432855Y446773D01*
X434273Y445355D01*
X435041Y443503D01*
X435041Y441497D01*
X434273Y439645D01*
X432855Y438227D01*
X431003Y437459D01*
X428997Y437459D01*
G37*
%LPD*%
%LPC*%
G36*
X631999Y515199D02*
X631999Y515199D01*
X631999Y521281D01*
X636336Y521281D01*
X637897Y520970D01*
X639368Y520361D01*
X640691Y519477D01*
X641817Y518351D01*
X642701Y517028D01*
X643310Y515557D01*
X643381Y515199D01*
X631999Y515199D01*
G37*
%LPD*%
%LPC*%
G36*
X673499Y515199D02*
X673499Y515199D01*
X673499Y521281D01*
X677836Y521281D01*
X679397Y520970D01*
X680868Y520361D01*
X682191Y519477D01*
X683317Y518351D01*
X684201Y517028D01*
X684810Y515557D01*
X684881Y515199D01*
X673499Y515199D01*
G37*
%LPD*%
%LPC*%
G36*
X673499Y428799D02*
X673499Y428799D01*
X673499Y434881D01*
X677836Y434881D01*
X679397Y434570D01*
X680868Y433961D01*
X682191Y433077D01*
X683317Y431951D01*
X684201Y430628D01*
X684810Y429157D01*
X684881Y428799D01*
X673499Y428799D01*
G37*
%LPD*%
%LPC*%
G36*
X616619Y515199D02*
X616619Y515199D01*
X616690Y515557D01*
X617299Y517028D01*
X618183Y518351D01*
X619309Y519477D01*
X620632Y520361D01*
X622103Y520970D01*
X623664Y521281D01*
X628001Y521281D01*
X628001Y515199D01*
X616619Y515199D01*
G37*
%LPD*%
%LPC*%
G36*
X658119Y515199D02*
X658119Y515199D01*
X658190Y515557D01*
X658799Y517028D01*
X659683Y518351D01*
X660809Y519477D01*
X662132Y520361D01*
X663603Y520970D01*
X665164Y521281D01*
X669501Y521281D01*
X669501Y515199D01*
X658119Y515199D01*
G37*
%LPD*%
%LPC*%
G36*
X658119Y428799D02*
X658119Y428799D01*
X658190Y429157D01*
X658799Y430628D01*
X659683Y431951D01*
X660809Y433077D01*
X662132Y433961D01*
X663603Y434570D01*
X665164Y434881D01*
X669501Y434881D01*
X669501Y428799D01*
X658119Y428799D01*
G37*
%LPD*%
%LPC*%
G36*
X673499Y418719D02*
X673499Y418719D01*
X673499Y424801D01*
X684881Y424801D01*
X684810Y424443D01*
X684201Y422972D01*
X683317Y421649D01*
X682191Y420523D01*
X680868Y419639D01*
X679397Y419030D01*
X677836Y418719D01*
X673499Y418719D01*
G37*
%LPD*%
%LPC*%
G36*
X631999Y418719D02*
X631999Y418719D01*
X631999Y424801D01*
X643381Y424801D01*
X643310Y424443D01*
X642701Y422972D01*
X641817Y421649D01*
X640691Y420523D01*
X639368Y419639D01*
X637897Y419030D01*
X636336Y418719D01*
X631999Y418719D01*
G37*
%LPD*%
%LPC*%
G36*
X673499Y505119D02*
X673499Y505119D01*
X673499Y511201D01*
X684881Y511201D01*
X684810Y510843D01*
X684201Y509372D01*
X683317Y508049D01*
X682191Y506923D01*
X680868Y506039D01*
X679397Y505430D01*
X677836Y505119D01*
X673499Y505119D01*
G37*
%LPD*%
%LPC*%
G36*
X665164Y505119D02*
X665164Y505119D01*
X663603Y505430D01*
X662132Y506039D01*
X660809Y506923D01*
X659683Y508049D01*
X658799Y509372D01*
X658190Y510843D01*
X658119Y511201D01*
X669501Y511201D01*
X669501Y505119D01*
X665164Y505119D01*
G37*
%LPD*%
%LPC*%
G36*
X623664Y418719D02*
X623664Y418719D01*
X622103Y419030D01*
X620632Y419639D01*
X619309Y420523D01*
X618183Y421649D01*
X617299Y422972D01*
X616690Y424443D01*
X616619Y424801D01*
X628001Y424801D01*
X628001Y418719D01*
X623664Y418719D01*
G37*
%LPD*%
%LPC*%
G36*
X665164Y418719D02*
X665164Y418719D01*
X663603Y419030D01*
X662132Y419639D01*
X660809Y420523D01*
X659683Y421649D01*
X658799Y422972D01*
X658190Y424443D01*
X658119Y424801D01*
X669501Y424801D01*
X669501Y418719D01*
X665164Y418719D01*
G37*
%LPD*%
D10*
X497000Y745000D03*
X497000Y795000D03*
X203000Y847000D03*
X203000Y693000D03*
D11*
X661100Y745000D02*
X679100Y745000D01*
X628900Y745000D02*
X610900Y745000D01*
X610900Y795000D02*
X628900Y795000D01*
X661100Y795000D02*
X679100Y795000D01*
D12*
X200000Y67112D02*
X200000Y52888D01*
X220000Y52888D02*
X220000Y67112D01*
X110000Y67112D02*
X110000Y52888D01*
X130000Y52888D02*
X130000Y67112D01*
X385000Y67112D02*
X385000Y52888D01*
X405000Y52888D02*
X405000Y67112D01*
X295000Y67112D02*
X295000Y52888D01*
X315000Y52888D02*
X315000Y67112D01*
X570000Y67112D02*
X570000Y52888D01*
X590000Y52888D02*
X590000Y67112D01*
X480000Y67112D02*
X480000Y52888D01*
X500000Y52888D02*
X500000Y67112D01*
D13*
X624460Y426800D02*
X635540Y426800D01*
X635540Y513200D02*
X624460Y513200D01*
X665960Y513200D02*
X677040Y513200D01*
X677040Y426800D02*
X665960Y426800D01*
D14*
X675000Y195000D03*
D15*
X675000Y215000D03*
D14*
X675000Y280000D03*
D15*
X675000Y300000D03*
D14*
X675000Y365000D03*
D15*
X675000Y385000D03*
D16*
X52620Y384600D02*
X37380Y384600D01*
X37380Y410000D02*
X52620Y410000D01*
X52620Y435400D02*
X37380Y435400D01*
D12*
X154000Y556888D02*
X154000Y571112D01*
X174000Y571112D02*
X174000Y556888D01*
X62112Y780000D02*
X47888Y780000D01*
X47888Y760000D02*
X62112Y760000D01*
D17*
X580000Y640000D03*
X590000Y640000D03*
X600000Y640000D03*
X610000Y640000D03*
X610000Y680000D03*
X595000Y680000D03*
X580000Y680000D03*
X565000Y680000D03*
X550000Y680000D03*
X535000Y680000D03*
X520000Y680000D03*
X505000Y680000D03*
X490000Y680000D03*
X475000Y680000D03*
X460000Y680000D03*
X445000Y680000D03*
X430000Y680000D03*
X415000Y680000D03*
X410000Y695000D03*
X410000Y710000D03*
X410000Y725000D03*
X410000Y740000D03*
X410000Y755000D03*
X410000Y770000D03*
X410000Y785000D03*
X410000Y800000D03*
X410000Y815000D03*
X410000Y830000D03*
X410000Y845000D03*
X410000Y860000D03*
X410000Y875000D03*
X410000Y890000D03*
X540000Y470000D03*
D18*
X660000Y680000D03*
X660000Y560000D03*
X40000Y40000D03*
X660000Y40000D03*
D17*
X324000Y409000D03*
X323000Y444000D03*
X203000Y524000D03*
X203000Y510000D03*
X203000Y496000D03*
X203000Y482000D03*
X203000Y468000D03*
X307000Y306000D03*
X299000Y306000D03*
X291000Y306000D03*
X283000Y306000D03*
X275000Y306000D03*
X267000Y306000D03*
X259000Y306000D03*
X251000Y306000D03*
X243000Y306000D03*
X259000Y287000D03*
X297000Y289000D03*
X289000Y289000D03*
X281000Y289000D03*
X271000Y279000D03*
X263000Y279000D03*
X255000Y279000D03*
X247000Y279000D03*
X239000Y279000D03*
X239000Y271000D03*
X231000Y271000D03*
X223000Y271000D03*
X215000Y271000D03*
X207000Y271000D03*
X199000Y271000D03*
X199000Y281000D03*
X199000Y291000D03*
X223000Y323000D03*
X231000Y323000D03*
X239000Y323000D03*
X239000Y315000D03*
X215000Y323000D03*
X207000Y323000D03*
X199000Y323000D03*
X199000Y313000D03*
X199000Y303000D03*
X231000Y144000D03*
X168500Y231500D03*
X178500Y231000D03*
X350000Y590000D03*
X340000Y590000D03*
X330000Y590000D03*
X320000Y590000D03*
X310000Y590000D03*
X300000Y590000D03*
X290000Y590000D03*
X280000Y590000D03*
X270000Y590000D03*
X260000Y590000D03*
X250000Y590000D03*
X240000Y590000D03*
X230000Y590000D03*
X220000Y590000D03*
X210000Y590000D03*
X200000Y590000D03*
X190000Y590000D03*
X360000Y590000D03*
X370000Y590000D03*
X380000Y590000D03*
X390000Y590000D03*
X400000Y590000D03*
X410000Y590000D03*
X420000Y590000D03*
X430000Y590000D03*
X440000Y590000D03*
X450000Y590000D03*
X460000Y590000D03*
X470000Y590000D03*
X480000Y590000D03*
X490000Y590000D03*
X500000Y590000D03*
X510000Y590000D03*
X520000Y590000D03*
X530000Y590000D03*
X540000Y590000D03*
X550000Y590000D03*
X560000Y590000D03*
X350000Y10000D03*
X340000Y10000D03*
X330000Y10000D03*
X320000Y10000D03*
X310000Y10000D03*
X300000Y10000D03*
X290000Y10000D03*
X280000Y10000D03*
X270000Y10000D03*
X260000Y10000D03*
X250000Y10000D03*
X240000Y10000D03*
X230000Y10000D03*
X220000Y10000D03*
X210000Y10000D03*
X200000Y10000D03*
X190000Y10000D03*
X180000Y10000D03*
X170000Y10000D03*
X160000Y10000D03*
X150000Y10000D03*
X140000Y10000D03*
X130000Y10000D03*
X120000Y10000D03*
X110000Y10000D03*
X100000Y10000D03*
X90000Y10000D03*
X80000Y10000D03*
X70000Y10000D03*
X360000Y10000D03*
X370000Y10000D03*
X380000Y10000D03*
X390000Y10000D03*
X400000Y10000D03*
X410000Y10000D03*
X420000Y10000D03*
X430000Y10000D03*
X440000Y10000D03*
X450000Y10000D03*
X460000Y10000D03*
X470000Y10000D03*
X480000Y10000D03*
X490000Y10000D03*
X500000Y10000D03*
X510000Y10000D03*
X520000Y10000D03*
X530000Y10000D03*
X540000Y10000D03*
X550000Y10000D03*
X560000Y10000D03*
X570000Y10000D03*
X580000Y10000D03*
X590000Y10000D03*
X600000Y10000D03*
X610000Y10000D03*
X620000Y10000D03*
X630000Y10000D03*
D18*
X40000Y560000D03*
D17*
X353000Y444000D03*
X193000Y414000D03*
X203000Y414000D03*
X308000Y369000D03*
D18*
X40000Y860000D03*
X40000Y680000D03*
D17*
X370000Y336500D03*
X330000Y353500D03*
X343000Y360000D03*
X357000Y360000D03*
X350000Y275000D03*
X353000Y409000D03*
X368000Y409000D03*
X439000Y289000D03*
X163000Y194000D03*
X178000Y194000D03*
X193000Y194000D03*
X350000Y287000D03*
X338000Y287000D03*
X338000Y275000D03*
X338000Y263000D03*
X350000Y263000D03*
X362000Y263000D03*
X362000Y275000D03*
X362000Y287000D03*
X397000Y207000D03*
X411000Y207000D03*
X319000Y193000D03*
X255000Y209000D03*
X255000Y191000D03*
X211000Y253000D03*
X231000Y253000D03*
X227000Y357000D03*
X245000Y357000D03*
X209000Y357000D03*
X15000Y353000D03*
X15000Y341000D03*
X15000Y329000D03*
X15000Y317000D03*
X294000Y255000D03*
X456000Y331000D03*
X470000Y331000D03*
X484000Y331000D03*
X580000Y600000D03*
X590000Y600000D03*
X600000Y600000D03*
X610000Y600000D03*
X181500Y370000D03*
D19*
X165000Y115000D02*
X255000Y115000D01*
X445000Y115000D01*
X630000Y115000D01*
X645000Y115000D01*
X675000Y145000D02*
X675000Y195000D01*
X675000Y145000D02*
X645000Y115000D01*
D17*
X165000Y115000D03*
X255000Y115000D03*
X630000Y115000D03*
D20*
X675000Y195000D02*
X688000Y208000D01*
X675000Y255000D02*
X675000Y280000D01*
X688000Y242000D02*
X688000Y208000D01*
X688000Y242000D02*
X675000Y255000D01*
X675000Y280000D02*
X688000Y293000D01*
X688000Y327000D01*
X675000Y340000D01*
X675000Y365000D01*
D19*
X165000Y115000D02*
X155000Y115000D01*
X142500Y127500D01*
D17*
X445000Y115000D03*
D19*
X181500Y370000D02*
X196500Y385000D01*
D17*
X394000Y370000D03*
D19*
X181500Y370000D02*
X142500Y331000D01*
X142500Y127500D01*
X394000Y370000D02*
X379000Y385000D01*
X196500Y385000D01*
D17*
X90000Y640000D03*
X100000Y640000D03*
X110000Y640000D03*
X120000Y640000D03*
D21*
X100000Y565000D03*
D22*
X85000Y550000D02*
X85000Y425000D01*
X85000Y550000D02*
X100000Y565000D01*
D19*
X128000Y121000D02*
X165000Y84000D01*
X165000Y35000D01*
X175000Y25000D01*
X570000Y35000D02*
X570000Y60000D01*
X570000Y35000D02*
X560000Y25000D01*
X295000Y25000D02*
X175000Y25000D01*
X295000Y25000D02*
X385000Y25000D01*
X480000Y25000D01*
X560000Y25000D01*
X480000Y25000D02*
X480000Y60000D01*
X385000Y60000D02*
X385000Y25000D01*
X295000Y25000D02*
X295000Y60000D01*
X85000Y355000D02*
X85000Y410000D01*
X85000Y425000D01*
X128000Y312000D02*
X128000Y121000D01*
X128000Y312000D02*
X85000Y355000D01*
X85000Y410000D02*
X45000Y410000D01*
D17*
X90000Y600000D03*
X100000Y600000D03*
X110000Y600000D03*
X120000Y600000D03*
X414250Y284250D03*
X476089Y172112D03*
D23*
X342888Y172112D01*
X414250Y264250D02*
X414250Y284250D01*
X333524Y181476D02*
X342888Y172112D01*
X333524Y181476D02*
X333524Y228540D01*
X351460Y246476D01*
X396476Y246476D01*
X414250Y264250D01*
D17*
X401218Y420218D03*
D23*
X409347Y420218D02*
X414250Y415315D01*
X409347Y420218D02*
X401218Y420218D01*
X414250Y415315D02*
X414250Y284250D01*
X410726Y299226D02*
X392500Y281000D01*
D17*
X392500Y281000D03*
X470000Y166056D03*
D23*
X468000Y168056D01*
X341944Y168056D01*
X330000Y180000D01*
X330000Y230000D01*
X350000Y250000D01*
X385000Y250000D01*
X392500Y257500D01*
X392500Y281000D01*
X410726Y410274D02*
X408000Y413000D01*
D17*
X408000Y413000D03*
D23*
X410726Y410274D02*
X410726Y299226D01*
D17*
X273000Y256000D03*
D23*
X460524Y156476D02*
X470000Y147000D01*
D17*
X470000Y147000D03*
D23*
X273000Y249000D02*
X273000Y256000D01*
X273000Y249000D02*
X276000Y246000D01*
X276000Y174000D01*
X293524Y156476D01*
X460524Y156476D01*
D17*
X280000Y251000D03*
D23*
X280000Y175000D01*
X295000Y160000D01*
X550000Y160000D02*
X560000Y150000D01*
D17*
X560000Y150000D03*
D23*
X550000Y160000D02*
X295000Y160000D01*
D17*
X355000Y220556D03*
D23*
X357685Y217871D01*
X455871Y217871D02*
X456000Y218000D01*
D17*
X456000Y218000D03*
D23*
X455871Y217871D02*
X357685Y217871D01*
D17*
X300000Y245000D03*
D23*
X300000Y175000D01*
D17*
X300000Y175000D03*
X206048Y219580D03*
D23*
X221048Y219580D01*
X229000Y211628D01*
X229000Y190000D01*
D17*
X229000Y190000D03*
X173000Y166000D03*
D23*
X220000Y166000D01*
X229000Y175000D01*
X229000Y190000D01*
D17*
X302412Y262000D03*
D23*
X307000Y178000D02*
X310000Y175000D01*
D17*
X310000Y175000D03*
D23*
X307000Y250000D02*
X307000Y252000D01*
X307000Y250000D02*
X307000Y178000D01*
X307000Y252000D02*
X307000Y257412D01*
X302412Y262000D01*
D17*
X645000Y485000D03*
X645000Y455000D03*
X554000Y456000D03*
D24*
X554000Y474000D01*
X565000Y485000D02*
X645000Y485000D01*
X565000Y485000D02*
X554000Y474000D01*
X645000Y485000D02*
X645000Y455000D01*
D17*
X386073Y223927D03*
D23*
X403927Y223927D01*
X425000Y245000D01*
X425000Y390000D01*
X445000Y410000D01*
X578649Y453649D02*
X585649Y460649D01*
X594649Y460649D01*
X578649Y453649D02*
X578649Y423649D01*
D17*
X594649Y460649D03*
D23*
X565000Y410000D02*
X445000Y410000D01*
X565000Y410000D02*
X578649Y423649D01*
D17*
X600000Y467444D03*
X380000Y230000D03*
D23*
X587444Y467444D02*
X600000Y467444D01*
X587444Y467444D02*
X575000Y455000D01*
X575000Y424984D01*
X443540Y413524D02*
X421476Y391460D01*
X405000Y230000D02*
X380000Y230000D01*
X563540Y413524D02*
X575000Y424984D01*
X563540Y413524D02*
X443540Y413524D01*
X421476Y391460D02*
X421476Y246476D01*
X405000Y230000D01*
D17*
X495000Y520000D03*
D23*
X493000Y518000D01*
X413000Y518000D01*
X403678Y312243D02*
X401146Y309711D01*
D17*
X401146Y309711D03*
D23*
X403678Y312243D02*
X403678Y391322D01*
X389702Y494702D02*
X413000Y518000D01*
X389702Y405298D02*
X403678Y391322D01*
X389702Y405298D02*
X389702Y494702D01*
D17*
X501073Y513927D03*
D23*
X413927Y513927D01*
X393226Y493226D02*
X393226Y406774D01*
X393226Y493226D02*
X413927Y513927D01*
X407202Y307202D02*
X401000Y301000D01*
D17*
X401000Y301000D03*
D23*
X407202Y392798D02*
X393226Y406774D01*
X407202Y392798D02*
X407202Y307202D01*
D17*
X165000Y385000D03*
D19*
X175000Y395000D01*
D17*
X394000Y385000D03*
D19*
X384000Y395000D01*
X175000Y395000D01*
D18*
X660000Y860000D03*
M02*
