G04 EAGLE Gerber RS-274X export*
G75*
%MOMM*%
%FSLAX34Y34*%
%LPD*%
%IN*%
%IPPOS*%
%AMOC8*
5,1,8,0,0,1.08239X$1,22.5*%
G01*
%ADD10C,0.254000*%


D10*
X0Y40000D02*
X152Y36514D01*
X608Y33054D01*
X1363Y29647D01*
X2412Y26319D01*
X3748Y23095D01*
X5359Y20000D01*
X7234Y17057D01*
X9358Y14289D01*
X11716Y11716D01*
X14289Y9358D01*
X17057Y7234D01*
X20000Y5359D01*
X23095Y3748D01*
X26319Y2412D01*
X29647Y1363D01*
X33054Y608D01*
X36514Y152D01*
X40000Y0D01*
X660000Y0D01*
X663486Y152D01*
X666946Y608D01*
X670353Y1363D01*
X673681Y2412D01*
X676905Y3748D01*
X680000Y5359D01*
X682943Y7234D01*
X685712Y9358D01*
X688284Y11716D01*
X690642Y14289D01*
X692766Y17057D01*
X694641Y20000D01*
X696252Y23095D01*
X697588Y26319D01*
X698637Y29647D01*
X699392Y33054D01*
X699848Y36514D01*
X700000Y40000D01*
X700000Y560000D01*
X699848Y563486D01*
X699392Y566946D01*
X698637Y570353D01*
X697588Y573681D01*
X696252Y576905D01*
X694641Y580000D01*
X692766Y582943D01*
X690642Y585712D01*
X688284Y588284D01*
X685712Y590642D01*
X682943Y592766D01*
X680000Y594641D01*
X676905Y596252D01*
X673681Y597588D01*
X670353Y598637D01*
X666946Y599392D01*
X663486Y599848D01*
X660000Y600000D01*
X620000Y600000D01*
X620000Y640000D01*
X660000Y640000D01*
X663486Y640152D01*
X666946Y640608D01*
X670353Y641363D01*
X673681Y642412D01*
X676905Y643748D01*
X680000Y645359D01*
X682943Y647234D01*
X685712Y649358D01*
X688284Y651716D01*
X690642Y654289D01*
X692766Y657057D01*
X694641Y660000D01*
X696252Y663095D01*
X697588Y666319D01*
X698637Y669647D01*
X699392Y673054D01*
X699848Y676514D01*
X700000Y680000D01*
X700000Y860000D01*
X699848Y863486D01*
X699392Y866946D01*
X698637Y870353D01*
X697588Y873681D01*
X696252Y876905D01*
X694641Y880000D01*
X692766Y882943D01*
X690642Y885712D01*
X688284Y888284D01*
X685712Y890642D01*
X682943Y892766D01*
X680000Y894641D01*
X676905Y896252D01*
X673681Y897588D01*
X670353Y898637D01*
X666946Y899392D01*
X663486Y899848D01*
X660000Y900000D01*
X40000Y900000D01*
X36514Y899848D01*
X33054Y899392D01*
X29647Y898637D01*
X26319Y897588D01*
X23095Y896252D01*
X20000Y894641D01*
X17057Y892766D01*
X14289Y890642D01*
X11716Y888284D01*
X9358Y885712D01*
X7234Y882943D01*
X5359Y880000D01*
X3748Y876905D01*
X2412Y873681D01*
X1363Y870353D01*
X608Y866946D01*
X152Y863486D01*
X0Y860000D01*
X0Y680000D01*
X152Y676514D01*
X608Y673054D01*
X1363Y669647D01*
X2412Y666319D01*
X3748Y663095D01*
X5359Y660000D01*
X7234Y657057D01*
X9358Y654289D01*
X11716Y651716D01*
X14289Y649358D01*
X17057Y647234D01*
X20000Y645359D01*
X23095Y643748D01*
X26319Y642412D01*
X29647Y641363D01*
X33054Y640608D01*
X36514Y640152D01*
X40000Y640000D01*
X80000Y640000D01*
X80000Y600000D01*
X40000Y600000D01*
X36514Y599848D01*
X33054Y599392D01*
X29647Y598637D01*
X26319Y597588D01*
X23095Y596252D01*
X20000Y594641D01*
X17057Y592766D01*
X14289Y590642D01*
X11716Y588284D01*
X9358Y585712D01*
X7234Y582943D01*
X5359Y580000D01*
X3748Y576905D01*
X2412Y573681D01*
X1363Y570353D01*
X608Y566946D01*
X152Y563486D01*
X0Y560000D01*
X0Y40000D01*
X664500Y513200D02*
X664511Y512939D01*
X664546Y512679D01*
X664602Y512424D01*
X664681Y512174D01*
X664781Y511932D01*
X664902Y511700D01*
X665043Y511479D01*
X665202Y511272D01*
X665379Y511079D01*
X665572Y510902D01*
X665779Y510743D01*
X666000Y510602D01*
X666232Y510481D01*
X666474Y510381D01*
X666724Y510302D01*
X666979Y510246D01*
X667239Y510211D01*
X667500Y510200D01*
X675500Y510200D01*
X675761Y510211D01*
X676021Y510246D01*
X676276Y510302D01*
X676526Y510381D01*
X676768Y510481D01*
X677000Y510602D01*
X677221Y510743D01*
X677428Y510902D01*
X677621Y511079D01*
X677798Y511272D01*
X677957Y511479D01*
X678098Y511700D01*
X678219Y511932D01*
X678319Y512174D01*
X678398Y512424D01*
X678454Y512679D01*
X678489Y512939D01*
X678500Y513200D01*
X678489Y513461D01*
X678454Y513721D01*
X678398Y513976D01*
X678319Y514226D01*
X678219Y514468D01*
X678098Y514700D01*
X677957Y514921D01*
X677798Y515128D01*
X677621Y515321D01*
X677428Y515498D01*
X677221Y515657D01*
X677000Y515798D01*
X676768Y515919D01*
X676526Y516019D01*
X676276Y516098D01*
X676021Y516154D01*
X675761Y516189D01*
X675500Y516200D01*
X667500Y516200D01*
X667239Y516189D01*
X666979Y516154D01*
X666724Y516098D01*
X666474Y516019D01*
X666232Y515919D01*
X666000Y515798D01*
X665779Y515657D01*
X665572Y515498D01*
X665379Y515321D01*
X665202Y515128D01*
X665043Y514921D01*
X664902Y514700D01*
X664781Y514468D01*
X664681Y514226D01*
X664602Y513976D01*
X664546Y513721D01*
X664511Y513461D01*
X664500Y513200D01*
X621500Y513200D02*
X621511Y512939D01*
X621546Y512679D01*
X621602Y512424D01*
X621681Y512174D01*
X621781Y511932D01*
X621902Y511700D01*
X622043Y511479D01*
X622202Y511272D01*
X622379Y511079D01*
X622572Y510902D01*
X622779Y510743D01*
X623000Y510602D01*
X623232Y510481D01*
X623474Y510381D01*
X623724Y510302D01*
X623979Y510246D01*
X624239Y510211D01*
X624500Y510200D01*
X635500Y510200D01*
X635761Y510211D01*
X636021Y510246D01*
X636276Y510302D01*
X636526Y510381D01*
X636768Y510481D01*
X637000Y510602D01*
X637221Y510743D01*
X637428Y510902D01*
X637621Y511079D01*
X637798Y511272D01*
X637957Y511479D01*
X638098Y511700D01*
X638219Y511932D01*
X638319Y512174D01*
X638398Y512424D01*
X638454Y512679D01*
X638489Y512939D01*
X638500Y513200D01*
X638489Y513461D01*
X638454Y513721D01*
X638398Y513976D01*
X638319Y514226D01*
X638219Y514468D01*
X638098Y514700D01*
X637957Y514921D01*
X637798Y515128D01*
X637621Y515321D01*
X637428Y515498D01*
X637221Y515657D01*
X637000Y515798D01*
X636768Y515919D01*
X636526Y516019D01*
X636276Y516098D01*
X636021Y516154D01*
X635761Y516189D01*
X635500Y516200D01*
X624500Y516200D01*
X624239Y516189D01*
X623979Y516154D01*
X623724Y516098D01*
X623474Y516019D01*
X623232Y515919D01*
X623000Y515798D01*
X622779Y515657D01*
X622572Y515498D01*
X622379Y515321D01*
X622202Y515128D01*
X622043Y514921D01*
X621902Y514700D01*
X621781Y514468D01*
X621681Y514226D01*
X621602Y513976D01*
X621546Y513721D01*
X621511Y513461D01*
X621500Y513200D01*
X664500Y426800D02*
X664511Y426539D01*
X664546Y426279D01*
X664602Y426024D01*
X664681Y425774D01*
X664781Y425532D01*
X664902Y425300D01*
X665043Y425079D01*
X665202Y424872D01*
X665379Y424679D01*
X665572Y424502D01*
X665779Y424343D01*
X666000Y424202D01*
X666232Y424081D01*
X666474Y423981D01*
X666724Y423902D01*
X666979Y423846D01*
X667239Y423811D01*
X667500Y423800D01*
X675500Y423800D01*
X675761Y423811D01*
X676021Y423846D01*
X676276Y423902D01*
X676526Y423981D01*
X676768Y424081D01*
X677000Y424202D01*
X677221Y424343D01*
X677428Y424502D01*
X677621Y424679D01*
X677798Y424872D01*
X677957Y425079D01*
X678098Y425300D01*
X678219Y425532D01*
X678319Y425774D01*
X678398Y426024D01*
X678454Y426279D01*
X678489Y426539D01*
X678500Y426800D01*
X678489Y427061D01*
X678454Y427321D01*
X678398Y427576D01*
X678319Y427826D01*
X678219Y428068D01*
X678098Y428300D01*
X677957Y428521D01*
X677798Y428728D01*
X677621Y428921D01*
X677428Y429098D01*
X677221Y429257D01*
X677000Y429398D01*
X676768Y429519D01*
X676526Y429619D01*
X676276Y429698D01*
X676021Y429754D01*
X675761Y429789D01*
X675500Y429800D01*
X667500Y429800D01*
X667239Y429789D01*
X666979Y429754D01*
X666724Y429698D01*
X666474Y429619D01*
X666232Y429519D01*
X666000Y429398D01*
X665779Y429257D01*
X665572Y429098D01*
X665379Y428921D01*
X665202Y428728D01*
X665043Y428521D01*
X664902Y428300D01*
X664781Y428068D01*
X664681Y427826D01*
X664602Y427576D01*
X664546Y427321D01*
X664511Y427061D01*
X664500Y426800D01*
X621500Y426800D02*
X621511Y426539D01*
X621546Y426279D01*
X621602Y426024D01*
X621681Y425774D01*
X621781Y425532D01*
X621902Y425300D01*
X622043Y425079D01*
X622202Y424872D01*
X622379Y424679D01*
X622572Y424502D01*
X622779Y424343D01*
X623000Y424202D01*
X623232Y424081D01*
X623474Y423981D01*
X623724Y423902D01*
X623979Y423846D01*
X624239Y423811D01*
X624500Y423800D01*
X635500Y423800D01*
X635761Y423811D01*
X636021Y423846D01*
X636276Y423902D01*
X636526Y423981D01*
X636768Y424081D01*
X637000Y424202D01*
X637221Y424343D01*
X637428Y424502D01*
X637621Y424679D01*
X637798Y424872D01*
X637957Y425079D01*
X638098Y425300D01*
X638219Y425532D01*
X638319Y425774D01*
X638398Y426024D01*
X638454Y426279D01*
X638489Y426539D01*
X638500Y426800D01*
X638489Y427061D01*
X638454Y427321D01*
X638398Y427576D01*
X638319Y427826D01*
X638219Y428068D01*
X638098Y428300D01*
X637957Y428521D01*
X637798Y428728D01*
X637621Y428921D01*
X637428Y429098D01*
X637221Y429257D01*
X637000Y429398D01*
X636768Y429519D01*
X636526Y429619D01*
X636276Y429698D01*
X636021Y429754D01*
X635761Y429789D01*
X635500Y429800D01*
X624500Y429800D01*
X624239Y429789D01*
X623979Y429754D01*
X623724Y429698D01*
X623474Y429619D01*
X623232Y429519D01*
X623000Y429398D01*
X622779Y429257D01*
X622572Y429098D01*
X622379Y428921D01*
X622202Y428728D01*
X622043Y428521D01*
X621902Y428300D01*
X621781Y428068D01*
X621681Y427826D01*
X621602Y427576D01*
X621546Y427321D01*
X621511Y427061D01*
X621500Y426800D01*
X130000Y600000D02*
X570000Y600000D01*
X570000Y640000D01*
X130000Y640000D01*
X130000Y600000D01*
X272500Y442303D02*
X272438Y441915D01*
X272317Y441540D01*
X272138Y441190D01*
X271907Y440871D01*
X271629Y440593D01*
X271310Y440362D01*
X270960Y440183D01*
X270585Y440062D01*
X270197Y440000D01*
X269803Y440000D01*
X269415Y440062D01*
X269040Y440183D01*
X268690Y440362D01*
X268371Y440593D01*
X268093Y440871D01*
X267862Y441190D01*
X267683Y441540D01*
X267562Y441915D01*
X267500Y442303D01*
X267500Y442697D01*
X267562Y443085D01*
X267683Y443460D01*
X267862Y443810D01*
X268093Y444129D01*
X268371Y444407D01*
X268690Y444638D01*
X269040Y444817D01*
X269415Y444938D01*
X269803Y445000D01*
X270197Y445000D01*
X270585Y444938D01*
X270960Y444817D01*
X271310Y444638D01*
X271629Y444407D01*
X271907Y444129D01*
X272138Y443810D01*
X272317Y443460D01*
X272438Y443085D01*
X272500Y442697D01*
X272500Y442303D01*
X432500Y442303D02*
X432438Y441915D01*
X432317Y441540D01*
X432138Y441190D01*
X431907Y440871D01*
X431629Y440593D01*
X431310Y440362D01*
X430960Y440183D01*
X430585Y440062D01*
X430197Y440000D01*
X429803Y440000D01*
X429415Y440062D01*
X429040Y440183D01*
X428690Y440362D01*
X428371Y440593D01*
X428093Y440871D01*
X427862Y441190D01*
X427683Y441540D01*
X427562Y441915D01*
X427500Y442303D01*
X427500Y442697D01*
X427562Y443085D01*
X427683Y443460D01*
X427862Y443810D01*
X428093Y444129D01*
X428371Y444407D01*
X428690Y444638D01*
X429040Y444817D01*
X429415Y444938D01*
X429803Y445000D01*
X430197Y445000D01*
X430585Y444938D01*
X430960Y444817D01*
X431310Y444638D01*
X431629Y444407D01*
X431907Y444129D01*
X432138Y443810D01*
X432317Y443460D01*
X432438Y443085D01*
X432500Y442697D01*
X432500Y442303D01*
X635213Y502150D02*
X635635Y502094D01*
X636047Y501984D01*
X636441Y501821D01*
X636809Y501608D01*
X637147Y501349D01*
X637449Y501047D01*
X637708Y500709D01*
X637921Y500341D01*
X638084Y499947D01*
X638194Y499535D01*
X638250Y499113D01*
X638250Y498687D01*
X638194Y498265D01*
X638084Y497853D01*
X637921Y497459D01*
X637708Y497091D01*
X637449Y496753D01*
X637147Y496451D01*
X636809Y496192D01*
X636441Y495979D01*
X636047Y495816D01*
X635635Y495706D01*
X635213Y495650D01*
X634787Y495650D01*
X634365Y495706D01*
X633953Y495816D01*
X633559Y495979D01*
X633191Y496192D01*
X632853Y496451D01*
X632551Y496753D01*
X632292Y497091D01*
X632079Y497459D01*
X631916Y497853D01*
X631806Y498265D01*
X631750Y498687D01*
X631750Y499113D01*
X631806Y499535D01*
X631916Y499947D01*
X632079Y500341D01*
X632292Y500709D01*
X632551Y501047D01*
X632853Y501349D01*
X633191Y501608D01*
X633559Y501821D01*
X633953Y501984D01*
X634365Y502094D01*
X634787Y502150D01*
X635213Y502150D01*
X635213Y444350D02*
X635635Y444294D01*
X636047Y444184D01*
X636441Y444021D01*
X636809Y443808D01*
X637147Y443549D01*
X637449Y443247D01*
X637708Y442909D01*
X637921Y442541D01*
X638084Y442147D01*
X638194Y441735D01*
X638250Y441313D01*
X638250Y440887D01*
X638194Y440465D01*
X638084Y440053D01*
X637921Y439659D01*
X637708Y439291D01*
X637449Y438953D01*
X637147Y438651D01*
X636809Y438392D01*
X636441Y438179D01*
X636047Y438016D01*
X635635Y437906D01*
X635213Y437850D01*
X634787Y437850D01*
X634365Y437906D01*
X633953Y438016D01*
X633559Y438179D01*
X633191Y438392D01*
X632853Y438651D01*
X632551Y438953D01*
X632292Y439291D01*
X632079Y439659D01*
X631916Y440053D01*
X631806Y440465D01*
X631750Y440887D01*
X631750Y441313D01*
X631806Y441735D01*
X631916Y442147D01*
X632079Y442541D01*
X632292Y442909D01*
X632551Y443247D01*
X632853Y443549D01*
X633191Y443808D01*
X633559Y444021D01*
X633953Y444184D01*
X634365Y444294D01*
X634787Y444350D01*
X635213Y444350D01*
X114705Y420500D02*
X114120Y420577D01*
X113550Y420730D01*
X113005Y420955D01*
X112495Y421250D01*
X112027Y421609D01*
X111609Y422027D01*
X111250Y422495D01*
X110955Y423005D01*
X110730Y423550D01*
X110577Y424120D01*
X110500Y424705D01*
X110500Y425295D01*
X110577Y425880D01*
X110730Y426450D01*
X110955Y426995D01*
X111250Y427505D01*
X111609Y427973D01*
X112027Y428391D01*
X112495Y428750D01*
X113005Y429045D01*
X113550Y429270D01*
X114120Y429423D01*
X114705Y429500D01*
X115295Y429500D01*
X115880Y429423D01*
X116450Y429270D01*
X116995Y429045D01*
X117505Y428750D01*
X117973Y428391D01*
X118391Y427973D01*
X118750Y427505D01*
X119045Y426995D01*
X119270Y426450D01*
X119423Y425880D01*
X119500Y425295D01*
X119500Y424705D01*
X119423Y424120D01*
X119270Y423550D01*
X119045Y423005D01*
X118750Y422495D01*
X118391Y422027D01*
X117973Y421609D01*
X117505Y421250D01*
X116995Y420955D01*
X116450Y420730D01*
X115880Y420577D01*
X115295Y420500D01*
X114705Y420500D01*
X114705Y390500D02*
X114120Y390577D01*
X113550Y390730D01*
X113005Y390955D01*
X112495Y391250D01*
X112027Y391609D01*
X111609Y392027D01*
X111250Y392495D01*
X110955Y393005D01*
X110730Y393550D01*
X110577Y394120D01*
X110500Y394705D01*
X110500Y395295D01*
X110577Y395880D01*
X110730Y396450D01*
X110955Y396995D01*
X111250Y397505D01*
X111609Y397973D01*
X112027Y398391D01*
X112495Y398750D01*
X113005Y399045D01*
X113550Y399270D01*
X114120Y399423D01*
X114705Y399500D01*
X115295Y399500D01*
X115880Y399423D01*
X116450Y399270D01*
X116995Y399045D01*
X117505Y398750D01*
X117973Y398391D01*
X118391Y397973D01*
X118750Y397505D01*
X119045Y396995D01*
X119270Y396450D01*
X119423Y395880D01*
X119500Y395295D01*
X119500Y394705D01*
X119423Y394120D01*
X119270Y393550D01*
X119045Y393005D01*
X118750Y392495D01*
X118391Y392027D01*
X117973Y391609D01*
X117505Y391250D01*
X116995Y390955D01*
X116450Y390730D01*
X115880Y390577D01*
X115295Y390500D01*
X114705Y390500D01*
M02*
