G04 EAGLE Gerber RS-274X export*
G75*
%MOMM*%
%FSLAX34Y34*%
%LPD*%
%INSilkscreen Bottom*%
%IPPOS*%
%AMOC8*
5,1,8,0,0,1.08239X$1,22.5*%
G01*
%ADD10C,0.152400*%


D10*
X460378Y300066D02*
X460378Y317846D01*
X455439Y317846D01*
X455299Y317844D01*
X455160Y317838D01*
X455020Y317828D01*
X454881Y317814D01*
X454742Y317797D01*
X454604Y317775D01*
X454467Y317749D01*
X454330Y317720D01*
X454194Y317687D01*
X454060Y317650D01*
X453926Y317609D01*
X453794Y317564D01*
X453662Y317515D01*
X453533Y317463D01*
X453405Y317408D01*
X453278Y317348D01*
X453153Y317285D01*
X453030Y317219D01*
X452909Y317149D01*
X452790Y317076D01*
X452673Y316999D01*
X452559Y316919D01*
X452446Y316836D01*
X452336Y316750D01*
X452229Y316660D01*
X452124Y316568D01*
X452022Y316473D01*
X451922Y316375D01*
X451825Y316274D01*
X451731Y316170D01*
X451641Y316064D01*
X451553Y315955D01*
X451468Y315844D01*
X451387Y315730D01*
X451308Y315615D01*
X451233Y315497D01*
X451162Y315377D01*
X451094Y315254D01*
X451029Y315131D01*
X450968Y315005D01*
X450910Y314877D01*
X450856Y314749D01*
X450806Y314618D01*
X450759Y314486D01*
X450716Y314353D01*
X450677Y314219D01*
X450642Y314084D01*
X450611Y313948D01*
X450583Y313810D01*
X450560Y313673D01*
X450540Y313534D01*
X450524Y313395D01*
X450512Y313256D01*
X450504Y313117D01*
X450500Y312977D01*
X450500Y312837D01*
X450504Y312697D01*
X450512Y312558D01*
X450524Y312419D01*
X450540Y312280D01*
X450560Y312141D01*
X450583Y312004D01*
X450611Y311866D01*
X450642Y311730D01*
X450677Y311595D01*
X450716Y311461D01*
X450759Y311328D01*
X450806Y311196D01*
X450856Y311065D01*
X450910Y310937D01*
X450968Y310809D01*
X451029Y310683D01*
X451094Y310560D01*
X451162Y310438D01*
X451233Y310317D01*
X451308Y310199D01*
X451387Y310084D01*
X451468Y309970D01*
X451553Y309859D01*
X451641Y309750D01*
X451731Y309644D01*
X451825Y309540D01*
X451922Y309439D01*
X452022Y309341D01*
X452124Y309246D01*
X452229Y309154D01*
X452336Y309064D01*
X452446Y308978D01*
X452559Y308895D01*
X452673Y308815D01*
X452790Y308738D01*
X452909Y308665D01*
X453030Y308595D01*
X453153Y308529D01*
X453278Y308466D01*
X453405Y308406D01*
X453533Y308351D01*
X453662Y308299D01*
X453794Y308250D01*
X453926Y308205D01*
X454060Y308164D01*
X454194Y308127D01*
X454330Y308094D01*
X454467Y308065D01*
X454604Y308039D01*
X454742Y308017D01*
X454881Y308000D01*
X455020Y307986D01*
X455160Y307976D01*
X455299Y307970D01*
X455439Y307968D01*
X460378Y307968D01*
X454452Y307968D02*
X450501Y300066D01*
X440879Y300066D02*
X435940Y300066D01*
X440879Y300066D02*
X440985Y300068D01*
X441090Y300074D01*
X441196Y300083D01*
X441301Y300096D01*
X441405Y300113D01*
X441509Y300134D01*
X441612Y300158D01*
X441714Y300186D01*
X441815Y300218D01*
X441914Y300253D01*
X442013Y300292D01*
X442110Y300334D01*
X442205Y300379D01*
X442299Y300428D01*
X442391Y300481D01*
X442481Y300536D01*
X442569Y300595D01*
X442655Y300657D01*
X442738Y300722D01*
X442819Y300790D01*
X442898Y300860D01*
X442974Y300934D01*
X443048Y301010D01*
X443118Y301089D01*
X443186Y301170D01*
X443251Y301253D01*
X443313Y301339D01*
X443372Y301427D01*
X443427Y301517D01*
X443480Y301609D01*
X443529Y301703D01*
X443574Y301798D01*
X443616Y301895D01*
X443655Y301994D01*
X443690Y302093D01*
X443722Y302194D01*
X443750Y302296D01*
X443774Y302399D01*
X443795Y302503D01*
X443812Y302607D01*
X443825Y302712D01*
X443834Y302818D01*
X443840Y302923D01*
X443842Y303029D01*
X443842Y307968D01*
X443840Y308092D01*
X443834Y308216D01*
X443824Y308340D01*
X443811Y308463D01*
X443793Y308586D01*
X443772Y308708D01*
X443747Y308830D01*
X443718Y308951D01*
X443685Y309070D01*
X443649Y309189D01*
X443608Y309306D01*
X443565Y309422D01*
X443517Y309537D01*
X443466Y309650D01*
X443411Y309762D01*
X443353Y309871D01*
X443292Y309979D01*
X443227Y310085D01*
X443159Y310189D01*
X443087Y310290D01*
X443013Y310390D01*
X442935Y310486D01*
X442855Y310581D01*
X442771Y310673D01*
X442685Y310762D01*
X442596Y310848D01*
X442504Y310932D01*
X442409Y311012D01*
X442313Y311090D01*
X442213Y311164D01*
X442112Y311236D01*
X442008Y311304D01*
X441902Y311369D01*
X441794Y311430D01*
X441685Y311488D01*
X441573Y311543D01*
X441460Y311594D01*
X441345Y311642D01*
X441229Y311685D01*
X441112Y311726D01*
X440993Y311762D01*
X440874Y311795D01*
X440753Y311824D01*
X440631Y311849D01*
X440509Y311870D01*
X440386Y311888D01*
X440263Y311901D01*
X440139Y311911D01*
X440015Y311917D01*
X439891Y311919D01*
X439767Y311917D01*
X439643Y311911D01*
X439519Y311901D01*
X439396Y311888D01*
X439273Y311870D01*
X439151Y311849D01*
X439029Y311824D01*
X438908Y311795D01*
X438789Y311762D01*
X438670Y311726D01*
X438553Y311685D01*
X438437Y311642D01*
X438322Y311594D01*
X438209Y311543D01*
X438097Y311488D01*
X437988Y311430D01*
X437880Y311369D01*
X437774Y311304D01*
X437670Y311236D01*
X437569Y311164D01*
X437469Y311090D01*
X437373Y311012D01*
X437278Y310932D01*
X437186Y310848D01*
X437097Y310762D01*
X437011Y310673D01*
X436927Y310581D01*
X436847Y310486D01*
X436769Y310390D01*
X436695Y310290D01*
X436623Y310189D01*
X436555Y310085D01*
X436490Y309979D01*
X436429Y309871D01*
X436371Y309762D01*
X436316Y309650D01*
X436265Y309537D01*
X436217Y309422D01*
X436174Y309306D01*
X436133Y309189D01*
X436097Y309070D01*
X436064Y308951D01*
X436035Y308830D01*
X436010Y308708D01*
X435989Y308586D01*
X435971Y308463D01*
X435958Y308340D01*
X435948Y308216D01*
X435942Y308092D01*
X435940Y307968D01*
X435940Y305993D01*
X443842Y305993D01*
X428345Y300066D02*
X428345Y314883D01*
X428344Y314883D02*
X428342Y314989D01*
X428336Y315094D01*
X428327Y315200D01*
X428314Y315305D01*
X428297Y315409D01*
X428276Y315513D01*
X428252Y315616D01*
X428224Y315718D01*
X428192Y315819D01*
X428157Y315918D01*
X428118Y316017D01*
X428076Y316114D01*
X428031Y316209D01*
X427982Y316303D01*
X427929Y316395D01*
X427874Y316485D01*
X427815Y316573D01*
X427753Y316659D01*
X427688Y316742D01*
X427620Y316823D01*
X427550Y316902D01*
X427476Y316978D01*
X427400Y317052D01*
X427321Y317122D01*
X427240Y317190D01*
X427157Y317255D01*
X427071Y317317D01*
X426983Y317376D01*
X426893Y317431D01*
X426801Y317484D01*
X426707Y317533D01*
X426612Y317578D01*
X426515Y317620D01*
X426416Y317659D01*
X426317Y317694D01*
X426216Y317726D01*
X426114Y317754D01*
X426011Y317778D01*
X425907Y317799D01*
X425803Y317816D01*
X425698Y317829D01*
X425592Y317838D01*
X425487Y317844D01*
X425381Y317846D01*
X424393Y317846D01*
X424393Y311919D02*
X430320Y311919D01*
X419538Y317846D02*
X419538Y303029D01*
X419536Y302923D01*
X419530Y302818D01*
X419521Y302712D01*
X419508Y302607D01*
X419491Y302503D01*
X419470Y302399D01*
X419446Y302296D01*
X419418Y302194D01*
X419386Y302093D01*
X419351Y301994D01*
X419312Y301895D01*
X419270Y301798D01*
X419225Y301703D01*
X419176Y301609D01*
X419123Y301517D01*
X419068Y301427D01*
X419009Y301339D01*
X418947Y301253D01*
X418882Y301170D01*
X418814Y301089D01*
X418744Y301010D01*
X418670Y300934D01*
X418594Y300860D01*
X418515Y300790D01*
X418434Y300722D01*
X418351Y300657D01*
X418265Y300595D01*
X418177Y300536D01*
X418087Y300481D01*
X417995Y300428D01*
X417901Y300379D01*
X417806Y300334D01*
X417709Y300292D01*
X417610Y300253D01*
X417511Y300218D01*
X417410Y300186D01*
X417308Y300158D01*
X417205Y300134D01*
X417101Y300113D01*
X416997Y300096D01*
X416892Y300083D01*
X416786Y300074D01*
X416681Y300068D01*
X416575Y300066D01*
X410900Y304017D02*
X410900Y307968D01*
X410898Y308092D01*
X410892Y308216D01*
X410882Y308340D01*
X410869Y308463D01*
X410851Y308586D01*
X410830Y308708D01*
X410805Y308830D01*
X410776Y308951D01*
X410743Y309070D01*
X410707Y309189D01*
X410666Y309306D01*
X410623Y309422D01*
X410575Y309537D01*
X410524Y309650D01*
X410469Y309762D01*
X410411Y309871D01*
X410350Y309979D01*
X410285Y310085D01*
X410217Y310189D01*
X410145Y310290D01*
X410071Y310390D01*
X409993Y310486D01*
X409913Y310581D01*
X409829Y310673D01*
X409743Y310762D01*
X409654Y310848D01*
X409562Y310932D01*
X409467Y311012D01*
X409371Y311090D01*
X409271Y311164D01*
X409170Y311236D01*
X409066Y311304D01*
X408960Y311369D01*
X408852Y311430D01*
X408743Y311488D01*
X408631Y311543D01*
X408518Y311594D01*
X408403Y311642D01*
X408287Y311685D01*
X408170Y311726D01*
X408051Y311762D01*
X407932Y311795D01*
X407811Y311824D01*
X407689Y311849D01*
X407567Y311870D01*
X407444Y311888D01*
X407321Y311901D01*
X407197Y311911D01*
X407073Y311917D01*
X406949Y311919D01*
X406825Y311917D01*
X406701Y311911D01*
X406577Y311901D01*
X406454Y311888D01*
X406331Y311870D01*
X406209Y311849D01*
X406087Y311824D01*
X405966Y311795D01*
X405847Y311762D01*
X405728Y311726D01*
X405611Y311685D01*
X405495Y311642D01*
X405380Y311594D01*
X405267Y311543D01*
X405155Y311488D01*
X405046Y311430D01*
X404938Y311369D01*
X404832Y311304D01*
X404728Y311236D01*
X404627Y311164D01*
X404527Y311090D01*
X404431Y311012D01*
X404336Y310932D01*
X404244Y310848D01*
X404155Y310762D01*
X404069Y310673D01*
X403985Y310581D01*
X403905Y310486D01*
X403827Y310390D01*
X403753Y310290D01*
X403681Y310189D01*
X403613Y310085D01*
X403548Y309979D01*
X403487Y309871D01*
X403429Y309762D01*
X403374Y309650D01*
X403323Y309537D01*
X403275Y309422D01*
X403232Y309306D01*
X403191Y309189D01*
X403155Y309070D01*
X403122Y308951D01*
X403093Y308830D01*
X403068Y308708D01*
X403047Y308586D01*
X403029Y308463D01*
X403016Y308340D01*
X403006Y308216D01*
X403000Y308092D01*
X402998Y307968D01*
X402998Y304017D01*
X403000Y303893D01*
X403006Y303769D01*
X403016Y303645D01*
X403029Y303522D01*
X403047Y303399D01*
X403068Y303277D01*
X403093Y303155D01*
X403122Y303034D01*
X403155Y302915D01*
X403191Y302796D01*
X403232Y302679D01*
X403275Y302563D01*
X403323Y302448D01*
X403374Y302335D01*
X403429Y302223D01*
X403487Y302114D01*
X403548Y302006D01*
X403613Y301900D01*
X403681Y301796D01*
X403753Y301695D01*
X403827Y301595D01*
X403905Y301499D01*
X403985Y301404D01*
X404069Y301312D01*
X404155Y301223D01*
X404244Y301137D01*
X404336Y301053D01*
X404431Y300973D01*
X404527Y300895D01*
X404627Y300821D01*
X404728Y300749D01*
X404832Y300681D01*
X404938Y300616D01*
X405046Y300555D01*
X405155Y300497D01*
X405267Y300442D01*
X405380Y300391D01*
X405495Y300343D01*
X405611Y300300D01*
X405728Y300259D01*
X405847Y300223D01*
X405966Y300190D01*
X406087Y300161D01*
X406209Y300136D01*
X406331Y300115D01*
X406454Y300097D01*
X406577Y300084D01*
X406701Y300074D01*
X406825Y300068D01*
X406949Y300066D01*
X407073Y300068D01*
X407197Y300074D01*
X407321Y300084D01*
X407444Y300097D01*
X407567Y300115D01*
X407689Y300136D01*
X407811Y300161D01*
X407932Y300190D01*
X408051Y300223D01*
X408170Y300259D01*
X408287Y300300D01*
X408403Y300343D01*
X408518Y300391D01*
X408631Y300442D01*
X408743Y300497D01*
X408852Y300555D01*
X408960Y300616D01*
X409066Y300681D01*
X409170Y300749D01*
X409271Y300821D01*
X409371Y300895D01*
X409467Y300973D01*
X409562Y301053D01*
X409654Y301137D01*
X409743Y301223D01*
X409829Y301312D01*
X409913Y301404D01*
X409993Y301499D01*
X410071Y301595D01*
X410145Y301695D01*
X410217Y301796D01*
X410285Y301900D01*
X410350Y302006D01*
X410411Y302114D01*
X410469Y302223D01*
X410524Y302335D01*
X410575Y302448D01*
X410623Y302563D01*
X410666Y302679D01*
X410707Y302796D01*
X410743Y302915D01*
X410776Y303034D01*
X410805Y303155D01*
X410830Y303277D01*
X410851Y303399D01*
X410869Y303522D01*
X410882Y303645D01*
X410892Y303769D01*
X410898Y303893D01*
X410900Y304017D01*
X396683Y311919D02*
X393720Y300066D01*
X390757Y307968D01*
X387793Y300066D01*
X384830Y311919D01*
X378258Y306980D02*
X366404Y306980D01*
X355488Y300066D02*
X351537Y300066D01*
X355488Y300066D02*
X355612Y300068D01*
X355736Y300074D01*
X355860Y300084D01*
X355983Y300097D01*
X356106Y300115D01*
X356228Y300136D01*
X356350Y300161D01*
X356471Y300190D01*
X356590Y300223D01*
X356709Y300259D01*
X356826Y300300D01*
X356942Y300343D01*
X357057Y300391D01*
X357170Y300442D01*
X357282Y300497D01*
X357391Y300555D01*
X357499Y300616D01*
X357605Y300681D01*
X357709Y300749D01*
X357810Y300821D01*
X357910Y300895D01*
X358006Y300973D01*
X358101Y301053D01*
X358193Y301137D01*
X358282Y301223D01*
X358368Y301312D01*
X358452Y301404D01*
X358532Y301499D01*
X358610Y301595D01*
X358684Y301695D01*
X358756Y301796D01*
X358824Y301900D01*
X358889Y302006D01*
X358950Y302114D01*
X359008Y302223D01*
X359063Y302335D01*
X359114Y302448D01*
X359162Y302563D01*
X359205Y302679D01*
X359246Y302796D01*
X359282Y302915D01*
X359315Y303034D01*
X359344Y303155D01*
X359369Y303277D01*
X359390Y303399D01*
X359408Y303522D01*
X359421Y303645D01*
X359431Y303769D01*
X359437Y303893D01*
X359439Y304017D01*
X359439Y313895D01*
X359437Y314019D01*
X359431Y314143D01*
X359421Y314267D01*
X359408Y314390D01*
X359390Y314513D01*
X359369Y314635D01*
X359344Y314757D01*
X359315Y314878D01*
X359282Y314997D01*
X359246Y315116D01*
X359205Y315233D01*
X359162Y315349D01*
X359114Y315464D01*
X359063Y315577D01*
X359008Y315689D01*
X358950Y315798D01*
X358889Y315906D01*
X358824Y316012D01*
X358756Y316116D01*
X358684Y316217D01*
X358610Y316317D01*
X358532Y316413D01*
X358452Y316508D01*
X358368Y316600D01*
X358282Y316689D01*
X358193Y316775D01*
X358101Y316859D01*
X358006Y316939D01*
X357910Y317017D01*
X357810Y317091D01*
X357709Y317163D01*
X357605Y317231D01*
X357499Y317296D01*
X357391Y317357D01*
X357282Y317415D01*
X357170Y317470D01*
X357057Y317521D01*
X356943Y317569D01*
X356826Y317612D01*
X356709Y317653D01*
X356590Y317689D01*
X356471Y317722D01*
X356350Y317751D01*
X356228Y317776D01*
X356106Y317797D01*
X355983Y317815D01*
X355860Y317828D01*
X355736Y317838D01*
X355612Y317844D01*
X355488Y317846D01*
X351537Y317846D01*
X345573Y307968D02*
X345573Y304017D01*
X345573Y307968D02*
X345571Y308092D01*
X345565Y308216D01*
X345555Y308340D01*
X345542Y308463D01*
X345524Y308586D01*
X345503Y308708D01*
X345478Y308830D01*
X345449Y308951D01*
X345416Y309070D01*
X345380Y309189D01*
X345339Y309306D01*
X345296Y309422D01*
X345248Y309537D01*
X345197Y309650D01*
X345142Y309762D01*
X345084Y309871D01*
X345023Y309979D01*
X344958Y310085D01*
X344890Y310189D01*
X344818Y310290D01*
X344744Y310390D01*
X344666Y310486D01*
X344586Y310581D01*
X344502Y310673D01*
X344416Y310762D01*
X344327Y310848D01*
X344235Y310932D01*
X344140Y311012D01*
X344044Y311090D01*
X343944Y311164D01*
X343843Y311236D01*
X343739Y311304D01*
X343633Y311369D01*
X343525Y311430D01*
X343416Y311488D01*
X343304Y311543D01*
X343191Y311594D01*
X343076Y311642D01*
X342960Y311685D01*
X342843Y311726D01*
X342724Y311762D01*
X342605Y311795D01*
X342484Y311824D01*
X342362Y311849D01*
X342240Y311870D01*
X342117Y311888D01*
X341994Y311901D01*
X341870Y311911D01*
X341746Y311917D01*
X341622Y311919D01*
X341498Y311917D01*
X341374Y311911D01*
X341250Y311901D01*
X341127Y311888D01*
X341004Y311870D01*
X340882Y311849D01*
X340760Y311824D01*
X340639Y311795D01*
X340520Y311762D01*
X340401Y311726D01*
X340284Y311685D01*
X340168Y311642D01*
X340053Y311594D01*
X339940Y311543D01*
X339828Y311488D01*
X339719Y311430D01*
X339611Y311369D01*
X339505Y311304D01*
X339401Y311236D01*
X339300Y311164D01*
X339200Y311090D01*
X339104Y311012D01*
X339009Y310932D01*
X338917Y310848D01*
X338828Y310762D01*
X338742Y310673D01*
X338658Y310581D01*
X338578Y310486D01*
X338500Y310390D01*
X338426Y310290D01*
X338354Y310189D01*
X338286Y310085D01*
X338221Y309979D01*
X338160Y309871D01*
X338102Y309762D01*
X338047Y309650D01*
X337996Y309537D01*
X337948Y309422D01*
X337905Y309306D01*
X337864Y309189D01*
X337828Y309070D01*
X337795Y308951D01*
X337766Y308830D01*
X337741Y308708D01*
X337720Y308586D01*
X337702Y308463D01*
X337689Y308340D01*
X337679Y308216D01*
X337673Y308092D01*
X337671Y307968D01*
X337671Y304017D01*
X337673Y303893D01*
X337679Y303769D01*
X337689Y303645D01*
X337702Y303522D01*
X337720Y303399D01*
X337741Y303277D01*
X337766Y303155D01*
X337795Y303034D01*
X337828Y302915D01*
X337864Y302796D01*
X337905Y302679D01*
X337948Y302563D01*
X337996Y302448D01*
X338047Y302335D01*
X338102Y302223D01*
X338160Y302114D01*
X338221Y302006D01*
X338286Y301900D01*
X338354Y301796D01*
X338426Y301695D01*
X338500Y301595D01*
X338578Y301499D01*
X338658Y301404D01*
X338742Y301312D01*
X338828Y301223D01*
X338917Y301137D01*
X339009Y301053D01*
X339104Y300973D01*
X339200Y300895D01*
X339300Y300821D01*
X339401Y300749D01*
X339505Y300681D01*
X339611Y300616D01*
X339719Y300555D01*
X339828Y300497D01*
X339940Y300442D01*
X340053Y300391D01*
X340168Y300343D01*
X340284Y300300D01*
X340401Y300259D01*
X340520Y300223D01*
X340639Y300190D01*
X340760Y300161D01*
X340882Y300136D01*
X341004Y300115D01*
X341127Y300097D01*
X341250Y300084D01*
X341374Y300074D01*
X341498Y300068D01*
X341622Y300066D01*
X341746Y300068D01*
X341870Y300074D01*
X341994Y300084D01*
X342117Y300097D01*
X342240Y300115D01*
X342362Y300136D01*
X342484Y300161D01*
X342605Y300190D01*
X342724Y300223D01*
X342843Y300259D01*
X342960Y300300D01*
X343076Y300343D01*
X343191Y300391D01*
X343304Y300442D01*
X343416Y300497D01*
X343525Y300555D01*
X343633Y300616D01*
X343739Y300681D01*
X343843Y300749D01*
X343944Y300821D01*
X344044Y300895D01*
X344140Y300973D01*
X344235Y301053D01*
X344327Y301137D01*
X344416Y301223D01*
X344502Y301312D01*
X344586Y301404D01*
X344666Y301499D01*
X344744Y301595D01*
X344818Y301695D01*
X344890Y301796D01*
X344958Y301900D01*
X345023Y302006D01*
X345084Y302114D01*
X345142Y302223D01*
X345197Y302335D01*
X345248Y302448D01*
X345296Y302563D01*
X345339Y302679D01*
X345380Y302796D01*
X345416Y302915D01*
X345449Y303034D01*
X345478Y303155D01*
X345503Y303277D01*
X345524Y303399D01*
X345542Y303522D01*
X345555Y303645D01*
X345565Y303769D01*
X345571Y303893D01*
X345573Y304017D01*
X330498Y300066D02*
X330498Y311919D01*
X325559Y311919D01*
X325451Y311917D01*
X325343Y311911D01*
X325235Y311901D01*
X325128Y311887D01*
X325021Y311870D01*
X324915Y311848D01*
X324810Y311823D01*
X324705Y311793D01*
X324602Y311760D01*
X324501Y311723D01*
X324400Y311683D01*
X324301Y311639D01*
X324204Y311591D01*
X324109Y311540D01*
X324015Y311485D01*
X323924Y311427D01*
X323835Y311366D01*
X323748Y311301D01*
X323664Y311234D01*
X323582Y311163D01*
X323502Y311089D01*
X323426Y311013D01*
X323352Y310933D01*
X323282Y310851D01*
X323214Y310767D01*
X323149Y310680D01*
X323088Y310591D01*
X323030Y310500D01*
X322975Y310406D01*
X322924Y310311D01*
X322876Y310214D01*
X322832Y310115D01*
X322792Y310015D01*
X322755Y309913D01*
X322722Y309810D01*
X322692Y309705D01*
X322667Y309600D01*
X322645Y309494D01*
X322628Y309387D01*
X322614Y309280D01*
X322604Y309172D01*
X322598Y309064D01*
X322596Y308956D01*
X322595Y308956D02*
X322595Y300066D01*
X316777Y311919D02*
X310850Y311919D01*
X314802Y317846D02*
X314802Y303029D01*
X314801Y303029D02*
X314799Y302923D01*
X314793Y302818D01*
X314784Y302712D01*
X314771Y302607D01*
X314754Y302503D01*
X314733Y302399D01*
X314709Y302296D01*
X314681Y302194D01*
X314649Y302093D01*
X314614Y301994D01*
X314575Y301895D01*
X314533Y301798D01*
X314488Y301703D01*
X314439Y301609D01*
X314386Y301517D01*
X314331Y301427D01*
X314272Y301339D01*
X314210Y301253D01*
X314145Y301170D01*
X314077Y301089D01*
X314007Y301010D01*
X313933Y300934D01*
X313857Y300860D01*
X313778Y300790D01*
X313697Y300722D01*
X313614Y300657D01*
X313528Y300595D01*
X313440Y300536D01*
X313350Y300481D01*
X313258Y300428D01*
X313164Y300379D01*
X313069Y300334D01*
X312972Y300292D01*
X312873Y300253D01*
X312774Y300218D01*
X312673Y300186D01*
X312571Y300158D01*
X312468Y300134D01*
X312364Y300113D01*
X312260Y300096D01*
X312155Y300083D01*
X312049Y300074D01*
X311944Y300068D01*
X311838Y300066D01*
X310850Y300066D01*
X304175Y300066D02*
X304175Y311919D01*
X298248Y311919D01*
X298248Y309944D01*
X293088Y307968D02*
X293088Y304017D01*
X293088Y307968D02*
X293086Y308092D01*
X293080Y308216D01*
X293070Y308340D01*
X293057Y308463D01*
X293039Y308586D01*
X293018Y308708D01*
X292993Y308830D01*
X292964Y308951D01*
X292931Y309070D01*
X292895Y309189D01*
X292854Y309306D01*
X292811Y309422D01*
X292763Y309537D01*
X292712Y309650D01*
X292657Y309762D01*
X292599Y309871D01*
X292538Y309979D01*
X292473Y310085D01*
X292405Y310189D01*
X292333Y310290D01*
X292259Y310390D01*
X292181Y310486D01*
X292101Y310581D01*
X292017Y310673D01*
X291931Y310762D01*
X291842Y310848D01*
X291750Y310932D01*
X291655Y311012D01*
X291559Y311090D01*
X291459Y311164D01*
X291358Y311236D01*
X291254Y311304D01*
X291148Y311369D01*
X291040Y311430D01*
X290931Y311488D01*
X290819Y311543D01*
X290706Y311594D01*
X290591Y311642D01*
X290475Y311685D01*
X290358Y311726D01*
X290239Y311762D01*
X290120Y311795D01*
X289999Y311824D01*
X289877Y311849D01*
X289755Y311870D01*
X289632Y311888D01*
X289509Y311901D01*
X289385Y311911D01*
X289261Y311917D01*
X289137Y311919D01*
X289013Y311917D01*
X288889Y311911D01*
X288765Y311901D01*
X288642Y311888D01*
X288519Y311870D01*
X288397Y311849D01*
X288275Y311824D01*
X288154Y311795D01*
X288035Y311762D01*
X287916Y311726D01*
X287799Y311685D01*
X287683Y311642D01*
X287568Y311594D01*
X287455Y311543D01*
X287343Y311488D01*
X287234Y311430D01*
X287126Y311369D01*
X287020Y311304D01*
X286916Y311236D01*
X286815Y311164D01*
X286715Y311090D01*
X286619Y311012D01*
X286524Y310932D01*
X286432Y310848D01*
X286343Y310762D01*
X286257Y310673D01*
X286173Y310581D01*
X286093Y310486D01*
X286015Y310390D01*
X285941Y310290D01*
X285869Y310189D01*
X285801Y310085D01*
X285736Y309979D01*
X285675Y309871D01*
X285617Y309762D01*
X285562Y309650D01*
X285511Y309537D01*
X285463Y309422D01*
X285420Y309306D01*
X285379Y309189D01*
X285343Y309070D01*
X285310Y308951D01*
X285281Y308830D01*
X285256Y308708D01*
X285235Y308586D01*
X285217Y308463D01*
X285204Y308340D01*
X285194Y308216D01*
X285188Y308092D01*
X285186Y307968D01*
X285186Y304017D01*
X285188Y303893D01*
X285194Y303769D01*
X285204Y303645D01*
X285217Y303522D01*
X285235Y303399D01*
X285256Y303277D01*
X285281Y303155D01*
X285310Y303034D01*
X285343Y302915D01*
X285379Y302796D01*
X285420Y302679D01*
X285463Y302563D01*
X285511Y302448D01*
X285562Y302335D01*
X285617Y302223D01*
X285675Y302114D01*
X285736Y302006D01*
X285801Y301900D01*
X285869Y301796D01*
X285941Y301695D01*
X286015Y301595D01*
X286093Y301499D01*
X286173Y301404D01*
X286257Y301312D01*
X286343Y301223D01*
X286432Y301137D01*
X286524Y301053D01*
X286619Y300973D01*
X286715Y300895D01*
X286815Y300821D01*
X286916Y300749D01*
X287020Y300681D01*
X287126Y300616D01*
X287234Y300555D01*
X287343Y300497D01*
X287455Y300442D01*
X287568Y300391D01*
X287683Y300343D01*
X287799Y300300D01*
X287916Y300259D01*
X288035Y300223D01*
X288154Y300190D01*
X288275Y300161D01*
X288397Y300136D01*
X288519Y300115D01*
X288642Y300097D01*
X288765Y300084D01*
X288889Y300074D01*
X289013Y300068D01*
X289137Y300066D01*
X289261Y300068D01*
X289385Y300074D01*
X289509Y300084D01*
X289632Y300097D01*
X289755Y300115D01*
X289877Y300136D01*
X289999Y300161D01*
X290120Y300190D01*
X290239Y300223D01*
X290358Y300259D01*
X290475Y300300D01*
X290591Y300343D01*
X290706Y300391D01*
X290819Y300442D01*
X290931Y300497D01*
X291040Y300555D01*
X291148Y300616D01*
X291254Y300681D01*
X291358Y300749D01*
X291459Y300821D01*
X291559Y300895D01*
X291655Y300973D01*
X291750Y301053D01*
X291842Y301137D01*
X291931Y301223D01*
X292017Y301312D01*
X292101Y301404D01*
X292181Y301499D01*
X292259Y301595D01*
X292333Y301695D01*
X292405Y301796D01*
X292473Y301900D01*
X292538Y302006D01*
X292599Y302114D01*
X292657Y302223D01*
X292712Y302335D01*
X292763Y302448D01*
X292811Y302563D01*
X292854Y302679D01*
X292895Y302796D01*
X292931Y302915D01*
X292964Y303034D01*
X292993Y303155D01*
X293018Y303277D01*
X293039Y303399D01*
X293057Y303522D01*
X293070Y303645D01*
X293080Y303769D01*
X293086Y303893D01*
X293088Y304017D01*
X278276Y303029D02*
X278276Y317846D01*
X278276Y303029D02*
X278274Y302923D01*
X278268Y302818D01*
X278259Y302712D01*
X278246Y302607D01*
X278229Y302503D01*
X278208Y302399D01*
X278184Y302296D01*
X278156Y302194D01*
X278124Y302093D01*
X278089Y301994D01*
X278050Y301895D01*
X278008Y301798D01*
X277963Y301703D01*
X277914Y301609D01*
X277861Y301517D01*
X277806Y301427D01*
X277747Y301339D01*
X277685Y301253D01*
X277620Y301170D01*
X277552Y301089D01*
X277482Y301010D01*
X277408Y300934D01*
X277332Y300860D01*
X277253Y300790D01*
X277172Y300722D01*
X277089Y300657D01*
X277003Y300595D01*
X276915Y300536D01*
X276825Y300481D01*
X276733Y300428D01*
X276639Y300379D01*
X276544Y300334D01*
X276447Y300292D01*
X276348Y300253D01*
X276249Y300218D01*
X276148Y300186D01*
X276046Y300158D01*
X275943Y300134D01*
X275839Y300113D01*
X275735Y300096D01*
X275630Y300083D01*
X275524Y300074D01*
X275419Y300068D01*
X275313Y300066D01*
X269343Y303029D02*
X269343Y317846D01*
X269342Y303029D02*
X269340Y302923D01*
X269334Y302818D01*
X269325Y302712D01*
X269312Y302607D01*
X269295Y302503D01*
X269274Y302399D01*
X269250Y302296D01*
X269222Y302194D01*
X269190Y302093D01*
X269155Y301994D01*
X269116Y301895D01*
X269074Y301798D01*
X269029Y301703D01*
X268980Y301609D01*
X268927Y301517D01*
X268872Y301427D01*
X268813Y301339D01*
X268751Y301253D01*
X268686Y301170D01*
X268618Y301089D01*
X268548Y301010D01*
X268474Y300934D01*
X268398Y300860D01*
X268319Y300790D01*
X268238Y300722D01*
X268155Y300657D01*
X268069Y300595D01*
X267981Y300536D01*
X267891Y300481D01*
X267799Y300428D01*
X267705Y300379D01*
X267610Y300334D01*
X267513Y300292D01*
X267414Y300253D01*
X267315Y300218D01*
X267214Y300186D01*
X267112Y300158D01*
X267009Y300134D01*
X266905Y300113D01*
X266801Y300096D01*
X266696Y300083D01*
X266590Y300074D01*
X266485Y300068D01*
X266379Y300066D01*
X257741Y300066D02*
X252802Y300066D01*
X257741Y300066D02*
X257847Y300068D01*
X257952Y300074D01*
X258058Y300083D01*
X258163Y300096D01*
X258267Y300113D01*
X258371Y300134D01*
X258474Y300158D01*
X258576Y300186D01*
X258677Y300218D01*
X258776Y300253D01*
X258875Y300292D01*
X258972Y300334D01*
X259067Y300379D01*
X259161Y300428D01*
X259253Y300481D01*
X259343Y300536D01*
X259431Y300595D01*
X259517Y300657D01*
X259600Y300722D01*
X259681Y300790D01*
X259760Y300860D01*
X259836Y300934D01*
X259910Y301010D01*
X259980Y301089D01*
X260048Y301170D01*
X260113Y301253D01*
X260175Y301339D01*
X260234Y301427D01*
X260289Y301517D01*
X260342Y301609D01*
X260391Y301703D01*
X260436Y301798D01*
X260478Y301895D01*
X260517Y301994D01*
X260552Y302093D01*
X260584Y302194D01*
X260612Y302296D01*
X260636Y302399D01*
X260657Y302503D01*
X260674Y302607D01*
X260687Y302712D01*
X260696Y302818D01*
X260702Y302923D01*
X260704Y303029D01*
X260704Y307968D01*
X260702Y308092D01*
X260696Y308216D01*
X260686Y308340D01*
X260673Y308463D01*
X260655Y308586D01*
X260634Y308708D01*
X260609Y308830D01*
X260580Y308951D01*
X260547Y309070D01*
X260511Y309189D01*
X260470Y309306D01*
X260427Y309422D01*
X260379Y309537D01*
X260328Y309650D01*
X260273Y309762D01*
X260215Y309871D01*
X260154Y309979D01*
X260089Y310085D01*
X260021Y310189D01*
X259949Y310290D01*
X259875Y310390D01*
X259797Y310486D01*
X259717Y310581D01*
X259633Y310673D01*
X259547Y310762D01*
X259458Y310848D01*
X259366Y310932D01*
X259271Y311012D01*
X259175Y311090D01*
X259075Y311164D01*
X258974Y311236D01*
X258870Y311304D01*
X258764Y311369D01*
X258656Y311430D01*
X258547Y311488D01*
X258435Y311543D01*
X258322Y311594D01*
X258207Y311642D01*
X258091Y311685D01*
X257974Y311726D01*
X257855Y311762D01*
X257736Y311795D01*
X257615Y311824D01*
X257493Y311849D01*
X257371Y311870D01*
X257248Y311888D01*
X257125Y311901D01*
X257001Y311911D01*
X256877Y311917D01*
X256753Y311919D01*
X256629Y311917D01*
X256505Y311911D01*
X256381Y311901D01*
X256258Y311888D01*
X256135Y311870D01*
X256013Y311849D01*
X255891Y311824D01*
X255770Y311795D01*
X255651Y311762D01*
X255532Y311726D01*
X255415Y311685D01*
X255299Y311642D01*
X255184Y311594D01*
X255071Y311543D01*
X254959Y311488D01*
X254850Y311430D01*
X254742Y311369D01*
X254636Y311304D01*
X254532Y311236D01*
X254431Y311164D01*
X254331Y311090D01*
X254235Y311012D01*
X254140Y310932D01*
X254048Y310848D01*
X253959Y310762D01*
X253873Y310673D01*
X253789Y310581D01*
X253709Y310486D01*
X253631Y310390D01*
X253557Y310290D01*
X253485Y310189D01*
X253417Y310085D01*
X253352Y309979D01*
X253291Y309871D01*
X253233Y309762D01*
X253178Y309650D01*
X253127Y309537D01*
X253079Y309422D01*
X253036Y309306D01*
X252995Y309189D01*
X252959Y309070D01*
X252926Y308951D01*
X252897Y308830D01*
X252872Y308708D01*
X252851Y308586D01*
X252833Y308463D01*
X252820Y308340D01*
X252810Y308216D01*
X252804Y308092D01*
X252802Y307968D01*
X252802Y305993D01*
X260704Y305993D01*
X245548Y300066D02*
X245548Y311919D01*
X239622Y311919D01*
X239622Y309944D01*
X435234Y285927D02*
X438198Y285927D01*
X438198Y285926D02*
X438304Y285924D01*
X438409Y285918D01*
X438515Y285909D01*
X438620Y285896D01*
X438724Y285879D01*
X438828Y285858D01*
X438931Y285834D01*
X439033Y285806D01*
X439134Y285774D01*
X439233Y285739D01*
X439332Y285700D01*
X439429Y285658D01*
X439524Y285613D01*
X439618Y285564D01*
X439710Y285511D01*
X439800Y285456D01*
X439888Y285397D01*
X439974Y285335D01*
X440057Y285270D01*
X440138Y285202D01*
X440217Y285132D01*
X440293Y285058D01*
X440367Y284982D01*
X440437Y284903D01*
X440505Y284822D01*
X440570Y284739D01*
X440632Y284653D01*
X440691Y284565D01*
X440746Y284475D01*
X440799Y284383D01*
X440848Y284289D01*
X440893Y284194D01*
X440935Y284097D01*
X440974Y283998D01*
X441009Y283899D01*
X441041Y283798D01*
X441069Y283696D01*
X441093Y283593D01*
X441114Y283489D01*
X441131Y283385D01*
X441144Y283280D01*
X441153Y283174D01*
X441159Y283069D01*
X441161Y282963D01*
X441161Y277037D01*
X441159Y276930D01*
X441153Y276823D01*
X441144Y276717D01*
X441130Y276611D01*
X441113Y276505D01*
X441092Y276400D01*
X441067Y276296D01*
X441038Y276193D01*
X441006Y276091D01*
X440970Y275990D01*
X440930Y275891D01*
X440887Y275793D01*
X440840Y275697D01*
X440790Y275602D01*
X440737Y275509D01*
X440680Y275419D01*
X440620Y275330D01*
X440557Y275244D01*
X440491Y275160D01*
X440421Y275078D01*
X440349Y274999D01*
X440274Y274923D01*
X440196Y274849D01*
X440116Y274779D01*
X440033Y274711D01*
X439948Y274646D01*
X439861Y274585D01*
X439771Y274526D01*
X439680Y274471D01*
X439586Y274419D01*
X439490Y274371D01*
X439393Y274326D01*
X439295Y274284D01*
X439195Y274247D01*
X439093Y274212D01*
X438991Y274182D01*
X438887Y274155D01*
X438783Y274132D01*
X438677Y274113D01*
X438571Y274098D01*
X438465Y274086D01*
X438358Y274078D01*
X438251Y274074D01*
X438145Y274074D01*
X438038Y274078D01*
X437931Y274086D01*
X437825Y274098D01*
X437719Y274113D01*
X437613Y274132D01*
X437509Y274155D01*
X437405Y274182D01*
X437303Y274212D01*
X437201Y274247D01*
X437101Y274284D01*
X437003Y274326D01*
X436906Y274371D01*
X436810Y274419D01*
X436717Y274471D01*
X436625Y274526D01*
X436535Y274585D01*
X436448Y274646D01*
X436363Y274711D01*
X436280Y274779D01*
X436200Y274849D01*
X436122Y274923D01*
X436047Y274999D01*
X435975Y275078D01*
X435905Y275160D01*
X435839Y275244D01*
X435776Y275330D01*
X435716Y275419D01*
X435659Y275509D01*
X435606Y275602D01*
X435556Y275697D01*
X435509Y275793D01*
X435466Y275891D01*
X435426Y275990D01*
X435390Y276091D01*
X435358Y276193D01*
X435329Y276296D01*
X435304Y276400D01*
X435283Y276505D01*
X435266Y276611D01*
X435252Y276717D01*
X435243Y276823D01*
X435237Y276930D01*
X435235Y277037D01*
X435234Y276543D02*
X435234Y285927D01*
X435234Y276543D02*
X435232Y276445D01*
X435226Y276347D01*
X435216Y276249D01*
X435203Y276152D01*
X435185Y276055D01*
X435164Y275959D01*
X435139Y275865D01*
X435110Y275771D01*
X435078Y275678D01*
X435041Y275587D01*
X435002Y275497D01*
X434958Y275409D01*
X434911Y275323D01*
X434861Y275238D01*
X434808Y275156D01*
X434751Y275076D01*
X434691Y274998D01*
X434628Y274923D01*
X434562Y274850D01*
X434493Y274780D01*
X434422Y274713D01*
X434348Y274648D01*
X434271Y274587D01*
X434192Y274528D01*
X434111Y274473D01*
X434028Y274421D01*
X433942Y274373D01*
X433855Y274328D01*
X433766Y274286D01*
X433676Y274248D01*
X433584Y274214D01*
X433491Y274183D01*
X433396Y274156D01*
X433301Y274133D01*
X433204Y274113D01*
X433108Y274098D01*
X433010Y274086D01*
X432912Y274078D01*
X432814Y274074D01*
X432716Y274074D01*
X432618Y274078D01*
X432520Y274086D01*
X432422Y274098D01*
X432326Y274113D01*
X432229Y274133D01*
X432134Y274156D01*
X432039Y274183D01*
X431946Y274214D01*
X431854Y274248D01*
X431764Y274286D01*
X431675Y274328D01*
X431588Y274373D01*
X431502Y274421D01*
X431419Y274473D01*
X431338Y274528D01*
X431259Y274587D01*
X431182Y274648D01*
X431108Y274713D01*
X431037Y274780D01*
X430968Y274850D01*
X430902Y274923D01*
X430839Y274998D01*
X430779Y275076D01*
X430722Y275156D01*
X430669Y275238D01*
X430619Y275323D01*
X430572Y275409D01*
X430528Y275497D01*
X430489Y275587D01*
X430452Y275678D01*
X430420Y275771D01*
X430391Y275865D01*
X430366Y275959D01*
X430345Y276055D01*
X430327Y276152D01*
X430314Y276249D01*
X430304Y276347D01*
X430298Y276445D01*
X430296Y276543D01*
X430295Y276543D02*
X430295Y283951D01*
X430296Y283951D02*
X430298Y284143D01*
X430305Y284336D01*
X430317Y284528D01*
X430333Y284720D01*
X430355Y284911D01*
X430380Y285102D01*
X430411Y285292D01*
X430445Y285481D01*
X430485Y285669D01*
X430529Y285856D01*
X430578Y286043D01*
X430631Y286228D01*
X430689Y286411D01*
X430751Y286593D01*
X430817Y286774D01*
X430888Y286953D01*
X430964Y287130D01*
X431043Y287305D01*
X431127Y287478D01*
X431215Y287649D01*
X431307Y287818D01*
X431403Y287985D01*
X431504Y288149D01*
X431608Y288311D01*
X431716Y288470D01*
X431828Y288627D01*
X431944Y288780D01*
X432063Y288931D01*
X432186Y289079D01*
X432313Y289224D01*
X432443Y289366D01*
X432577Y289504D01*
X432713Y289640D01*
X432854Y289772D01*
X432997Y289900D01*
X433143Y290025D01*
X433293Y290146D01*
X433445Y290264D01*
X433600Y290378D01*
X433758Y290488D01*
X433919Y290594D01*
X434082Y290696D01*
X434247Y290794D01*
X434415Y290889D01*
X434585Y290979D01*
X434757Y291064D01*
X434931Y291146D01*
X435107Y291224D01*
X435286Y291297D01*
X435465Y291365D01*
X435647Y291430D01*
X435829Y291490D01*
X436014Y291545D01*
X436199Y291596D01*
X436386Y291642D01*
X436574Y291684D01*
X436763Y291722D01*
X436952Y291754D01*
X437143Y291782D01*
X437334Y291806D01*
X437525Y291824D01*
X437717Y291838D01*
X437909Y291848D01*
X438102Y291852D01*
X438294Y291852D01*
X438487Y291848D01*
X438679Y291838D01*
X438871Y291824D01*
X439062Y291806D01*
X439253Y291782D01*
X439444Y291754D01*
X439633Y291722D01*
X439822Y291684D01*
X440010Y291642D01*
X440197Y291596D01*
X440382Y291545D01*
X440567Y291490D01*
X440749Y291430D01*
X440931Y291365D01*
X441110Y291297D01*
X441289Y291224D01*
X441465Y291146D01*
X441639Y291064D01*
X441811Y290979D01*
X441981Y290889D01*
X442149Y290794D01*
X442314Y290696D01*
X442477Y290594D01*
X442638Y290488D01*
X442796Y290378D01*
X442951Y290264D01*
X443103Y290146D01*
X443253Y290025D01*
X443399Y289900D01*
X443542Y289772D01*
X443683Y289640D01*
X443819Y289504D01*
X443953Y289366D01*
X444083Y289224D01*
X444210Y289079D01*
X444333Y288931D01*
X444452Y288780D01*
X444568Y288627D01*
X444680Y288470D01*
X444788Y288311D01*
X444892Y288149D01*
X444993Y287985D01*
X445089Y287818D01*
X445181Y287649D01*
X445269Y287478D01*
X445353Y287305D01*
X445432Y287130D01*
X445508Y286953D01*
X445579Y286774D01*
X445645Y286593D01*
X445707Y286411D01*
X445765Y286228D01*
X445818Y286043D01*
X445867Y285856D01*
X445911Y285669D01*
X445951Y285481D01*
X445985Y285292D01*
X446016Y285102D01*
X446041Y284911D01*
X446063Y284720D01*
X446079Y284528D01*
X446091Y284336D01*
X446098Y284143D01*
X446100Y283951D01*
X446100Y275555D01*
X446098Y275375D01*
X446091Y275195D01*
X446080Y275016D01*
X446065Y274837D01*
X446046Y274658D01*
X446022Y274479D01*
X445993Y274302D01*
X445961Y274125D01*
X445924Y273949D01*
X445883Y273774D01*
X445838Y273600D01*
X445788Y273427D01*
X445735Y273255D01*
X445677Y273085D01*
X445615Y272916D01*
X445549Y272748D01*
X445479Y272583D01*
X445405Y272419D01*
X445327Y272257D01*
X445245Y272096D01*
X445160Y271938D01*
X445070Y271782D01*
X444977Y271628D01*
X444880Y271477D01*
X444779Y271328D01*
X444675Y271181D01*
X444568Y271037D01*
X444456Y270896D01*
X444342Y270757D01*
X444224Y270621D01*
X444103Y270488D01*
X443978Y270358D01*
X443851Y270231D01*
X443721Y270107D01*
X443587Y269987D01*
X443451Y269869D01*
X443312Y269755D01*
X443170Y269645D01*
X443025Y269537D01*
X442878Y269434D01*
X442729Y269334D01*
X442577Y269237D01*
X442423Y269145D01*
X442266Y269056D01*
X442108Y268971D01*
X441948Y268889D01*
X441785Y268812D01*
X441621Y268739D01*
X441455Y268669D01*
X441287Y268604D01*
X441118Y268543D01*
X440948Y268486D01*
X440776Y268433D01*
X440603Y268384D01*
X440428Y268339D01*
X440253Y268299D01*
X440077Y268263D01*
X439900Y268231D01*
X439722Y268203D01*
X439544Y268180D01*
X439365Y268161D01*
X439186Y268147D01*
X421790Y271110D02*
X421790Y282963D01*
X412900Y282963D01*
X412794Y282961D01*
X412689Y282955D01*
X412583Y282946D01*
X412478Y282933D01*
X412374Y282916D01*
X412270Y282895D01*
X412167Y282871D01*
X412065Y282843D01*
X411964Y282811D01*
X411865Y282776D01*
X411766Y282737D01*
X411669Y282695D01*
X411574Y282650D01*
X411480Y282601D01*
X411388Y282548D01*
X411298Y282493D01*
X411210Y282434D01*
X411124Y282372D01*
X411041Y282307D01*
X410960Y282239D01*
X410881Y282169D01*
X410805Y282095D01*
X410731Y282019D01*
X410661Y281940D01*
X410593Y281859D01*
X410528Y281776D01*
X410466Y281690D01*
X410407Y281602D01*
X410352Y281512D01*
X410299Y281420D01*
X410250Y281326D01*
X410205Y281231D01*
X410163Y281134D01*
X410124Y281035D01*
X410089Y280936D01*
X410057Y280835D01*
X410029Y280733D01*
X410005Y280630D01*
X409984Y280526D01*
X409967Y280422D01*
X409954Y280317D01*
X409945Y280211D01*
X409939Y280106D01*
X409937Y280000D01*
X409937Y271110D01*
X415864Y271110D02*
X415864Y282963D01*
X399117Y278024D02*
X394672Y278024D01*
X399117Y278024D02*
X399234Y278022D01*
X399350Y278016D01*
X399467Y278006D01*
X399583Y277992D01*
X399698Y277975D01*
X399813Y277953D01*
X399927Y277928D01*
X400040Y277899D01*
X400152Y277865D01*
X400263Y277829D01*
X400372Y277788D01*
X400480Y277744D01*
X400587Y277696D01*
X400692Y277645D01*
X400795Y277590D01*
X400896Y277531D01*
X400995Y277469D01*
X401092Y277404D01*
X401187Y277336D01*
X401279Y277265D01*
X401369Y277190D01*
X401456Y277112D01*
X401541Y277032D01*
X401623Y276949D01*
X401702Y276863D01*
X401778Y276774D01*
X401851Y276683D01*
X401921Y276590D01*
X401987Y276494D01*
X402051Y276396D01*
X402111Y276296D01*
X402168Y276193D01*
X402221Y276089D01*
X402270Y275984D01*
X402316Y275876D01*
X402359Y275768D01*
X402398Y275657D01*
X402432Y275546D01*
X402464Y275434D01*
X402491Y275320D01*
X402515Y275206D01*
X402534Y275090D01*
X402550Y274975D01*
X402562Y274859D01*
X402570Y274742D01*
X402574Y274625D01*
X402574Y274509D01*
X402570Y274392D01*
X402562Y274275D01*
X402550Y274159D01*
X402534Y274044D01*
X402515Y273928D01*
X402491Y273814D01*
X402464Y273700D01*
X402432Y273588D01*
X402398Y273477D01*
X402359Y273366D01*
X402316Y273258D01*
X402270Y273150D01*
X402221Y273045D01*
X402168Y272941D01*
X402111Y272839D01*
X402051Y272738D01*
X401987Y272640D01*
X401921Y272544D01*
X401851Y272451D01*
X401778Y272360D01*
X401702Y272271D01*
X401623Y272185D01*
X401541Y272102D01*
X401456Y272022D01*
X401369Y271944D01*
X401279Y271869D01*
X401187Y271798D01*
X401092Y271730D01*
X400995Y271665D01*
X400896Y271603D01*
X400795Y271544D01*
X400692Y271489D01*
X400587Y271438D01*
X400480Y271390D01*
X400372Y271346D01*
X400263Y271305D01*
X400152Y271269D01*
X400040Y271235D01*
X399927Y271206D01*
X399813Y271181D01*
X399698Y271159D01*
X399583Y271142D01*
X399467Y271128D01*
X399350Y271118D01*
X399234Y271112D01*
X399117Y271110D01*
X394672Y271110D01*
X394672Y280000D01*
X394674Y280106D01*
X394680Y280211D01*
X394689Y280317D01*
X394702Y280422D01*
X394719Y280526D01*
X394740Y280630D01*
X394764Y280733D01*
X394792Y280835D01*
X394824Y280936D01*
X394859Y281035D01*
X394898Y281134D01*
X394940Y281231D01*
X394985Y281326D01*
X395034Y281420D01*
X395087Y281512D01*
X395142Y281602D01*
X395201Y281690D01*
X395263Y281776D01*
X395328Y281859D01*
X395396Y281940D01*
X395466Y282019D01*
X395540Y282095D01*
X395616Y282169D01*
X395695Y282239D01*
X395776Y282307D01*
X395859Y282372D01*
X395945Y282434D01*
X396033Y282493D01*
X396123Y282548D01*
X396215Y282601D01*
X396309Y282650D01*
X396404Y282695D01*
X396501Y282737D01*
X396600Y282776D01*
X396699Y282811D01*
X396800Y282843D01*
X396902Y282871D01*
X397005Y282895D01*
X397109Y282916D01*
X397213Y282933D01*
X397318Y282946D01*
X397424Y282955D01*
X397529Y282961D01*
X397635Y282963D01*
X397636Y282963D02*
X401587Y282963D01*
X386715Y288890D02*
X386715Y271110D01*
X386715Y277037D02*
X378812Y282963D01*
X383257Y279506D02*
X378812Y271110D01*
X369950Y271110D02*
X365011Y271110D01*
X369950Y271110D02*
X370056Y271112D01*
X370161Y271118D01*
X370267Y271127D01*
X370372Y271140D01*
X370476Y271157D01*
X370580Y271178D01*
X370683Y271202D01*
X370785Y271230D01*
X370886Y271262D01*
X370985Y271297D01*
X371084Y271336D01*
X371181Y271378D01*
X371276Y271423D01*
X371370Y271472D01*
X371462Y271525D01*
X371552Y271580D01*
X371640Y271639D01*
X371726Y271701D01*
X371809Y271766D01*
X371890Y271834D01*
X371969Y271904D01*
X372045Y271978D01*
X372119Y272054D01*
X372189Y272133D01*
X372257Y272214D01*
X372322Y272297D01*
X372384Y272383D01*
X372443Y272471D01*
X372498Y272561D01*
X372551Y272653D01*
X372600Y272747D01*
X372645Y272842D01*
X372687Y272939D01*
X372726Y273038D01*
X372761Y273137D01*
X372793Y273238D01*
X372821Y273340D01*
X372845Y273443D01*
X372866Y273547D01*
X372883Y273651D01*
X372896Y273756D01*
X372905Y273862D01*
X372911Y273967D01*
X372913Y274073D01*
X372914Y274073D02*
X372914Y279012D01*
X372913Y279012D02*
X372911Y279136D01*
X372905Y279260D01*
X372895Y279384D01*
X372882Y279507D01*
X372864Y279630D01*
X372843Y279752D01*
X372818Y279874D01*
X372789Y279995D01*
X372756Y280114D01*
X372720Y280233D01*
X372679Y280350D01*
X372636Y280466D01*
X372588Y280581D01*
X372537Y280694D01*
X372482Y280806D01*
X372424Y280915D01*
X372363Y281023D01*
X372298Y281129D01*
X372230Y281233D01*
X372158Y281334D01*
X372084Y281434D01*
X372006Y281530D01*
X371926Y281625D01*
X371842Y281717D01*
X371756Y281806D01*
X371667Y281892D01*
X371575Y281976D01*
X371480Y282056D01*
X371384Y282134D01*
X371284Y282208D01*
X371183Y282280D01*
X371079Y282348D01*
X370973Y282413D01*
X370865Y282474D01*
X370756Y282532D01*
X370644Y282587D01*
X370531Y282638D01*
X370416Y282686D01*
X370300Y282729D01*
X370183Y282770D01*
X370064Y282806D01*
X369945Y282839D01*
X369824Y282868D01*
X369702Y282893D01*
X369580Y282914D01*
X369457Y282932D01*
X369334Y282945D01*
X369210Y282955D01*
X369086Y282961D01*
X368962Y282963D01*
X368838Y282961D01*
X368714Y282955D01*
X368590Y282945D01*
X368467Y282932D01*
X368344Y282914D01*
X368222Y282893D01*
X368100Y282868D01*
X367979Y282839D01*
X367860Y282806D01*
X367741Y282770D01*
X367624Y282729D01*
X367508Y282686D01*
X367393Y282638D01*
X367280Y282587D01*
X367168Y282532D01*
X367059Y282474D01*
X366951Y282413D01*
X366845Y282348D01*
X366741Y282280D01*
X366640Y282208D01*
X366540Y282134D01*
X366444Y282056D01*
X366349Y281976D01*
X366257Y281892D01*
X366168Y281806D01*
X366082Y281717D01*
X365998Y281625D01*
X365918Y281530D01*
X365840Y281434D01*
X365766Y281334D01*
X365694Y281233D01*
X365626Y281129D01*
X365561Y281023D01*
X365500Y280915D01*
X365442Y280806D01*
X365387Y280694D01*
X365336Y280581D01*
X365288Y280466D01*
X365245Y280350D01*
X365204Y280233D01*
X365168Y280114D01*
X365135Y279995D01*
X365106Y279874D01*
X365081Y279752D01*
X365060Y279630D01*
X365042Y279507D01*
X365029Y279384D01*
X365019Y279260D01*
X365013Y279136D01*
X365011Y279012D01*
X365011Y277037D01*
X372914Y277037D01*
X357758Y271110D02*
X357758Y282963D01*
X351831Y282963D01*
X351831Y280988D01*
X347122Y272098D02*
X347122Y271110D01*
X347122Y272098D02*
X346135Y272098D01*
X346135Y271110D01*
X347122Y271110D01*
X339155Y271110D02*
X339155Y282963D01*
X330265Y282963D01*
X330159Y282961D01*
X330054Y282955D01*
X329948Y282946D01*
X329843Y282933D01*
X329739Y282916D01*
X329635Y282895D01*
X329532Y282871D01*
X329430Y282843D01*
X329329Y282811D01*
X329230Y282776D01*
X329131Y282737D01*
X329034Y282695D01*
X328939Y282650D01*
X328845Y282601D01*
X328753Y282548D01*
X328663Y282493D01*
X328575Y282434D01*
X328489Y282372D01*
X328406Y282307D01*
X328325Y282239D01*
X328246Y282169D01*
X328170Y282095D01*
X328096Y282019D01*
X328026Y281940D01*
X327958Y281859D01*
X327893Y281776D01*
X327831Y281690D01*
X327772Y281602D01*
X327717Y281512D01*
X327664Y281420D01*
X327615Y281326D01*
X327570Y281231D01*
X327528Y281134D01*
X327489Y281035D01*
X327454Y280936D01*
X327422Y280835D01*
X327394Y280733D01*
X327370Y280630D01*
X327349Y280526D01*
X327332Y280422D01*
X327319Y280317D01*
X327310Y280211D01*
X327304Y280106D01*
X327302Y280000D01*
X327302Y271110D01*
X333228Y271110D02*
X333228Y282963D01*
X319871Y279012D02*
X319871Y275061D01*
X319870Y279012D02*
X319868Y279136D01*
X319862Y279260D01*
X319852Y279384D01*
X319839Y279507D01*
X319821Y279630D01*
X319800Y279752D01*
X319775Y279874D01*
X319746Y279995D01*
X319713Y280114D01*
X319677Y280233D01*
X319636Y280350D01*
X319593Y280466D01*
X319545Y280581D01*
X319494Y280694D01*
X319439Y280806D01*
X319381Y280915D01*
X319320Y281023D01*
X319255Y281129D01*
X319187Y281233D01*
X319115Y281334D01*
X319041Y281434D01*
X318963Y281530D01*
X318883Y281625D01*
X318799Y281717D01*
X318713Y281806D01*
X318624Y281892D01*
X318532Y281976D01*
X318437Y282056D01*
X318341Y282134D01*
X318241Y282208D01*
X318140Y282280D01*
X318036Y282348D01*
X317930Y282413D01*
X317822Y282474D01*
X317713Y282532D01*
X317601Y282587D01*
X317488Y282638D01*
X317373Y282686D01*
X317257Y282729D01*
X317140Y282770D01*
X317021Y282806D01*
X316902Y282839D01*
X316781Y282868D01*
X316659Y282893D01*
X316537Y282914D01*
X316414Y282932D01*
X316291Y282945D01*
X316167Y282955D01*
X316043Y282961D01*
X315919Y282963D01*
X315795Y282961D01*
X315671Y282955D01*
X315547Y282945D01*
X315424Y282932D01*
X315301Y282914D01*
X315179Y282893D01*
X315057Y282868D01*
X314936Y282839D01*
X314817Y282806D01*
X314698Y282770D01*
X314581Y282729D01*
X314465Y282686D01*
X314350Y282638D01*
X314237Y282587D01*
X314125Y282532D01*
X314016Y282474D01*
X313908Y282413D01*
X313802Y282348D01*
X313698Y282280D01*
X313597Y282208D01*
X313497Y282134D01*
X313401Y282056D01*
X313306Y281976D01*
X313214Y281892D01*
X313125Y281806D01*
X313039Y281717D01*
X312955Y281625D01*
X312875Y281530D01*
X312797Y281434D01*
X312723Y281334D01*
X312651Y281233D01*
X312583Y281129D01*
X312518Y281023D01*
X312457Y280915D01*
X312399Y280806D01*
X312344Y280694D01*
X312293Y280581D01*
X312245Y280466D01*
X312202Y280350D01*
X312161Y280233D01*
X312125Y280114D01*
X312092Y279995D01*
X312063Y279874D01*
X312038Y279752D01*
X312017Y279630D01*
X311999Y279507D01*
X311986Y279384D01*
X311976Y279260D01*
X311970Y279136D01*
X311968Y279012D01*
X311968Y275061D01*
X311970Y274937D01*
X311976Y274813D01*
X311986Y274689D01*
X311999Y274566D01*
X312017Y274443D01*
X312038Y274321D01*
X312063Y274199D01*
X312092Y274078D01*
X312125Y273959D01*
X312161Y273840D01*
X312202Y273723D01*
X312245Y273607D01*
X312293Y273492D01*
X312344Y273379D01*
X312399Y273267D01*
X312457Y273158D01*
X312518Y273050D01*
X312583Y272944D01*
X312651Y272840D01*
X312723Y272739D01*
X312797Y272639D01*
X312875Y272543D01*
X312955Y272448D01*
X313039Y272356D01*
X313125Y272267D01*
X313214Y272181D01*
X313306Y272097D01*
X313401Y272017D01*
X313497Y271939D01*
X313597Y271865D01*
X313698Y271793D01*
X313802Y271725D01*
X313908Y271660D01*
X314016Y271599D01*
X314125Y271541D01*
X314237Y271486D01*
X314350Y271435D01*
X314465Y271387D01*
X314581Y271344D01*
X314698Y271303D01*
X314817Y271267D01*
X314936Y271234D01*
X315057Y271205D01*
X315179Y271180D01*
X315301Y271159D01*
X315424Y271141D01*
X315547Y271128D01*
X315671Y271118D01*
X315795Y271112D01*
X315919Y271110D01*
X316043Y271112D01*
X316167Y271118D01*
X316291Y271128D01*
X316414Y271141D01*
X316537Y271159D01*
X316659Y271180D01*
X316781Y271205D01*
X316902Y271234D01*
X317021Y271267D01*
X317140Y271303D01*
X317257Y271344D01*
X317373Y271387D01*
X317488Y271435D01*
X317601Y271486D01*
X317713Y271541D01*
X317822Y271599D01*
X317930Y271660D01*
X318036Y271725D01*
X318140Y271793D01*
X318241Y271865D01*
X318341Y271939D01*
X318437Y272017D01*
X318532Y272097D01*
X318624Y272181D01*
X318713Y272267D01*
X318799Y272356D01*
X318883Y272448D01*
X318963Y272543D01*
X319041Y272639D01*
X319115Y272739D01*
X319187Y272840D01*
X319255Y272944D01*
X319320Y273050D01*
X319381Y273158D01*
X319439Y273267D01*
X319494Y273379D01*
X319545Y273492D01*
X319593Y273607D01*
X319636Y273723D01*
X319677Y273840D01*
X319713Y273959D01*
X319746Y274078D01*
X319775Y274199D01*
X319800Y274321D01*
X319821Y274443D01*
X319839Y274566D01*
X319852Y274689D01*
X319862Y274813D01*
X319868Y274937D01*
X319870Y275061D01*
X302390Y271110D02*
X297451Y271110D01*
X302390Y271110D02*
X302496Y271112D01*
X302601Y271118D01*
X302707Y271127D01*
X302812Y271140D01*
X302916Y271157D01*
X303020Y271178D01*
X303123Y271202D01*
X303225Y271230D01*
X303326Y271262D01*
X303425Y271297D01*
X303524Y271336D01*
X303621Y271378D01*
X303716Y271423D01*
X303810Y271472D01*
X303902Y271525D01*
X303992Y271580D01*
X304080Y271639D01*
X304166Y271701D01*
X304249Y271766D01*
X304330Y271834D01*
X304409Y271904D01*
X304485Y271978D01*
X304559Y272054D01*
X304629Y272133D01*
X304697Y272214D01*
X304762Y272297D01*
X304824Y272383D01*
X304883Y272471D01*
X304938Y272561D01*
X304991Y272653D01*
X305040Y272747D01*
X305085Y272842D01*
X305127Y272939D01*
X305166Y273038D01*
X305201Y273137D01*
X305233Y273238D01*
X305261Y273340D01*
X305285Y273443D01*
X305306Y273547D01*
X305323Y273651D01*
X305336Y273756D01*
X305345Y273862D01*
X305351Y273967D01*
X305353Y274073D01*
X305353Y279012D01*
X305351Y279136D01*
X305345Y279260D01*
X305335Y279384D01*
X305322Y279507D01*
X305304Y279630D01*
X305283Y279752D01*
X305258Y279874D01*
X305229Y279995D01*
X305196Y280114D01*
X305160Y280233D01*
X305119Y280350D01*
X305076Y280466D01*
X305028Y280581D01*
X304977Y280694D01*
X304922Y280806D01*
X304864Y280915D01*
X304803Y281023D01*
X304738Y281129D01*
X304670Y281233D01*
X304598Y281334D01*
X304524Y281434D01*
X304446Y281530D01*
X304366Y281625D01*
X304282Y281717D01*
X304196Y281806D01*
X304107Y281892D01*
X304015Y281976D01*
X303920Y282056D01*
X303824Y282134D01*
X303724Y282208D01*
X303623Y282280D01*
X303519Y282348D01*
X303413Y282413D01*
X303305Y282474D01*
X303196Y282532D01*
X303084Y282587D01*
X302971Y282638D01*
X302856Y282686D01*
X302740Y282729D01*
X302623Y282770D01*
X302504Y282806D01*
X302385Y282839D01*
X302264Y282868D01*
X302142Y282893D01*
X302020Y282914D01*
X301897Y282932D01*
X301774Y282945D01*
X301650Y282955D01*
X301526Y282961D01*
X301402Y282963D01*
X301278Y282961D01*
X301154Y282955D01*
X301030Y282945D01*
X300907Y282932D01*
X300784Y282914D01*
X300662Y282893D01*
X300540Y282868D01*
X300419Y282839D01*
X300300Y282806D01*
X300181Y282770D01*
X300064Y282729D01*
X299948Y282686D01*
X299833Y282638D01*
X299720Y282587D01*
X299608Y282532D01*
X299499Y282474D01*
X299391Y282413D01*
X299285Y282348D01*
X299181Y282280D01*
X299080Y282208D01*
X298980Y282134D01*
X298884Y282056D01*
X298789Y281976D01*
X298697Y281892D01*
X298608Y281806D01*
X298522Y281717D01*
X298438Y281625D01*
X298358Y281530D01*
X298280Y281434D01*
X298206Y281334D01*
X298134Y281233D01*
X298066Y281129D01*
X298001Y281023D01*
X297940Y280915D01*
X297882Y280806D01*
X297827Y280694D01*
X297776Y280581D01*
X297728Y280466D01*
X297685Y280350D01*
X297644Y280233D01*
X297608Y280114D01*
X297575Y279995D01*
X297546Y279874D01*
X297521Y279752D01*
X297500Y279630D01*
X297482Y279507D01*
X297469Y279384D01*
X297459Y279260D01*
X297453Y279136D01*
X297451Y279012D01*
X297451Y277037D01*
X305353Y277037D01*
X290120Y271110D02*
X290120Y288890D01*
X282218Y282963D02*
X290120Y277037D01*
X286663Y279506D02*
X282218Y271110D01*
X276319Y275061D02*
X276319Y279012D01*
X276317Y279136D01*
X276311Y279260D01*
X276301Y279384D01*
X276288Y279507D01*
X276270Y279630D01*
X276249Y279752D01*
X276224Y279874D01*
X276195Y279995D01*
X276162Y280114D01*
X276126Y280233D01*
X276085Y280350D01*
X276042Y280466D01*
X275994Y280581D01*
X275943Y280694D01*
X275888Y280806D01*
X275830Y280915D01*
X275769Y281023D01*
X275704Y281129D01*
X275636Y281233D01*
X275564Y281334D01*
X275490Y281434D01*
X275412Y281530D01*
X275332Y281625D01*
X275248Y281717D01*
X275162Y281806D01*
X275073Y281892D01*
X274981Y281976D01*
X274886Y282056D01*
X274790Y282134D01*
X274690Y282208D01*
X274589Y282280D01*
X274485Y282348D01*
X274379Y282413D01*
X274271Y282474D01*
X274162Y282532D01*
X274050Y282587D01*
X273937Y282638D01*
X273822Y282686D01*
X273706Y282729D01*
X273589Y282770D01*
X273470Y282806D01*
X273351Y282839D01*
X273230Y282868D01*
X273108Y282893D01*
X272986Y282914D01*
X272863Y282932D01*
X272740Y282945D01*
X272616Y282955D01*
X272492Y282961D01*
X272368Y282963D01*
X272244Y282961D01*
X272120Y282955D01*
X271996Y282945D01*
X271873Y282932D01*
X271750Y282914D01*
X271628Y282893D01*
X271506Y282868D01*
X271385Y282839D01*
X271266Y282806D01*
X271147Y282770D01*
X271030Y282729D01*
X270914Y282686D01*
X270799Y282638D01*
X270686Y282587D01*
X270574Y282532D01*
X270465Y282474D01*
X270357Y282413D01*
X270251Y282348D01*
X270147Y282280D01*
X270046Y282208D01*
X269946Y282134D01*
X269850Y282056D01*
X269755Y281976D01*
X269663Y281892D01*
X269574Y281806D01*
X269488Y281717D01*
X269404Y281625D01*
X269324Y281530D01*
X269246Y281434D01*
X269172Y281334D01*
X269100Y281233D01*
X269032Y281129D01*
X268967Y281023D01*
X268906Y280915D01*
X268848Y280806D01*
X268793Y280694D01*
X268742Y280581D01*
X268694Y280466D01*
X268651Y280350D01*
X268610Y280233D01*
X268574Y280114D01*
X268541Y279995D01*
X268512Y279874D01*
X268487Y279752D01*
X268466Y279630D01*
X268448Y279507D01*
X268435Y279384D01*
X268425Y279260D01*
X268419Y279136D01*
X268417Y279012D01*
X268417Y275061D01*
X268419Y274937D01*
X268425Y274813D01*
X268435Y274689D01*
X268448Y274566D01*
X268466Y274443D01*
X268487Y274321D01*
X268512Y274199D01*
X268541Y274078D01*
X268574Y273959D01*
X268610Y273840D01*
X268651Y273723D01*
X268694Y273607D01*
X268742Y273492D01*
X268793Y273379D01*
X268848Y273267D01*
X268906Y273158D01*
X268967Y273050D01*
X269032Y272944D01*
X269100Y272840D01*
X269172Y272739D01*
X269246Y272639D01*
X269324Y272543D01*
X269404Y272448D01*
X269488Y272356D01*
X269574Y272267D01*
X269663Y272181D01*
X269755Y272097D01*
X269850Y272017D01*
X269946Y271939D01*
X270046Y271865D01*
X270147Y271793D01*
X270251Y271725D01*
X270357Y271660D01*
X270465Y271599D01*
X270574Y271541D01*
X270686Y271486D01*
X270799Y271435D01*
X270914Y271387D01*
X271030Y271344D01*
X271147Y271303D01*
X271266Y271267D01*
X271385Y271234D01*
X271506Y271205D01*
X271628Y271180D01*
X271750Y271159D01*
X271873Y271141D01*
X271996Y271128D01*
X272120Y271118D01*
X272244Y271112D01*
X272368Y271110D01*
X272492Y271112D01*
X272616Y271118D01*
X272740Y271128D01*
X272863Y271141D01*
X272986Y271159D01*
X273108Y271180D01*
X273230Y271205D01*
X273351Y271234D01*
X273470Y271267D01*
X273589Y271303D01*
X273706Y271344D01*
X273822Y271387D01*
X273937Y271435D01*
X274050Y271486D01*
X274162Y271541D01*
X274271Y271599D01*
X274379Y271660D01*
X274485Y271725D01*
X274589Y271793D01*
X274690Y271865D01*
X274790Y271939D01*
X274886Y272017D01*
X274981Y272097D01*
X275073Y272181D01*
X275162Y272267D01*
X275248Y272356D01*
X275332Y272448D01*
X275412Y272543D01*
X275490Y272639D01*
X275564Y272739D01*
X275636Y272840D01*
X275704Y272944D01*
X275769Y273050D01*
X275830Y273158D01*
X275888Y273267D01*
X275943Y273379D01*
X275994Y273492D01*
X276042Y273607D01*
X276085Y273723D01*
X276126Y273840D01*
X276162Y273959D01*
X276195Y274078D01*
X276224Y274199D01*
X276249Y274321D01*
X276270Y274443D01*
X276288Y274566D01*
X276301Y274689D01*
X276311Y274813D01*
X276317Y274937D01*
X276319Y275061D01*
X258839Y271110D02*
X253900Y271110D01*
X258839Y271110D02*
X258945Y271112D01*
X259050Y271118D01*
X259156Y271127D01*
X259261Y271140D01*
X259365Y271157D01*
X259469Y271178D01*
X259572Y271202D01*
X259674Y271230D01*
X259775Y271262D01*
X259874Y271297D01*
X259973Y271336D01*
X260070Y271378D01*
X260165Y271423D01*
X260259Y271472D01*
X260351Y271525D01*
X260441Y271580D01*
X260529Y271639D01*
X260615Y271701D01*
X260698Y271766D01*
X260779Y271834D01*
X260858Y271904D01*
X260934Y271978D01*
X261008Y272054D01*
X261078Y272133D01*
X261146Y272214D01*
X261211Y272297D01*
X261273Y272383D01*
X261332Y272471D01*
X261387Y272561D01*
X261440Y272653D01*
X261489Y272747D01*
X261534Y272842D01*
X261576Y272939D01*
X261615Y273038D01*
X261650Y273137D01*
X261682Y273238D01*
X261710Y273340D01*
X261734Y273443D01*
X261755Y273547D01*
X261772Y273651D01*
X261785Y273756D01*
X261794Y273862D01*
X261800Y273967D01*
X261802Y274073D01*
X261802Y279012D01*
X261800Y279136D01*
X261794Y279260D01*
X261784Y279384D01*
X261771Y279507D01*
X261753Y279630D01*
X261732Y279752D01*
X261707Y279874D01*
X261678Y279995D01*
X261645Y280114D01*
X261609Y280233D01*
X261568Y280350D01*
X261525Y280466D01*
X261477Y280581D01*
X261426Y280694D01*
X261371Y280806D01*
X261313Y280915D01*
X261252Y281023D01*
X261187Y281129D01*
X261119Y281233D01*
X261047Y281334D01*
X260973Y281434D01*
X260895Y281530D01*
X260815Y281625D01*
X260731Y281717D01*
X260645Y281806D01*
X260556Y281892D01*
X260464Y281976D01*
X260369Y282056D01*
X260273Y282134D01*
X260173Y282208D01*
X260072Y282280D01*
X259968Y282348D01*
X259862Y282413D01*
X259754Y282474D01*
X259645Y282532D01*
X259533Y282587D01*
X259420Y282638D01*
X259305Y282686D01*
X259189Y282729D01*
X259072Y282770D01*
X258953Y282806D01*
X258834Y282839D01*
X258713Y282868D01*
X258591Y282893D01*
X258469Y282914D01*
X258346Y282932D01*
X258223Y282945D01*
X258099Y282955D01*
X257975Y282961D01*
X257851Y282963D01*
X257727Y282961D01*
X257603Y282955D01*
X257479Y282945D01*
X257356Y282932D01*
X257233Y282914D01*
X257111Y282893D01*
X256989Y282868D01*
X256868Y282839D01*
X256749Y282806D01*
X256630Y282770D01*
X256513Y282729D01*
X256397Y282686D01*
X256282Y282638D01*
X256169Y282587D01*
X256057Y282532D01*
X255948Y282474D01*
X255840Y282413D01*
X255734Y282348D01*
X255630Y282280D01*
X255529Y282208D01*
X255429Y282134D01*
X255333Y282056D01*
X255238Y281976D01*
X255146Y281892D01*
X255057Y281806D01*
X254971Y281717D01*
X254887Y281625D01*
X254807Y281530D01*
X254729Y281434D01*
X254655Y281334D01*
X254583Y281233D01*
X254515Y281129D01*
X254450Y281023D01*
X254389Y280915D01*
X254331Y280806D01*
X254276Y280694D01*
X254225Y280581D01*
X254177Y280466D01*
X254134Y280350D01*
X254093Y280233D01*
X254057Y280114D01*
X254024Y279995D01*
X253995Y279874D01*
X253970Y279752D01*
X253949Y279630D01*
X253931Y279507D01*
X253918Y279384D01*
X253908Y279260D01*
X253902Y279136D01*
X253900Y279012D01*
X253900Y277037D01*
X261802Y277037D01*
X410388Y255489D02*
X410390Y255621D01*
X410396Y255752D01*
X410406Y255884D01*
X410419Y256015D01*
X410437Y256145D01*
X410458Y256275D01*
X410483Y256405D01*
X410512Y256533D01*
X410545Y256661D01*
X410582Y256787D01*
X410622Y256913D01*
X410666Y257037D01*
X410714Y257160D01*
X410765Y257281D01*
X410820Y257401D01*
X410878Y257519D01*
X410940Y257635D01*
X411006Y257749D01*
X411074Y257862D01*
X411146Y257972D01*
X411221Y258080D01*
X411300Y258186D01*
X411381Y258290D01*
X411466Y258391D01*
X411553Y258489D01*
X411644Y258585D01*
X411737Y258678D01*
X411833Y258769D01*
X411931Y258856D01*
X412032Y258941D01*
X412136Y259022D01*
X412242Y259101D01*
X412350Y259176D01*
X412460Y259248D01*
X412573Y259316D01*
X412687Y259382D01*
X412803Y259444D01*
X412921Y259502D01*
X413041Y259557D01*
X413162Y259608D01*
X413285Y259656D01*
X413409Y259700D01*
X413535Y259740D01*
X413661Y259777D01*
X413789Y259810D01*
X413917Y259839D01*
X414047Y259864D01*
X414177Y259885D01*
X414307Y259903D01*
X414438Y259916D01*
X414570Y259926D01*
X414701Y259932D01*
X414833Y259934D01*
X414983Y259932D01*
X415132Y259926D01*
X415281Y259916D01*
X415430Y259903D01*
X415579Y259885D01*
X415727Y259864D01*
X415875Y259838D01*
X416021Y259809D01*
X416167Y259776D01*
X416312Y259739D01*
X416456Y259698D01*
X416599Y259654D01*
X416741Y259606D01*
X416881Y259554D01*
X417020Y259499D01*
X417158Y259440D01*
X417293Y259377D01*
X417428Y259311D01*
X417560Y259241D01*
X417690Y259168D01*
X417819Y259091D01*
X417946Y259011D01*
X418070Y258928D01*
X418192Y258842D01*
X418312Y258752D01*
X418429Y258659D01*
X418544Y258564D01*
X418657Y258465D01*
X418767Y258363D01*
X418874Y258259D01*
X418978Y258152D01*
X419080Y258042D01*
X419178Y257929D01*
X419274Y257814D01*
X419366Y257696D01*
X419456Y257576D01*
X419542Y257454D01*
X419625Y257330D01*
X419705Y257203D01*
X419781Y257075D01*
X419854Y256944D01*
X419924Y256811D01*
X419990Y256677D01*
X420052Y256541D01*
X420111Y256404D01*
X420167Y256265D01*
X420218Y256124D01*
X420266Y255983D01*
X411870Y252032D02*
X411774Y252125D01*
X411682Y252221D01*
X411592Y252320D01*
X411505Y252421D01*
X411421Y252524D01*
X411339Y252629D01*
X411261Y252737D01*
X411186Y252847D01*
X411113Y252959D01*
X411044Y253073D01*
X410978Y253189D01*
X410916Y253307D01*
X410857Y253426D01*
X410801Y253547D01*
X410748Y253670D01*
X410699Y253794D01*
X410654Y253919D01*
X410611Y254046D01*
X410573Y254173D01*
X410538Y254302D01*
X410507Y254431D01*
X410479Y254562D01*
X410455Y254693D01*
X410434Y254825D01*
X410418Y254957D01*
X410405Y255090D01*
X410395Y255223D01*
X410390Y255356D01*
X410388Y255489D01*
X411869Y252032D02*
X420266Y242154D01*
X410388Y242154D01*
X393637Y255489D02*
X393639Y255621D01*
X393645Y255752D01*
X393655Y255884D01*
X393668Y256015D01*
X393686Y256145D01*
X393707Y256275D01*
X393732Y256405D01*
X393761Y256533D01*
X393794Y256661D01*
X393831Y256787D01*
X393871Y256913D01*
X393915Y257037D01*
X393963Y257160D01*
X394014Y257281D01*
X394069Y257401D01*
X394127Y257519D01*
X394189Y257635D01*
X394255Y257749D01*
X394323Y257862D01*
X394395Y257972D01*
X394470Y258080D01*
X394549Y258186D01*
X394630Y258290D01*
X394715Y258391D01*
X394802Y258489D01*
X394893Y258585D01*
X394986Y258678D01*
X395082Y258769D01*
X395180Y258856D01*
X395281Y258941D01*
X395385Y259022D01*
X395491Y259101D01*
X395599Y259176D01*
X395709Y259248D01*
X395822Y259316D01*
X395936Y259382D01*
X396052Y259444D01*
X396170Y259502D01*
X396290Y259557D01*
X396411Y259608D01*
X396534Y259656D01*
X396658Y259700D01*
X396784Y259740D01*
X396910Y259777D01*
X397038Y259810D01*
X397166Y259839D01*
X397296Y259864D01*
X397426Y259885D01*
X397556Y259903D01*
X397687Y259916D01*
X397819Y259926D01*
X397950Y259932D01*
X398082Y259934D01*
X398232Y259932D01*
X398381Y259926D01*
X398530Y259916D01*
X398679Y259903D01*
X398828Y259885D01*
X398976Y259864D01*
X399124Y259838D01*
X399270Y259809D01*
X399416Y259776D01*
X399561Y259739D01*
X399705Y259698D01*
X399848Y259654D01*
X399990Y259606D01*
X400130Y259554D01*
X400269Y259499D01*
X400407Y259440D01*
X400542Y259377D01*
X400677Y259311D01*
X400809Y259241D01*
X400939Y259168D01*
X401068Y259091D01*
X401195Y259011D01*
X401319Y258928D01*
X401441Y258842D01*
X401561Y258752D01*
X401678Y258659D01*
X401793Y258564D01*
X401906Y258465D01*
X402016Y258363D01*
X402123Y258259D01*
X402227Y258152D01*
X402329Y258042D01*
X402427Y257929D01*
X402523Y257814D01*
X402615Y257696D01*
X402705Y257576D01*
X402791Y257454D01*
X402874Y257330D01*
X402954Y257203D01*
X403030Y257075D01*
X403103Y256944D01*
X403173Y256811D01*
X403239Y256677D01*
X403301Y256541D01*
X403360Y256404D01*
X403416Y256265D01*
X403467Y256124D01*
X403515Y255983D01*
X395120Y252032D02*
X395024Y252125D01*
X394932Y252221D01*
X394842Y252320D01*
X394755Y252421D01*
X394671Y252524D01*
X394589Y252629D01*
X394511Y252737D01*
X394436Y252847D01*
X394363Y252959D01*
X394294Y253073D01*
X394228Y253189D01*
X394166Y253307D01*
X394107Y253426D01*
X394051Y253547D01*
X393998Y253670D01*
X393949Y253794D01*
X393904Y253919D01*
X393861Y254046D01*
X393823Y254173D01*
X393788Y254302D01*
X393757Y254431D01*
X393729Y254562D01*
X393705Y254693D01*
X393684Y254825D01*
X393668Y254957D01*
X393655Y255090D01*
X393645Y255223D01*
X393640Y255356D01*
X393638Y255489D01*
X395119Y252032D02*
X403515Y242154D01*
X393637Y242154D01*
X387345Y242154D02*
X387345Y243142D01*
X386357Y243142D01*
X386357Y242154D01*
X387345Y242154D01*
X380065Y251044D02*
X380061Y251394D01*
X380048Y251743D01*
X380027Y252092D01*
X379998Y252441D01*
X379961Y252789D01*
X379915Y253136D01*
X379861Y253481D01*
X379799Y253825D01*
X379728Y254168D01*
X379649Y254509D01*
X379563Y254848D01*
X379468Y255184D01*
X379365Y255519D01*
X379254Y255850D01*
X379136Y256180D01*
X379009Y256506D01*
X378875Y256829D01*
X378733Y257148D01*
X378583Y257465D01*
X378583Y257464D02*
X378543Y257577D01*
X378499Y257687D01*
X378451Y257797D01*
X378400Y257904D01*
X378345Y258010D01*
X378287Y258115D01*
X378225Y258217D01*
X378160Y258317D01*
X378092Y258415D01*
X378021Y258511D01*
X377946Y258604D01*
X377869Y258695D01*
X377789Y258783D01*
X377706Y258868D01*
X377620Y258951D01*
X377531Y259031D01*
X377440Y259108D01*
X377346Y259182D01*
X377250Y259253D01*
X377152Y259321D01*
X377052Y259385D01*
X376949Y259447D01*
X376845Y259504D01*
X376739Y259559D01*
X376631Y259610D01*
X376521Y259657D01*
X376410Y259701D01*
X376298Y259741D01*
X376184Y259777D01*
X376070Y259810D01*
X375954Y259839D01*
X375837Y259864D01*
X375720Y259885D01*
X375602Y259903D01*
X375483Y259916D01*
X375364Y259926D01*
X375245Y259932D01*
X375126Y259934D01*
X375007Y259932D01*
X374888Y259926D01*
X374769Y259916D01*
X374650Y259903D01*
X374532Y259885D01*
X374415Y259864D01*
X374298Y259839D01*
X374182Y259810D01*
X374068Y259777D01*
X373954Y259741D01*
X373842Y259701D01*
X373731Y259657D01*
X373621Y259610D01*
X373513Y259559D01*
X373407Y259504D01*
X373303Y259447D01*
X373200Y259385D01*
X373100Y259321D01*
X373002Y259253D01*
X372906Y259182D01*
X372812Y259108D01*
X372721Y259031D01*
X372632Y258951D01*
X372547Y258868D01*
X372463Y258783D01*
X372383Y258695D01*
X372306Y258604D01*
X372231Y258511D01*
X372160Y258415D01*
X372092Y258317D01*
X372027Y258217D01*
X371965Y258115D01*
X371907Y258010D01*
X371852Y257905D01*
X371801Y257797D01*
X371753Y257687D01*
X371709Y257577D01*
X371669Y257464D01*
X371669Y257465D02*
X371519Y257148D01*
X371377Y256829D01*
X371243Y256506D01*
X371116Y256180D01*
X370998Y255850D01*
X370887Y255519D01*
X370784Y255184D01*
X370689Y254848D01*
X370603Y254509D01*
X370524Y254168D01*
X370453Y253825D01*
X370391Y253481D01*
X370337Y253136D01*
X370291Y252789D01*
X370254Y252441D01*
X370225Y252092D01*
X370204Y251743D01*
X370191Y251394D01*
X370187Y251044D01*
X380064Y251044D02*
X380060Y250694D01*
X380047Y250345D01*
X380026Y249996D01*
X379997Y249647D01*
X379960Y249299D01*
X379914Y248952D01*
X379860Y248607D01*
X379798Y248263D01*
X379727Y247920D01*
X379648Y247579D01*
X379562Y247240D01*
X379467Y246904D01*
X379364Y246569D01*
X379253Y246238D01*
X379135Y245909D01*
X379008Y245582D01*
X378874Y245259D01*
X378732Y244940D01*
X378582Y244624D01*
X378583Y244624D02*
X378543Y244511D01*
X378499Y244401D01*
X378451Y244291D01*
X378400Y244184D01*
X378345Y244078D01*
X378287Y243973D01*
X378225Y243871D01*
X378160Y243771D01*
X378092Y243673D01*
X378021Y243577D01*
X377946Y243484D01*
X377869Y243393D01*
X377789Y243305D01*
X377706Y243220D01*
X377620Y243137D01*
X377531Y243057D01*
X377440Y242980D01*
X377346Y242906D01*
X377250Y242835D01*
X377152Y242767D01*
X377052Y242703D01*
X376949Y242641D01*
X376845Y242584D01*
X376739Y242529D01*
X376631Y242478D01*
X376521Y242431D01*
X376410Y242387D01*
X376298Y242347D01*
X376184Y242311D01*
X376070Y242278D01*
X375954Y242249D01*
X375837Y242224D01*
X375720Y242203D01*
X375602Y242185D01*
X375483Y242172D01*
X375364Y242162D01*
X375245Y242156D01*
X375126Y242154D01*
X371669Y244624D02*
X371519Y244940D01*
X371377Y245259D01*
X371243Y245582D01*
X371116Y245909D01*
X370998Y246238D01*
X370887Y246569D01*
X370784Y246904D01*
X370689Y247240D01*
X370603Y247579D01*
X370524Y247920D01*
X370453Y248263D01*
X370391Y248607D01*
X370337Y248952D01*
X370291Y249299D01*
X370254Y249647D01*
X370225Y249996D01*
X370204Y250345D01*
X370191Y250694D01*
X370187Y251044D01*
X371669Y244624D02*
X371709Y244511D01*
X371753Y244401D01*
X371801Y244291D01*
X371852Y244183D01*
X371907Y244077D01*
X371965Y243973D01*
X372027Y243871D01*
X372092Y243771D01*
X372160Y243673D01*
X372231Y243577D01*
X372306Y243484D01*
X372383Y243393D01*
X372463Y243305D01*
X372547Y243220D01*
X372632Y243137D01*
X372721Y243057D01*
X372812Y242980D01*
X372906Y242906D01*
X373002Y242835D01*
X373100Y242767D01*
X373200Y242703D01*
X373303Y242641D01*
X373407Y242583D01*
X373513Y242529D01*
X373621Y242478D01*
X373731Y242431D01*
X373842Y242387D01*
X373954Y242347D01*
X374068Y242311D01*
X374182Y242278D01*
X374298Y242249D01*
X374415Y242224D01*
X374532Y242203D01*
X374650Y242185D01*
X374769Y242172D01*
X374888Y242162D01*
X375007Y242156D01*
X375126Y242154D01*
X379077Y246105D02*
X371175Y255983D01*
X363314Y255983D02*
X358375Y259934D01*
X358375Y242154D01*
X363314Y242154D02*
X353436Y242154D01*
X347144Y242154D02*
X347144Y243142D01*
X346156Y243142D01*
X346156Y242154D01*
X347144Y242154D01*
X329986Y255489D02*
X329988Y255621D01*
X329994Y255752D01*
X330004Y255884D01*
X330017Y256015D01*
X330035Y256145D01*
X330056Y256275D01*
X330081Y256405D01*
X330110Y256533D01*
X330143Y256661D01*
X330180Y256787D01*
X330220Y256913D01*
X330264Y257037D01*
X330312Y257160D01*
X330363Y257281D01*
X330418Y257401D01*
X330476Y257519D01*
X330538Y257635D01*
X330604Y257749D01*
X330672Y257862D01*
X330744Y257972D01*
X330819Y258080D01*
X330898Y258186D01*
X330979Y258290D01*
X331064Y258391D01*
X331151Y258489D01*
X331242Y258585D01*
X331335Y258678D01*
X331431Y258769D01*
X331529Y258856D01*
X331630Y258941D01*
X331734Y259022D01*
X331840Y259101D01*
X331948Y259176D01*
X332058Y259248D01*
X332171Y259316D01*
X332285Y259382D01*
X332401Y259444D01*
X332519Y259502D01*
X332639Y259557D01*
X332760Y259608D01*
X332883Y259656D01*
X333007Y259700D01*
X333133Y259740D01*
X333259Y259777D01*
X333387Y259810D01*
X333515Y259839D01*
X333645Y259864D01*
X333775Y259885D01*
X333905Y259903D01*
X334036Y259916D01*
X334168Y259926D01*
X334299Y259932D01*
X334431Y259934D01*
X334581Y259932D01*
X334730Y259926D01*
X334879Y259916D01*
X335028Y259903D01*
X335177Y259885D01*
X335325Y259864D01*
X335473Y259838D01*
X335619Y259809D01*
X335765Y259776D01*
X335910Y259739D01*
X336054Y259698D01*
X336197Y259654D01*
X336339Y259606D01*
X336479Y259554D01*
X336618Y259499D01*
X336756Y259440D01*
X336891Y259377D01*
X337026Y259311D01*
X337158Y259241D01*
X337288Y259168D01*
X337417Y259091D01*
X337544Y259011D01*
X337668Y258928D01*
X337790Y258842D01*
X337910Y258752D01*
X338027Y258659D01*
X338142Y258564D01*
X338255Y258465D01*
X338365Y258363D01*
X338472Y258259D01*
X338576Y258152D01*
X338678Y258042D01*
X338776Y257929D01*
X338872Y257814D01*
X338964Y257696D01*
X339054Y257576D01*
X339140Y257454D01*
X339223Y257330D01*
X339303Y257203D01*
X339379Y257075D01*
X339452Y256944D01*
X339522Y256811D01*
X339588Y256677D01*
X339650Y256541D01*
X339709Y256404D01*
X339765Y256265D01*
X339816Y256124D01*
X339864Y255983D01*
X331468Y252032D02*
X331372Y252125D01*
X331280Y252221D01*
X331190Y252320D01*
X331103Y252421D01*
X331019Y252524D01*
X330937Y252629D01*
X330859Y252737D01*
X330784Y252847D01*
X330711Y252959D01*
X330642Y253073D01*
X330576Y253189D01*
X330514Y253307D01*
X330455Y253426D01*
X330399Y253547D01*
X330346Y253670D01*
X330297Y253794D01*
X330252Y253919D01*
X330209Y254046D01*
X330171Y254173D01*
X330136Y254302D01*
X330105Y254431D01*
X330077Y254562D01*
X330053Y254693D01*
X330032Y254825D01*
X330016Y254957D01*
X330003Y255090D01*
X329993Y255223D01*
X329988Y255356D01*
X329986Y255489D01*
X331467Y252032D02*
X339864Y242154D01*
X329986Y242154D01*
X323113Y251044D02*
X323109Y251394D01*
X323096Y251743D01*
X323075Y252092D01*
X323046Y252441D01*
X323009Y252789D01*
X322963Y253136D01*
X322909Y253481D01*
X322847Y253825D01*
X322776Y254168D01*
X322697Y254509D01*
X322611Y254848D01*
X322516Y255184D01*
X322413Y255519D01*
X322302Y255850D01*
X322184Y256180D01*
X322057Y256506D01*
X321923Y256829D01*
X321781Y257148D01*
X321631Y257465D01*
X321631Y257464D02*
X321591Y257577D01*
X321547Y257687D01*
X321499Y257797D01*
X321448Y257904D01*
X321393Y258010D01*
X321335Y258115D01*
X321273Y258217D01*
X321208Y258317D01*
X321140Y258415D01*
X321069Y258511D01*
X320994Y258604D01*
X320917Y258695D01*
X320837Y258783D01*
X320754Y258868D01*
X320668Y258951D01*
X320579Y259031D01*
X320488Y259108D01*
X320394Y259182D01*
X320298Y259253D01*
X320200Y259321D01*
X320100Y259385D01*
X319997Y259447D01*
X319893Y259504D01*
X319787Y259559D01*
X319679Y259610D01*
X319569Y259657D01*
X319458Y259701D01*
X319346Y259741D01*
X319232Y259777D01*
X319118Y259810D01*
X319002Y259839D01*
X318885Y259864D01*
X318768Y259885D01*
X318650Y259903D01*
X318531Y259916D01*
X318412Y259926D01*
X318293Y259932D01*
X318174Y259934D01*
X318055Y259932D01*
X317936Y259926D01*
X317817Y259916D01*
X317698Y259903D01*
X317580Y259885D01*
X317463Y259864D01*
X317346Y259839D01*
X317230Y259810D01*
X317116Y259777D01*
X317002Y259741D01*
X316890Y259701D01*
X316779Y259657D01*
X316669Y259610D01*
X316561Y259559D01*
X316455Y259504D01*
X316351Y259447D01*
X316248Y259385D01*
X316148Y259321D01*
X316050Y259253D01*
X315954Y259182D01*
X315860Y259108D01*
X315769Y259031D01*
X315680Y258951D01*
X315595Y258868D01*
X315511Y258783D01*
X315431Y258695D01*
X315354Y258604D01*
X315279Y258511D01*
X315208Y258415D01*
X315140Y258317D01*
X315075Y258217D01*
X315013Y258115D01*
X314955Y258010D01*
X314900Y257905D01*
X314849Y257797D01*
X314801Y257687D01*
X314757Y257577D01*
X314717Y257464D01*
X314717Y257465D02*
X314567Y257148D01*
X314425Y256829D01*
X314291Y256506D01*
X314164Y256180D01*
X314046Y255850D01*
X313935Y255519D01*
X313832Y255184D01*
X313737Y254848D01*
X313651Y254509D01*
X313572Y254168D01*
X313501Y253825D01*
X313439Y253481D01*
X313385Y253136D01*
X313339Y252789D01*
X313302Y252441D01*
X313273Y252092D01*
X313252Y251743D01*
X313239Y251394D01*
X313235Y251044D01*
X323113Y251044D02*
X323109Y250694D01*
X323096Y250345D01*
X323075Y249996D01*
X323046Y249647D01*
X323009Y249299D01*
X322963Y248952D01*
X322909Y248607D01*
X322847Y248263D01*
X322776Y247920D01*
X322697Y247579D01*
X322611Y247240D01*
X322516Y246904D01*
X322413Y246569D01*
X322302Y246238D01*
X322184Y245909D01*
X322057Y245582D01*
X321923Y245259D01*
X321781Y244940D01*
X321631Y244624D01*
X321591Y244511D01*
X321547Y244401D01*
X321499Y244291D01*
X321448Y244184D01*
X321393Y244078D01*
X321335Y243973D01*
X321273Y243871D01*
X321208Y243771D01*
X321140Y243673D01*
X321069Y243577D01*
X320994Y243484D01*
X320917Y243393D01*
X320837Y243305D01*
X320754Y243220D01*
X320668Y243137D01*
X320579Y243057D01*
X320488Y242980D01*
X320394Y242906D01*
X320298Y242835D01*
X320200Y242767D01*
X320100Y242703D01*
X319997Y242641D01*
X319893Y242584D01*
X319787Y242529D01*
X319679Y242478D01*
X319569Y242431D01*
X319458Y242387D01*
X319346Y242347D01*
X319232Y242311D01*
X319118Y242278D01*
X319002Y242249D01*
X318885Y242224D01*
X318768Y242203D01*
X318650Y242185D01*
X318531Y242172D01*
X318412Y242162D01*
X318293Y242156D01*
X318174Y242154D01*
X314718Y244624D02*
X314568Y244940D01*
X314426Y245259D01*
X314292Y245582D01*
X314165Y245909D01*
X314047Y246238D01*
X313936Y246569D01*
X313833Y246904D01*
X313738Y247240D01*
X313652Y247579D01*
X313573Y247920D01*
X313502Y248263D01*
X313440Y248607D01*
X313386Y248952D01*
X313340Y249299D01*
X313303Y249647D01*
X313274Y249996D01*
X313253Y250345D01*
X313240Y250694D01*
X313236Y251044D01*
X314717Y244624D02*
X314757Y244511D01*
X314801Y244401D01*
X314849Y244291D01*
X314900Y244183D01*
X314955Y244077D01*
X315013Y243973D01*
X315075Y243871D01*
X315140Y243771D01*
X315208Y243673D01*
X315279Y243577D01*
X315354Y243484D01*
X315431Y243393D01*
X315511Y243305D01*
X315595Y243220D01*
X315680Y243137D01*
X315769Y243057D01*
X315860Y242980D01*
X315954Y242906D01*
X316050Y242835D01*
X316148Y242767D01*
X316248Y242703D01*
X316351Y242641D01*
X316455Y242583D01*
X316561Y242529D01*
X316669Y242478D01*
X316779Y242431D01*
X316890Y242387D01*
X317002Y242347D01*
X317116Y242311D01*
X317230Y242278D01*
X317346Y242249D01*
X317463Y242224D01*
X317580Y242203D01*
X317698Y242185D01*
X317817Y242172D01*
X317936Y242162D01*
X318055Y242156D01*
X318174Y242154D01*
X322125Y246105D02*
X314223Y255983D01*
X300930Y259934D02*
X300798Y259932D01*
X300667Y259926D01*
X300535Y259916D01*
X300404Y259903D01*
X300274Y259885D01*
X300144Y259864D01*
X300014Y259839D01*
X299886Y259810D01*
X299758Y259777D01*
X299632Y259740D01*
X299506Y259700D01*
X299382Y259656D01*
X299259Y259608D01*
X299138Y259557D01*
X299018Y259502D01*
X298900Y259444D01*
X298784Y259382D01*
X298670Y259316D01*
X298557Y259248D01*
X298447Y259176D01*
X298339Y259101D01*
X298233Y259022D01*
X298129Y258941D01*
X298028Y258856D01*
X297930Y258769D01*
X297834Y258678D01*
X297741Y258585D01*
X297650Y258489D01*
X297563Y258391D01*
X297478Y258290D01*
X297397Y258186D01*
X297318Y258080D01*
X297243Y257972D01*
X297171Y257862D01*
X297103Y257749D01*
X297037Y257635D01*
X296975Y257519D01*
X296917Y257401D01*
X296862Y257281D01*
X296811Y257160D01*
X296763Y257037D01*
X296719Y256913D01*
X296679Y256787D01*
X296642Y256661D01*
X296609Y256533D01*
X296580Y256405D01*
X296555Y256275D01*
X296534Y256145D01*
X296516Y256015D01*
X296503Y255884D01*
X296493Y255752D01*
X296487Y255621D01*
X296485Y255489D01*
X300930Y259934D02*
X301080Y259932D01*
X301229Y259926D01*
X301378Y259916D01*
X301527Y259903D01*
X301676Y259885D01*
X301824Y259864D01*
X301972Y259838D01*
X302118Y259809D01*
X302264Y259776D01*
X302409Y259739D01*
X302553Y259698D01*
X302696Y259654D01*
X302838Y259606D01*
X302978Y259554D01*
X303117Y259499D01*
X303255Y259440D01*
X303390Y259377D01*
X303525Y259311D01*
X303657Y259241D01*
X303787Y259168D01*
X303916Y259091D01*
X304043Y259011D01*
X304167Y258928D01*
X304289Y258842D01*
X304409Y258752D01*
X304526Y258659D01*
X304641Y258564D01*
X304754Y258465D01*
X304864Y258363D01*
X304971Y258259D01*
X305075Y258152D01*
X305177Y258042D01*
X305275Y257929D01*
X305371Y257814D01*
X305463Y257696D01*
X305553Y257576D01*
X305639Y257454D01*
X305722Y257330D01*
X305802Y257203D01*
X305878Y257075D01*
X305951Y256944D01*
X306021Y256811D01*
X306087Y256677D01*
X306149Y256541D01*
X306208Y256404D01*
X306264Y256265D01*
X306315Y256124D01*
X306363Y255983D01*
X297967Y252032D02*
X297871Y252125D01*
X297779Y252221D01*
X297689Y252320D01*
X297602Y252421D01*
X297518Y252524D01*
X297436Y252629D01*
X297358Y252737D01*
X297283Y252847D01*
X297210Y252959D01*
X297141Y253073D01*
X297075Y253189D01*
X297013Y253307D01*
X296954Y253426D01*
X296898Y253547D01*
X296845Y253670D01*
X296796Y253794D01*
X296751Y253919D01*
X296708Y254046D01*
X296670Y254173D01*
X296635Y254302D01*
X296604Y254431D01*
X296576Y254562D01*
X296552Y254693D01*
X296531Y254825D01*
X296515Y254957D01*
X296502Y255090D01*
X296492Y255223D01*
X296487Y255356D01*
X296485Y255489D01*
X297967Y252032D02*
X306363Y242154D01*
X296485Y242154D01*
X279734Y255489D02*
X279736Y255621D01*
X279742Y255752D01*
X279752Y255884D01*
X279765Y256015D01*
X279783Y256145D01*
X279804Y256275D01*
X279829Y256405D01*
X279858Y256533D01*
X279891Y256661D01*
X279928Y256787D01*
X279968Y256913D01*
X280012Y257037D01*
X280060Y257160D01*
X280111Y257281D01*
X280166Y257401D01*
X280224Y257519D01*
X280286Y257635D01*
X280352Y257749D01*
X280420Y257862D01*
X280492Y257972D01*
X280567Y258080D01*
X280646Y258186D01*
X280727Y258290D01*
X280812Y258391D01*
X280899Y258489D01*
X280990Y258585D01*
X281083Y258678D01*
X281179Y258769D01*
X281277Y258856D01*
X281378Y258941D01*
X281482Y259022D01*
X281588Y259101D01*
X281696Y259176D01*
X281806Y259248D01*
X281919Y259316D01*
X282033Y259382D01*
X282149Y259444D01*
X282267Y259502D01*
X282387Y259557D01*
X282508Y259608D01*
X282631Y259656D01*
X282755Y259700D01*
X282881Y259740D01*
X283007Y259777D01*
X283135Y259810D01*
X283263Y259839D01*
X283393Y259864D01*
X283523Y259885D01*
X283653Y259903D01*
X283784Y259916D01*
X283916Y259926D01*
X284047Y259932D01*
X284179Y259934D01*
X284329Y259932D01*
X284478Y259926D01*
X284627Y259916D01*
X284776Y259903D01*
X284925Y259885D01*
X285073Y259864D01*
X285221Y259838D01*
X285367Y259809D01*
X285513Y259776D01*
X285658Y259739D01*
X285802Y259698D01*
X285945Y259654D01*
X286087Y259606D01*
X286227Y259554D01*
X286366Y259499D01*
X286504Y259440D01*
X286639Y259377D01*
X286774Y259311D01*
X286906Y259241D01*
X287036Y259168D01*
X287165Y259091D01*
X287292Y259011D01*
X287416Y258928D01*
X287538Y258842D01*
X287658Y258752D01*
X287775Y258659D01*
X287890Y258564D01*
X288003Y258465D01*
X288113Y258363D01*
X288220Y258259D01*
X288324Y258152D01*
X288426Y258042D01*
X288524Y257929D01*
X288620Y257814D01*
X288712Y257696D01*
X288802Y257576D01*
X288888Y257454D01*
X288971Y257330D01*
X289051Y257203D01*
X289127Y257075D01*
X289200Y256944D01*
X289270Y256811D01*
X289336Y256677D01*
X289398Y256541D01*
X289457Y256404D01*
X289513Y256265D01*
X289564Y256124D01*
X289612Y255983D01*
X281217Y252032D02*
X281121Y252125D01*
X281029Y252221D01*
X280939Y252320D01*
X280852Y252421D01*
X280768Y252524D01*
X280686Y252629D01*
X280608Y252737D01*
X280533Y252847D01*
X280460Y252959D01*
X280391Y253073D01*
X280325Y253189D01*
X280263Y253307D01*
X280204Y253426D01*
X280148Y253547D01*
X280095Y253670D01*
X280046Y253794D01*
X280001Y253919D01*
X279958Y254046D01*
X279920Y254173D01*
X279885Y254302D01*
X279854Y254431D01*
X279826Y254562D01*
X279802Y254693D01*
X279781Y254825D01*
X279765Y254957D01*
X279752Y255090D01*
X279742Y255223D01*
X279737Y255356D01*
X279735Y255489D01*
X281216Y252032D02*
X289612Y242154D01*
X279734Y242154D01*
M02*
