G04 EAGLE Gerber RS-274X export*
G75*
%MOMM*%
%FSLAX34Y34*%
%LPD*%
%INSolderpaste Top*%
%IPPOS*%
%AMOC8*
5,1,8,0,0,1.08239X$1,22.5*%
G01*
%ADD10C,0.260000*%
%ADD11C,0.250000*%
%ADD12C,0.252000*%
%ADD13C,0.200000*%
%ADD14C,0.300000*%
%ADD15C,0.253000*%
%ADD16C,0.137500*%
%ADD17C,0.150000*%
%ADD18C,0.225000*%
%ADD19C,0.256000*%
%ADD20C,0.090000*%
%ADD21C,0.240000*%
%ADD22C,0.256031*%
%ADD23C,0.264000*%


D10*
X631300Y213700D02*
X648700Y213700D01*
X648700Y196300D01*
X631300Y196300D01*
X631300Y213700D01*
X631300Y198770D02*
X648700Y198770D01*
X648700Y201240D02*
X631300Y201240D01*
X631300Y203710D02*
X648700Y203710D01*
X648700Y206180D02*
X631300Y206180D01*
X631300Y208650D02*
X648700Y208650D01*
X648700Y211120D02*
X631300Y211120D01*
X631300Y213590D02*
X648700Y213590D01*
X588700Y213700D02*
X571300Y213700D01*
X588700Y213700D02*
X588700Y196300D01*
X571300Y196300D01*
X571300Y213700D01*
X571300Y198770D02*
X588700Y198770D01*
X588700Y201240D02*
X571300Y201240D01*
X571300Y203710D02*
X588700Y203710D01*
X588700Y206180D02*
X571300Y206180D01*
X571300Y208650D02*
X588700Y208650D01*
X588700Y211120D02*
X571300Y211120D01*
X571300Y213590D02*
X588700Y213590D01*
X631300Y298700D02*
X648700Y298700D01*
X648700Y281300D01*
X631300Y281300D01*
X631300Y298700D01*
X631300Y283770D02*
X648700Y283770D01*
X648700Y286240D02*
X631300Y286240D01*
X631300Y288710D02*
X648700Y288710D01*
X648700Y291180D02*
X631300Y291180D01*
X631300Y293650D02*
X648700Y293650D01*
X648700Y296120D02*
X631300Y296120D01*
X631300Y298590D02*
X648700Y298590D01*
X588700Y298700D02*
X571300Y298700D01*
X588700Y298700D02*
X588700Y281300D01*
X571300Y281300D01*
X571300Y298700D01*
X571300Y283770D02*
X588700Y283770D01*
X588700Y286240D02*
X571300Y286240D01*
X571300Y288710D02*
X588700Y288710D01*
X588700Y291180D02*
X571300Y291180D01*
X571300Y293650D02*
X588700Y293650D01*
X588700Y296120D02*
X571300Y296120D01*
X571300Y298590D02*
X588700Y298590D01*
X631300Y383700D02*
X648700Y383700D01*
X648700Y366300D01*
X631300Y366300D01*
X631300Y383700D01*
X631300Y368770D02*
X648700Y368770D01*
X648700Y371240D02*
X631300Y371240D01*
X631300Y373710D02*
X648700Y373710D01*
X648700Y376180D02*
X631300Y376180D01*
X631300Y378650D02*
X648700Y378650D01*
X648700Y381120D02*
X631300Y381120D01*
X631300Y383590D02*
X648700Y383590D01*
X588700Y383700D02*
X571300Y383700D01*
X588700Y383700D02*
X588700Y366300D01*
X571300Y366300D01*
X571300Y383700D01*
X571300Y368770D02*
X588700Y368770D01*
X588700Y371240D02*
X571300Y371240D01*
X571300Y373710D02*
X588700Y373710D01*
X588700Y376180D02*
X571300Y376180D01*
X571300Y378650D02*
X588700Y378650D01*
X588700Y381120D02*
X571300Y381120D01*
X571300Y383590D02*
X588700Y383590D01*
D11*
X552750Y443750D02*
X544250Y443750D01*
X552750Y443750D02*
X552750Y436250D01*
X544250Y436250D01*
X544250Y443750D01*
X544250Y438625D02*
X552750Y438625D01*
X552750Y441000D02*
X544250Y441000D01*
X544250Y443375D02*
X552750Y443375D01*
X535750Y443750D02*
X527250Y443750D01*
X535750Y443750D02*
X535750Y436250D01*
X527250Y436250D01*
X527250Y443750D01*
X527250Y438625D02*
X535750Y438625D01*
X535750Y441000D02*
X527250Y441000D01*
X527250Y443375D02*
X535750Y443375D01*
X253750Y522950D02*
X253750Y531450D01*
X253750Y522950D02*
X246250Y522950D01*
X246250Y531450D01*
X253750Y531450D01*
X253750Y525325D02*
X246250Y525325D01*
X246250Y527700D02*
X253750Y527700D01*
X253750Y530075D02*
X246250Y530075D01*
X253750Y539950D02*
X253750Y548450D01*
X253750Y539950D02*
X246250Y539950D01*
X246250Y548450D01*
X253750Y548450D01*
X253750Y542325D02*
X246250Y542325D01*
X246250Y544700D02*
X253750Y544700D01*
X253750Y547075D02*
X246250Y547075D01*
X273750Y531450D02*
X273750Y522950D01*
X266250Y522950D01*
X266250Y531450D01*
X273750Y531450D01*
X273750Y525325D02*
X266250Y525325D01*
X266250Y527700D02*
X273750Y527700D01*
X273750Y530075D02*
X266250Y530075D01*
X273750Y539950D02*
X273750Y548450D01*
X273750Y539950D02*
X266250Y539950D01*
X266250Y548450D01*
X273750Y548450D01*
X273750Y542325D02*
X266250Y542325D01*
X266250Y544700D02*
X273750Y544700D01*
X273750Y547075D02*
X266250Y547075D01*
X453750Y531450D02*
X453750Y522950D01*
X446250Y522950D01*
X446250Y531450D01*
X453750Y531450D01*
X453750Y525325D02*
X446250Y525325D01*
X446250Y527700D02*
X453750Y527700D01*
X453750Y530075D02*
X446250Y530075D01*
X453750Y539950D02*
X453750Y548450D01*
X453750Y539950D02*
X446250Y539950D01*
X446250Y548450D01*
X453750Y548450D01*
X453750Y542325D02*
X446250Y542325D01*
X446250Y544700D02*
X453750Y544700D01*
X453750Y547075D02*
X446250Y547075D01*
X313750Y531450D02*
X313750Y522950D01*
X306250Y522950D01*
X306250Y531450D01*
X313750Y531450D01*
X313750Y525325D02*
X306250Y525325D01*
X306250Y527700D02*
X313750Y527700D01*
X313750Y530075D02*
X306250Y530075D01*
X313750Y539950D02*
X313750Y548450D01*
X313750Y539950D02*
X306250Y539950D01*
X306250Y548450D01*
X313750Y548450D01*
X313750Y542325D02*
X306250Y542325D01*
X306250Y544700D02*
X313750Y544700D01*
X313750Y547075D02*
X306250Y547075D01*
X433750Y531450D02*
X433750Y522950D01*
X426250Y522950D01*
X426250Y531450D01*
X433750Y531450D01*
X433750Y525325D02*
X426250Y525325D01*
X426250Y527700D02*
X433750Y527700D01*
X433750Y530075D02*
X426250Y530075D01*
X433750Y539950D02*
X433750Y548450D01*
X433750Y539950D02*
X426250Y539950D01*
X426250Y548450D01*
X433750Y548450D01*
X433750Y542325D02*
X426250Y542325D01*
X426250Y544700D02*
X433750Y544700D01*
X433750Y547075D02*
X426250Y547075D01*
X544250Y503750D02*
X552750Y503750D01*
X552750Y496250D01*
X544250Y496250D01*
X544250Y503750D01*
X544250Y498625D02*
X552750Y498625D01*
X552750Y501000D02*
X544250Y501000D01*
X544250Y503375D02*
X552750Y503375D01*
X535750Y503750D02*
X527250Y503750D01*
X535750Y503750D02*
X535750Y496250D01*
X527250Y496250D01*
X527250Y503750D01*
X527250Y498625D02*
X535750Y498625D01*
X535750Y501000D02*
X527250Y501000D01*
X527250Y503375D02*
X535750Y503375D01*
X293750Y522950D02*
X293750Y531450D01*
X293750Y522950D02*
X286250Y522950D01*
X286250Y531450D01*
X293750Y531450D01*
X293750Y525325D02*
X286250Y525325D01*
X286250Y527700D02*
X293750Y527700D01*
X293750Y530075D02*
X286250Y530075D01*
X293750Y539950D02*
X293750Y548450D01*
X293750Y539950D02*
X286250Y539950D01*
X286250Y548450D01*
X293750Y548450D01*
X293750Y542325D02*
X286250Y542325D01*
X286250Y544700D02*
X293750Y544700D01*
X293750Y547075D02*
X286250Y547075D01*
X386250Y357750D02*
X386250Y349250D01*
X386250Y357750D02*
X393750Y357750D01*
X393750Y349250D01*
X386250Y349250D01*
X386250Y351625D02*
X393750Y351625D01*
X393750Y354000D02*
X386250Y354000D01*
X386250Y356375D02*
X393750Y356375D01*
X386250Y340750D02*
X386250Y332250D01*
X386250Y340750D02*
X393750Y340750D01*
X393750Y332250D01*
X386250Y332250D01*
X386250Y334625D02*
X393750Y334625D01*
X393750Y337000D02*
X386250Y337000D01*
X386250Y339375D02*
X393750Y339375D01*
X401250Y349250D02*
X401250Y357750D01*
X408750Y357750D01*
X408750Y349250D01*
X401250Y349250D01*
X401250Y351625D02*
X408750Y351625D01*
X408750Y354000D02*
X401250Y354000D01*
X401250Y356375D02*
X408750Y356375D01*
X401250Y340750D02*
X401250Y332250D01*
X401250Y340750D02*
X408750Y340750D01*
X408750Y332250D01*
X401250Y332250D01*
X401250Y334625D02*
X408750Y334625D01*
X408750Y337000D02*
X401250Y337000D01*
X401250Y339375D02*
X408750Y339375D01*
X306250Y349250D02*
X306250Y357750D01*
X313750Y357750D01*
X313750Y349250D01*
X306250Y349250D01*
X306250Y351625D02*
X313750Y351625D01*
X313750Y354000D02*
X306250Y354000D01*
X306250Y356375D02*
X313750Y356375D01*
X306250Y340750D02*
X306250Y332250D01*
X306250Y340750D02*
X313750Y340750D01*
X313750Y332250D01*
X306250Y332250D01*
X306250Y334625D02*
X313750Y334625D01*
X313750Y337000D02*
X306250Y337000D01*
X306250Y339375D02*
X313750Y339375D01*
D12*
X265740Y299040D02*
X262260Y299040D01*
X265740Y299040D02*
X265740Y294560D01*
X262260Y294560D01*
X262260Y299040D01*
X262260Y296954D02*
X265740Y296954D01*
X255740Y299040D02*
X252260Y299040D01*
X255740Y299040D02*
X255740Y294560D01*
X252260Y294560D01*
X252260Y299040D01*
X252260Y296954D02*
X255740Y296954D01*
X250240Y288940D02*
X250240Y285460D01*
X245760Y285460D01*
X245760Y288940D01*
X250240Y288940D01*
X250240Y287854D02*
X245760Y287854D01*
X250240Y295460D02*
X250240Y298940D01*
X250240Y295460D02*
X245760Y295460D01*
X245760Y298940D01*
X250240Y298940D01*
X250240Y297854D02*
X245760Y297854D01*
X272240Y288940D02*
X272240Y285460D01*
X267760Y285460D01*
X267760Y288940D01*
X272240Y288940D01*
X272240Y287854D02*
X267760Y287854D01*
X272240Y295460D02*
X272240Y298940D01*
X272240Y295460D02*
X267760Y295460D01*
X267760Y298940D01*
X272240Y298940D01*
X272240Y297854D02*
X267760Y297854D01*
D11*
X550750Y217250D02*
X550750Y209750D01*
X550750Y217250D02*
X559250Y217250D01*
X559250Y209750D01*
X550750Y209750D01*
X550750Y212125D02*
X559250Y212125D01*
X559250Y214500D02*
X550750Y214500D01*
X550750Y216875D02*
X559250Y216875D01*
X550750Y200250D02*
X550750Y192750D01*
X550750Y200250D02*
X559250Y200250D01*
X559250Y192750D01*
X550750Y192750D01*
X550750Y195125D02*
X559250Y195125D01*
X559250Y197500D02*
X550750Y197500D01*
X550750Y199875D02*
X559250Y199875D01*
X290750Y349750D02*
X290750Y357250D01*
X299250Y357250D01*
X299250Y349750D01*
X290750Y349750D01*
X290750Y352125D02*
X299250Y352125D01*
X299250Y354500D02*
X290750Y354500D01*
X290750Y356875D02*
X299250Y356875D01*
X290750Y340250D02*
X290750Y332750D01*
X290750Y340250D02*
X299250Y340250D01*
X299250Y332750D01*
X290750Y332750D01*
X290750Y335125D02*
X299250Y335125D01*
X299250Y337500D02*
X290750Y337500D01*
X290750Y339875D02*
X299250Y339875D01*
X550750Y302250D02*
X550750Y294750D01*
X550750Y302250D02*
X559250Y302250D01*
X559250Y294750D01*
X550750Y294750D01*
X550750Y297125D02*
X559250Y297125D01*
X559250Y299500D02*
X550750Y299500D01*
X550750Y301875D02*
X559250Y301875D01*
X550750Y285250D02*
X550750Y277750D01*
X550750Y285250D02*
X559250Y285250D01*
X559250Y277750D01*
X550750Y277750D01*
X550750Y280125D02*
X559250Y280125D01*
X559250Y282500D02*
X550750Y282500D01*
X550750Y284875D02*
X559250Y284875D01*
X394250Y523450D02*
X394250Y530950D01*
X394250Y523450D02*
X385750Y523450D01*
X385750Y530950D01*
X394250Y530950D01*
X394250Y525825D02*
X385750Y525825D01*
X385750Y528200D02*
X394250Y528200D01*
X394250Y530575D02*
X385750Y530575D01*
X394250Y540450D02*
X394250Y547950D01*
X394250Y540450D02*
X385750Y540450D01*
X385750Y547950D01*
X394250Y547950D01*
X394250Y542825D02*
X385750Y542825D01*
X385750Y545200D02*
X394250Y545200D01*
X394250Y547575D02*
X385750Y547575D01*
X414250Y530950D02*
X414250Y523450D01*
X405750Y523450D01*
X405750Y530950D01*
X414250Y530950D01*
X414250Y525825D02*
X405750Y525825D01*
X405750Y528200D02*
X414250Y528200D01*
X414250Y530575D02*
X405750Y530575D01*
X414250Y540450D02*
X414250Y547950D01*
X414250Y540450D02*
X405750Y540450D01*
X405750Y547950D01*
X414250Y547950D01*
X414250Y542825D02*
X405750Y542825D01*
X405750Y545200D02*
X414250Y545200D01*
X414250Y547575D02*
X405750Y547575D01*
X400750Y277250D02*
X400750Y269750D01*
X400750Y277250D02*
X409250Y277250D01*
X409250Y269750D01*
X400750Y269750D01*
X400750Y272125D02*
X409250Y272125D01*
X409250Y274500D02*
X400750Y274500D01*
X400750Y276875D02*
X409250Y276875D01*
X400750Y260250D02*
X400750Y252750D01*
X400750Y260250D02*
X409250Y260250D01*
X409250Y252750D01*
X400750Y252750D01*
X400750Y255125D02*
X409250Y255125D01*
X409250Y257500D02*
X400750Y257500D01*
X400750Y259875D02*
X409250Y259875D01*
X420750Y269750D02*
X420750Y277250D01*
X429250Y277250D01*
X429250Y269750D01*
X420750Y269750D01*
X420750Y272125D02*
X429250Y272125D01*
X429250Y274500D02*
X420750Y274500D01*
X420750Y276875D02*
X429250Y276875D01*
X420750Y260250D02*
X420750Y252750D01*
X420750Y260250D02*
X429250Y260250D01*
X429250Y252750D01*
X420750Y252750D01*
X420750Y255125D02*
X429250Y255125D01*
X429250Y257500D02*
X420750Y257500D01*
X420750Y259875D02*
X429250Y259875D01*
X550750Y379750D02*
X550750Y387250D01*
X559250Y387250D01*
X559250Y379750D01*
X550750Y379750D01*
X550750Y382125D02*
X559250Y382125D01*
X559250Y384500D02*
X550750Y384500D01*
X550750Y386875D02*
X559250Y386875D01*
X550750Y370250D02*
X550750Y362750D01*
X550750Y370250D02*
X559250Y370250D01*
X559250Y362750D01*
X550750Y362750D01*
X550750Y365125D02*
X559250Y365125D01*
X559250Y367500D02*
X550750Y367500D01*
X550750Y369875D02*
X559250Y369875D01*
D13*
X541000Y463300D02*
X539000Y463300D01*
X541000Y463300D02*
X541000Y457300D01*
X539000Y457300D01*
X539000Y463300D01*
X539000Y459200D02*
X541000Y459200D01*
X541000Y461100D02*
X539000Y461100D01*
X539000Y463000D02*
X541000Y463000D01*
X534500Y463300D02*
X532500Y463300D01*
X534500Y463300D02*
X534500Y457300D01*
X532500Y457300D01*
X532500Y463300D01*
X532500Y459200D02*
X534500Y459200D01*
X534500Y461100D02*
X532500Y461100D01*
X532500Y463000D02*
X534500Y463000D01*
X545500Y463300D02*
X547500Y463300D01*
X547500Y457300D01*
X545500Y457300D01*
X545500Y463300D01*
X545500Y459200D02*
X547500Y459200D01*
X547500Y461100D02*
X545500Y461100D01*
X545500Y463000D02*
X547500Y463000D01*
X547500Y482700D02*
X545500Y482700D01*
X547500Y482700D02*
X547500Y476700D01*
X545500Y476700D01*
X545500Y482700D01*
X545500Y478600D02*
X547500Y478600D01*
X547500Y480500D02*
X545500Y480500D01*
X545500Y482400D02*
X547500Y482400D01*
X534500Y482700D02*
X532500Y482700D01*
X534500Y482700D02*
X534500Y476700D01*
X532500Y476700D01*
X532500Y482700D01*
X532500Y478600D02*
X534500Y478600D01*
X534500Y480500D02*
X532500Y480500D01*
X532500Y482400D02*
X534500Y482400D01*
X347500Y489000D02*
X347500Y471000D01*
X345500Y471000D01*
X345500Y489000D01*
X347500Y489000D01*
X347500Y472900D02*
X345500Y472900D01*
X345500Y474800D02*
X347500Y474800D01*
X347500Y476700D02*
X345500Y476700D01*
X345500Y478600D02*
X347500Y478600D01*
X347500Y480500D02*
X345500Y480500D01*
X345500Y482400D02*
X347500Y482400D01*
X347500Y484300D02*
X345500Y484300D01*
X345500Y486200D02*
X347500Y486200D01*
X347500Y488100D02*
X345500Y488100D01*
X354500Y489000D02*
X354500Y471000D01*
X352500Y471000D01*
X352500Y489000D01*
X354500Y489000D01*
X354500Y472900D02*
X352500Y472900D01*
X352500Y474800D02*
X354500Y474800D01*
X354500Y476700D02*
X352500Y476700D01*
X352500Y478600D02*
X354500Y478600D01*
X354500Y480500D02*
X352500Y480500D01*
X352500Y482400D02*
X354500Y482400D01*
X354500Y484300D02*
X352500Y484300D01*
X352500Y486200D02*
X354500Y486200D01*
X354500Y488100D02*
X352500Y488100D01*
X361500Y489000D02*
X361500Y471000D01*
X359500Y471000D01*
X359500Y489000D01*
X361500Y489000D01*
X361500Y472900D02*
X359500Y472900D01*
X359500Y474800D02*
X361500Y474800D01*
X361500Y476700D02*
X359500Y476700D01*
X359500Y478600D02*
X361500Y478600D01*
X361500Y480500D02*
X359500Y480500D01*
X359500Y482400D02*
X361500Y482400D01*
X361500Y484300D02*
X359500Y484300D01*
X359500Y486200D02*
X361500Y486200D01*
X361500Y488100D02*
X359500Y488100D01*
X340500Y489000D02*
X340500Y471000D01*
X338500Y471000D01*
X338500Y489000D01*
X340500Y489000D01*
X340500Y472900D02*
X338500Y472900D01*
X338500Y474800D02*
X340500Y474800D01*
X340500Y476700D02*
X338500Y476700D01*
X338500Y478600D02*
X340500Y478600D01*
X340500Y480500D02*
X338500Y480500D01*
X338500Y482400D02*
X340500Y482400D01*
X340500Y484300D02*
X338500Y484300D01*
X338500Y486200D02*
X340500Y486200D01*
X340500Y488100D02*
X338500Y488100D01*
X333500Y489000D02*
X333500Y471000D01*
X331500Y471000D01*
X331500Y489000D01*
X333500Y489000D01*
X333500Y472900D02*
X331500Y472900D01*
X331500Y474800D02*
X333500Y474800D01*
X333500Y476700D02*
X331500Y476700D01*
X331500Y478600D02*
X333500Y478600D01*
X333500Y480500D02*
X331500Y480500D01*
X331500Y482400D02*
X333500Y482400D01*
X333500Y484300D02*
X331500Y484300D01*
X331500Y486200D02*
X333500Y486200D01*
X333500Y488100D02*
X331500Y488100D01*
X368500Y489000D02*
X368500Y471000D01*
X366500Y471000D01*
X366500Y489000D01*
X368500Y489000D01*
X368500Y472900D02*
X366500Y472900D01*
X366500Y474800D02*
X368500Y474800D01*
X368500Y476700D02*
X366500Y476700D01*
X366500Y478600D02*
X368500Y478600D01*
X368500Y480500D02*
X366500Y480500D01*
X366500Y482400D02*
X368500Y482400D01*
X368500Y484300D02*
X366500Y484300D01*
X366500Y486200D02*
X368500Y486200D01*
X368500Y488100D02*
X366500Y488100D01*
X375500Y489000D02*
X375500Y471000D01*
X373500Y471000D01*
X373500Y489000D01*
X375500Y489000D01*
X375500Y472900D02*
X373500Y472900D01*
X373500Y474800D02*
X375500Y474800D01*
X375500Y476700D02*
X373500Y476700D01*
X373500Y478600D02*
X375500Y478600D01*
X375500Y480500D02*
X373500Y480500D01*
X373500Y482400D02*
X375500Y482400D01*
X375500Y484300D02*
X373500Y484300D01*
X373500Y486200D02*
X375500Y486200D01*
X375500Y488100D02*
X373500Y488100D01*
X326500Y489000D02*
X326500Y471000D01*
X324500Y471000D01*
X324500Y489000D01*
X326500Y489000D01*
X326500Y472900D02*
X324500Y472900D01*
X324500Y474800D02*
X326500Y474800D01*
X326500Y476700D02*
X324500Y476700D01*
X324500Y478600D02*
X326500Y478600D01*
X326500Y480500D02*
X324500Y480500D01*
X324500Y482400D02*
X326500Y482400D01*
X326500Y484300D02*
X324500Y484300D01*
X324500Y486200D02*
X326500Y486200D01*
X326500Y488100D02*
X324500Y488100D01*
X319500Y489000D02*
X319500Y471000D01*
X317500Y471000D01*
X317500Y489000D01*
X319500Y489000D01*
X319500Y472900D02*
X317500Y472900D01*
X317500Y474800D02*
X319500Y474800D01*
X319500Y476700D02*
X317500Y476700D01*
X317500Y478600D02*
X319500Y478600D01*
X319500Y480500D02*
X317500Y480500D01*
X317500Y482400D02*
X319500Y482400D01*
X319500Y484300D02*
X317500Y484300D01*
X317500Y486200D02*
X319500Y486200D01*
X319500Y488100D02*
X317500Y488100D01*
X382500Y489000D02*
X382500Y471000D01*
X380500Y471000D01*
X380500Y489000D01*
X382500Y489000D01*
X382500Y472900D02*
X380500Y472900D01*
X380500Y474800D02*
X382500Y474800D01*
X382500Y476700D02*
X380500Y476700D01*
X380500Y478600D02*
X382500Y478600D01*
X382500Y480500D02*
X380500Y480500D01*
X380500Y482400D02*
X382500Y482400D01*
X382500Y484300D02*
X380500Y484300D01*
X380500Y486200D02*
X382500Y486200D01*
X382500Y488100D02*
X380500Y488100D01*
X389500Y489000D02*
X389500Y471000D01*
X387500Y471000D01*
X387500Y489000D01*
X389500Y489000D01*
X389500Y472900D02*
X387500Y472900D01*
X387500Y474800D02*
X389500Y474800D01*
X389500Y476700D02*
X387500Y476700D01*
X387500Y478600D02*
X389500Y478600D01*
X389500Y480500D02*
X387500Y480500D01*
X387500Y482400D02*
X389500Y482400D01*
X389500Y484300D02*
X387500Y484300D01*
X387500Y486200D02*
X389500Y486200D01*
X389500Y488100D02*
X387500Y488100D01*
X312500Y489000D02*
X312500Y471000D01*
X310500Y471000D01*
X310500Y489000D01*
X312500Y489000D01*
X312500Y472900D02*
X310500Y472900D01*
X310500Y474800D02*
X312500Y474800D01*
X312500Y476700D02*
X310500Y476700D01*
X310500Y478600D02*
X312500Y478600D01*
X312500Y480500D02*
X310500Y480500D01*
X310500Y482400D02*
X312500Y482400D01*
X312500Y484300D02*
X310500Y484300D01*
X310500Y486200D02*
X312500Y486200D01*
X312500Y488100D02*
X310500Y488100D01*
X305500Y489000D02*
X305500Y471000D01*
X303500Y471000D01*
X303500Y489000D01*
X305500Y489000D01*
X305500Y472900D02*
X303500Y472900D01*
X303500Y474800D02*
X305500Y474800D01*
X305500Y476700D02*
X303500Y476700D01*
X303500Y478600D02*
X305500Y478600D01*
X305500Y480500D02*
X303500Y480500D01*
X303500Y482400D02*
X305500Y482400D01*
X305500Y484300D02*
X303500Y484300D01*
X303500Y486200D02*
X305500Y486200D01*
X305500Y488100D02*
X303500Y488100D01*
X396500Y489000D02*
X396500Y471000D01*
X394500Y471000D01*
X394500Y489000D01*
X396500Y489000D01*
X396500Y472900D02*
X394500Y472900D01*
X394500Y474800D02*
X396500Y474800D01*
X396500Y476700D02*
X394500Y476700D01*
X394500Y478600D02*
X396500Y478600D01*
X396500Y480500D02*
X394500Y480500D01*
X394500Y482400D02*
X396500Y482400D01*
X396500Y484300D02*
X394500Y484300D01*
X394500Y486200D02*
X396500Y486200D01*
X396500Y488100D02*
X394500Y488100D01*
X403500Y489000D02*
X403500Y471000D01*
X401500Y471000D01*
X401500Y489000D01*
X403500Y489000D01*
X403500Y472900D02*
X401500Y472900D01*
X401500Y474800D02*
X403500Y474800D01*
X403500Y476700D02*
X401500Y476700D01*
X401500Y478600D02*
X403500Y478600D01*
X403500Y480500D02*
X401500Y480500D01*
X401500Y482400D02*
X403500Y482400D01*
X403500Y484300D02*
X401500Y484300D01*
X401500Y486200D02*
X403500Y486200D01*
X403500Y488100D02*
X401500Y488100D01*
X298500Y489000D02*
X298500Y471000D01*
X296500Y471000D01*
X296500Y489000D01*
X298500Y489000D01*
X298500Y472900D02*
X296500Y472900D01*
X296500Y474800D02*
X298500Y474800D01*
X298500Y476700D02*
X296500Y476700D01*
X296500Y478600D02*
X298500Y478600D01*
X298500Y480500D02*
X296500Y480500D01*
X296500Y482400D02*
X298500Y482400D01*
X298500Y484300D02*
X296500Y484300D01*
X296500Y486200D02*
X298500Y486200D01*
X298500Y488100D02*
X296500Y488100D01*
X291500Y489000D02*
X291500Y471000D01*
X289500Y471000D01*
X289500Y489000D01*
X291500Y489000D01*
X291500Y472900D02*
X289500Y472900D01*
X289500Y474800D02*
X291500Y474800D01*
X291500Y476700D02*
X289500Y476700D01*
X289500Y478600D02*
X291500Y478600D01*
X291500Y480500D02*
X289500Y480500D01*
X289500Y482400D02*
X291500Y482400D01*
X291500Y484300D02*
X289500Y484300D01*
X289500Y486200D02*
X291500Y486200D01*
X291500Y488100D02*
X289500Y488100D01*
X410500Y489000D02*
X410500Y471000D01*
X408500Y471000D01*
X408500Y489000D01*
X410500Y489000D01*
X410500Y472900D02*
X408500Y472900D01*
X408500Y474800D02*
X410500Y474800D01*
X410500Y476700D02*
X408500Y476700D01*
X408500Y478600D02*
X410500Y478600D01*
X410500Y480500D02*
X408500Y480500D01*
X408500Y482400D02*
X410500Y482400D01*
X410500Y484300D02*
X408500Y484300D01*
X408500Y486200D02*
X410500Y486200D01*
X410500Y488100D02*
X408500Y488100D01*
X417500Y489000D02*
X417500Y471000D01*
X415500Y471000D01*
X415500Y489000D01*
X417500Y489000D01*
X417500Y472900D02*
X415500Y472900D01*
X415500Y474800D02*
X417500Y474800D01*
X417500Y476700D02*
X415500Y476700D01*
X415500Y478600D02*
X417500Y478600D01*
X417500Y480500D02*
X415500Y480500D01*
X415500Y482400D02*
X417500Y482400D01*
X417500Y484300D02*
X415500Y484300D01*
X415500Y486200D02*
X417500Y486200D01*
X417500Y488100D02*
X415500Y488100D01*
X284500Y489000D02*
X284500Y471000D01*
X282500Y471000D01*
X282500Y489000D01*
X284500Y489000D01*
X284500Y472900D02*
X282500Y472900D01*
X282500Y474800D02*
X284500Y474800D01*
X284500Y476700D02*
X282500Y476700D01*
X282500Y478600D02*
X284500Y478600D01*
X284500Y480500D02*
X282500Y480500D01*
X282500Y482400D02*
X284500Y482400D01*
X284500Y484300D02*
X282500Y484300D01*
X282500Y486200D02*
X284500Y486200D01*
X284500Y488100D02*
X282500Y488100D01*
X277500Y489000D02*
X277500Y471000D01*
X275500Y471000D01*
X275500Y489000D01*
X277500Y489000D01*
X277500Y472900D02*
X275500Y472900D01*
X275500Y474800D02*
X277500Y474800D01*
X277500Y476700D02*
X275500Y476700D01*
X275500Y478600D02*
X277500Y478600D01*
X277500Y480500D02*
X275500Y480500D01*
X275500Y482400D02*
X277500Y482400D01*
X277500Y484300D02*
X275500Y484300D01*
X275500Y486200D02*
X277500Y486200D01*
X277500Y488100D02*
X275500Y488100D01*
X424500Y489000D02*
X424500Y471000D01*
X422500Y471000D01*
X422500Y489000D01*
X424500Y489000D01*
X424500Y472900D02*
X422500Y472900D01*
X422500Y474800D02*
X424500Y474800D01*
X424500Y476700D02*
X422500Y476700D01*
X422500Y478600D02*
X424500Y478600D01*
X424500Y480500D02*
X422500Y480500D01*
X422500Y482400D02*
X424500Y482400D01*
X424500Y484300D02*
X422500Y484300D01*
X422500Y486200D02*
X424500Y486200D01*
X424500Y488100D02*
X422500Y488100D01*
X431500Y489000D02*
X431500Y471000D01*
X429500Y471000D01*
X429500Y489000D01*
X431500Y489000D01*
X431500Y472900D02*
X429500Y472900D01*
X429500Y474800D02*
X431500Y474800D01*
X431500Y476700D02*
X429500Y476700D01*
X429500Y478600D02*
X431500Y478600D01*
X431500Y480500D02*
X429500Y480500D01*
X429500Y482400D02*
X431500Y482400D01*
X431500Y484300D02*
X429500Y484300D01*
X429500Y486200D02*
X431500Y486200D01*
X431500Y488100D02*
X429500Y488100D01*
X270500Y489000D02*
X270500Y471000D01*
X268500Y471000D01*
X268500Y489000D01*
X270500Y489000D01*
X270500Y472900D02*
X268500Y472900D01*
X268500Y474800D02*
X270500Y474800D01*
X270500Y476700D02*
X268500Y476700D01*
X268500Y478600D02*
X270500Y478600D01*
X270500Y480500D02*
X268500Y480500D01*
X268500Y482400D02*
X270500Y482400D01*
X270500Y484300D02*
X268500Y484300D01*
X268500Y486200D02*
X270500Y486200D01*
X270500Y488100D02*
X268500Y488100D01*
X263500Y489000D02*
X263500Y471000D01*
X261500Y471000D01*
X261500Y489000D01*
X263500Y489000D01*
X263500Y472900D02*
X261500Y472900D01*
X261500Y474800D02*
X263500Y474800D01*
X263500Y476700D02*
X261500Y476700D01*
X261500Y478600D02*
X263500Y478600D01*
X263500Y480500D02*
X261500Y480500D01*
X261500Y482400D02*
X263500Y482400D01*
X263500Y484300D02*
X261500Y484300D01*
X261500Y486200D02*
X263500Y486200D01*
X263500Y488100D02*
X261500Y488100D01*
X438500Y489000D02*
X438500Y471000D01*
X436500Y471000D01*
X436500Y489000D01*
X438500Y489000D01*
X438500Y472900D02*
X436500Y472900D01*
X436500Y474800D02*
X438500Y474800D01*
X438500Y476700D02*
X436500Y476700D01*
X436500Y478600D02*
X438500Y478600D01*
X438500Y480500D02*
X436500Y480500D01*
X436500Y482400D02*
X438500Y482400D01*
X438500Y484300D02*
X436500Y484300D01*
X436500Y486200D02*
X438500Y486200D01*
X438500Y488100D02*
X436500Y488100D01*
X445500Y489000D02*
X445500Y471000D01*
X443500Y471000D01*
X443500Y489000D01*
X445500Y489000D01*
X445500Y472900D02*
X443500Y472900D01*
X443500Y474800D02*
X445500Y474800D01*
X445500Y476700D02*
X443500Y476700D01*
X443500Y478600D02*
X445500Y478600D01*
X445500Y480500D02*
X443500Y480500D01*
X443500Y482400D02*
X445500Y482400D01*
X445500Y484300D02*
X443500Y484300D01*
X443500Y486200D02*
X445500Y486200D01*
X445500Y488100D02*
X443500Y488100D01*
X256500Y489000D02*
X256500Y471000D01*
X254500Y471000D01*
X254500Y489000D01*
X256500Y489000D01*
X256500Y472900D02*
X254500Y472900D01*
X254500Y474800D02*
X256500Y474800D01*
X256500Y476700D02*
X254500Y476700D01*
X254500Y478600D02*
X256500Y478600D01*
X256500Y480500D02*
X254500Y480500D01*
X254500Y482400D02*
X256500Y482400D01*
X256500Y484300D02*
X254500Y484300D01*
X254500Y486200D02*
X256500Y486200D01*
X256500Y488100D02*
X254500Y488100D01*
X249500Y489000D02*
X249500Y471000D01*
X247500Y471000D01*
X247500Y489000D01*
X249500Y489000D01*
X249500Y472900D02*
X247500Y472900D01*
X247500Y474800D02*
X249500Y474800D01*
X249500Y476700D02*
X247500Y476700D01*
X247500Y478600D02*
X249500Y478600D01*
X249500Y480500D02*
X247500Y480500D01*
X247500Y482400D02*
X249500Y482400D01*
X249500Y484300D02*
X247500Y484300D01*
X247500Y486200D02*
X249500Y486200D01*
X249500Y488100D02*
X247500Y488100D01*
X452500Y489000D02*
X452500Y471000D01*
X450500Y471000D01*
X450500Y489000D01*
X452500Y489000D01*
X452500Y472900D02*
X450500Y472900D01*
X450500Y474800D02*
X452500Y474800D01*
X452500Y476700D02*
X450500Y476700D01*
X450500Y478600D02*
X452500Y478600D01*
X452500Y480500D02*
X450500Y480500D01*
X450500Y482400D02*
X452500Y482400D01*
X452500Y484300D02*
X450500Y484300D01*
X450500Y486200D02*
X452500Y486200D01*
X452500Y488100D02*
X450500Y488100D01*
D12*
X504260Y273740D02*
X504260Y262260D01*
X504260Y273740D02*
X526740Y273740D01*
X526740Y262260D01*
X504260Y262260D01*
X504260Y264654D02*
X526740Y264654D01*
X526740Y267048D02*
X504260Y267048D01*
X504260Y269442D02*
X526740Y269442D01*
X526740Y271836D02*
X504260Y271836D01*
X469260Y273740D02*
X469260Y262260D01*
X469260Y273740D02*
X491740Y273740D01*
X491740Y262260D01*
X469260Y262260D01*
X469260Y264654D02*
X491740Y264654D01*
X491740Y267048D02*
X469260Y267048D01*
X469260Y269442D02*
X491740Y269442D01*
X491740Y271836D02*
X469260Y271836D01*
X469260Y296260D02*
X469260Y307740D01*
X491740Y307740D01*
X491740Y296260D01*
X469260Y296260D01*
X469260Y298654D02*
X491740Y298654D01*
X491740Y301048D02*
X469260Y301048D01*
X469260Y303442D02*
X491740Y303442D01*
X491740Y305836D02*
X469260Y305836D01*
D11*
X482250Y202250D02*
X482250Y194750D01*
X473750Y194750D01*
X473750Y202250D01*
X482250Y202250D01*
X482250Y197125D02*
X473750Y197125D01*
X473750Y199500D02*
X482250Y199500D01*
X482250Y201875D02*
X473750Y201875D01*
X482250Y211750D02*
X482250Y219250D01*
X482250Y211750D02*
X473750Y211750D01*
X473750Y219250D01*
X482250Y219250D01*
X482250Y214125D02*
X473750Y214125D01*
X473750Y216500D02*
X482250Y216500D01*
X482250Y218875D02*
X473750Y218875D01*
X320250Y143750D02*
X320250Y136250D01*
X320250Y143750D02*
X331750Y143750D01*
X331750Y136250D01*
X320250Y136250D01*
X320250Y138625D02*
X331750Y138625D01*
X331750Y141000D02*
X320250Y141000D01*
X320250Y143375D02*
X331750Y143375D01*
X298250Y134250D02*
X298250Y126750D01*
X298250Y134250D02*
X309750Y134250D01*
X309750Y126750D01*
X298250Y126750D01*
X298250Y129125D02*
X309750Y129125D01*
X309750Y131500D02*
X298250Y131500D01*
X298250Y133875D02*
X309750Y133875D01*
X298250Y145750D02*
X298250Y153250D01*
X309750Y153250D01*
X309750Y145750D01*
X298250Y145750D01*
X298250Y148125D02*
X309750Y148125D01*
X309750Y150500D02*
X298250Y150500D01*
X298250Y152875D02*
X309750Y152875D01*
D12*
X317260Y113240D02*
X323740Y113240D01*
X323740Y106760D01*
X317260Y106760D01*
X317260Y113240D01*
X317260Y109154D02*
X323740Y109154D01*
X323740Y111548D02*
X317260Y111548D01*
X292740Y113240D02*
X286260Y113240D01*
X292740Y113240D02*
X292740Y106760D01*
X286260Y106760D01*
X286260Y113240D01*
X286260Y109154D02*
X292740Y109154D01*
X292740Y111548D02*
X286260Y111548D01*
X115390Y104260D02*
X111910Y104260D01*
X111910Y123740D01*
X115390Y123740D01*
X115390Y104260D01*
X115390Y106654D02*
X111910Y106654D01*
X111910Y109048D02*
X115390Y109048D01*
X115390Y111442D02*
X111910Y111442D01*
X111910Y113836D02*
X115390Y113836D01*
X115390Y116230D02*
X111910Y116230D01*
X111910Y118624D02*
X115390Y118624D01*
X115390Y121018D02*
X111910Y121018D01*
X111910Y123412D02*
X115390Y123412D01*
X115390Y156260D02*
X111910Y156260D01*
X111910Y175740D01*
X115390Y175740D01*
X115390Y156260D01*
X115390Y158654D02*
X111910Y158654D01*
X111910Y161048D02*
X115390Y161048D01*
X115390Y163442D02*
X111910Y163442D01*
X111910Y165836D02*
X115390Y165836D01*
X115390Y168230D02*
X111910Y168230D01*
X111910Y170624D02*
X115390Y170624D01*
X115390Y173018D02*
X111910Y173018D01*
X111910Y175412D02*
X115390Y175412D01*
X102690Y104260D02*
X99210Y104260D01*
X99210Y123740D01*
X102690Y123740D01*
X102690Y104260D01*
X102690Y106654D02*
X99210Y106654D01*
X99210Y109048D02*
X102690Y109048D01*
X102690Y111442D02*
X99210Y111442D01*
X99210Y113836D02*
X102690Y113836D01*
X102690Y116230D02*
X99210Y116230D01*
X99210Y118624D02*
X102690Y118624D01*
X102690Y121018D02*
X99210Y121018D01*
X99210Y123412D02*
X102690Y123412D01*
X124610Y104260D02*
X128090Y104260D01*
X124610Y104260D02*
X124610Y123740D01*
X128090Y123740D01*
X128090Y104260D01*
X128090Y106654D02*
X124610Y106654D01*
X124610Y109048D02*
X128090Y109048D01*
X128090Y111442D02*
X124610Y111442D01*
X124610Y113836D02*
X128090Y113836D01*
X128090Y116230D02*
X124610Y116230D01*
X124610Y118624D02*
X128090Y118624D01*
X128090Y121018D02*
X124610Y121018D01*
X124610Y123412D02*
X128090Y123412D01*
X137310Y104260D02*
X140790Y104260D01*
X137310Y104260D02*
X137310Y123740D01*
X140790Y123740D01*
X140790Y104260D01*
X140790Y106654D02*
X137310Y106654D01*
X137310Y109048D02*
X140790Y109048D01*
X140790Y111442D02*
X137310Y111442D01*
X137310Y113836D02*
X140790Y113836D01*
X140790Y116230D02*
X137310Y116230D01*
X137310Y118624D02*
X140790Y118624D01*
X140790Y121018D02*
X137310Y121018D01*
X137310Y123412D02*
X140790Y123412D01*
X102690Y156260D02*
X99210Y156260D01*
X99210Y175740D01*
X102690Y175740D01*
X102690Y156260D01*
X102690Y158654D02*
X99210Y158654D01*
X99210Y161048D02*
X102690Y161048D01*
X102690Y163442D02*
X99210Y163442D01*
X99210Y165836D02*
X102690Y165836D01*
X102690Y168230D02*
X99210Y168230D01*
X99210Y170624D02*
X102690Y170624D01*
X102690Y173018D02*
X99210Y173018D01*
X99210Y175412D02*
X102690Y175412D01*
X124610Y156260D02*
X128090Y156260D01*
X124610Y156260D02*
X124610Y175740D01*
X128090Y175740D01*
X128090Y156260D01*
X128090Y158654D02*
X124610Y158654D01*
X124610Y161048D02*
X128090Y161048D01*
X128090Y163442D02*
X124610Y163442D01*
X124610Y165836D02*
X128090Y165836D01*
X128090Y168230D02*
X124610Y168230D01*
X124610Y170624D02*
X128090Y170624D01*
X128090Y173018D02*
X124610Y173018D01*
X124610Y175412D02*
X128090Y175412D01*
X137310Y156260D02*
X140790Y156260D01*
X137310Y156260D02*
X137310Y175740D01*
X140790Y175740D01*
X140790Y156260D01*
X140790Y158654D02*
X137310Y158654D01*
X137310Y161048D02*
X140790Y161048D01*
X140790Y163442D02*
X137310Y163442D01*
X137310Y165836D02*
X140790Y165836D01*
X140790Y168230D02*
X137310Y168230D01*
X137310Y170624D02*
X140790Y170624D01*
X140790Y173018D02*
X137310Y173018D01*
X137310Y175412D02*
X140790Y175412D01*
D11*
X251250Y152750D02*
X251250Y144250D01*
X251250Y152750D02*
X258750Y152750D01*
X258750Y144250D01*
X251250Y144250D01*
X251250Y146625D02*
X258750Y146625D01*
X258750Y149000D02*
X251250Y149000D01*
X251250Y151375D02*
X258750Y151375D01*
X251250Y135750D02*
X251250Y127250D01*
X251250Y135750D02*
X258750Y135750D01*
X258750Y127250D01*
X251250Y127250D01*
X251250Y129625D02*
X258750Y129625D01*
X258750Y132000D02*
X251250Y132000D01*
X251250Y134375D02*
X258750Y134375D01*
X410250Y136250D02*
X410250Y143750D01*
X421750Y143750D01*
X421750Y136250D01*
X410250Y136250D01*
X410250Y138625D02*
X421750Y138625D01*
X421750Y141000D02*
X410250Y141000D01*
X410250Y143375D02*
X421750Y143375D01*
X388250Y134250D02*
X388250Y126750D01*
X388250Y134250D02*
X399750Y134250D01*
X399750Y126750D01*
X388250Y126750D01*
X388250Y129125D02*
X399750Y129125D01*
X399750Y131500D02*
X388250Y131500D01*
X388250Y133875D02*
X399750Y133875D01*
X388250Y145750D02*
X388250Y153250D01*
X399750Y153250D01*
X399750Y145750D01*
X388250Y145750D01*
X388250Y148125D02*
X399750Y148125D01*
X399750Y150500D02*
X388250Y150500D01*
X388250Y152875D02*
X399750Y152875D01*
D12*
X407260Y113240D02*
X413740Y113240D01*
X413740Y106760D01*
X407260Y106760D01*
X407260Y113240D01*
X407260Y109154D02*
X413740Y109154D01*
X413740Y111548D02*
X407260Y111548D01*
X382740Y113240D02*
X376260Y113240D01*
X382740Y113240D02*
X382740Y106760D01*
X376260Y106760D01*
X376260Y113240D01*
X376260Y109154D02*
X382740Y109154D01*
X382740Y111548D02*
X376260Y111548D01*
X205390Y104260D02*
X201910Y104260D01*
X201910Y123740D01*
X205390Y123740D01*
X205390Y104260D01*
X205390Y106654D02*
X201910Y106654D01*
X201910Y109048D02*
X205390Y109048D01*
X205390Y111442D02*
X201910Y111442D01*
X201910Y113836D02*
X205390Y113836D01*
X205390Y116230D02*
X201910Y116230D01*
X201910Y118624D02*
X205390Y118624D01*
X205390Y121018D02*
X201910Y121018D01*
X201910Y123412D02*
X205390Y123412D01*
X205390Y156260D02*
X201910Y156260D01*
X201910Y175740D01*
X205390Y175740D01*
X205390Y156260D01*
X205390Y158654D02*
X201910Y158654D01*
X201910Y161048D02*
X205390Y161048D01*
X205390Y163442D02*
X201910Y163442D01*
X201910Y165836D02*
X205390Y165836D01*
X205390Y168230D02*
X201910Y168230D01*
X201910Y170624D02*
X205390Y170624D01*
X205390Y173018D02*
X201910Y173018D01*
X201910Y175412D02*
X205390Y175412D01*
X192690Y104260D02*
X189210Y104260D01*
X189210Y123740D01*
X192690Y123740D01*
X192690Y104260D01*
X192690Y106654D02*
X189210Y106654D01*
X189210Y109048D02*
X192690Y109048D01*
X192690Y111442D02*
X189210Y111442D01*
X189210Y113836D02*
X192690Y113836D01*
X192690Y116230D02*
X189210Y116230D01*
X189210Y118624D02*
X192690Y118624D01*
X192690Y121018D02*
X189210Y121018D01*
X189210Y123412D02*
X192690Y123412D01*
X214610Y104260D02*
X218090Y104260D01*
X214610Y104260D02*
X214610Y123740D01*
X218090Y123740D01*
X218090Y104260D01*
X218090Y106654D02*
X214610Y106654D01*
X214610Y109048D02*
X218090Y109048D01*
X218090Y111442D02*
X214610Y111442D01*
X214610Y113836D02*
X218090Y113836D01*
X218090Y116230D02*
X214610Y116230D01*
X214610Y118624D02*
X218090Y118624D01*
X218090Y121018D02*
X214610Y121018D01*
X214610Y123412D02*
X218090Y123412D01*
X227310Y104260D02*
X230790Y104260D01*
X227310Y104260D02*
X227310Y123740D01*
X230790Y123740D01*
X230790Y104260D01*
X230790Y106654D02*
X227310Y106654D01*
X227310Y109048D02*
X230790Y109048D01*
X230790Y111442D02*
X227310Y111442D01*
X227310Y113836D02*
X230790Y113836D01*
X230790Y116230D02*
X227310Y116230D01*
X227310Y118624D02*
X230790Y118624D01*
X230790Y121018D02*
X227310Y121018D01*
X227310Y123412D02*
X230790Y123412D01*
X192690Y156260D02*
X189210Y156260D01*
X189210Y175740D01*
X192690Y175740D01*
X192690Y156260D01*
X192690Y158654D02*
X189210Y158654D01*
X189210Y161048D02*
X192690Y161048D01*
X192690Y163442D02*
X189210Y163442D01*
X189210Y165836D02*
X192690Y165836D01*
X192690Y168230D02*
X189210Y168230D01*
X189210Y170624D02*
X192690Y170624D01*
X192690Y173018D02*
X189210Y173018D01*
X189210Y175412D02*
X192690Y175412D01*
X214610Y156260D02*
X218090Y156260D01*
X214610Y156260D02*
X214610Y175740D01*
X218090Y175740D01*
X218090Y156260D01*
X218090Y158654D02*
X214610Y158654D01*
X214610Y161048D02*
X218090Y161048D01*
X218090Y163442D02*
X214610Y163442D01*
X214610Y165836D02*
X218090Y165836D01*
X218090Y168230D02*
X214610Y168230D01*
X214610Y170624D02*
X218090Y170624D01*
X218090Y173018D02*
X214610Y173018D01*
X214610Y175412D02*
X218090Y175412D01*
X227310Y156260D02*
X230790Y156260D01*
X227310Y156260D02*
X227310Y175740D01*
X230790Y175740D01*
X230790Y156260D01*
X230790Y158654D02*
X227310Y158654D01*
X227310Y161048D02*
X230790Y161048D01*
X230790Y163442D02*
X227310Y163442D01*
X227310Y165836D02*
X230790Y165836D01*
X230790Y168230D02*
X227310Y168230D01*
X227310Y170624D02*
X230790Y170624D01*
X230790Y173018D02*
X227310Y173018D01*
X227310Y175412D02*
X230790Y175412D01*
D11*
X161250Y152750D02*
X161250Y144250D01*
X161250Y152750D02*
X168750Y152750D01*
X168750Y144250D01*
X161250Y144250D01*
X161250Y146625D02*
X168750Y146625D01*
X168750Y149000D02*
X161250Y149000D01*
X161250Y151375D02*
X168750Y151375D01*
X161250Y135750D02*
X161250Y127250D01*
X161250Y135750D02*
X168750Y135750D01*
X168750Y127250D01*
X161250Y127250D01*
X161250Y129625D02*
X168750Y129625D01*
X168750Y132000D02*
X161250Y132000D01*
X161250Y134375D02*
X168750Y134375D01*
D12*
X209910Y307560D02*
X229390Y307560D01*
X209910Y307560D02*
X209910Y315540D01*
X229390Y315540D01*
X229390Y307560D01*
X229390Y309954D02*
X209910Y309954D01*
X209910Y312348D02*
X229390Y312348D01*
X229390Y314742D02*
X209910Y314742D01*
X209910Y278060D02*
X229390Y278060D01*
X209910Y278060D02*
X209910Y286040D01*
X229390Y286040D01*
X229390Y278060D01*
X229390Y280454D02*
X209910Y280454D01*
X209910Y282848D02*
X229390Y282848D01*
X229390Y285242D02*
X209910Y285242D01*
D14*
X238650Y293300D02*
X238650Y300300D01*
X238650Y293300D02*
X231650Y293300D01*
X231650Y300300D01*
X238650Y300300D01*
X238650Y296150D02*
X231650Y296150D01*
X231650Y299000D02*
X238650Y299000D01*
D11*
X594750Y429250D02*
X602250Y429250D01*
X602250Y420750D01*
X594750Y420750D01*
X594750Y429250D01*
X594750Y423125D02*
X602250Y423125D01*
X602250Y425500D02*
X594750Y425500D01*
X594750Y427875D02*
X602250Y427875D01*
X585250Y429250D02*
X577750Y429250D01*
X585250Y429250D02*
X585250Y420750D01*
X577750Y420750D01*
X577750Y429250D01*
X577750Y423125D02*
X585250Y423125D01*
X585250Y425500D02*
X577750Y425500D01*
X577750Y427875D02*
X585250Y427875D01*
X594750Y519250D02*
X602250Y519250D01*
X602250Y510750D01*
X594750Y510750D01*
X594750Y519250D01*
X594750Y513125D02*
X602250Y513125D01*
X602250Y515500D02*
X594750Y515500D01*
X594750Y517875D02*
X602250Y517875D01*
X585250Y519250D02*
X577750Y519250D01*
X585250Y519250D02*
X585250Y510750D01*
X577750Y510750D01*
X577750Y519250D01*
X577750Y513125D02*
X585250Y513125D01*
X585250Y515500D02*
X577750Y515500D01*
X577750Y517875D02*
X585250Y517875D01*
D15*
X616765Y439485D02*
X627735Y439485D01*
X627735Y436515D01*
X616765Y436515D01*
X616765Y439485D01*
X616765Y438918D02*
X627735Y438918D01*
X627735Y503485D02*
X616765Y503485D01*
X627735Y503485D02*
X627735Y500515D01*
X616765Y500515D01*
X616765Y503485D01*
X616765Y502918D02*
X627735Y502918D01*
X627735Y495485D02*
X616765Y495485D01*
X627735Y495485D02*
X627735Y492515D01*
X616765Y492515D01*
X616765Y495485D01*
X616765Y494918D02*
X627735Y494918D01*
X627735Y447485D02*
X616765Y447485D01*
X627735Y447485D02*
X627735Y444515D01*
X616765Y444515D01*
X616765Y447485D01*
X616765Y446918D02*
X627735Y446918D01*
D16*
X628313Y468188D02*
X616187Y468188D01*
X628313Y468188D02*
X628313Y466812D01*
X616187Y466812D01*
X616187Y468188D01*
X616187Y468118D02*
X628313Y468118D01*
X628313Y473188D02*
X616187Y473188D01*
X628313Y473188D02*
X628313Y471812D01*
X616187Y471812D01*
X616187Y473188D01*
X616187Y473118D02*
X628313Y473118D01*
X628313Y478188D02*
X616187Y478188D01*
X628313Y478188D02*
X628313Y476812D01*
X616187Y476812D01*
X616187Y478188D01*
X616187Y478118D02*
X628313Y478118D01*
X628313Y463188D02*
X616187Y463188D01*
X628313Y463188D02*
X628313Y461812D01*
X616187Y461812D01*
X616187Y463188D01*
X616187Y463118D02*
X628313Y463118D01*
X628313Y458188D02*
X616187Y458188D01*
X628313Y458188D02*
X628313Y456812D01*
X616187Y456812D01*
X616187Y458188D01*
X616187Y458118D02*
X628313Y458118D01*
D17*
X628250Y453250D02*
X616250Y453250D01*
X628250Y453250D02*
X628250Y451750D01*
X616250Y451750D01*
X616250Y453250D01*
X616250Y453175D02*
X628250Y453175D01*
D16*
X628313Y488188D02*
X616187Y488188D01*
X628313Y488188D02*
X628313Y486812D01*
X616187Y486812D01*
X616187Y488188D01*
X616187Y488118D02*
X628313Y488118D01*
X628313Y483188D02*
X616187Y483188D01*
X628313Y483188D02*
X628313Y481812D01*
X616187Y481812D01*
X616187Y483188D01*
X616187Y483118D02*
X628313Y483118D01*
D12*
X695490Y96740D02*
X695490Y87260D01*
X678010Y87260D01*
X678010Y96740D01*
X695490Y96740D01*
X695490Y89654D02*
X678010Y89654D01*
X678010Y92048D02*
X695490Y92048D01*
X695490Y94442D02*
X678010Y94442D01*
X695490Y143260D02*
X695490Y152740D01*
X695490Y143260D02*
X678010Y143260D01*
X678010Y152740D01*
X695490Y152740D01*
X695490Y145654D02*
X678010Y145654D01*
X678010Y148048D02*
X695490Y148048D01*
X695490Y150442D02*
X678010Y150442D01*
X655490Y106740D02*
X655490Y103260D01*
X644510Y103260D01*
X644510Y106740D01*
X655490Y106740D01*
X655490Y105654D02*
X644510Y105654D01*
X655490Y113260D02*
X655490Y116740D01*
X655490Y113260D02*
X644510Y113260D01*
X644510Y116740D01*
X655490Y116740D01*
X655490Y115654D02*
X644510Y115654D01*
X655490Y123260D02*
X655490Y126740D01*
X655490Y123260D02*
X644510Y123260D01*
X644510Y126740D01*
X655490Y126740D01*
X655490Y125654D02*
X644510Y125654D01*
X655490Y133260D02*
X655490Y136740D01*
X655490Y133260D02*
X644510Y133260D01*
X644510Y136740D01*
X655490Y136740D01*
X655490Y135654D02*
X644510Y135654D01*
D17*
X540750Y545250D02*
X540750Y549750D01*
X540750Y545250D02*
X539250Y545250D01*
X539250Y549750D01*
X540750Y549750D01*
X540750Y546675D02*
X539250Y546675D01*
X539250Y548100D02*
X540750Y548100D01*
X540750Y549525D02*
X539250Y549525D01*
X540750Y534750D02*
X540750Y530250D01*
X539250Y530250D01*
X539250Y534750D01*
X540750Y534750D01*
X540750Y531675D02*
X539250Y531675D01*
X539250Y533100D02*
X540750Y533100D01*
X540750Y534525D02*
X539250Y534525D01*
D18*
X547625Y534375D02*
X547625Y530625D01*
X547625Y534375D02*
X549875Y534375D01*
X549875Y530625D01*
X547625Y530625D01*
X547625Y532762D02*
X549875Y532762D01*
X530125Y534375D02*
X530125Y530625D01*
X530125Y534375D02*
X532375Y534375D01*
X532375Y530625D01*
X530125Y530625D01*
X530125Y532762D02*
X532375Y532762D01*
X530125Y545625D02*
X530125Y549375D01*
X532375Y549375D01*
X532375Y545625D01*
X530125Y545625D01*
X530125Y547762D02*
X532375Y547762D01*
X547625Y549375D02*
X547625Y545625D01*
X547625Y549375D02*
X549875Y549375D01*
X549875Y545625D01*
X547625Y545625D01*
X547625Y547762D02*
X549875Y547762D01*
D13*
X538500Y539000D02*
X529500Y539000D01*
X529500Y541000D01*
X538500Y541000D01*
X538500Y539000D01*
X538500Y540900D02*
X529500Y540900D01*
X545500Y539000D02*
X550500Y539000D01*
X545500Y539000D02*
X545500Y541000D01*
X550500Y541000D01*
X550500Y539000D01*
X550500Y540900D02*
X545500Y540900D01*
D11*
X177750Y528750D02*
X169250Y528750D01*
X177750Y528750D02*
X177750Y521250D01*
X169250Y521250D01*
X169250Y528750D01*
X169250Y523625D02*
X177750Y523625D01*
X177750Y526000D02*
X169250Y526000D01*
X169250Y528375D02*
X177750Y528375D01*
X160750Y528750D02*
X152250Y528750D01*
X160750Y528750D02*
X160750Y521250D01*
X152250Y521250D01*
X152250Y528750D01*
X152250Y523625D02*
X160750Y523625D01*
X160750Y526000D02*
X152250Y526000D01*
X152250Y528375D02*
X160750Y528375D01*
X169250Y488750D02*
X177750Y488750D01*
X177750Y481250D01*
X169250Y481250D01*
X169250Y488750D01*
X169250Y483625D02*
X177750Y483625D01*
X177750Y486000D02*
X169250Y486000D01*
X169250Y488375D02*
X177750Y488375D01*
X160750Y488750D02*
X152250Y488750D01*
X160750Y488750D02*
X160750Y481250D01*
X152250Y481250D01*
X152250Y488750D01*
X152250Y483625D02*
X160750Y483625D01*
X160750Y486000D02*
X152250Y486000D01*
X152250Y488375D02*
X160750Y488375D01*
X169250Y468750D02*
X177750Y468750D01*
X177750Y461250D01*
X169250Y461250D01*
X169250Y468750D01*
X169250Y463625D02*
X177750Y463625D01*
X177750Y466000D02*
X169250Y466000D01*
X169250Y468375D02*
X177750Y468375D01*
X160750Y468750D02*
X152250Y468750D01*
X160750Y468750D02*
X160750Y461250D01*
X152250Y461250D01*
X152250Y468750D01*
X152250Y463625D02*
X160750Y463625D01*
X160750Y466000D02*
X152250Y466000D01*
X152250Y468375D02*
X160750Y468375D01*
X169250Y508750D02*
X177750Y508750D01*
X177750Y501250D01*
X169250Y501250D01*
X169250Y508750D01*
X169250Y503625D02*
X177750Y503625D01*
X177750Y506000D02*
X169250Y506000D01*
X169250Y508375D02*
X177750Y508375D01*
X160750Y508750D02*
X152250Y508750D01*
X160750Y508750D02*
X160750Y501250D01*
X152250Y501250D01*
X152250Y508750D01*
X152250Y503625D02*
X160750Y503625D01*
X160750Y506000D02*
X152250Y506000D01*
X152250Y508375D02*
X160750Y508375D01*
D12*
X82760Y439740D02*
X82760Y430260D01*
X82760Y439740D02*
X92240Y439740D01*
X92240Y430260D01*
X82760Y430260D01*
X82760Y432654D02*
X92240Y432654D01*
X92240Y435048D02*
X82760Y435048D01*
X82760Y437442D02*
X92240Y437442D01*
X137760Y439740D02*
X137760Y430260D01*
X137760Y439740D02*
X147240Y439740D01*
X147240Y430260D01*
X137760Y430260D01*
X137760Y432654D02*
X147240Y432654D01*
X147240Y435048D02*
X137760Y435048D01*
X137760Y437442D02*
X147240Y437442D01*
X137760Y389740D02*
X137760Y380260D01*
X137760Y389740D02*
X147240Y389740D01*
X147240Y380260D01*
X137760Y380260D01*
X137760Y382654D02*
X147240Y382654D01*
X147240Y385048D02*
X137760Y385048D01*
X137760Y387442D02*
X147240Y387442D01*
X82760Y389740D02*
X82760Y380260D01*
X82760Y389740D02*
X92240Y389740D01*
X92240Y380260D01*
X82760Y380260D01*
X82760Y382654D02*
X92240Y382654D01*
X92240Y385048D02*
X82760Y385048D01*
X82760Y387442D02*
X92240Y387442D01*
X82760Y405260D02*
X82760Y414740D01*
X92240Y414740D01*
X92240Y405260D01*
X82760Y405260D01*
X82760Y407654D02*
X92240Y407654D01*
X92240Y410048D02*
X82760Y410048D01*
X82760Y412442D02*
X92240Y412442D01*
X137760Y414740D02*
X137760Y405260D01*
X137760Y414740D02*
X147240Y414740D01*
X147240Y405260D01*
X137760Y405260D01*
X137760Y407654D02*
X147240Y407654D01*
X147240Y410048D02*
X137760Y410048D01*
X137760Y412442D02*
X147240Y412442D01*
D10*
X143800Y704800D02*
X143800Y715200D01*
X156200Y715200D01*
X156200Y704800D01*
X143800Y704800D01*
X143800Y707270D02*
X156200Y707270D01*
X156200Y709740D02*
X143800Y709740D01*
X143800Y712210D02*
X156200Y712210D01*
X156200Y714680D02*
X143800Y714680D01*
X143800Y698200D02*
X143800Y687800D01*
X143800Y698200D02*
X156200Y698200D01*
X156200Y687800D01*
X143800Y687800D01*
X143800Y690270D02*
X156200Y690270D01*
X156200Y692740D02*
X143800Y692740D01*
X143800Y695210D02*
X156200Y695210D01*
X156200Y697680D02*
X143800Y697680D01*
X143800Y681200D02*
X143800Y670800D01*
X143800Y681200D02*
X156200Y681200D01*
X156200Y670800D01*
X143800Y670800D01*
X143800Y673270D02*
X156200Y673270D01*
X156200Y675740D02*
X143800Y675740D01*
X143800Y678210D02*
X156200Y678210D01*
X156200Y680680D02*
X143800Y680680D01*
X143800Y858800D02*
X143800Y869200D01*
X156200Y869200D01*
X156200Y858800D01*
X143800Y858800D01*
X143800Y861270D02*
X156200Y861270D01*
X156200Y863740D02*
X143800Y863740D01*
X143800Y866210D02*
X156200Y866210D01*
X156200Y868680D02*
X143800Y868680D01*
X143800Y852200D02*
X143800Y841800D01*
X143800Y852200D02*
X156200Y852200D01*
X156200Y841800D01*
X143800Y841800D01*
X143800Y844270D02*
X156200Y844270D01*
X156200Y846740D02*
X143800Y846740D01*
X143800Y849210D02*
X156200Y849210D01*
X156200Y851680D02*
X143800Y851680D01*
X143800Y835200D02*
X143800Y824800D01*
X143800Y835200D02*
X156200Y835200D01*
X156200Y824800D01*
X143800Y824800D01*
X143800Y827270D02*
X156200Y827270D01*
X156200Y829740D02*
X143800Y829740D01*
X143800Y832210D02*
X156200Y832210D01*
X156200Y834680D02*
X143800Y834680D01*
D11*
X379250Y135250D02*
X379250Y127750D01*
X370750Y127750D01*
X370750Y135250D01*
X379250Y135250D01*
X379250Y130125D02*
X370750Y130125D01*
X370750Y132500D02*
X379250Y132500D01*
X379250Y134875D02*
X370750Y134875D01*
X379250Y144750D02*
X379250Y152250D01*
X379250Y144750D02*
X370750Y144750D01*
X370750Y152250D01*
X379250Y152250D01*
X379250Y147125D02*
X370750Y147125D01*
X370750Y149500D02*
X379250Y149500D01*
X379250Y151875D02*
X370750Y151875D01*
X289250Y135250D02*
X289250Y127750D01*
X280750Y127750D01*
X280750Y135250D01*
X289250Y135250D01*
X289250Y130125D02*
X280750Y130125D01*
X280750Y132500D02*
X289250Y132500D01*
X289250Y134875D02*
X280750Y134875D01*
X289250Y144750D02*
X289250Y152250D01*
X289250Y144750D02*
X280750Y144750D01*
X280750Y152250D01*
X289250Y152250D01*
X289250Y147125D02*
X280750Y147125D01*
X280750Y149500D02*
X289250Y149500D01*
X289250Y151875D02*
X280750Y151875D01*
D12*
X510260Y242240D02*
X516740Y242240D01*
X516740Y235760D01*
X510260Y235760D01*
X510260Y242240D01*
X510260Y238154D02*
X516740Y238154D01*
X516740Y240548D02*
X510260Y240548D01*
X485740Y242240D02*
X479260Y242240D01*
X485740Y242240D02*
X485740Y235760D01*
X479260Y235760D01*
X479260Y242240D01*
X479260Y238154D02*
X485740Y238154D01*
X485740Y240548D02*
X479260Y240548D01*
D19*
X618280Y186720D02*
X618280Y177280D01*
X618280Y186720D02*
X623720Y186720D01*
X623720Y177280D01*
X618280Y177280D01*
X618280Y179712D02*
X623720Y179712D01*
X623720Y182144D02*
X618280Y182144D01*
X618280Y184576D02*
X623720Y184576D01*
X596280Y186720D02*
X596280Y177280D01*
X596280Y186720D02*
X601720Y186720D01*
X601720Y177280D01*
X596280Y177280D01*
X596280Y179712D02*
X601720Y179712D01*
X601720Y182144D02*
X596280Y182144D01*
X596280Y184576D02*
X601720Y184576D01*
X596280Y223280D02*
X596280Y232720D01*
X601720Y232720D01*
X601720Y223280D01*
X596280Y223280D01*
X596280Y225712D02*
X601720Y225712D01*
X601720Y228144D02*
X596280Y228144D01*
X596280Y230576D02*
X601720Y230576D01*
X618280Y232720D02*
X618280Y223280D01*
X618280Y232720D02*
X623720Y232720D01*
X623720Y223280D01*
X618280Y223280D01*
X618280Y225712D02*
X623720Y225712D01*
X623720Y228144D02*
X618280Y228144D01*
X618280Y230576D02*
X623720Y230576D01*
X618280Y262280D02*
X618280Y271720D01*
X623720Y271720D01*
X623720Y262280D01*
X618280Y262280D01*
X618280Y264712D02*
X623720Y264712D01*
X623720Y267144D02*
X618280Y267144D01*
X618280Y269576D02*
X623720Y269576D01*
X596280Y271720D02*
X596280Y262280D01*
X596280Y271720D02*
X601720Y271720D01*
X601720Y262280D01*
X596280Y262280D01*
X596280Y264712D02*
X601720Y264712D01*
X601720Y267144D02*
X596280Y267144D01*
X596280Y269576D02*
X601720Y269576D01*
X596280Y308280D02*
X596280Y317720D01*
X601720Y317720D01*
X601720Y308280D01*
X596280Y308280D01*
X596280Y310712D02*
X601720Y310712D01*
X601720Y313144D02*
X596280Y313144D01*
X596280Y315576D02*
X601720Y315576D01*
X618280Y317720D02*
X618280Y308280D01*
X618280Y317720D02*
X623720Y317720D01*
X623720Y308280D01*
X618280Y308280D01*
X618280Y310712D02*
X623720Y310712D01*
X623720Y313144D02*
X618280Y313144D01*
X618280Y315576D02*
X623720Y315576D01*
X618280Y347280D02*
X618280Y356720D01*
X623720Y356720D01*
X623720Y347280D01*
X618280Y347280D01*
X618280Y349712D02*
X623720Y349712D01*
X623720Y352144D02*
X618280Y352144D01*
X618280Y354576D02*
X623720Y354576D01*
X596280Y356720D02*
X596280Y347280D01*
X596280Y356720D02*
X601720Y356720D01*
X601720Y347280D01*
X596280Y347280D01*
X596280Y349712D02*
X601720Y349712D01*
X601720Y352144D02*
X596280Y352144D01*
X596280Y354576D02*
X601720Y354576D01*
X596280Y393280D02*
X596280Y402720D01*
X601720Y402720D01*
X601720Y393280D01*
X596280Y393280D01*
X596280Y395712D02*
X601720Y395712D01*
X601720Y398144D02*
X596280Y398144D01*
X596280Y400576D02*
X601720Y400576D01*
X618280Y402720D02*
X618280Y393280D01*
X618280Y402720D02*
X623720Y402720D01*
X623720Y393280D01*
X618280Y393280D01*
X618280Y395712D02*
X623720Y395712D01*
X623720Y398144D02*
X618280Y398144D01*
X618280Y400576D02*
X623720Y400576D01*
D11*
X595250Y118750D02*
X595250Y111250D01*
X595250Y118750D02*
X606750Y118750D01*
X606750Y111250D01*
X595250Y111250D01*
X595250Y113625D02*
X606750Y113625D01*
X606750Y116000D02*
X595250Y116000D01*
X595250Y118375D02*
X606750Y118375D01*
X573250Y109250D02*
X573250Y101750D01*
X573250Y109250D02*
X584750Y109250D01*
X584750Y101750D01*
X573250Y101750D01*
X573250Y104125D02*
X584750Y104125D01*
X584750Y106500D02*
X573250Y106500D01*
X573250Y108875D02*
X584750Y108875D01*
X573250Y120750D02*
X573250Y128250D01*
X584750Y128250D01*
X584750Y120750D01*
X573250Y120750D01*
X573250Y123125D02*
X584750Y123125D01*
X584750Y125500D02*
X573250Y125500D01*
X573250Y127875D02*
X584750Y127875D01*
X564250Y110250D02*
X564250Y102750D01*
X555750Y102750D01*
X555750Y110250D01*
X564250Y110250D01*
X564250Y105125D02*
X555750Y105125D01*
X555750Y107500D02*
X564250Y107500D01*
X564250Y109875D02*
X555750Y109875D01*
X564250Y119750D02*
X564250Y127250D01*
X564250Y119750D02*
X555750Y119750D01*
X555750Y127250D01*
X564250Y127250D01*
X564250Y122125D02*
X555750Y122125D01*
X555750Y124500D02*
X564250Y124500D01*
X564250Y126875D02*
X555750Y126875D01*
X505250Y118750D02*
X505250Y111250D01*
X505250Y118750D02*
X516750Y118750D01*
X516750Y111250D01*
X505250Y111250D01*
X505250Y113625D02*
X516750Y113625D01*
X516750Y116000D02*
X505250Y116000D01*
X505250Y118375D02*
X516750Y118375D01*
X483250Y109250D02*
X483250Y101750D01*
X483250Y109250D02*
X494750Y109250D01*
X494750Y101750D01*
X483250Y101750D01*
X483250Y104125D02*
X494750Y104125D01*
X494750Y106500D02*
X483250Y106500D01*
X483250Y108875D02*
X494750Y108875D01*
X483250Y120750D02*
X483250Y128250D01*
X494750Y128250D01*
X494750Y120750D01*
X483250Y120750D01*
X483250Y123125D02*
X494750Y123125D01*
X494750Y125500D02*
X483250Y125500D01*
X483250Y127875D02*
X494750Y127875D01*
X474250Y110250D02*
X474250Y102750D01*
X465750Y102750D01*
X465750Y110250D01*
X474250Y110250D01*
X474250Y105125D02*
X465750Y105125D01*
X465750Y107500D02*
X474250Y107500D01*
X474250Y109875D02*
X465750Y109875D01*
X474250Y119750D02*
X474250Y127250D01*
X474250Y119750D02*
X465750Y119750D01*
X465750Y127250D01*
X474250Y127250D01*
X474250Y122125D02*
X465750Y122125D01*
X465750Y124500D02*
X474250Y124500D01*
X474250Y126875D02*
X465750Y126875D01*
D20*
X352450Y306450D02*
X351550Y306450D01*
X351550Y311550D01*
X352450Y311550D01*
X352450Y306450D01*
X352450Y307305D02*
X351550Y307305D01*
X351550Y308160D02*
X352450Y308160D01*
X352450Y309015D02*
X351550Y309015D01*
X351550Y309870D02*
X352450Y309870D01*
X352450Y310725D02*
X351550Y310725D01*
X348450Y306450D02*
X347550Y306450D01*
X347550Y311550D01*
X348450Y311550D01*
X348450Y306450D01*
X348450Y307305D02*
X347550Y307305D01*
X347550Y308160D02*
X348450Y308160D01*
X348450Y309015D02*
X347550Y309015D01*
X347550Y309870D02*
X348450Y309870D01*
X348450Y310725D02*
X347550Y310725D01*
X355550Y306450D02*
X356450Y306450D01*
X355550Y306450D02*
X355550Y311550D01*
X356450Y311550D01*
X356450Y306450D01*
X356450Y307305D02*
X355550Y307305D01*
X355550Y308160D02*
X356450Y308160D01*
X356450Y309015D02*
X355550Y309015D01*
X355550Y309870D02*
X356450Y309870D01*
X356450Y310725D02*
X355550Y310725D01*
X359550Y306450D02*
X360450Y306450D01*
X359550Y306450D02*
X359550Y311550D01*
X360450Y311550D01*
X360450Y306450D01*
X360450Y307305D02*
X359550Y307305D01*
X359550Y308160D02*
X360450Y308160D01*
X360450Y309015D02*
X359550Y309015D01*
X359550Y309870D02*
X360450Y309870D01*
X360450Y310725D02*
X359550Y310725D01*
X363550Y306450D02*
X364450Y306450D01*
X363550Y306450D02*
X363550Y311550D01*
X364450Y311550D01*
X364450Y306450D01*
X364450Y307305D02*
X363550Y307305D01*
X363550Y308160D02*
X364450Y308160D01*
X364450Y309015D02*
X363550Y309015D01*
X363550Y309870D02*
X364450Y309870D01*
X364450Y310725D02*
X363550Y310725D01*
X367550Y306450D02*
X368450Y306450D01*
X367550Y306450D02*
X367550Y311550D01*
X368450Y311550D01*
X368450Y306450D01*
X368450Y307305D02*
X367550Y307305D01*
X367550Y308160D02*
X368450Y308160D01*
X368450Y309015D02*
X367550Y309015D01*
X367550Y309870D02*
X368450Y309870D01*
X368450Y310725D02*
X367550Y310725D01*
X371550Y306450D02*
X372450Y306450D01*
X371550Y306450D02*
X371550Y311550D01*
X372450Y311550D01*
X372450Y306450D01*
X372450Y307305D02*
X371550Y307305D01*
X371550Y308160D02*
X372450Y308160D01*
X372450Y309015D02*
X371550Y309015D01*
X371550Y309870D02*
X372450Y309870D01*
X372450Y310725D02*
X371550Y310725D01*
X375550Y306450D02*
X376450Y306450D01*
X375550Y306450D02*
X375550Y311550D01*
X376450Y311550D01*
X376450Y306450D01*
X376450Y307305D02*
X375550Y307305D01*
X375550Y308160D02*
X376450Y308160D01*
X376450Y309015D02*
X375550Y309015D01*
X375550Y309870D02*
X376450Y309870D01*
X376450Y310725D02*
X375550Y310725D01*
X344450Y306450D02*
X343550Y306450D01*
X343550Y311550D01*
X344450Y311550D01*
X344450Y306450D01*
X344450Y307305D02*
X343550Y307305D01*
X343550Y308160D02*
X344450Y308160D01*
X344450Y309015D02*
X343550Y309015D01*
X343550Y309870D02*
X344450Y309870D01*
X344450Y310725D02*
X343550Y310725D01*
X340450Y306450D02*
X339550Y306450D01*
X339550Y311550D01*
X340450Y311550D01*
X340450Y306450D01*
X340450Y307305D02*
X339550Y307305D01*
X339550Y308160D02*
X340450Y308160D01*
X340450Y309015D02*
X339550Y309015D01*
X339550Y309870D02*
X340450Y309870D01*
X340450Y310725D02*
X339550Y310725D01*
X336450Y306450D02*
X335550Y306450D01*
X335550Y311550D01*
X336450Y311550D01*
X336450Y306450D01*
X336450Y307305D02*
X335550Y307305D01*
X335550Y308160D02*
X336450Y308160D01*
X336450Y309015D02*
X335550Y309015D01*
X335550Y309870D02*
X336450Y309870D01*
X336450Y310725D02*
X335550Y310725D01*
X332450Y306450D02*
X331550Y306450D01*
X331550Y311550D01*
X332450Y311550D01*
X332450Y306450D01*
X332450Y307305D02*
X331550Y307305D01*
X331550Y308160D02*
X332450Y308160D01*
X332450Y309015D02*
X331550Y309015D01*
X331550Y309870D02*
X332450Y309870D01*
X332450Y310725D02*
X331550Y310725D01*
X328450Y306450D02*
X327550Y306450D01*
X327550Y311550D01*
X328450Y311550D01*
X328450Y306450D01*
X328450Y307305D02*
X327550Y307305D01*
X327550Y308160D02*
X328450Y308160D01*
X328450Y309015D02*
X327550Y309015D01*
X327550Y309870D02*
X328450Y309870D01*
X328450Y310725D02*
X327550Y310725D01*
X324450Y306450D02*
X323550Y306450D01*
X323550Y311550D01*
X324450Y311550D01*
X324450Y306450D01*
X324450Y307305D02*
X323550Y307305D01*
X323550Y308160D02*
X324450Y308160D01*
X324450Y309015D02*
X323550Y309015D01*
X323550Y309870D02*
X324450Y309870D01*
X324450Y310725D02*
X323550Y310725D01*
X318550Y277450D02*
X318550Y276550D01*
X313450Y276550D01*
X313450Y277450D01*
X318550Y277450D01*
X318550Y277405D02*
X313450Y277405D01*
X318550Y280550D02*
X318550Y281450D01*
X318550Y280550D02*
X313450Y280550D01*
X313450Y281450D01*
X318550Y281450D01*
X318550Y281405D02*
X313450Y281405D01*
X318550Y284550D02*
X318550Y285450D01*
X318550Y284550D02*
X313450Y284550D01*
X313450Y285450D01*
X318550Y285450D01*
X318550Y285405D02*
X313450Y285405D01*
X318550Y288550D02*
X318550Y289450D01*
X318550Y288550D02*
X313450Y288550D01*
X313450Y289450D01*
X318550Y289450D01*
X318550Y289405D02*
X313450Y289405D01*
X318550Y292550D02*
X318550Y293450D01*
X318550Y292550D02*
X313450Y292550D01*
X313450Y293450D01*
X318550Y293450D01*
X318550Y293405D02*
X313450Y293405D01*
X318550Y296550D02*
X318550Y297450D01*
X318550Y296550D02*
X313450Y296550D01*
X313450Y297450D01*
X318550Y297450D01*
X318550Y297405D02*
X313450Y297405D01*
X318550Y300550D02*
X318550Y301450D01*
X318550Y300550D02*
X313450Y300550D01*
X313450Y301450D01*
X318550Y301450D01*
X318550Y301405D02*
X313450Y301405D01*
X318550Y273450D02*
X318550Y272550D01*
X313450Y272550D01*
X313450Y273450D01*
X318550Y273450D01*
X318550Y273405D02*
X313450Y273405D01*
X318550Y269450D02*
X318550Y268550D01*
X313450Y268550D01*
X313450Y269450D01*
X318550Y269450D01*
X318550Y269405D02*
X313450Y269405D01*
X318550Y265450D02*
X318550Y264550D01*
X313450Y264550D01*
X313450Y265450D01*
X318550Y265450D01*
X318550Y265405D02*
X313450Y265405D01*
X318550Y261450D02*
X318550Y260550D01*
X313450Y260550D01*
X313450Y261450D01*
X318550Y261450D01*
X318550Y261405D02*
X313450Y261405D01*
X318550Y257450D02*
X318550Y256550D01*
X313450Y256550D01*
X313450Y257450D01*
X318550Y257450D01*
X318550Y257405D02*
X313450Y257405D01*
X318550Y253450D02*
X318550Y252550D01*
X313450Y252550D01*
X313450Y253450D01*
X318550Y253450D01*
X318550Y253405D02*
X313450Y253405D01*
X318550Y249450D02*
X318550Y248550D01*
X313450Y248550D01*
X313450Y249450D01*
X318550Y249450D01*
X318550Y249405D02*
X313450Y249405D01*
X347550Y243550D02*
X348450Y243550D01*
X348450Y238450D01*
X347550Y238450D01*
X347550Y243550D01*
X347550Y239305D02*
X348450Y239305D01*
X348450Y240160D02*
X347550Y240160D01*
X347550Y241015D02*
X348450Y241015D01*
X348450Y241870D02*
X347550Y241870D01*
X347550Y242725D02*
X348450Y242725D01*
X344450Y243550D02*
X343550Y243550D01*
X344450Y243550D02*
X344450Y238450D01*
X343550Y238450D01*
X343550Y243550D01*
X343550Y239305D02*
X344450Y239305D01*
X344450Y240160D02*
X343550Y240160D01*
X343550Y241015D02*
X344450Y241015D01*
X344450Y241870D02*
X343550Y241870D01*
X343550Y242725D02*
X344450Y242725D01*
X340450Y243550D02*
X339550Y243550D01*
X340450Y243550D02*
X340450Y238450D01*
X339550Y238450D01*
X339550Y243550D01*
X339550Y239305D02*
X340450Y239305D01*
X340450Y240160D02*
X339550Y240160D01*
X339550Y241015D02*
X340450Y241015D01*
X340450Y241870D02*
X339550Y241870D01*
X339550Y242725D02*
X340450Y242725D01*
X336450Y243550D02*
X335550Y243550D01*
X336450Y243550D02*
X336450Y238450D01*
X335550Y238450D01*
X335550Y243550D01*
X335550Y239305D02*
X336450Y239305D01*
X336450Y240160D02*
X335550Y240160D01*
X335550Y241015D02*
X336450Y241015D01*
X336450Y241870D02*
X335550Y241870D01*
X335550Y242725D02*
X336450Y242725D01*
X332450Y243550D02*
X331550Y243550D01*
X332450Y243550D02*
X332450Y238450D01*
X331550Y238450D01*
X331550Y243550D01*
X331550Y239305D02*
X332450Y239305D01*
X332450Y240160D02*
X331550Y240160D01*
X331550Y241015D02*
X332450Y241015D01*
X332450Y241870D02*
X331550Y241870D01*
X331550Y242725D02*
X332450Y242725D01*
X328450Y243550D02*
X327550Y243550D01*
X328450Y243550D02*
X328450Y238450D01*
X327550Y238450D01*
X327550Y243550D01*
X327550Y239305D02*
X328450Y239305D01*
X328450Y240160D02*
X327550Y240160D01*
X327550Y241015D02*
X328450Y241015D01*
X328450Y241870D02*
X327550Y241870D01*
X327550Y242725D02*
X328450Y242725D01*
X324450Y243550D02*
X323550Y243550D01*
X324450Y243550D02*
X324450Y238450D01*
X323550Y238450D01*
X323550Y243550D01*
X323550Y239305D02*
X324450Y239305D01*
X324450Y240160D02*
X323550Y240160D01*
X323550Y241015D02*
X324450Y241015D01*
X324450Y241870D02*
X323550Y241870D01*
X323550Y242725D02*
X324450Y242725D01*
X351550Y243550D02*
X352450Y243550D01*
X352450Y238450D01*
X351550Y238450D01*
X351550Y243550D01*
X351550Y239305D02*
X352450Y239305D01*
X352450Y240160D02*
X351550Y240160D01*
X351550Y241015D02*
X352450Y241015D01*
X352450Y241870D02*
X351550Y241870D01*
X351550Y242725D02*
X352450Y242725D01*
X355550Y243550D02*
X356450Y243550D01*
X356450Y238450D01*
X355550Y238450D01*
X355550Y243550D01*
X355550Y239305D02*
X356450Y239305D01*
X356450Y240160D02*
X355550Y240160D01*
X355550Y241015D02*
X356450Y241015D01*
X356450Y241870D02*
X355550Y241870D01*
X355550Y242725D02*
X356450Y242725D01*
X359550Y243550D02*
X360450Y243550D01*
X360450Y238450D01*
X359550Y238450D01*
X359550Y243550D01*
X359550Y239305D02*
X360450Y239305D01*
X360450Y240160D02*
X359550Y240160D01*
X359550Y241015D02*
X360450Y241015D01*
X360450Y241870D02*
X359550Y241870D01*
X359550Y242725D02*
X360450Y242725D01*
X363550Y243550D02*
X364450Y243550D01*
X364450Y238450D01*
X363550Y238450D01*
X363550Y243550D01*
X363550Y239305D02*
X364450Y239305D01*
X364450Y240160D02*
X363550Y240160D01*
X363550Y241015D02*
X364450Y241015D01*
X364450Y241870D02*
X363550Y241870D01*
X363550Y242725D02*
X364450Y242725D01*
X367550Y243550D02*
X368450Y243550D01*
X368450Y238450D01*
X367550Y238450D01*
X367550Y243550D01*
X367550Y239305D02*
X368450Y239305D01*
X368450Y240160D02*
X367550Y240160D01*
X367550Y241015D02*
X368450Y241015D01*
X368450Y241870D02*
X367550Y241870D01*
X367550Y242725D02*
X368450Y242725D01*
X371550Y243550D02*
X372450Y243550D01*
X372450Y238450D01*
X371550Y238450D01*
X371550Y243550D01*
X371550Y239305D02*
X372450Y239305D01*
X372450Y240160D02*
X371550Y240160D01*
X371550Y241015D02*
X372450Y241015D01*
X372450Y241870D02*
X371550Y241870D01*
X371550Y242725D02*
X372450Y242725D01*
X375550Y243550D02*
X376450Y243550D01*
X376450Y238450D01*
X375550Y238450D01*
X375550Y243550D01*
X375550Y239305D02*
X376450Y239305D01*
X376450Y240160D02*
X375550Y240160D01*
X375550Y241015D02*
X376450Y241015D01*
X376450Y241870D02*
X375550Y241870D01*
X375550Y242725D02*
X376450Y242725D01*
X381450Y248550D02*
X381450Y249450D01*
X386550Y249450D01*
X386550Y248550D01*
X381450Y248550D01*
X381450Y249405D02*
X386550Y249405D01*
X381450Y252550D02*
X381450Y253450D01*
X386550Y253450D01*
X386550Y252550D01*
X381450Y252550D01*
X381450Y253405D02*
X386550Y253405D01*
X381450Y256550D02*
X381450Y257450D01*
X386550Y257450D01*
X386550Y256550D01*
X381450Y256550D01*
X381450Y257405D02*
X386550Y257405D01*
X381450Y260550D02*
X381450Y261450D01*
X386550Y261450D01*
X386550Y260550D01*
X381450Y260550D01*
X381450Y261405D02*
X386550Y261405D01*
X381450Y264550D02*
X381450Y265450D01*
X386550Y265450D01*
X386550Y264550D01*
X381450Y264550D01*
X381450Y265405D02*
X386550Y265405D01*
X381450Y268550D02*
X381450Y269450D01*
X386550Y269450D01*
X386550Y268550D01*
X381450Y268550D01*
X381450Y269405D02*
X386550Y269405D01*
X381450Y272550D02*
X381450Y273450D01*
X386550Y273450D01*
X386550Y272550D01*
X381450Y272550D01*
X381450Y273405D02*
X386550Y273405D01*
X381450Y276550D02*
X381450Y277450D01*
X386550Y277450D01*
X386550Y276550D01*
X381450Y276550D01*
X381450Y277405D02*
X386550Y277405D01*
X381450Y280550D02*
X381450Y281450D01*
X386550Y281450D01*
X386550Y280550D01*
X381450Y280550D01*
X381450Y281405D02*
X386550Y281405D01*
X381450Y284550D02*
X381450Y285450D01*
X386550Y285450D01*
X386550Y284550D01*
X381450Y284550D01*
X381450Y285405D02*
X386550Y285405D01*
X381450Y288550D02*
X381450Y289450D01*
X386550Y289450D01*
X386550Y288550D01*
X381450Y288550D01*
X381450Y289405D02*
X386550Y289405D01*
X381450Y292550D02*
X381450Y293450D01*
X386550Y293450D01*
X386550Y292550D01*
X381450Y292550D01*
X381450Y293405D02*
X386550Y293405D01*
X381450Y296550D02*
X381450Y297450D01*
X386550Y297450D01*
X386550Y296550D01*
X381450Y296550D01*
X381450Y297405D02*
X386550Y297405D01*
X381450Y300550D02*
X381450Y301450D01*
X386550Y301450D01*
X386550Y300550D01*
X381450Y300550D01*
X381450Y301405D02*
X386550Y301405D01*
D21*
X368800Y293800D02*
X331200Y293800D01*
X368800Y293800D02*
X368800Y256200D01*
X331200Y256200D01*
X331200Y293800D01*
X331200Y258480D02*
X368800Y258480D01*
X368800Y260760D02*
X331200Y260760D01*
X331200Y263040D02*
X368800Y263040D01*
X368800Y265320D02*
X331200Y265320D01*
X331200Y267600D02*
X368800Y267600D01*
X368800Y269880D02*
X331200Y269880D01*
X331200Y272160D02*
X368800Y272160D01*
X368800Y274440D02*
X331200Y274440D01*
X331200Y276720D02*
X368800Y276720D01*
X368800Y279000D02*
X331200Y279000D01*
X331200Y281280D02*
X368800Y281280D01*
X368800Y283560D02*
X331200Y283560D01*
X331200Y285840D02*
X368800Y285840D01*
X368800Y288120D02*
X331200Y288120D01*
X331200Y290400D02*
X368800Y290400D01*
X368800Y292680D02*
X331200Y292680D01*
D19*
X339780Y347780D02*
X346220Y347780D01*
X339780Y347780D02*
X339780Y353220D01*
X346220Y353220D01*
X346220Y347780D01*
X346220Y350212D02*
X339780Y350212D01*
X339780Y352644D02*
X346220Y352644D01*
X346220Y336780D02*
X339780Y336780D01*
X339780Y342220D01*
X346220Y342220D01*
X346220Y336780D01*
X346220Y339212D02*
X339780Y339212D01*
X339780Y341644D02*
X346220Y341644D01*
X353780Y336780D02*
X360220Y336780D01*
X353780Y336780D02*
X353780Y342220D01*
X360220Y342220D01*
X360220Y336780D01*
X360220Y339212D02*
X353780Y339212D01*
X353780Y341644D02*
X360220Y341644D01*
X360220Y347780D02*
X353780Y347780D01*
X353780Y353220D01*
X360220Y353220D01*
X360220Y347780D01*
X360220Y350212D02*
X353780Y350212D01*
X353780Y352644D02*
X360220Y352644D01*
D11*
X326250Y349250D02*
X326250Y357750D01*
X333750Y357750D01*
X333750Y349250D01*
X326250Y349250D01*
X326250Y351625D02*
X333750Y351625D01*
X333750Y354000D02*
X326250Y354000D01*
X326250Y356375D02*
X333750Y356375D01*
X326250Y340750D02*
X326250Y332250D01*
X326250Y340750D02*
X333750Y340750D01*
X333750Y332250D01*
X326250Y332250D01*
X326250Y334625D02*
X333750Y334625D01*
X333750Y337000D02*
X326250Y337000D01*
X326250Y339375D02*
X333750Y339375D01*
X373750Y340750D02*
X373750Y332250D01*
X366250Y332250D01*
X366250Y340750D01*
X373750Y340750D01*
X373750Y334625D02*
X366250Y334625D01*
X366250Y337000D02*
X373750Y337000D01*
X373750Y339375D02*
X366250Y339375D01*
X373750Y349250D02*
X373750Y357750D01*
X373750Y349250D02*
X366250Y349250D01*
X366250Y357750D01*
X373750Y357750D01*
X373750Y351625D02*
X366250Y351625D01*
X366250Y354000D02*
X373750Y354000D01*
X373750Y356375D02*
X366250Y356375D01*
D12*
X136240Y334260D02*
X129760Y334260D01*
X129760Y337740D01*
X136240Y337740D01*
X136240Y334260D01*
X136240Y336654D02*
X129760Y336654D01*
X129760Y312260D02*
X136240Y312260D01*
X129760Y312260D02*
X129760Y315740D01*
X136240Y315740D01*
X136240Y312260D01*
X136240Y314654D02*
X129760Y314654D01*
X100240Y312260D02*
X93760Y312260D01*
X93760Y315740D01*
X100240Y315740D01*
X100240Y312260D01*
X100240Y314654D02*
X93760Y314654D01*
X93760Y334260D02*
X100240Y334260D01*
X93760Y334260D02*
X93760Y337740D01*
X100240Y337740D01*
X100240Y334260D01*
X100240Y336654D02*
X93760Y336654D01*
D18*
X112125Y343375D02*
X117875Y343375D01*
X112125Y343375D02*
X112125Y345625D01*
X117875Y345625D01*
X117875Y343375D01*
X117875Y345512D02*
X112125Y345512D01*
X112125Y304375D02*
X117875Y304375D01*
X112125Y304375D02*
X112125Y306625D01*
X117875Y306625D01*
X117875Y304375D01*
X117875Y306512D02*
X112125Y306512D01*
D12*
X129760Y284260D02*
X136240Y284260D01*
X129760Y284260D02*
X129760Y287740D01*
X136240Y287740D01*
X136240Y284260D01*
X136240Y286654D02*
X129760Y286654D01*
X129760Y262260D02*
X136240Y262260D01*
X129760Y262260D02*
X129760Y265740D01*
X136240Y265740D01*
X136240Y262260D01*
X136240Y264654D02*
X129760Y264654D01*
X100240Y262260D02*
X93760Y262260D01*
X93760Y265740D01*
X100240Y265740D01*
X100240Y262260D01*
X100240Y264654D02*
X93760Y264654D01*
X93760Y284260D02*
X100240Y284260D01*
X93760Y284260D02*
X93760Y287740D01*
X100240Y287740D01*
X100240Y284260D01*
X100240Y286654D02*
X93760Y286654D01*
D18*
X112125Y293375D02*
X117875Y293375D01*
X112125Y293375D02*
X112125Y295625D01*
X117875Y295625D01*
X117875Y293375D01*
X117875Y295512D02*
X112125Y295512D01*
X112125Y254375D02*
X117875Y254375D01*
X112125Y254375D02*
X112125Y256625D01*
X117875Y256625D01*
X117875Y254375D01*
X117875Y256512D02*
X112125Y256512D01*
D11*
X374750Y214250D02*
X382250Y214250D01*
X382250Y205750D01*
X374750Y205750D01*
X374750Y214250D01*
X374750Y208125D02*
X382250Y208125D01*
X382250Y210500D02*
X374750Y210500D01*
X374750Y212875D02*
X382250Y212875D01*
X365250Y214250D02*
X357750Y214250D01*
X365250Y214250D02*
X365250Y205750D01*
X357750Y205750D01*
X357750Y214250D01*
X357750Y208125D02*
X365250Y208125D01*
X365250Y210500D02*
X357750Y210500D01*
X357750Y212875D02*
X365250Y212875D01*
X325750Y206250D02*
X317250Y206250D01*
X317250Y213750D01*
X325750Y213750D01*
X325750Y206250D01*
X325750Y208625D02*
X317250Y208625D01*
X317250Y211000D02*
X325750Y211000D01*
X325750Y213375D02*
X317250Y213375D01*
X334250Y206250D02*
X342750Y206250D01*
X334250Y206250D02*
X334250Y213750D01*
X342750Y213750D01*
X342750Y206250D01*
X342750Y208625D02*
X334250Y208625D01*
X334250Y211000D02*
X342750Y211000D01*
X342750Y213375D02*
X334250Y213375D01*
X511250Y209750D02*
X511250Y202250D01*
X511250Y209750D02*
X522750Y209750D01*
X522750Y202250D01*
X511250Y202250D01*
X511250Y204625D02*
X522750Y204625D01*
X522750Y207000D02*
X511250Y207000D01*
X511250Y209375D02*
X522750Y209375D01*
X489250Y200250D02*
X489250Y192750D01*
X489250Y200250D02*
X500750Y200250D01*
X500750Y192750D01*
X489250Y192750D01*
X489250Y195125D02*
X500750Y195125D01*
X500750Y197500D02*
X489250Y197500D01*
X489250Y199875D02*
X500750Y199875D01*
X489250Y211750D02*
X489250Y219250D01*
X500750Y219250D01*
X500750Y211750D01*
X489250Y211750D01*
X489250Y214125D02*
X500750Y214125D01*
X500750Y216500D02*
X489250Y216500D01*
X489250Y218875D02*
X500750Y218875D01*
D22*
X130884Y467070D02*
X130884Y476702D01*
X130884Y467070D02*
X111092Y467070D01*
X111092Y476702D01*
X130884Y476702D01*
X130884Y469502D02*
X111092Y469502D01*
X111092Y471934D02*
X130884Y471934D01*
X130884Y474366D02*
X111092Y474366D01*
X130884Y490184D02*
X130884Y499816D01*
X130884Y490184D02*
X111092Y490184D01*
X111092Y499816D01*
X130884Y499816D01*
X130884Y492616D02*
X111092Y492616D01*
X111092Y495048D02*
X130884Y495048D01*
X130884Y497480D02*
X111092Y497480D01*
X130884Y513298D02*
X130884Y522930D01*
X130884Y513298D02*
X111092Y513298D01*
X111092Y522930D01*
X130884Y522930D01*
X130884Y515730D02*
X111092Y515730D01*
X111092Y518162D02*
X130884Y518162D01*
X130884Y520594D02*
X111092Y520594D01*
D23*
X68690Y511680D02*
X68690Y478320D01*
X49330Y478320D01*
X49330Y511680D01*
X68690Y511680D01*
X68690Y480828D02*
X49330Y480828D01*
X49330Y483336D02*
X68690Y483336D01*
X68690Y485844D02*
X49330Y485844D01*
X49330Y488352D02*
X68690Y488352D01*
X68690Y490860D02*
X49330Y490860D01*
X49330Y493368D02*
X68690Y493368D01*
X68690Y495876D02*
X49330Y495876D01*
X49330Y498384D02*
X68690Y498384D01*
X68690Y500892D02*
X49330Y500892D01*
X49330Y503400D02*
X68690Y503400D01*
X68690Y505908D02*
X49330Y505908D01*
X49330Y508416D02*
X68690Y508416D01*
X68690Y510924D02*
X49330Y510924D01*
M02*
