G04 EAGLE Gerber RS-274X export*
G75*
%MOMM*%
%FSLAX34Y34*%
%LPD*%
%INSoldermask Top*%
%IPPOS*%
%AMOC8*
5,1,8,0,0,1.08239X$1,22.5*%
G01*
%ADD10C,0.101600*%
%ADD11C,0.400000*%
%ADD12C,0.260000*%
%ADD13C,0.250000*%
%ADD14C,0.252000*%
%ADD15C,2.540000*%
%ADD16C,0.200000*%
%ADD17C,0.500000*%
%ADD18C,1.800000*%
%ADD19C,1.422400*%
%ADD20C,0.300000*%
%ADD21C,1.108000*%
%ADD22C,0.650000*%
%ADD23C,0.253000*%
%ADD24C,0.137500*%
%ADD25C,0.150000*%
%ADD26C,0.225000*%
%ADD27R,1.422400X1.422400*%
%ADD28C,1.422400*%
%ADD29C,0.900000*%
%ADD30C,1.524000*%
%ADD31C,0.256000*%
%ADD32C,0.090000*%
%ADD33C,0.240000*%
%ADD34C,0.256031*%
%ADD35C,0.264000*%
%ADD36C,6.000000*%

G36*
X610030Y608004D02*
X610030Y608004D01*
X610060Y608002D01*
X610229Y608024D01*
X610397Y608041D01*
X610426Y608050D01*
X610456Y608054D01*
X610617Y608109D01*
X610779Y608159D01*
X610806Y608173D01*
X610834Y608183D01*
X610980Y608269D01*
X611129Y608350D01*
X611153Y608370D01*
X611179Y608385D01*
X611305Y608498D01*
X611435Y608608D01*
X611454Y608632D01*
X611476Y608652D01*
X611577Y608788D01*
X611683Y608921D01*
X611697Y608948D01*
X611715Y608972D01*
X611787Y609125D01*
X611864Y609277D01*
X611872Y609306D01*
X611885Y609333D01*
X611925Y609499D01*
X611970Y609662D01*
X611973Y609692D01*
X611980Y609721D01*
X611999Y610000D01*
X611999Y630000D01*
X611997Y630027D01*
X611998Y630053D01*
X611998Y630055D01*
X611998Y630060D01*
X611976Y630229D01*
X611959Y630397D01*
X611950Y630426D01*
X611946Y630456D01*
X611891Y630617D01*
X611841Y630779D01*
X611827Y630806D01*
X611817Y630834D01*
X611731Y630980D01*
X611650Y631129D01*
X611630Y631153D01*
X611615Y631179D01*
X611502Y631305D01*
X611392Y631435D01*
X611369Y631454D01*
X611348Y631476D01*
X611212Y631577D01*
X611079Y631683D01*
X611052Y631697D01*
X611028Y631715D01*
X610875Y631787D01*
X610723Y631864D01*
X610694Y631872D01*
X610667Y631885D01*
X610501Y631925D01*
X610338Y631970D01*
X610308Y631973D01*
X610279Y631980D01*
X610000Y631999D01*
X580000Y631999D01*
X579970Y631996D01*
X579940Y631998D01*
X579771Y631976D01*
X579603Y631959D01*
X579574Y631950D01*
X579544Y631946D01*
X579383Y631891D01*
X579221Y631841D01*
X579194Y631827D01*
X579166Y631817D01*
X579020Y631731D01*
X578871Y631650D01*
X578847Y631630D01*
X578821Y631615D01*
X578695Y631502D01*
X578565Y631392D01*
X578546Y631369D01*
X578524Y631348D01*
X578423Y631212D01*
X578317Y631079D01*
X578303Y631052D01*
X578285Y631028D01*
X578213Y630875D01*
X578136Y630723D01*
X578128Y630694D01*
X578115Y630667D01*
X578075Y630501D01*
X578030Y630338D01*
X578027Y630308D01*
X578020Y630279D01*
X578001Y630000D01*
X578001Y610000D01*
X578004Y609970D01*
X578002Y609940D01*
X578024Y609771D01*
X578041Y609603D01*
X578050Y609574D01*
X578054Y609544D01*
X578109Y609383D01*
X578159Y609221D01*
X578173Y609194D01*
X578183Y609166D01*
X578269Y609020D01*
X578350Y608871D01*
X578370Y608847D01*
X578385Y608821D01*
X578498Y608695D01*
X578608Y608565D01*
X578632Y608546D01*
X578652Y608524D01*
X578788Y608423D01*
X578921Y608317D01*
X578948Y608303D01*
X578972Y608285D01*
X579125Y608213D01*
X579277Y608136D01*
X579306Y608128D01*
X579333Y608115D01*
X579499Y608075D01*
X579662Y608030D01*
X579692Y608027D01*
X579721Y608020D01*
X580000Y608001D01*
X610000Y608001D01*
X610030Y608004D01*
G37*
G36*
X120030Y608004D02*
X120030Y608004D01*
X120060Y608002D01*
X120229Y608024D01*
X120397Y608041D01*
X120426Y608050D01*
X120456Y608054D01*
X120617Y608109D01*
X120779Y608159D01*
X120806Y608173D01*
X120834Y608183D01*
X120980Y608269D01*
X121129Y608350D01*
X121153Y608370D01*
X121179Y608385D01*
X121305Y608498D01*
X121435Y608608D01*
X121454Y608632D01*
X121476Y608652D01*
X121577Y608788D01*
X121683Y608921D01*
X121697Y608948D01*
X121715Y608972D01*
X121787Y609125D01*
X121864Y609277D01*
X121872Y609306D01*
X121885Y609333D01*
X121925Y609499D01*
X121970Y609662D01*
X121973Y609692D01*
X121980Y609721D01*
X121999Y610000D01*
X121999Y630000D01*
X121997Y630027D01*
X121998Y630053D01*
X121998Y630055D01*
X121998Y630060D01*
X121976Y630229D01*
X121959Y630397D01*
X121950Y630426D01*
X121946Y630456D01*
X121891Y630617D01*
X121841Y630779D01*
X121827Y630806D01*
X121817Y630834D01*
X121731Y630980D01*
X121650Y631129D01*
X121630Y631153D01*
X121615Y631179D01*
X121502Y631305D01*
X121392Y631435D01*
X121369Y631454D01*
X121348Y631476D01*
X121212Y631577D01*
X121079Y631683D01*
X121052Y631697D01*
X121028Y631715D01*
X120875Y631787D01*
X120723Y631864D01*
X120694Y631872D01*
X120667Y631885D01*
X120501Y631925D01*
X120338Y631970D01*
X120308Y631973D01*
X120279Y631980D01*
X120000Y631999D01*
X90000Y631999D01*
X89970Y631996D01*
X89940Y631998D01*
X89771Y631976D01*
X89603Y631959D01*
X89574Y631950D01*
X89544Y631946D01*
X89383Y631891D01*
X89221Y631841D01*
X89194Y631827D01*
X89166Y631817D01*
X89020Y631731D01*
X88871Y631650D01*
X88847Y631630D01*
X88821Y631615D01*
X88695Y631502D01*
X88565Y631392D01*
X88546Y631369D01*
X88524Y631348D01*
X88423Y631212D01*
X88317Y631079D01*
X88303Y631052D01*
X88285Y631028D01*
X88213Y630875D01*
X88136Y630723D01*
X88128Y630694D01*
X88115Y630667D01*
X88075Y630501D01*
X88030Y630338D01*
X88027Y630308D01*
X88020Y630279D01*
X88001Y630000D01*
X88001Y610000D01*
X88004Y609970D01*
X88002Y609940D01*
X88024Y609771D01*
X88041Y609603D01*
X88050Y609574D01*
X88054Y609544D01*
X88109Y609383D01*
X88159Y609221D01*
X88173Y609194D01*
X88183Y609166D01*
X88269Y609020D01*
X88350Y608871D01*
X88370Y608847D01*
X88385Y608821D01*
X88498Y608695D01*
X88608Y608565D01*
X88632Y608546D01*
X88652Y608524D01*
X88788Y608423D01*
X88921Y608317D01*
X88948Y608303D01*
X88972Y608285D01*
X89125Y608213D01*
X89277Y608136D01*
X89306Y608128D01*
X89333Y608115D01*
X89499Y608075D01*
X89662Y608030D01*
X89692Y608027D01*
X89721Y608020D01*
X90000Y608001D01*
X120000Y608001D01*
X120030Y608004D01*
G37*
G36*
X606792Y864520D02*
X606792Y864520D01*
X606835Y864532D01*
X606901Y864539D01*
X608584Y864990D01*
X608625Y865009D01*
X608688Y865028D01*
X610268Y865765D01*
X610305Y865791D01*
X610364Y865820D01*
X611792Y866820D01*
X611823Y866852D01*
X611876Y866891D01*
X613109Y868124D01*
X613134Y868160D01*
X613180Y868208D01*
X614180Y869636D01*
X614198Y869677D01*
X614235Y869732D01*
X614972Y871312D01*
X614983Y871355D01*
X615010Y871416D01*
X615461Y873099D01*
X615463Y873131D01*
X615470Y873152D01*
X615470Y873167D01*
X615480Y873208D01*
X615632Y874945D01*
X615628Y874989D01*
X615632Y875055D01*
X615480Y876792D01*
X615468Y876835D01*
X615461Y876901D01*
X615010Y878584D01*
X614991Y878625D01*
X614972Y878688D01*
X614235Y880268D01*
X614209Y880305D01*
X614180Y880364D01*
X613180Y881792D01*
X613148Y881823D01*
X613109Y881876D01*
X611876Y883109D01*
X611840Y883134D01*
X611792Y883180D01*
X610364Y884180D01*
X610323Y884198D01*
X610268Y884235D01*
X608688Y884972D01*
X608645Y884983D01*
X608584Y885010D01*
X606901Y885461D01*
X606856Y885464D01*
X606792Y885480D01*
X605055Y885632D01*
X605011Y885628D01*
X604945Y885632D01*
X603208Y885480D01*
X603165Y885468D01*
X603099Y885461D01*
X601416Y885010D01*
X601375Y884991D01*
X601312Y884972D01*
X599732Y884235D01*
X599695Y884209D01*
X599636Y884180D01*
X598208Y883180D01*
X598177Y883148D01*
X598124Y883109D01*
X596891Y881876D01*
X596866Y881840D01*
X596820Y881792D01*
X595820Y880364D01*
X595802Y880323D01*
X595765Y880268D01*
X595028Y878688D01*
X595017Y878645D01*
X594990Y878584D01*
X594539Y876901D01*
X594536Y876856D01*
X594520Y876792D01*
X594368Y875055D01*
X594372Y875011D01*
X594368Y874945D01*
X594520Y873208D01*
X594532Y873165D01*
X594536Y873131D01*
X594536Y873115D01*
X594538Y873110D01*
X594539Y873099D01*
X594990Y871416D01*
X595009Y871375D01*
X595028Y871312D01*
X595765Y869732D01*
X595791Y869695D01*
X595820Y869636D01*
X596820Y868208D01*
X596852Y868177D01*
X596891Y868124D01*
X598124Y866891D01*
X598160Y866866D01*
X598208Y866820D01*
X599636Y865820D01*
X599677Y865802D01*
X599732Y865765D01*
X601312Y865028D01*
X601355Y865017D01*
X601416Y864990D01*
X603099Y864539D01*
X603144Y864536D01*
X603208Y864520D01*
X604945Y864368D01*
X604989Y864372D01*
X605055Y864368D01*
X606792Y864520D01*
G37*
G36*
X616792Y569520D02*
X616792Y569520D01*
X616835Y569532D01*
X616901Y569539D01*
X618584Y569990D01*
X618625Y570009D01*
X618688Y570028D01*
X620268Y570765D01*
X620305Y570791D01*
X620364Y570820D01*
X621792Y571820D01*
X621823Y571852D01*
X621876Y571891D01*
X623109Y573124D01*
X623134Y573160D01*
X623180Y573208D01*
X624180Y574636D01*
X624198Y574677D01*
X624235Y574732D01*
X624972Y576312D01*
X624983Y576355D01*
X625010Y576416D01*
X625461Y578099D01*
X625463Y578131D01*
X625470Y578152D01*
X625470Y578167D01*
X625480Y578208D01*
X625632Y579945D01*
X625628Y579989D01*
X625632Y580055D01*
X625480Y581792D01*
X625468Y581835D01*
X625461Y581901D01*
X625010Y583584D01*
X624991Y583625D01*
X624972Y583688D01*
X624235Y585268D01*
X624209Y585305D01*
X624180Y585364D01*
X623180Y586792D01*
X623148Y586823D01*
X623109Y586876D01*
X621876Y588109D01*
X621840Y588134D01*
X621792Y588180D01*
X620364Y589180D01*
X620323Y589198D01*
X620268Y589235D01*
X618688Y589972D01*
X618645Y589983D01*
X618584Y590010D01*
X616901Y590461D01*
X616856Y590464D01*
X616792Y590480D01*
X615055Y590632D01*
X615011Y590628D01*
X614945Y590632D01*
X613208Y590480D01*
X613165Y590468D01*
X613099Y590461D01*
X611416Y590010D01*
X611375Y589991D01*
X611312Y589972D01*
X609732Y589235D01*
X609695Y589209D01*
X609636Y589180D01*
X608208Y588180D01*
X608177Y588148D01*
X608124Y588109D01*
X606891Y586876D01*
X606866Y586840D01*
X606820Y586792D01*
X605820Y585364D01*
X605802Y585323D01*
X605765Y585268D01*
X605028Y583688D01*
X605017Y583645D01*
X604990Y583584D01*
X604539Y581901D01*
X604536Y581856D01*
X604520Y581792D01*
X604368Y580055D01*
X604372Y580011D01*
X604368Y579945D01*
X604520Y578208D01*
X604532Y578165D01*
X604536Y578131D01*
X604536Y578115D01*
X604538Y578110D01*
X604539Y578099D01*
X604990Y576416D01*
X605009Y576375D01*
X605028Y576312D01*
X605765Y574732D01*
X605791Y574695D01*
X605820Y574636D01*
X606820Y573208D01*
X606852Y573177D01*
X606891Y573124D01*
X608124Y571891D01*
X608160Y571866D01*
X608208Y571820D01*
X609636Y570820D01*
X609677Y570802D01*
X609732Y570765D01*
X611312Y570028D01*
X611355Y570017D01*
X611416Y569990D01*
X613099Y569539D01*
X613144Y569536D01*
X613208Y569520D01*
X614945Y569368D01*
X614989Y569372D01*
X615055Y569368D01*
X616792Y569520D01*
G37*
G36*
X21792Y499520D02*
X21792Y499520D01*
X21835Y499532D01*
X21901Y499539D01*
X23584Y499990D01*
X23625Y500009D01*
X23688Y500028D01*
X25268Y500765D01*
X25305Y500791D01*
X25364Y500820D01*
X26792Y501820D01*
X26823Y501852D01*
X26876Y501891D01*
X28109Y503124D01*
X28134Y503160D01*
X28180Y503208D01*
X29180Y504636D01*
X29198Y504677D01*
X29235Y504732D01*
X29972Y506312D01*
X29983Y506355D01*
X30010Y506416D01*
X30461Y508099D01*
X30463Y508131D01*
X30470Y508152D01*
X30470Y508167D01*
X30480Y508208D01*
X30632Y509945D01*
X30628Y509989D01*
X30632Y510055D01*
X30480Y511792D01*
X30468Y511835D01*
X30461Y511901D01*
X30010Y513584D01*
X29991Y513625D01*
X29972Y513688D01*
X29235Y515268D01*
X29209Y515305D01*
X29180Y515364D01*
X28180Y516792D01*
X28148Y516823D01*
X28109Y516876D01*
X26876Y518109D01*
X26840Y518134D01*
X26792Y518180D01*
X25364Y519180D01*
X25323Y519198D01*
X25268Y519235D01*
X23688Y519972D01*
X23645Y519983D01*
X23584Y520010D01*
X21901Y520461D01*
X21856Y520464D01*
X21792Y520480D01*
X20055Y520632D01*
X20011Y520628D01*
X19945Y520632D01*
X18208Y520480D01*
X18165Y520468D01*
X18099Y520461D01*
X16416Y520010D01*
X16375Y519991D01*
X16312Y519972D01*
X14732Y519235D01*
X14695Y519209D01*
X14636Y519180D01*
X13208Y518180D01*
X13177Y518148D01*
X13124Y518109D01*
X11891Y516876D01*
X11866Y516840D01*
X11820Y516792D01*
X10820Y515364D01*
X10802Y515323D01*
X10765Y515268D01*
X10028Y513688D01*
X10017Y513645D01*
X9990Y513584D01*
X9539Y511901D01*
X9536Y511856D01*
X9520Y511792D01*
X9368Y510055D01*
X9372Y510011D01*
X9368Y509945D01*
X9520Y508208D01*
X9532Y508165D01*
X9536Y508131D01*
X9536Y508115D01*
X9538Y508110D01*
X9539Y508099D01*
X9990Y506416D01*
X10009Y506375D01*
X10028Y506312D01*
X10765Y504732D01*
X10791Y504695D01*
X10820Y504636D01*
X11820Y503208D01*
X11852Y503177D01*
X11891Y503124D01*
X13124Y501891D01*
X13160Y501866D01*
X13208Y501820D01*
X14636Y500820D01*
X14677Y500802D01*
X14732Y500765D01*
X16312Y500028D01*
X16355Y500017D01*
X16416Y499990D01*
X18099Y499539D01*
X18144Y499536D01*
X18208Y499520D01*
X19945Y499368D01*
X19989Y499372D01*
X20055Y499368D01*
X21792Y499520D01*
G37*
G36*
X634792Y70520D02*
X634792Y70520D01*
X634835Y70532D01*
X634901Y70539D01*
X636584Y70990D01*
X636625Y71009D01*
X636688Y71028D01*
X638268Y71765D01*
X638305Y71791D01*
X638364Y71820D01*
X639792Y72820D01*
X639823Y72852D01*
X639876Y72891D01*
X641109Y74124D01*
X641134Y74160D01*
X641180Y74208D01*
X642180Y75636D01*
X642198Y75677D01*
X642235Y75732D01*
X642972Y77312D01*
X642983Y77355D01*
X643010Y77416D01*
X643461Y79099D01*
X643463Y79131D01*
X643470Y79152D01*
X643470Y79167D01*
X643480Y79208D01*
X643632Y80945D01*
X643628Y80989D01*
X643632Y81055D01*
X643480Y82792D01*
X643468Y82835D01*
X643461Y82901D01*
X643010Y84584D01*
X642991Y84625D01*
X642972Y84688D01*
X642235Y86268D01*
X642209Y86305D01*
X642180Y86364D01*
X641180Y87792D01*
X641148Y87823D01*
X641109Y87876D01*
X639876Y89109D01*
X639840Y89134D01*
X639792Y89180D01*
X638364Y90180D01*
X638323Y90198D01*
X638268Y90235D01*
X636688Y90972D01*
X636645Y90983D01*
X636584Y91010D01*
X634901Y91461D01*
X634856Y91464D01*
X634792Y91480D01*
X633055Y91632D01*
X633011Y91628D01*
X632945Y91632D01*
X631208Y91480D01*
X631165Y91468D01*
X631099Y91461D01*
X629416Y91010D01*
X629375Y90991D01*
X629312Y90972D01*
X627732Y90235D01*
X627695Y90209D01*
X627636Y90180D01*
X626208Y89180D01*
X626177Y89148D01*
X626124Y89109D01*
X624891Y87876D01*
X624866Y87840D01*
X624820Y87792D01*
X623820Y86364D01*
X623802Y86323D01*
X623765Y86268D01*
X623028Y84688D01*
X623017Y84645D01*
X622990Y84584D01*
X622539Y82901D01*
X622536Y82856D01*
X622520Y82792D01*
X622368Y81055D01*
X622372Y81011D01*
X622368Y80945D01*
X622520Y79208D01*
X622532Y79165D01*
X622536Y79131D01*
X622536Y79115D01*
X622538Y79110D01*
X622539Y79099D01*
X622990Y77416D01*
X623009Y77375D01*
X623028Y77312D01*
X623765Y75732D01*
X623791Y75695D01*
X623820Y75636D01*
X624820Y74208D01*
X624852Y74177D01*
X624891Y74124D01*
X626124Y72891D01*
X626160Y72866D01*
X626208Y72820D01*
X627636Y71820D01*
X627677Y71802D01*
X627732Y71765D01*
X629312Y71028D01*
X629355Y71017D01*
X629416Y70990D01*
X631099Y70539D01*
X631144Y70536D01*
X631208Y70520D01*
X632945Y70368D01*
X632989Y70372D01*
X633055Y70368D01*
X634792Y70520D01*
G37*
D10*
X36105Y111714D02*
X36105Y109767D01*
X36106Y109767D02*
X36108Y109680D01*
X36114Y109592D01*
X36124Y109506D01*
X36137Y109419D01*
X36155Y109334D01*
X36176Y109249D01*
X36201Y109165D01*
X36230Y109083D01*
X36263Y109002D01*
X36299Y108922D01*
X36338Y108844D01*
X36382Y108768D01*
X36428Y108694D01*
X36478Y108623D01*
X36531Y108553D01*
X36587Y108486D01*
X36646Y108422D01*
X36708Y108360D01*
X36772Y108301D01*
X36839Y108245D01*
X36909Y108192D01*
X36980Y108142D01*
X37054Y108096D01*
X37130Y108052D01*
X37208Y108013D01*
X37288Y107977D01*
X37369Y107944D01*
X37451Y107915D01*
X37535Y107890D01*
X37620Y107869D01*
X37705Y107851D01*
X37792Y107838D01*
X37878Y107828D01*
X37966Y107822D01*
X38053Y107820D01*
X38053Y107819D02*
X41947Y107819D01*
X41947Y107820D02*
X42034Y107822D01*
X42122Y107828D01*
X42208Y107838D01*
X42295Y107851D01*
X42380Y107869D01*
X42465Y107890D01*
X42549Y107915D01*
X42631Y107944D01*
X42712Y107977D01*
X42792Y108013D01*
X42870Y108052D01*
X42946Y108096D01*
X43020Y108142D01*
X43091Y108192D01*
X43161Y108245D01*
X43228Y108301D01*
X43292Y108360D01*
X43354Y108422D01*
X43413Y108486D01*
X43469Y108553D01*
X43522Y108623D01*
X43572Y108694D01*
X43618Y108768D01*
X43662Y108844D01*
X43701Y108922D01*
X43737Y109002D01*
X43770Y109083D01*
X43799Y109165D01*
X43824Y109249D01*
X43845Y109334D01*
X43863Y109419D01*
X43876Y109506D01*
X43886Y109592D01*
X43892Y109680D01*
X43894Y109767D01*
X43892Y109854D01*
X43886Y109942D01*
X43876Y110028D01*
X43863Y110115D01*
X43845Y110200D01*
X43824Y110285D01*
X43799Y110369D01*
X43770Y110451D01*
X43737Y110532D01*
X43701Y110612D01*
X43662Y110690D01*
X43618Y110766D01*
X43572Y110840D01*
X43522Y110911D01*
X43469Y110981D01*
X43413Y111048D01*
X43354Y111112D01*
X43292Y111174D01*
X43228Y111233D01*
X43161Y111289D01*
X43091Y111342D01*
X43020Y111392D01*
X42946Y111438D01*
X42870Y111482D01*
X42792Y111521D01*
X42712Y111557D01*
X42631Y111590D01*
X42549Y111619D01*
X42465Y111644D01*
X42380Y111665D01*
X42295Y111683D01*
X42208Y111696D01*
X42122Y111706D01*
X42034Y111712D01*
X41947Y111714D01*
X42272Y111714D02*
X36105Y111714D01*
X42272Y111714D02*
X42352Y111716D01*
X42431Y111722D01*
X42510Y111732D01*
X42589Y111745D01*
X42666Y111763D01*
X42743Y111784D01*
X42819Y111809D01*
X42893Y111838D01*
X42966Y111870D01*
X43037Y111906D01*
X43106Y111945D01*
X43174Y111988D01*
X43239Y112033D01*
X43302Y112082D01*
X43362Y112134D01*
X43420Y112189D01*
X43475Y112247D01*
X43527Y112307D01*
X43576Y112370D01*
X43621Y112435D01*
X43664Y112503D01*
X43703Y112572D01*
X43739Y112643D01*
X43771Y112716D01*
X43800Y112790D01*
X43825Y112866D01*
X43846Y112943D01*
X43864Y113020D01*
X43877Y113099D01*
X43887Y113178D01*
X43893Y113257D01*
X43895Y113337D01*
X43893Y113417D01*
X43887Y113496D01*
X43877Y113575D01*
X43864Y113654D01*
X43846Y113731D01*
X43825Y113808D01*
X43800Y113884D01*
X43771Y113958D01*
X43739Y114031D01*
X43703Y114102D01*
X43664Y114171D01*
X43621Y114239D01*
X43576Y114304D01*
X43527Y114367D01*
X43475Y114427D01*
X43420Y114485D01*
X43362Y114540D01*
X43302Y114592D01*
X43239Y114641D01*
X43174Y114686D01*
X43106Y114729D01*
X43037Y114768D01*
X42966Y114804D01*
X42893Y114836D01*
X42819Y114865D01*
X42743Y114890D01*
X42666Y114911D01*
X42589Y114929D01*
X42510Y114942D01*
X42431Y114952D01*
X42352Y114958D01*
X42272Y114960D01*
X37404Y114960D01*
X37261Y114958D01*
X37118Y114952D01*
X36975Y114942D01*
X36833Y114928D01*
X36691Y114911D01*
X36549Y114889D01*
X36408Y114864D01*
X36268Y114834D01*
X36129Y114801D01*
X35991Y114764D01*
X35854Y114723D01*
X35718Y114679D01*
X35583Y114630D01*
X35450Y114578D01*
X35318Y114523D01*
X35188Y114463D01*
X35059Y114400D01*
X34932Y114334D01*
X34808Y114264D01*
X34685Y114191D01*
X34564Y114114D01*
X34445Y114034D01*
X34329Y113951D01*
X34214Y113865D01*
X34103Y113776D01*
X33993Y113683D01*
X33887Y113588D01*
X33783Y113489D01*
X33682Y113388D01*
X33583Y113284D01*
X33488Y113178D01*
X33395Y113068D01*
X33306Y112957D01*
X33220Y112842D01*
X33137Y112726D01*
X33057Y112607D01*
X32980Y112486D01*
X32907Y112364D01*
X32837Y112239D01*
X32771Y112112D01*
X32708Y111983D01*
X32648Y111853D01*
X32593Y111721D01*
X32541Y111588D01*
X32492Y111453D01*
X32448Y111317D01*
X32407Y111180D01*
X32370Y111042D01*
X32337Y110903D01*
X32307Y110763D01*
X32282Y110622D01*
X32260Y110480D01*
X32243Y110338D01*
X32229Y110196D01*
X32219Y110053D01*
X32213Y109910D01*
X32211Y109767D01*
X32213Y109624D01*
X32219Y109481D01*
X32229Y109338D01*
X32243Y109196D01*
X32260Y109054D01*
X32282Y108912D01*
X32307Y108771D01*
X32337Y108631D01*
X32370Y108492D01*
X32407Y108354D01*
X32448Y108217D01*
X32492Y108081D01*
X32541Y107946D01*
X32593Y107813D01*
X32648Y107681D01*
X32708Y107551D01*
X32771Y107422D01*
X32837Y107295D01*
X32907Y107171D01*
X32980Y107048D01*
X33057Y106927D01*
X33137Y106808D01*
X33220Y106692D01*
X33306Y106577D01*
X33395Y106466D01*
X33488Y106356D01*
X33583Y106250D01*
X33682Y106146D01*
X33783Y106045D01*
X33887Y105946D01*
X33993Y105851D01*
X34103Y105758D01*
X34214Y105669D01*
X34329Y105583D01*
X34445Y105500D01*
X34564Y105420D01*
X34685Y105343D01*
X34807Y105270D01*
X34932Y105200D01*
X35059Y105134D01*
X35188Y105071D01*
X35318Y105011D01*
X35450Y104956D01*
X35583Y104904D01*
X35718Y104855D01*
X35854Y104811D01*
X35991Y104770D01*
X36129Y104733D01*
X36268Y104700D01*
X36408Y104670D01*
X36549Y104645D01*
X36691Y104623D01*
X36833Y104606D01*
X36975Y104592D01*
X37118Y104582D01*
X37261Y104576D01*
X37404Y104574D01*
X42921Y104574D01*
X43059Y104576D01*
X43197Y104582D01*
X43335Y104592D01*
X43473Y104605D01*
X43610Y104623D01*
X43747Y104644D01*
X43883Y104670D01*
X44018Y104699D01*
X44152Y104732D01*
X44285Y104769D01*
X44418Y104809D01*
X44549Y104853D01*
X44678Y104901D01*
X44807Y104953D01*
X44933Y105008D01*
X45059Y105067D01*
X45182Y105129D01*
X45304Y105195D01*
X45423Y105264D01*
X45541Y105337D01*
X45657Y105413D01*
X45770Y105492D01*
X45881Y105574D01*
X45990Y105660D01*
X46096Y105748D01*
X46200Y105840D01*
X46301Y105934D01*
X46399Y106031D01*
X46495Y106131D01*
X46588Y106234D01*
X46677Y106339D01*
X46764Y106447D01*
X46848Y106557D01*
X46928Y106669D01*
X47006Y106784D01*
X47080Y106901D01*
X47150Y107019D01*
X47218Y107140D01*
X47281Y107263D01*
X47342Y107387D01*
X47399Y107513D01*
X47452Y107641D01*
X47501Y107770D01*
X47547Y107901D01*
X47589Y108032D01*
X47628Y108165D01*
X47662Y108299D01*
X47693Y108434D01*
X47720Y108569D01*
X47743Y108706D01*
X47763Y108843D01*
X47778Y108980D01*
X47789Y109118D01*
X45842Y121112D02*
X38053Y121112D01*
X38053Y126954D01*
X38055Y127041D01*
X38061Y127129D01*
X38071Y127215D01*
X38084Y127302D01*
X38102Y127387D01*
X38123Y127472D01*
X38148Y127556D01*
X38177Y127638D01*
X38210Y127719D01*
X38246Y127799D01*
X38285Y127877D01*
X38329Y127953D01*
X38375Y128027D01*
X38425Y128098D01*
X38478Y128168D01*
X38534Y128235D01*
X38593Y128299D01*
X38655Y128361D01*
X38719Y128420D01*
X38786Y128476D01*
X38856Y128529D01*
X38927Y128579D01*
X39001Y128625D01*
X39077Y128669D01*
X39155Y128708D01*
X39235Y128744D01*
X39316Y128777D01*
X39398Y128806D01*
X39482Y128831D01*
X39567Y128852D01*
X39652Y128870D01*
X39739Y128883D01*
X39825Y128893D01*
X39913Y128899D01*
X40000Y128901D01*
X45842Y128901D01*
X45842Y125007D02*
X38053Y125007D01*
X41298Y136434D02*
X41298Y139355D01*
X41298Y136434D02*
X41300Y136340D01*
X41306Y136246D01*
X41315Y136153D01*
X41329Y136060D01*
X41346Y135968D01*
X41368Y135876D01*
X41392Y135786D01*
X41421Y135696D01*
X41453Y135608D01*
X41489Y135521D01*
X41529Y135436D01*
X41572Y135353D01*
X41618Y135271D01*
X41668Y135191D01*
X41721Y135114D01*
X41777Y135039D01*
X41836Y134966D01*
X41898Y134895D01*
X41963Y134827D01*
X42031Y134762D01*
X42102Y134700D01*
X42175Y134641D01*
X42250Y134585D01*
X42327Y134532D01*
X42407Y134482D01*
X42489Y134436D01*
X42572Y134393D01*
X42657Y134353D01*
X42744Y134317D01*
X42832Y134285D01*
X42922Y134256D01*
X43012Y134232D01*
X43104Y134210D01*
X43196Y134193D01*
X43289Y134179D01*
X43382Y134170D01*
X43476Y134164D01*
X43570Y134162D01*
X43664Y134164D01*
X43758Y134170D01*
X43851Y134179D01*
X43944Y134193D01*
X44036Y134210D01*
X44128Y134232D01*
X44218Y134256D01*
X44308Y134285D01*
X44396Y134317D01*
X44483Y134353D01*
X44568Y134393D01*
X44651Y134436D01*
X44733Y134482D01*
X44813Y134532D01*
X44890Y134585D01*
X44965Y134641D01*
X45038Y134700D01*
X45109Y134762D01*
X45177Y134827D01*
X45242Y134895D01*
X45304Y134966D01*
X45363Y135039D01*
X45419Y135114D01*
X45472Y135191D01*
X45522Y135271D01*
X45568Y135353D01*
X45611Y135436D01*
X45651Y135521D01*
X45687Y135608D01*
X45719Y135696D01*
X45748Y135786D01*
X45772Y135876D01*
X45794Y135968D01*
X45811Y136060D01*
X45825Y136153D01*
X45834Y136246D01*
X45840Y136340D01*
X45842Y136434D01*
X45842Y139355D01*
X40000Y139355D01*
X39913Y139353D01*
X39825Y139347D01*
X39739Y139337D01*
X39652Y139324D01*
X39567Y139306D01*
X39482Y139285D01*
X39398Y139260D01*
X39316Y139231D01*
X39235Y139198D01*
X39155Y139162D01*
X39077Y139123D01*
X39001Y139079D01*
X38927Y139033D01*
X38856Y138983D01*
X38786Y138930D01*
X38719Y138874D01*
X38655Y138815D01*
X38593Y138753D01*
X38534Y138689D01*
X38478Y138622D01*
X38425Y138552D01*
X38375Y138481D01*
X38329Y138407D01*
X38285Y138331D01*
X38246Y138253D01*
X38210Y138173D01*
X38177Y138092D01*
X38148Y138010D01*
X38123Y137926D01*
X38102Y137841D01*
X38084Y137756D01*
X38071Y137669D01*
X38061Y137583D01*
X38055Y137495D01*
X38053Y137408D01*
X38053Y134812D01*
X34158Y145025D02*
X45842Y145025D01*
X41947Y145025D02*
X38053Y150218D01*
X40325Y147297D02*
X45842Y150218D01*
X45842Y156362D02*
X45842Y159607D01*
X45842Y156362D02*
X45840Y156275D01*
X45834Y156187D01*
X45824Y156101D01*
X45811Y156014D01*
X45793Y155929D01*
X45772Y155844D01*
X45747Y155760D01*
X45718Y155678D01*
X45685Y155597D01*
X45649Y155517D01*
X45610Y155439D01*
X45566Y155363D01*
X45520Y155289D01*
X45470Y155218D01*
X45417Y155148D01*
X45361Y155081D01*
X45302Y155017D01*
X45240Y154955D01*
X45176Y154896D01*
X45109Y154840D01*
X45039Y154787D01*
X44968Y154737D01*
X44894Y154691D01*
X44818Y154647D01*
X44740Y154608D01*
X44660Y154572D01*
X44579Y154539D01*
X44497Y154510D01*
X44413Y154485D01*
X44328Y154464D01*
X44243Y154446D01*
X44156Y154433D01*
X44070Y154423D01*
X43982Y154417D01*
X43895Y154415D01*
X43895Y154414D02*
X40649Y154414D01*
X40649Y154415D02*
X40548Y154417D01*
X40448Y154423D01*
X40348Y154433D01*
X40248Y154446D01*
X40149Y154464D01*
X40050Y154485D01*
X39953Y154510D01*
X39856Y154539D01*
X39761Y154572D01*
X39667Y154608D01*
X39575Y154648D01*
X39484Y154691D01*
X39395Y154738D01*
X39308Y154788D01*
X39222Y154842D01*
X39139Y154899D01*
X39059Y154959D01*
X38980Y155022D01*
X38904Y155089D01*
X38831Y155158D01*
X38761Y155230D01*
X38693Y155304D01*
X38628Y155381D01*
X38567Y155461D01*
X38508Y155543D01*
X38453Y155627D01*
X38401Y155713D01*
X38352Y155801D01*
X38307Y155891D01*
X38265Y155983D01*
X38227Y156076D01*
X38193Y156171D01*
X38162Y156266D01*
X38135Y156363D01*
X38112Y156461D01*
X38092Y156560D01*
X38077Y156660D01*
X38065Y156760D01*
X38057Y156860D01*
X38053Y156961D01*
X38053Y157061D01*
X38057Y157162D01*
X38065Y157262D01*
X38077Y157362D01*
X38092Y157462D01*
X38112Y157561D01*
X38135Y157659D01*
X38162Y157756D01*
X38193Y157851D01*
X38227Y157946D01*
X38265Y158039D01*
X38307Y158131D01*
X38352Y158221D01*
X38401Y158309D01*
X38453Y158395D01*
X38508Y158479D01*
X38567Y158561D01*
X38628Y158641D01*
X38693Y158718D01*
X38761Y158792D01*
X38831Y158864D01*
X38904Y158933D01*
X38980Y159000D01*
X39059Y159063D01*
X39139Y159123D01*
X39222Y159180D01*
X39308Y159234D01*
X39395Y159284D01*
X39484Y159331D01*
X39575Y159374D01*
X39667Y159414D01*
X39761Y159450D01*
X39856Y159483D01*
X39953Y159512D01*
X40050Y159537D01*
X40149Y159558D01*
X40248Y159576D01*
X40348Y159589D01*
X40448Y159599D01*
X40548Y159605D01*
X40649Y159607D01*
X41947Y159607D01*
X41947Y154414D01*
X45842Y164768D02*
X38053Y164768D01*
X38053Y168662D01*
X39351Y168662D01*
X45193Y171926D02*
X45842Y171926D01*
X45193Y171926D02*
X45193Y172575D01*
X45842Y172575D01*
X45842Y171926D01*
X45842Y177500D02*
X38053Y177500D01*
X38053Y183342D01*
X38055Y183429D01*
X38061Y183517D01*
X38071Y183603D01*
X38084Y183690D01*
X38102Y183775D01*
X38123Y183860D01*
X38148Y183944D01*
X38177Y184026D01*
X38210Y184107D01*
X38246Y184187D01*
X38285Y184265D01*
X38329Y184341D01*
X38375Y184415D01*
X38425Y184486D01*
X38478Y184556D01*
X38534Y184623D01*
X38593Y184687D01*
X38655Y184749D01*
X38719Y184808D01*
X38786Y184864D01*
X38856Y184917D01*
X38927Y184967D01*
X39001Y185013D01*
X39077Y185057D01*
X39155Y185096D01*
X39235Y185132D01*
X39316Y185165D01*
X39398Y185194D01*
X39482Y185219D01*
X39567Y185240D01*
X39652Y185258D01*
X39739Y185271D01*
X39825Y185281D01*
X39913Y185287D01*
X40000Y185289D01*
X45842Y185289D01*
X45842Y181395D02*
X38053Y181395D01*
X40649Y190609D02*
X43246Y190609D01*
X40649Y190610D02*
X40548Y190612D01*
X40448Y190618D01*
X40348Y190628D01*
X40248Y190641D01*
X40149Y190659D01*
X40050Y190680D01*
X39953Y190705D01*
X39856Y190734D01*
X39761Y190767D01*
X39667Y190803D01*
X39575Y190843D01*
X39484Y190886D01*
X39395Y190933D01*
X39308Y190983D01*
X39222Y191037D01*
X39139Y191094D01*
X39059Y191154D01*
X38980Y191217D01*
X38904Y191284D01*
X38831Y191353D01*
X38761Y191425D01*
X38693Y191499D01*
X38628Y191576D01*
X38567Y191656D01*
X38508Y191738D01*
X38453Y191822D01*
X38401Y191908D01*
X38352Y191996D01*
X38307Y192086D01*
X38265Y192178D01*
X38227Y192271D01*
X38193Y192366D01*
X38162Y192461D01*
X38135Y192558D01*
X38112Y192656D01*
X38092Y192755D01*
X38077Y192855D01*
X38065Y192955D01*
X38057Y193055D01*
X38053Y193156D01*
X38053Y193256D01*
X38057Y193357D01*
X38065Y193457D01*
X38077Y193557D01*
X38092Y193657D01*
X38112Y193756D01*
X38135Y193854D01*
X38162Y193951D01*
X38193Y194046D01*
X38227Y194141D01*
X38265Y194234D01*
X38307Y194326D01*
X38352Y194416D01*
X38401Y194504D01*
X38453Y194590D01*
X38508Y194674D01*
X38567Y194756D01*
X38628Y194836D01*
X38693Y194913D01*
X38761Y194987D01*
X38831Y195059D01*
X38904Y195128D01*
X38980Y195195D01*
X39059Y195258D01*
X39139Y195318D01*
X39222Y195375D01*
X39308Y195429D01*
X39395Y195479D01*
X39484Y195526D01*
X39575Y195569D01*
X39667Y195609D01*
X39761Y195645D01*
X39856Y195678D01*
X39953Y195707D01*
X40050Y195732D01*
X40149Y195753D01*
X40248Y195771D01*
X40348Y195784D01*
X40448Y195794D01*
X40548Y195800D01*
X40649Y195802D01*
X43246Y195802D01*
X43347Y195800D01*
X43447Y195794D01*
X43547Y195784D01*
X43647Y195771D01*
X43746Y195753D01*
X43845Y195732D01*
X43942Y195707D01*
X44039Y195678D01*
X44134Y195645D01*
X44228Y195609D01*
X44320Y195569D01*
X44411Y195526D01*
X44500Y195479D01*
X44587Y195429D01*
X44673Y195375D01*
X44756Y195318D01*
X44836Y195258D01*
X44915Y195195D01*
X44991Y195128D01*
X45064Y195059D01*
X45134Y194987D01*
X45202Y194913D01*
X45267Y194836D01*
X45328Y194756D01*
X45387Y194674D01*
X45442Y194590D01*
X45494Y194504D01*
X45543Y194416D01*
X45588Y194326D01*
X45630Y194234D01*
X45668Y194141D01*
X45702Y194046D01*
X45733Y193951D01*
X45760Y193854D01*
X45783Y193756D01*
X45803Y193657D01*
X45818Y193557D01*
X45830Y193457D01*
X45838Y193357D01*
X45842Y193256D01*
X45842Y193156D01*
X45838Y193055D01*
X45830Y192955D01*
X45818Y192855D01*
X45803Y192755D01*
X45783Y192656D01*
X45760Y192558D01*
X45733Y192461D01*
X45702Y192366D01*
X45668Y192271D01*
X45630Y192178D01*
X45588Y192086D01*
X45543Y191996D01*
X45494Y191908D01*
X45442Y191822D01*
X45387Y191738D01*
X45328Y191656D01*
X45267Y191576D01*
X45202Y191499D01*
X45134Y191425D01*
X45064Y191353D01*
X44991Y191284D01*
X44915Y191217D01*
X44836Y191154D01*
X44756Y191094D01*
X44673Y191037D01*
X44587Y190983D01*
X44500Y190933D01*
X44411Y190886D01*
X44320Y190843D01*
X44228Y190803D01*
X44134Y190767D01*
X44039Y190734D01*
X43942Y190705D01*
X43845Y190680D01*
X43746Y190659D01*
X43647Y190641D01*
X43547Y190628D01*
X43447Y190618D01*
X43347Y190612D01*
X43246Y190610D01*
X45842Y202463D02*
X45842Y205708D01*
X45842Y202463D02*
X45840Y202376D01*
X45834Y202288D01*
X45824Y202202D01*
X45811Y202115D01*
X45793Y202030D01*
X45772Y201945D01*
X45747Y201861D01*
X45718Y201779D01*
X45685Y201698D01*
X45649Y201618D01*
X45610Y201540D01*
X45566Y201464D01*
X45520Y201390D01*
X45470Y201319D01*
X45417Y201249D01*
X45361Y201182D01*
X45302Y201118D01*
X45240Y201056D01*
X45176Y200997D01*
X45109Y200941D01*
X45039Y200888D01*
X44968Y200838D01*
X44894Y200792D01*
X44818Y200748D01*
X44740Y200709D01*
X44660Y200673D01*
X44579Y200640D01*
X44497Y200611D01*
X44413Y200586D01*
X44328Y200565D01*
X44243Y200547D01*
X44156Y200534D01*
X44070Y200524D01*
X43982Y200518D01*
X43895Y200516D01*
X43895Y200515D02*
X40649Y200515D01*
X40649Y200516D02*
X40548Y200518D01*
X40448Y200524D01*
X40348Y200534D01*
X40248Y200547D01*
X40149Y200565D01*
X40050Y200586D01*
X39953Y200611D01*
X39856Y200640D01*
X39761Y200673D01*
X39667Y200709D01*
X39575Y200749D01*
X39484Y200792D01*
X39395Y200839D01*
X39308Y200889D01*
X39222Y200943D01*
X39139Y201000D01*
X39059Y201060D01*
X38980Y201123D01*
X38904Y201190D01*
X38831Y201259D01*
X38761Y201331D01*
X38693Y201405D01*
X38628Y201482D01*
X38567Y201562D01*
X38508Y201644D01*
X38453Y201728D01*
X38401Y201814D01*
X38352Y201902D01*
X38307Y201992D01*
X38265Y202084D01*
X38227Y202177D01*
X38193Y202272D01*
X38162Y202367D01*
X38135Y202464D01*
X38112Y202562D01*
X38092Y202661D01*
X38077Y202761D01*
X38065Y202861D01*
X38057Y202961D01*
X38053Y203062D01*
X38053Y203162D01*
X38057Y203263D01*
X38065Y203363D01*
X38077Y203463D01*
X38092Y203563D01*
X38112Y203662D01*
X38135Y203760D01*
X38162Y203857D01*
X38193Y203952D01*
X38227Y204047D01*
X38265Y204140D01*
X38307Y204232D01*
X38352Y204322D01*
X38401Y204410D01*
X38453Y204496D01*
X38508Y204580D01*
X38567Y204662D01*
X38628Y204742D01*
X38693Y204819D01*
X38761Y204893D01*
X38831Y204965D01*
X38904Y205034D01*
X38980Y205101D01*
X39059Y205164D01*
X39139Y205224D01*
X39222Y205281D01*
X39308Y205335D01*
X39395Y205385D01*
X39484Y205432D01*
X39575Y205475D01*
X39667Y205515D01*
X39761Y205551D01*
X39856Y205584D01*
X39953Y205613D01*
X40050Y205638D01*
X40149Y205659D01*
X40248Y205677D01*
X40348Y205690D01*
X40448Y205700D01*
X40548Y205706D01*
X40649Y205708D01*
X41947Y205708D01*
X41947Y200515D01*
X45842Y210938D02*
X34158Y210938D01*
X38053Y216131D02*
X41947Y210938D01*
X40325Y213210D02*
X45842Y216131D01*
X43246Y220327D02*
X40649Y220327D01*
X40649Y220328D02*
X40548Y220330D01*
X40448Y220336D01*
X40348Y220346D01*
X40248Y220359D01*
X40149Y220377D01*
X40050Y220398D01*
X39953Y220423D01*
X39856Y220452D01*
X39761Y220485D01*
X39667Y220521D01*
X39575Y220561D01*
X39484Y220604D01*
X39395Y220651D01*
X39308Y220701D01*
X39222Y220755D01*
X39139Y220812D01*
X39059Y220872D01*
X38980Y220935D01*
X38904Y221002D01*
X38831Y221071D01*
X38761Y221143D01*
X38693Y221217D01*
X38628Y221294D01*
X38567Y221374D01*
X38508Y221456D01*
X38453Y221540D01*
X38401Y221626D01*
X38352Y221714D01*
X38307Y221804D01*
X38265Y221896D01*
X38227Y221989D01*
X38193Y222084D01*
X38162Y222179D01*
X38135Y222276D01*
X38112Y222374D01*
X38092Y222473D01*
X38077Y222573D01*
X38065Y222673D01*
X38057Y222773D01*
X38053Y222874D01*
X38053Y222974D01*
X38057Y223075D01*
X38065Y223175D01*
X38077Y223275D01*
X38092Y223375D01*
X38112Y223474D01*
X38135Y223572D01*
X38162Y223669D01*
X38193Y223764D01*
X38227Y223859D01*
X38265Y223952D01*
X38307Y224044D01*
X38352Y224134D01*
X38401Y224222D01*
X38453Y224308D01*
X38508Y224392D01*
X38567Y224474D01*
X38628Y224554D01*
X38693Y224631D01*
X38761Y224705D01*
X38831Y224777D01*
X38904Y224846D01*
X38980Y224913D01*
X39059Y224976D01*
X39139Y225036D01*
X39222Y225093D01*
X39308Y225147D01*
X39395Y225197D01*
X39484Y225244D01*
X39575Y225287D01*
X39667Y225327D01*
X39761Y225363D01*
X39856Y225396D01*
X39953Y225425D01*
X40050Y225450D01*
X40149Y225471D01*
X40248Y225489D01*
X40348Y225502D01*
X40448Y225512D01*
X40548Y225518D01*
X40649Y225520D01*
X43246Y225520D01*
X43347Y225518D01*
X43447Y225512D01*
X43547Y225502D01*
X43647Y225489D01*
X43746Y225471D01*
X43845Y225450D01*
X43942Y225425D01*
X44039Y225396D01*
X44134Y225363D01*
X44228Y225327D01*
X44320Y225287D01*
X44411Y225244D01*
X44500Y225197D01*
X44587Y225147D01*
X44673Y225093D01*
X44756Y225036D01*
X44836Y224976D01*
X44915Y224913D01*
X44991Y224846D01*
X45064Y224777D01*
X45134Y224705D01*
X45202Y224631D01*
X45267Y224554D01*
X45328Y224474D01*
X45387Y224392D01*
X45442Y224308D01*
X45494Y224222D01*
X45543Y224134D01*
X45588Y224044D01*
X45630Y223952D01*
X45668Y223859D01*
X45702Y223764D01*
X45733Y223669D01*
X45760Y223572D01*
X45783Y223474D01*
X45803Y223375D01*
X45818Y223275D01*
X45830Y223175D01*
X45838Y223075D01*
X45842Y222974D01*
X45842Y222874D01*
X45838Y222773D01*
X45830Y222673D01*
X45818Y222573D01*
X45803Y222473D01*
X45783Y222374D01*
X45760Y222276D01*
X45733Y222179D01*
X45702Y222084D01*
X45668Y221989D01*
X45630Y221896D01*
X45588Y221804D01*
X45543Y221714D01*
X45494Y221626D01*
X45442Y221540D01*
X45387Y221456D01*
X45328Y221374D01*
X45267Y221294D01*
X45202Y221217D01*
X45134Y221143D01*
X45064Y221071D01*
X44991Y221002D01*
X44915Y220935D01*
X44836Y220872D01*
X44756Y220812D01*
X44673Y220755D01*
X44587Y220701D01*
X44500Y220651D01*
X44411Y220604D01*
X44320Y220561D01*
X44228Y220521D01*
X44134Y220485D01*
X44039Y220452D01*
X43942Y220423D01*
X43845Y220398D01*
X43746Y220377D01*
X43647Y220359D01*
X43547Y220346D01*
X43447Y220336D01*
X43347Y220330D01*
X43246Y220328D01*
X45842Y232181D02*
X45842Y235426D01*
X45842Y232181D02*
X45840Y232094D01*
X45834Y232006D01*
X45824Y231920D01*
X45811Y231833D01*
X45793Y231748D01*
X45772Y231663D01*
X45747Y231579D01*
X45718Y231497D01*
X45685Y231416D01*
X45649Y231336D01*
X45610Y231258D01*
X45566Y231182D01*
X45520Y231108D01*
X45470Y231037D01*
X45417Y230967D01*
X45361Y230900D01*
X45302Y230836D01*
X45240Y230774D01*
X45176Y230715D01*
X45109Y230659D01*
X45039Y230606D01*
X44968Y230556D01*
X44894Y230510D01*
X44818Y230466D01*
X44740Y230427D01*
X44660Y230391D01*
X44579Y230358D01*
X44497Y230329D01*
X44413Y230304D01*
X44328Y230283D01*
X44243Y230265D01*
X44156Y230252D01*
X44070Y230242D01*
X43982Y230236D01*
X43895Y230234D01*
X43895Y230233D02*
X40649Y230233D01*
X40649Y230234D02*
X40548Y230236D01*
X40448Y230242D01*
X40348Y230252D01*
X40248Y230265D01*
X40149Y230283D01*
X40050Y230304D01*
X39953Y230329D01*
X39856Y230358D01*
X39761Y230391D01*
X39667Y230427D01*
X39575Y230467D01*
X39484Y230510D01*
X39395Y230557D01*
X39308Y230607D01*
X39222Y230661D01*
X39139Y230718D01*
X39059Y230778D01*
X38980Y230841D01*
X38904Y230908D01*
X38831Y230977D01*
X38761Y231049D01*
X38693Y231123D01*
X38628Y231200D01*
X38567Y231280D01*
X38508Y231362D01*
X38453Y231446D01*
X38401Y231532D01*
X38352Y231620D01*
X38307Y231710D01*
X38265Y231802D01*
X38227Y231895D01*
X38193Y231990D01*
X38162Y232085D01*
X38135Y232182D01*
X38112Y232280D01*
X38092Y232379D01*
X38077Y232479D01*
X38065Y232579D01*
X38057Y232679D01*
X38053Y232780D01*
X38053Y232880D01*
X38057Y232981D01*
X38065Y233081D01*
X38077Y233181D01*
X38092Y233281D01*
X38112Y233380D01*
X38135Y233478D01*
X38162Y233575D01*
X38193Y233670D01*
X38227Y233765D01*
X38265Y233858D01*
X38307Y233950D01*
X38352Y234040D01*
X38401Y234128D01*
X38453Y234214D01*
X38508Y234298D01*
X38567Y234380D01*
X38628Y234460D01*
X38693Y234537D01*
X38761Y234611D01*
X38831Y234683D01*
X38904Y234752D01*
X38980Y234819D01*
X39059Y234882D01*
X39139Y234942D01*
X39222Y234999D01*
X39308Y235053D01*
X39395Y235103D01*
X39484Y235150D01*
X39575Y235193D01*
X39667Y235233D01*
X39761Y235269D01*
X39856Y235302D01*
X39953Y235331D01*
X40050Y235356D01*
X40149Y235377D01*
X40248Y235395D01*
X40348Y235408D01*
X40448Y235418D01*
X40548Y235424D01*
X40649Y235426D01*
X41947Y235426D01*
X41947Y230233D01*
D11*
X22000Y108000D02*
X22005Y107565D01*
X22021Y107130D01*
X22047Y106696D01*
X22084Y106263D01*
X22131Y105830D01*
X22189Y105399D01*
X22257Y104970D01*
X22335Y104542D01*
X22424Y104116D01*
X22523Y103692D01*
X22632Y103271D01*
X22752Y102853D01*
X22881Y102438D01*
X23020Y102026D01*
X23170Y101617D01*
X23329Y101212D01*
X23498Y100811D01*
X23676Y100415D01*
X23864Y100023D01*
X24062Y99635D01*
X24269Y99252D01*
X24485Y98875D01*
X24710Y98502D01*
X24944Y98136D01*
X25186Y97775D01*
X25438Y97420D01*
X25698Y97071D01*
X25966Y96729D01*
X26242Y96393D01*
X26527Y96064D01*
X26819Y95742D01*
X27119Y95427D01*
X27427Y95119D01*
X27742Y94819D01*
X28064Y94527D01*
X28393Y94242D01*
X28729Y93966D01*
X29071Y93698D01*
X29420Y93438D01*
X29775Y93186D01*
X30136Y92944D01*
X30502Y92710D01*
X30875Y92485D01*
X31252Y92269D01*
X31635Y92062D01*
X32023Y91864D01*
X32415Y91676D01*
X32811Y91498D01*
X33212Y91329D01*
X33617Y91170D01*
X34026Y91020D01*
X34438Y90881D01*
X34853Y90752D01*
X35271Y90632D01*
X35692Y90523D01*
X36116Y90424D01*
X36542Y90335D01*
X36970Y90257D01*
X37399Y90189D01*
X37830Y90131D01*
X38263Y90084D01*
X38696Y90047D01*
X39130Y90021D01*
X39565Y90005D01*
X40000Y90000D01*
X22000Y108000D02*
X22000Y232000D01*
X22005Y232435D01*
X22021Y232870D01*
X22047Y233304D01*
X22084Y233737D01*
X22131Y234170D01*
X22189Y234601D01*
X22257Y235030D01*
X22335Y235458D01*
X22424Y235884D01*
X22523Y236308D01*
X22632Y236729D01*
X22752Y237147D01*
X22881Y237562D01*
X23020Y237974D01*
X23170Y238383D01*
X23329Y238788D01*
X23498Y239189D01*
X23676Y239585D01*
X23864Y239977D01*
X24062Y240365D01*
X24269Y240748D01*
X24485Y241125D01*
X24710Y241498D01*
X24944Y241864D01*
X25186Y242225D01*
X25438Y242580D01*
X25698Y242929D01*
X25966Y243271D01*
X26242Y243607D01*
X26527Y243936D01*
X26819Y244258D01*
X27119Y244573D01*
X27427Y244881D01*
X27742Y245181D01*
X28064Y245473D01*
X28393Y245758D01*
X28729Y246034D01*
X29071Y246302D01*
X29420Y246562D01*
X29775Y246814D01*
X30136Y247056D01*
X30502Y247290D01*
X30875Y247515D01*
X31252Y247731D01*
X31635Y247938D01*
X32023Y248136D01*
X32415Y248324D01*
X32811Y248502D01*
X33212Y248671D01*
X33617Y248830D01*
X34026Y248980D01*
X34438Y249119D01*
X34853Y249248D01*
X35271Y249368D01*
X35692Y249477D01*
X36116Y249576D01*
X36542Y249665D01*
X36970Y249743D01*
X37399Y249811D01*
X37830Y249869D01*
X38263Y249916D01*
X38696Y249953D01*
X39130Y249979D01*
X39565Y249995D01*
X40000Y250000D01*
X40435Y249995D01*
X40870Y249979D01*
X41304Y249953D01*
X41737Y249916D01*
X42170Y249869D01*
X42601Y249811D01*
X43030Y249743D01*
X43458Y249665D01*
X43884Y249576D01*
X44308Y249477D01*
X44729Y249368D01*
X45147Y249248D01*
X45562Y249119D01*
X45974Y248980D01*
X46383Y248830D01*
X46788Y248671D01*
X47189Y248502D01*
X47585Y248324D01*
X47977Y248136D01*
X48365Y247938D01*
X48748Y247731D01*
X49125Y247515D01*
X49498Y247290D01*
X49864Y247056D01*
X50225Y246814D01*
X50580Y246562D01*
X50929Y246302D01*
X51271Y246034D01*
X51607Y245758D01*
X51936Y245473D01*
X52258Y245181D01*
X52573Y244881D01*
X52881Y244573D01*
X53181Y244258D01*
X53473Y243936D01*
X53758Y243607D01*
X54034Y243271D01*
X54302Y242929D01*
X54562Y242580D01*
X54814Y242225D01*
X55056Y241864D01*
X55290Y241498D01*
X55515Y241125D01*
X55731Y240748D01*
X55938Y240365D01*
X56136Y239977D01*
X56324Y239585D01*
X56502Y239189D01*
X56671Y238788D01*
X56830Y238383D01*
X56980Y237974D01*
X57119Y237562D01*
X57248Y237147D01*
X57368Y236729D01*
X57477Y236308D01*
X57576Y235884D01*
X57665Y235458D01*
X57743Y235030D01*
X57811Y234601D01*
X57869Y234170D01*
X57916Y233737D01*
X57953Y233304D01*
X57979Y232870D01*
X57995Y232435D01*
X58000Y232000D01*
X58000Y108000D01*
X57995Y107565D01*
X57979Y107130D01*
X57953Y106696D01*
X57916Y106263D01*
X57869Y105830D01*
X57811Y105399D01*
X57743Y104970D01*
X57665Y104542D01*
X57576Y104116D01*
X57477Y103692D01*
X57368Y103271D01*
X57248Y102853D01*
X57119Y102438D01*
X56980Y102026D01*
X56830Y101617D01*
X56671Y101212D01*
X56502Y100811D01*
X56324Y100415D01*
X56136Y100023D01*
X55938Y99635D01*
X55731Y99252D01*
X55515Y98875D01*
X55290Y98502D01*
X55056Y98136D01*
X54814Y97775D01*
X54562Y97420D01*
X54302Y97071D01*
X54034Y96729D01*
X53758Y96393D01*
X53473Y96064D01*
X53181Y95742D01*
X52881Y95427D01*
X52573Y95119D01*
X52258Y94819D01*
X51936Y94527D01*
X51607Y94242D01*
X51271Y93966D01*
X50929Y93698D01*
X50580Y93438D01*
X50225Y93186D01*
X49864Y92944D01*
X49498Y92710D01*
X49125Y92485D01*
X48748Y92269D01*
X48365Y92062D01*
X47977Y91864D01*
X47585Y91676D01*
X47189Y91498D01*
X46788Y91329D01*
X46383Y91170D01*
X45974Y91020D01*
X45562Y90881D01*
X45147Y90752D01*
X44729Y90632D01*
X44308Y90523D01*
X43884Y90424D01*
X43458Y90335D01*
X43030Y90257D01*
X42601Y90189D01*
X42170Y90131D01*
X41737Y90084D01*
X41304Y90047D01*
X40870Y90021D01*
X40435Y90005D01*
X40000Y90000D01*
D12*
X631300Y213700D02*
X648700Y213700D01*
X648700Y196300D01*
X631300Y196300D01*
X631300Y213700D01*
X631300Y198770D02*
X648700Y198770D01*
X648700Y201240D02*
X631300Y201240D01*
X631300Y203710D02*
X648700Y203710D01*
X648700Y206180D02*
X631300Y206180D01*
X631300Y208650D02*
X648700Y208650D01*
X648700Y211120D02*
X631300Y211120D01*
X631300Y213590D02*
X648700Y213590D01*
X588700Y213700D02*
X571300Y213700D01*
X588700Y213700D02*
X588700Y196300D01*
X571300Y196300D01*
X571300Y213700D01*
X571300Y198770D02*
X588700Y198770D01*
X588700Y201240D02*
X571300Y201240D01*
X571300Y203710D02*
X588700Y203710D01*
X588700Y206180D02*
X571300Y206180D01*
X571300Y208650D02*
X588700Y208650D01*
X588700Y211120D02*
X571300Y211120D01*
X571300Y213590D02*
X588700Y213590D01*
X631300Y298700D02*
X648700Y298700D01*
X648700Y281300D01*
X631300Y281300D01*
X631300Y298700D01*
X631300Y283770D02*
X648700Y283770D01*
X648700Y286240D02*
X631300Y286240D01*
X631300Y288710D02*
X648700Y288710D01*
X648700Y291180D02*
X631300Y291180D01*
X631300Y293650D02*
X648700Y293650D01*
X648700Y296120D02*
X631300Y296120D01*
X631300Y298590D02*
X648700Y298590D01*
X588700Y298700D02*
X571300Y298700D01*
X588700Y298700D02*
X588700Y281300D01*
X571300Y281300D01*
X571300Y298700D01*
X571300Y283770D02*
X588700Y283770D01*
X588700Y286240D02*
X571300Y286240D01*
X571300Y288710D02*
X588700Y288710D01*
X588700Y291180D02*
X571300Y291180D01*
X571300Y293650D02*
X588700Y293650D01*
X588700Y296120D02*
X571300Y296120D01*
X571300Y298590D02*
X588700Y298590D01*
X631300Y383700D02*
X648700Y383700D01*
X648700Y366300D01*
X631300Y366300D01*
X631300Y383700D01*
X631300Y368770D02*
X648700Y368770D01*
X648700Y371240D02*
X631300Y371240D01*
X631300Y373710D02*
X648700Y373710D01*
X648700Y376180D02*
X631300Y376180D01*
X631300Y378650D02*
X648700Y378650D01*
X648700Y381120D02*
X631300Y381120D01*
X631300Y383590D02*
X648700Y383590D01*
X588700Y383700D02*
X571300Y383700D01*
X588700Y383700D02*
X588700Y366300D01*
X571300Y366300D01*
X571300Y383700D01*
X571300Y368770D02*
X588700Y368770D01*
X588700Y371240D02*
X571300Y371240D01*
X571300Y373710D02*
X588700Y373710D01*
X588700Y376180D02*
X571300Y376180D01*
X571300Y378650D02*
X588700Y378650D01*
X588700Y381120D02*
X571300Y381120D01*
X571300Y383590D02*
X588700Y383590D01*
D13*
X552750Y443750D02*
X544250Y443750D01*
X552750Y443750D02*
X552750Y436250D01*
X544250Y436250D01*
X544250Y443750D01*
X544250Y438625D02*
X552750Y438625D01*
X552750Y441000D02*
X544250Y441000D01*
X544250Y443375D02*
X552750Y443375D01*
X535750Y443750D02*
X527250Y443750D01*
X535750Y443750D02*
X535750Y436250D01*
X527250Y436250D01*
X527250Y443750D01*
X527250Y438625D02*
X535750Y438625D01*
X535750Y441000D02*
X527250Y441000D01*
X527250Y443375D02*
X535750Y443375D01*
X253750Y522950D02*
X253750Y531450D01*
X253750Y522950D02*
X246250Y522950D01*
X246250Y531450D01*
X253750Y531450D01*
X253750Y525325D02*
X246250Y525325D01*
X246250Y527700D02*
X253750Y527700D01*
X253750Y530075D02*
X246250Y530075D01*
X253750Y539950D02*
X253750Y548450D01*
X253750Y539950D02*
X246250Y539950D01*
X246250Y548450D01*
X253750Y548450D01*
X253750Y542325D02*
X246250Y542325D01*
X246250Y544700D02*
X253750Y544700D01*
X253750Y547075D02*
X246250Y547075D01*
X273750Y531450D02*
X273750Y522950D01*
X266250Y522950D01*
X266250Y531450D01*
X273750Y531450D01*
X273750Y525325D02*
X266250Y525325D01*
X266250Y527700D02*
X273750Y527700D01*
X273750Y530075D02*
X266250Y530075D01*
X273750Y539950D02*
X273750Y548450D01*
X273750Y539950D02*
X266250Y539950D01*
X266250Y548450D01*
X273750Y548450D01*
X273750Y542325D02*
X266250Y542325D01*
X266250Y544700D02*
X273750Y544700D01*
X273750Y547075D02*
X266250Y547075D01*
X453750Y531450D02*
X453750Y522950D01*
X446250Y522950D01*
X446250Y531450D01*
X453750Y531450D01*
X453750Y525325D02*
X446250Y525325D01*
X446250Y527700D02*
X453750Y527700D01*
X453750Y530075D02*
X446250Y530075D01*
X453750Y539950D02*
X453750Y548450D01*
X453750Y539950D02*
X446250Y539950D01*
X446250Y548450D01*
X453750Y548450D01*
X453750Y542325D02*
X446250Y542325D01*
X446250Y544700D02*
X453750Y544700D01*
X453750Y547075D02*
X446250Y547075D01*
X313750Y531450D02*
X313750Y522950D01*
X306250Y522950D01*
X306250Y531450D01*
X313750Y531450D01*
X313750Y525325D02*
X306250Y525325D01*
X306250Y527700D02*
X313750Y527700D01*
X313750Y530075D02*
X306250Y530075D01*
X313750Y539950D02*
X313750Y548450D01*
X313750Y539950D02*
X306250Y539950D01*
X306250Y548450D01*
X313750Y548450D01*
X313750Y542325D02*
X306250Y542325D01*
X306250Y544700D02*
X313750Y544700D01*
X313750Y547075D02*
X306250Y547075D01*
X433750Y531450D02*
X433750Y522950D01*
X426250Y522950D01*
X426250Y531450D01*
X433750Y531450D01*
X433750Y525325D02*
X426250Y525325D01*
X426250Y527700D02*
X433750Y527700D01*
X433750Y530075D02*
X426250Y530075D01*
X433750Y539950D02*
X433750Y548450D01*
X433750Y539950D02*
X426250Y539950D01*
X426250Y548450D01*
X433750Y548450D01*
X433750Y542325D02*
X426250Y542325D01*
X426250Y544700D02*
X433750Y544700D01*
X433750Y547075D02*
X426250Y547075D01*
X544250Y503750D02*
X552750Y503750D01*
X552750Y496250D01*
X544250Y496250D01*
X544250Y503750D01*
X544250Y498625D02*
X552750Y498625D01*
X552750Y501000D02*
X544250Y501000D01*
X544250Y503375D02*
X552750Y503375D01*
X535750Y503750D02*
X527250Y503750D01*
X535750Y503750D02*
X535750Y496250D01*
X527250Y496250D01*
X527250Y503750D01*
X527250Y498625D02*
X535750Y498625D01*
X535750Y501000D02*
X527250Y501000D01*
X527250Y503375D02*
X535750Y503375D01*
X293750Y522950D02*
X293750Y531450D01*
X293750Y522950D02*
X286250Y522950D01*
X286250Y531450D01*
X293750Y531450D01*
X293750Y525325D02*
X286250Y525325D01*
X286250Y527700D02*
X293750Y527700D01*
X293750Y530075D02*
X286250Y530075D01*
X293750Y539950D02*
X293750Y548450D01*
X293750Y539950D02*
X286250Y539950D01*
X286250Y548450D01*
X293750Y548450D01*
X293750Y542325D02*
X286250Y542325D01*
X286250Y544700D02*
X293750Y544700D01*
X293750Y547075D02*
X286250Y547075D01*
X386250Y357750D02*
X386250Y349250D01*
X386250Y357750D02*
X393750Y357750D01*
X393750Y349250D01*
X386250Y349250D01*
X386250Y351625D02*
X393750Y351625D01*
X393750Y354000D02*
X386250Y354000D01*
X386250Y356375D02*
X393750Y356375D01*
X386250Y340750D02*
X386250Y332250D01*
X386250Y340750D02*
X393750Y340750D01*
X393750Y332250D01*
X386250Y332250D01*
X386250Y334625D02*
X393750Y334625D01*
X393750Y337000D02*
X386250Y337000D01*
X386250Y339375D02*
X393750Y339375D01*
X401250Y349250D02*
X401250Y357750D01*
X408750Y357750D01*
X408750Y349250D01*
X401250Y349250D01*
X401250Y351625D02*
X408750Y351625D01*
X408750Y354000D02*
X401250Y354000D01*
X401250Y356375D02*
X408750Y356375D01*
X401250Y340750D02*
X401250Y332250D01*
X401250Y340750D02*
X408750Y340750D01*
X408750Y332250D01*
X401250Y332250D01*
X401250Y334625D02*
X408750Y334625D01*
X408750Y337000D02*
X401250Y337000D01*
X401250Y339375D02*
X408750Y339375D01*
X306250Y349250D02*
X306250Y357750D01*
X313750Y357750D01*
X313750Y349250D01*
X306250Y349250D01*
X306250Y351625D02*
X313750Y351625D01*
X313750Y354000D02*
X306250Y354000D01*
X306250Y356375D02*
X313750Y356375D01*
X306250Y340750D02*
X306250Y332250D01*
X306250Y340750D02*
X313750Y340750D01*
X313750Y332250D01*
X306250Y332250D01*
X306250Y334625D02*
X313750Y334625D01*
X313750Y337000D02*
X306250Y337000D01*
X306250Y339375D02*
X313750Y339375D01*
D14*
X265740Y299040D02*
X262260Y299040D01*
X265740Y299040D02*
X265740Y294560D01*
X262260Y294560D01*
X262260Y299040D01*
X262260Y296954D02*
X265740Y296954D01*
X255740Y299040D02*
X252260Y299040D01*
X255740Y299040D02*
X255740Y294560D01*
X252260Y294560D01*
X252260Y299040D01*
X252260Y296954D02*
X255740Y296954D01*
X250240Y288940D02*
X250240Y285460D01*
X245760Y285460D01*
X245760Y288940D01*
X250240Y288940D01*
X250240Y287854D02*
X245760Y287854D01*
X250240Y295460D02*
X250240Y298940D01*
X250240Y295460D02*
X245760Y295460D01*
X245760Y298940D01*
X250240Y298940D01*
X250240Y297854D02*
X245760Y297854D01*
X272240Y288940D02*
X272240Y285460D01*
X267760Y285460D01*
X267760Y288940D01*
X272240Y288940D01*
X272240Y287854D02*
X267760Y287854D01*
X272240Y295460D02*
X272240Y298940D01*
X272240Y295460D02*
X267760Y295460D01*
X267760Y298940D01*
X272240Y298940D01*
X272240Y297854D02*
X267760Y297854D01*
D13*
X550750Y217250D02*
X550750Y209750D01*
X550750Y217250D02*
X559250Y217250D01*
X559250Y209750D01*
X550750Y209750D01*
X550750Y212125D02*
X559250Y212125D01*
X559250Y214500D02*
X550750Y214500D01*
X550750Y216875D02*
X559250Y216875D01*
X550750Y200250D02*
X550750Y192750D01*
X550750Y200250D02*
X559250Y200250D01*
X559250Y192750D01*
X550750Y192750D01*
X550750Y195125D02*
X559250Y195125D01*
X559250Y197500D02*
X550750Y197500D01*
X550750Y199875D02*
X559250Y199875D01*
X290750Y349750D02*
X290750Y357250D01*
X299250Y357250D01*
X299250Y349750D01*
X290750Y349750D01*
X290750Y352125D02*
X299250Y352125D01*
X299250Y354500D02*
X290750Y354500D01*
X290750Y356875D02*
X299250Y356875D01*
X290750Y340250D02*
X290750Y332750D01*
X290750Y340250D02*
X299250Y340250D01*
X299250Y332750D01*
X290750Y332750D01*
X290750Y335125D02*
X299250Y335125D01*
X299250Y337500D02*
X290750Y337500D01*
X290750Y339875D02*
X299250Y339875D01*
X550750Y302250D02*
X550750Y294750D01*
X550750Y302250D02*
X559250Y302250D01*
X559250Y294750D01*
X550750Y294750D01*
X550750Y297125D02*
X559250Y297125D01*
X559250Y299500D02*
X550750Y299500D01*
X550750Y301875D02*
X559250Y301875D01*
X550750Y285250D02*
X550750Y277750D01*
X550750Y285250D02*
X559250Y285250D01*
X559250Y277750D01*
X550750Y277750D01*
X550750Y280125D02*
X559250Y280125D01*
X559250Y282500D02*
X550750Y282500D01*
X550750Y284875D02*
X559250Y284875D01*
X394250Y523450D02*
X394250Y530950D01*
X394250Y523450D02*
X385750Y523450D01*
X385750Y530950D01*
X394250Y530950D01*
X394250Y525825D02*
X385750Y525825D01*
X385750Y528200D02*
X394250Y528200D01*
X394250Y530575D02*
X385750Y530575D01*
X394250Y540450D02*
X394250Y547950D01*
X394250Y540450D02*
X385750Y540450D01*
X385750Y547950D01*
X394250Y547950D01*
X394250Y542825D02*
X385750Y542825D01*
X385750Y545200D02*
X394250Y545200D01*
X394250Y547575D02*
X385750Y547575D01*
X414250Y530950D02*
X414250Y523450D01*
X405750Y523450D01*
X405750Y530950D01*
X414250Y530950D01*
X414250Y525825D02*
X405750Y525825D01*
X405750Y528200D02*
X414250Y528200D01*
X414250Y530575D02*
X405750Y530575D01*
X414250Y540450D02*
X414250Y547950D01*
X414250Y540450D02*
X405750Y540450D01*
X405750Y547950D01*
X414250Y547950D01*
X414250Y542825D02*
X405750Y542825D01*
X405750Y545200D02*
X414250Y545200D01*
X414250Y547575D02*
X405750Y547575D01*
X400750Y277250D02*
X400750Y269750D01*
X400750Y277250D02*
X409250Y277250D01*
X409250Y269750D01*
X400750Y269750D01*
X400750Y272125D02*
X409250Y272125D01*
X409250Y274500D02*
X400750Y274500D01*
X400750Y276875D02*
X409250Y276875D01*
X400750Y260250D02*
X400750Y252750D01*
X400750Y260250D02*
X409250Y260250D01*
X409250Y252750D01*
X400750Y252750D01*
X400750Y255125D02*
X409250Y255125D01*
X409250Y257500D02*
X400750Y257500D01*
X400750Y259875D02*
X409250Y259875D01*
X420750Y269750D02*
X420750Y277250D01*
X429250Y277250D01*
X429250Y269750D01*
X420750Y269750D01*
X420750Y272125D02*
X429250Y272125D01*
X429250Y274500D02*
X420750Y274500D01*
X420750Y276875D02*
X429250Y276875D01*
X420750Y260250D02*
X420750Y252750D01*
X420750Y260250D02*
X429250Y260250D01*
X429250Y252750D01*
X420750Y252750D01*
X420750Y255125D02*
X429250Y255125D01*
X429250Y257500D02*
X420750Y257500D01*
X420750Y259875D02*
X429250Y259875D01*
X550750Y379750D02*
X550750Y387250D01*
X559250Y387250D01*
X559250Y379750D01*
X550750Y379750D01*
X550750Y382125D02*
X559250Y382125D01*
X559250Y384500D02*
X550750Y384500D01*
X550750Y386875D02*
X559250Y386875D01*
X550750Y370250D02*
X550750Y362750D01*
X550750Y370250D02*
X559250Y370250D01*
X559250Y362750D01*
X550750Y362750D01*
X550750Y365125D02*
X559250Y365125D01*
X559250Y367500D02*
X550750Y367500D01*
X550750Y369875D02*
X559250Y369875D01*
D15*
X497000Y745000D03*
X497000Y795000D03*
X203000Y847000D03*
X203000Y693000D03*
D16*
X539000Y463300D02*
X541000Y463300D01*
X541000Y457300D01*
X539000Y457300D01*
X539000Y463300D01*
X539000Y459200D02*
X541000Y459200D01*
X541000Y461100D02*
X539000Y461100D01*
X539000Y463000D02*
X541000Y463000D01*
X534500Y463300D02*
X532500Y463300D01*
X534500Y463300D02*
X534500Y457300D01*
X532500Y457300D01*
X532500Y463300D01*
X532500Y459200D02*
X534500Y459200D01*
X534500Y461100D02*
X532500Y461100D01*
X532500Y463000D02*
X534500Y463000D01*
X545500Y463300D02*
X547500Y463300D01*
X547500Y457300D01*
X545500Y457300D01*
X545500Y463300D01*
X545500Y459200D02*
X547500Y459200D01*
X547500Y461100D02*
X545500Y461100D01*
X545500Y463000D02*
X547500Y463000D01*
X547500Y482700D02*
X545500Y482700D01*
X547500Y482700D02*
X547500Y476700D01*
X545500Y476700D01*
X545500Y482700D01*
X545500Y478600D02*
X547500Y478600D01*
X547500Y480500D02*
X545500Y480500D01*
X545500Y482400D02*
X547500Y482400D01*
X534500Y482700D02*
X532500Y482700D01*
X534500Y482700D02*
X534500Y476700D01*
X532500Y476700D01*
X532500Y482700D01*
X532500Y478600D02*
X534500Y478600D01*
X534500Y480500D02*
X532500Y480500D01*
X532500Y482400D02*
X534500Y482400D01*
X347500Y489000D02*
X347500Y471000D01*
X345500Y471000D01*
X345500Y489000D01*
X347500Y489000D01*
X347500Y472900D02*
X345500Y472900D01*
X345500Y474800D02*
X347500Y474800D01*
X347500Y476700D02*
X345500Y476700D01*
X345500Y478600D02*
X347500Y478600D01*
X347500Y480500D02*
X345500Y480500D01*
X345500Y482400D02*
X347500Y482400D01*
X347500Y484300D02*
X345500Y484300D01*
X345500Y486200D02*
X347500Y486200D01*
X347500Y488100D02*
X345500Y488100D01*
X354500Y489000D02*
X354500Y471000D01*
X352500Y471000D01*
X352500Y489000D01*
X354500Y489000D01*
X354500Y472900D02*
X352500Y472900D01*
X352500Y474800D02*
X354500Y474800D01*
X354500Y476700D02*
X352500Y476700D01*
X352500Y478600D02*
X354500Y478600D01*
X354500Y480500D02*
X352500Y480500D01*
X352500Y482400D02*
X354500Y482400D01*
X354500Y484300D02*
X352500Y484300D01*
X352500Y486200D02*
X354500Y486200D01*
X354500Y488100D02*
X352500Y488100D01*
X361500Y489000D02*
X361500Y471000D01*
X359500Y471000D01*
X359500Y489000D01*
X361500Y489000D01*
X361500Y472900D02*
X359500Y472900D01*
X359500Y474800D02*
X361500Y474800D01*
X361500Y476700D02*
X359500Y476700D01*
X359500Y478600D02*
X361500Y478600D01*
X361500Y480500D02*
X359500Y480500D01*
X359500Y482400D02*
X361500Y482400D01*
X361500Y484300D02*
X359500Y484300D01*
X359500Y486200D02*
X361500Y486200D01*
X361500Y488100D02*
X359500Y488100D01*
X340500Y489000D02*
X340500Y471000D01*
X338500Y471000D01*
X338500Y489000D01*
X340500Y489000D01*
X340500Y472900D02*
X338500Y472900D01*
X338500Y474800D02*
X340500Y474800D01*
X340500Y476700D02*
X338500Y476700D01*
X338500Y478600D02*
X340500Y478600D01*
X340500Y480500D02*
X338500Y480500D01*
X338500Y482400D02*
X340500Y482400D01*
X340500Y484300D02*
X338500Y484300D01*
X338500Y486200D02*
X340500Y486200D01*
X340500Y488100D02*
X338500Y488100D01*
X333500Y489000D02*
X333500Y471000D01*
X331500Y471000D01*
X331500Y489000D01*
X333500Y489000D01*
X333500Y472900D02*
X331500Y472900D01*
X331500Y474800D02*
X333500Y474800D01*
X333500Y476700D02*
X331500Y476700D01*
X331500Y478600D02*
X333500Y478600D01*
X333500Y480500D02*
X331500Y480500D01*
X331500Y482400D02*
X333500Y482400D01*
X333500Y484300D02*
X331500Y484300D01*
X331500Y486200D02*
X333500Y486200D01*
X333500Y488100D02*
X331500Y488100D01*
X368500Y489000D02*
X368500Y471000D01*
X366500Y471000D01*
X366500Y489000D01*
X368500Y489000D01*
X368500Y472900D02*
X366500Y472900D01*
X366500Y474800D02*
X368500Y474800D01*
X368500Y476700D02*
X366500Y476700D01*
X366500Y478600D02*
X368500Y478600D01*
X368500Y480500D02*
X366500Y480500D01*
X366500Y482400D02*
X368500Y482400D01*
X368500Y484300D02*
X366500Y484300D01*
X366500Y486200D02*
X368500Y486200D01*
X368500Y488100D02*
X366500Y488100D01*
X375500Y489000D02*
X375500Y471000D01*
X373500Y471000D01*
X373500Y489000D01*
X375500Y489000D01*
X375500Y472900D02*
X373500Y472900D01*
X373500Y474800D02*
X375500Y474800D01*
X375500Y476700D02*
X373500Y476700D01*
X373500Y478600D02*
X375500Y478600D01*
X375500Y480500D02*
X373500Y480500D01*
X373500Y482400D02*
X375500Y482400D01*
X375500Y484300D02*
X373500Y484300D01*
X373500Y486200D02*
X375500Y486200D01*
X375500Y488100D02*
X373500Y488100D01*
X326500Y489000D02*
X326500Y471000D01*
X324500Y471000D01*
X324500Y489000D01*
X326500Y489000D01*
X326500Y472900D02*
X324500Y472900D01*
X324500Y474800D02*
X326500Y474800D01*
X326500Y476700D02*
X324500Y476700D01*
X324500Y478600D02*
X326500Y478600D01*
X326500Y480500D02*
X324500Y480500D01*
X324500Y482400D02*
X326500Y482400D01*
X326500Y484300D02*
X324500Y484300D01*
X324500Y486200D02*
X326500Y486200D01*
X326500Y488100D02*
X324500Y488100D01*
X319500Y489000D02*
X319500Y471000D01*
X317500Y471000D01*
X317500Y489000D01*
X319500Y489000D01*
X319500Y472900D02*
X317500Y472900D01*
X317500Y474800D02*
X319500Y474800D01*
X319500Y476700D02*
X317500Y476700D01*
X317500Y478600D02*
X319500Y478600D01*
X319500Y480500D02*
X317500Y480500D01*
X317500Y482400D02*
X319500Y482400D01*
X319500Y484300D02*
X317500Y484300D01*
X317500Y486200D02*
X319500Y486200D01*
X319500Y488100D02*
X317500Y488100D01*
X382500Y489000D02*
X382500Y471000D01*
X380500Y471000D01*
X380500Y489000D01*
X382500Y489000D01*
X382500Y472900D02*
X380500Y472900D01*
X380500Y474800D02*
X382500Y474800D01*
X382500Y476700D02*
X380500Y476700D01*
X380500Y478600D02*
X382500Y478600D01*
X382500Y480500D02*
X380500Y480500D01*
X380500Y482400D02*
X382500Y482400D01*
X382500Y484300D02*
X380500Y484300D01*
X380500Y486200D02*
X382500Y486200D01*
X382500Y488100D02*
X380500Y488100D01*
X389500Y489000D02*
X389500Y471000D01*
X387500Y471000D01*
X387500Y489000D01*
X389500Y489000D01*
X389500Y472900D02*
X387500Y472900D01*
X387500Y474800D02*
X389500Y474800D01*
X389500Y476700D02*
X387500Y476700D01*
X387500Y478600D02*
X389500Y478600D01*
X389500Y480500D02*
X387500Y480500D01*
X387500Y482400D02*
X389500Y482400D01*
X389500Y484300D02*
X387500Y484300D01*
X387500Y486200D02*
X389500Y486200D01*
X389500Y488100D02*
X387500Y488100D01*
X312500Y489000D02*
X312500Y471000D01*
X310500Y471000D01*
X310500Y489000D01*
X312500Y489000D01*
X312500Y472900D02*
X310500Y472900D01*
X310500Y474800D02*
X312500Y474800D01*
X312500Y476700D02*
X310500Y476700D01*
X310500Y478600D02*
X312500Y478600D01*
X312500Y480500D02*
X310500Y480500D01*
X310500Y482400D02*
X312500Y482400D01*
X312500Y484300D02*
X310500Y484300D01*
X310500Y486200D02*
X312500Y486200D01*
X312500Y488100D02*
X310500Y488100D01*
X305500Y489000D02*
X305500Y471000D01*
X303500Y471000D01*
X303500Y489000D01*
X305500Y489000D01*
X305500Y472900D02*
X303500Y472900D01*
X303500Y474800D02*
X305500Y474800D01*
X305500Y476700D02*
X303500Y476700D01*
X303500Y478600D02*
X305500Y478600D01*
X305500Y480500D02*
X303500Y480500D01*
X303500Y482400D02*
X305500Y482400D01*
X305500Y484300D02*
X303500Y484300D01*
X303500Y486200D02*
X305500Y486200D01*
X305500Y488100D02*
X303500Y488100D01*
X396500Y489000D02*
X396500Y471000D01*
X394500Y471000D01*
X394500Y489000D01*
X396500Y489000D01*
X396500Y472900D02*
X394500Y472900D01*
X394500Y474800D02*
X396500Y474800D01*
X396500Y476700D02*
X394500Y476700D01*
X394500Y478600D02*
X396500Y478600D01*
X396500Y480500D02*
X394500Y480500D01*
X394500Y482400D02*
X396500Y482400D01*
X396500Y484300D02*
X394500Y484300D01*
X394500Y486200D02*
X396500Y486200D01*
X396500Y488100D02*
X394500Y488100D01*
X403500Y489000D02*
X403500Y471000D01*
X401500Y471000D01*
X401500Y489000D01*
X403500Y489000D01*
X403500Y472900D02*
X401500Y472900D01*
X401500Y474800D02*
X403500Y474800D01*
X403500Y476700D02*
X401500Y476700D01*
X401500Y478600D02*
X403500Y478600D01*
X403500Y480500D02*
X401500Y480500D01*
X401500Y482400D02*
X403500Y482400D01*
X403500Y484300D02*
X401500Y484300D01*
X401500Y486200D02*
X403500Y486200D01*
X403500Y488100D02*
X401500Y488100D01*
X298500Y489000D02*
X298500Y471000D01*
X296500Y471000D01*
X296500Y489000D01*
X298500Y489000D01*
X298500Y472900D02*
X296500Y472900D01*
X296500Y474800D02*
X298500Y474800D01*
X298500Y476700D02*
X296500Y476700D01*
X296500Y478600D02*
X298500Y478600D01*
X298500Y480500D02*
X296500Y480500D01*
X296500Y482400D02*
X298500Y482400D01*
X298500Y484300D02*
X296500Y484300D01*
X296500Y486200D02*
X298500Y486200D01*
X298500Y488100D02*
X296500Y488100D01*
X291500Y489000D02*
X291500Y471000D01*
X289500Y471000D01*
X289500Y489000D01*
X291500Y489000D01*
X291500Y472900D02*
X289500Y472900D01*
X289500Y474800D02*
X291500Y474800D01*
X291500Y476700D02*
X289500Y476700D01*
X289500Y478600D02*
X291500Y478600D01*
X291500Y480500D02*
X289500Y480500D01*
X289500Y482400D02*
X291500Y482400D01*
X291500Y484300D02*
X289500Y484300D01*
X289500Y486200D02*
X291500Y486200D01*
X291500Y488100D02*
X289500Y488100D01*
X410500Y489000D02*
X410500Y471000D01*
X408500Y471000D01*
X408500Y489000D01*
X410500Y489000D01*
X410500Y472900D02*
X408500Y472900D01*
X408500Y474800D02*
X410500Y474800D01*
X410500Y476700D02*
X408500Y476700D01*
X408500Y478600D02*
X410500Y478600D01*
X410500Y480500D02*
X408500Y480500D01*
X408500Y482400D02*
X410500Y482400D01*
X410500Y484300D02*
X408500Y484300D01*
X408500Y486200D02*
X410500Y486200D01*
X410500Y488100D02*
X408500Y488100D01*
X417500Y489000D02*
X417500Y471000D01*
X415500Y471000D01*
X415500Y489000D01*
X417500Y489000D01*
X417500Y472900D02*
X415500Y472900D01*
X415500Y474800D02*
X417500Y474800D01*
X417500Y476700D02*
X415500Y476700D01*
X415500Y478600D02*
X417500Y478600D01*
X417500Y480500D02*
X415500Y480500D01*
X415500Y482400D02*
X417500Y482400D01*
X417500Y484300D02*
X415500Y484300D01*
X415500Y486200D02*
X417500Y486200D01*
X417500Y488100D02*
X415500Y488100D01*
X284500Y489000D02*
X284500Y471000D01*
X282500Y471000D01*
X282500Y489000D01*
X284500Y489000D01*
X284500Y472900D02*
X282500Y472900D01*
X282500Y474800D02*
X284500Y474800D01*
X284500Y476700D02*
X282500Y476700D01*
X282500Y478600D02*
X284500Y478600D01*
X284500Y480500D02*
X282500Y480500D01*
X282500Y482400D02*
X284500Y482400D01*
X284500Y484300D02*
X282500Y484300D01*
X282500Y486200D02*
X284500Y486200D01*
X284500Y488100D02*
X282500Y488100D01*
X277500Y489000D02*
X277500Y471000D01*
X275500Y471000D01*
X275500Y489000D01*
X277500Y489000D01*
X277500Y472900D02*
X275500Y472900D01*
X275500Y474800D02*
X277500Y474800D01*
X277500Y476700D02*
X275500Y476700D01*
X275500Y478600D02*
X277500Y478600D01*
X277500Y480500D02*
X275500Y480500D01*
X275500Y482400D02*
X277500Y482400D01*
X277500Y484300D02*
X275500Y484300D01*
X275500Y486200D02*
X277500Y486200D01*
X277500Y488100D02*
X275500Y488100D01*
X424500Y489000D02*
X424500Y471000D01*
X422500Y471000D01*
X422500Y489000D01*
X424500Y489000D01*
X424500Y472900D02*
X422500Y472900D01*
X422500Y474800D02*
X424500Y474800D01*
X424500Y476700D02*
X422500Y476700D01*
X422500Y478600D02*
X424500Y478600D01*
X424500Y480500D02*
X422500Y480500D01*
X422500Y482400D02*
X424500Y482400D01*
X424500Y484300D02*
X422500Y484300D01*
X422500Y486200D02*
X424500Y486200D01*
X424500Y488100D02*
X422500Y488100D01*
X431500Y489000D02*
X431500Y471000D01*
X429500Y471000D01*
X429500Y489000D01*
X431500Y489000D01*
X431500Y472900D02*
X429500Y472900D01*
X429500Y474800D02*
X431500Y474800D01*
X431500Y476700D02*
X429500Y476700D01*
X429500Y478600D02*
X431500Y478600D01*
X431500Y480500D02*
X429500Y480500D01*
X429500Y482400D02*
X431500Y482400D01*
X431500Y484300D02*
X429500Y484300D01*
X429500Y486200D02*
X431500Y486200D01*
X431500Y488100D02*
X429500Y488100D01*
X270500Y489000D02*
X270500Y471000D01*
X268500Y471000D01*
X268500Y489000D01*
X270500Y489000D01*
X270500Y472900D02*
X268500Y472900D01*
X268500Y474800D02*
X270500Y474800D01*
X270500Y476700D02*
X268500Y476700D01*
X268500Y478600D02*
X270500Y478600D01*
X270500Y480500D02*
X268500Y480500D01*
X268500Y482400D02*
X270500Y482400D01*
X270500Y484300D02*
X268500Y484300D01*
X268500Y486200D02*
X270500Y486200D01*
X270500Y488100D02*
X268500Y488100D01*
X263500Y489000D02*
X263500Y471000D01*
X261500Y471000D01*
X261500Y489000D01*
X263500Y489000D01*
X263500Y472900D02*
X261500Y472900D01*
X261500Y474800D02*
X263500Y474800D01*
X263500Y476700D02*
X261500Y476700D01*
X261500Y478600D02*
X263500Y478600D01*
X263500Y480500D02*
X261500Y480500D01*
X261500Y482400D02*
X263500Y482400D01*
X263500Y484300D02*
X261500Y484300D01*
X261500Y486200D02*
X263500Y486200D01*
X263500Y488100D02*
X261500Y488100D01*
X438500Y489000D02*
X438500Y471000D01*
X436500Y471000D01*
X436500Y489000D01*
X438500Y489000D01*
X438500Y472900D02*
X436500Y472900D01*
X436500Y474800D02*
X438500Y474800D01*
X438500Y476700D02*
X436500Y476700D01*
X436500Y478600D02*
X438500Y478600D01*
X438500Y480500D02*
X436500Y480500D01*
X436500Y482400D02*
X438500Y482400D01*
X438500Y484300D02*
X436500Y484300D01*
X436500Y486200D02*
X438500Y486200D01*
X438500Y488100D02*
X436500Y488100D01*
X445500Y489000D02*
X445500Y471000D01*
X443500Y471000D01*
X443500Y489000D01*
X445500Y489000D01*
X445500Y472900D02*
X443500Y472900D01*
X443500Y474800D02*
X445500Y474800D01*
X445500Y476700D02*
X443500Y476700D01*
X443500Y478600D02*
X445500Y478600D01*
X445500Y480500D02*
X443500Y480500D01*
X443500Y482400D02*
X445500Y482400D01*
X445500Y484300D02*
X443500Y484300D01*
X443500Y486200D02*
X445500Y486200D01*
X445500Y488100D02*
X443500Y488100D01*
X256500Y489000D02*
X256500Y471000D01*
X254500Y471000D01*
X254500Y489000D01*
X256500Y489000D01*
X256500Y472900D02*
X254500Y472900D01*
X254500Y474800D02*
X256500Y474800D01*
X256500Y476700D02*
X254500Y476700D01*
X254500Y478600D02*
X256500Y478600D01*
X256500Y480500D02*
X254500Y480500D01*
X254500Y482400D02*
X256500Y482400D01*
X256500Y484300D02*
X254500Y484300D01*
X254500Y486200D02*
X256500Y486200D01*
X256500Y488100D02*
X254500Y488100D01*
X249500Y489000D02*
X249500Y471000D01*
X247500Y471000D01*
X247500Y489000D01*
X249500Y489000D01*
X249500Y472900D02*
X247500Y472900D01*
X247500Y474800D02*
X249500Y474800D01*
X249500Y476700D02*
X247500Y476700D01*
X247500Y478600D02*
X249500Y478600D01*
X249500Y480500D02*
X247500Y480500D01*
X247500Y482400D02*
X249500Y482400D01*
X249500Y484300D02*
X247500Y484300D01*
X247500Y486200D02*
X249500Y486200D01*
X249500Y488100D02*
X247500Y488100D01*
X452500Y489000D02*
X452500Y471000D01*
X450500Y471000D01*
X450500Y489000D01*
X452500Y489000D01*
X452500Y472900D02*
X450500Y472900D01*
X450500Y474800D02*
X452500Y474800D01*
X452500Y476700D02*
X450500Y476700D01*
X450500Y478600D02*
X452500Y478600D01*
X452500Y480500D02*
X450500Y480500D01*
X450500Y482400D02*
X452500Y482400D01*
X452500Y484300D02*
X450500Y484300D01*
X450500Y486200D02*
X452500Y486200D01*
X452500Y488100D02*
X450500Y488100D01*
D17*
X270000Y442500D03*
X430000Y442500D03*
D14*
X504260Y273740D02*
X504260Y262260D01*
X504260Y273740D02*
X526740Y273740D01*
X526740Y262260D01*
X504260Y262260D01*
X504260Y264654D02*
X526740Y264654D01*
X526740Y267048D02*
X504260Y267048D01*
X504260Y269442D02*
X526740Y269442D01*
X526740Y271836D02*
X504260Y271836D01*
X469260Y273740D02*
X469260Y262260D01*
X469260Y273740D02*
X491740Y273740D01*
X491740Y262260D01*
X469260Y262260D01*
X469260Y264654D02*
X491740Y264654D01*
X491740Y267048D02*
X469260Y267048D01*
X469260Y269442D02*
X491740Y269442D01*
X491740Y271836D02*
X469260Y271836D01*
X469260Y296260D02*
X469260Y307740D01*
X491740Y307740D01*
X491740Y296260D01*
X469260Y296260D01*
X469260Y298654D02*
X491740Y298654D01*
X491740Y301048D02*
X469260Y301048D01*
X469260Y303442D02*
X491740Y303442D01*
X491740Y305836D02*
X469260Y305836D01*
D13*
X482250Y202250D02*
X482250Y194750D01*
X473750Y194750D01*
X473750Y202250D01*
X482250Y202250D01*
X482250Y197125D02*
X473750Y197125D01*
X473750Y199500D02*
X482250Y199500D01*
X482250Y201875D02*
X473750Y201875D01*
X482250Y211750D02*
X482250Y219250D01*
X482250Y211750D02*
X473750Y211750D01*
X473750Y219250D01*
X482250Y219250D01*
X482250Y214125D02*
X473750Y214125D01*
X473750Y216500D02*
X482250Y216500D01*
X482250Y218875D02*
X473750Y218875D01*
D18*
X661100Y745000D02*
X679100Y745000D01*
X628900Y745000D02*
X610900Y745000D01*
X610900Y795000D02*
X628900Y795000D01*
X661100Y795000D02*
X679100Y795000D01*
D13*
X320250Y143750D02*
X320250Y136250D01*
X320250Y143750D02*
X331750Y143750D01*
X331750Y136250D01*
X320250Y136250D01*
X320250Y138625D02*
X331750Y138625D01*
X331750Y141000D02*
X320250Y141000D01*
X320250Y143375D02*
X331750Y143375D01*
X298250Y134250D02*
X298250Y126750D01*
X298250Y134250D02*
X309750Y134250D01*
X309750Y126750D01*
X298250Y126750D01*
X298250Y129125D02*
X309750Y129125D01*
X309750Y131500D02*
X298250Y131500D01*
X298250Y133875D02*
X309750Y133875D01*
X298250Y145750D02*
X298250Y153250D01*
X309750Y153250D01*
X309750Y145750D01*
X298250Y145750D01*
X298250Y148125D02*
X309750Y148125D01*
X309750Y150500D02*
X298250Y150500D01*
X298250Y152875D02*
X309750Y152875D01*
D14*
X317260Y113240D02*
X323740Y113240D01*
X323740Y106760D01*
X317260Y106760D01*
X317260Y113240D01*
X317260Y109154D02*
X323740Y109154D01*
X323740Y111548D02*
X317260Y111548D01*
X292740Y113240D02*
X286260Y113240D01*
X292740Y113240D02*
X292740Y106760D01*
X286260Y106760D01*
X286260Y113240D01*
X286260Y109154D02*
X292740Y109154D01*
X292740Y111548D02*
X286260Y111548D01*
X115390Y104260D02*
X111910Y104260D01*
X111910Y123740D01*
X115390Y123740D01*
X115390Y104260D01*
X115390Y106654D02*
X111910Y106654D01*
X111910Y109048D02*
X115390Y109048D01*
X115390Y111442D02*
X111910Y111442D01*
X111910Y113836D02*
X115390Y113836D01*
X115390Y116230D02*
X111910Y116230D01*
X111910Y118624D02*
X115390Y118624D01*
X115390Y121018D02*
X111910Y121018D01*
X111910Y123412D02*
X115390Y123412D01*
X115390Y156260D02*
X111910Y156260D01*
X111910Y175740D01*
X115390Y175740D01*
X115390Y156260D01*
X115390Y158654D02*
X111910Y158654D01*
X111910Y161048D02*
X115390Y161048D01*
X115390Y163442D02*
X111910Y163442D01*
X111910Y165836D02*
X115390Y165836D01*
X115390Y168230D02*
X111910Y168230D01*
X111910Y170624D02*
X115390Y170624D01*
X115390Y173018D02*
X111910Y173018D01*
X111910Y175412D02*
X115390Y175412D01*
X102690Y104260D02*
X99210Y104260D01*
X99210Y123740D01*
X102690Y123740D01*
X102690Y104260D01*
X102690Y106654D02*
X99210Y106654D01*
X99210Y109048D02*
X102690Y109048D01*
X102690Y111442D02*
X99210Y111442D01*
X99210Y113836D02*
X102690Y113836D01*
X102690Y116230D02*
X99210Y116230D01*
X99210Y118624D02*
X102690Y118624D01*
X102690Y121018D02*
X99210Y121018D01*
X99210Y123412D02*
X102690Y123412D01*
X124610Y104260D02*
X128090Y104260D01*
X124610Y104260D02*
X124610Y123740D01*
X128090Y123740D01*
X128090Y104260D01*
X128090Y106654D02*
X124610Y106654D01*
X124610Y109048D02*
X128090Y109048D01*
X128090Y111442D02*
X124610Y111442D01*
X124610Y113836D02*
X128090Y113836D01*
X128090Y116230D02*
X124610Y116230D01*
X124610Y118624D02*
X128090Y118624D01*
X128090Y121018D02*
X124610Y121018D01*
X124610Y123412D02*
X128090Y123412D01*
X137310Y104260D02*
X140790Y104260D01*
X137310Y104260D02*
X137310Y123740D01*
X140790Y123740D01*
X140790Y104260D01*
X140790Y106654D02*
X137310Y106654D01*
X137310Y109048D02*
X140790Y109048D01*
X140790Y111442D02*
X137310Y111442D01*
X137310Y113836D02*
X140790Y113836D01*
X140790Y116230D02*
X137310Y116230D01*
X137310Y118624D02*
X140790Y118624D01*
X140790Y121018D02*
X137310Y121018D01*
X137310Y123412D02*
X140790Y123412D01*
X102690Y156260D02*
X99210Y156260D01*
X99210Y175740D01*
X102690Y175740D01*
X102690Y156260D01*
X102690Y158654D02*
X99210Y158654D01*
X99210Y161048D02*
X102690Y161048D01*
X102690Y163442D02*
X99210Y163442D01*
X99210Y165836D02*
X102690Y165836D01*
X102690Y168230D02*
X99210Y168230D01*
X99210Y170624D02*
X102690Y170624D01*
X102690Y173018D02*
X99210Y173018D01*
X99210Y175412D02*
X102690Y175412D01*
X124610Y156260D02*
X128090Y156260D01*
X124610Y156260D02*
X124610Y175740D01*
X128090Y175740D01*
X128090Y156260D01*
X128090Y158654D02*
X124610Y158654D01*
X124610Y161048D02*
X128090Y161048D01*
X128090Y163442D02*
X124610Y163442D01*
X124610Y165836D02*
X128090Y165836D01*
X128090Y168230D02*
X124610Y168230D01*
X124610Y170624D02*
X128090Y170624D01*
X128090Y173018D02*
X124610Y173018D01*
X124610Y175412D02*
X128090Y175412D01*
X137310Y156260D02*
X140790Y156260D01*
X137310Y156260D02*
X137310Y175740D01*
X140790Y175740D01*
X140790Y156260D01*
X140790Y158654D02*
X137310Y158654D01*
X137310Y161048D02*
X140790Y161048D01*
X140790Y163442D02*
X137310Y163442D01*
X137310Y165836D02*
X140790Y165836D01*
X140790Y168230D02*
X137310Y168230D01*
X137310Y170624D02*
X140790Y170624D01*
X140790Y173018D02*
X137310Y173018D01*
X137310Y175412D02*
X140790Y175412D01*
D13*
X251250Y152750D02*
X251250Y144250D01*
X251250Y152750D02*
X258750Y152750D01*
X258750Y144250D01*
X251250Y144250D01*
X251250Y146625D02*
X258750Y146625D01*
X258750Y149000D02*
X251250Y149000D01*
X251250Y151375D02*
X258750Y151375D01*
X251250Y135750D02*
X251250Y127250D01*
X251250Y135750D02*
X258750Y135750D01*
X258750Y127250D01*
X251250Y127250D01*
X251250Y129625D02*
X258750Y129625D01*
X258750Y132000D02*
X251250Y132000D01*
X251250Y134375D02*
X258750Y134375D01*
X410250Y136250D02*
X410250Y143750D01*
X421750Y143750D01*
X421750Y136250D01*
X410250Y136250D01*
X410250Y138625D02*
X421750Y138625D01*
X421750Y141000D02*
X410250Y141000D01*
X410250Y143375D02*
X421750Y143375D01*
X388250Y134250D02*
X388250Y126750D01*
X388250Y134250D02*
X399750Y134250D01*
X399750Y126750D01*
X388250Y126750D01*
X388250Y129125D02*
X399750Y129125D01*
X399750Y131500D02*
X388250Y131500D01*
X388250Y133875D02*
X399750Y133875D01*
X388250Y145750D02*
X388250Y153250D01*
X399750Y153250D01*
X399750Y145750D01*
X388250Y145750D01*
X388250Y148125D02*
X399750Y148125D01*
X399750Y150500D02*
X388250Y150500D01*
X388250Y152875D02*
X399750Y152875D01*
D14*
X407260Y113240D02*
X413740Y113240D01*
X413740Y106760D01*
X407260Y106760D01*
X407260Y113240D01*
X407260Y109154D02*
X413740Y109154D01*
X413740Y111548D02*
X407260Y111548D01*
X382740Y113240D02*
X376260Y113240D01*
X382740Y113240D02*
X382740Y106760D01*
X376260Y106760D01*
X376260Y113240D01*
X376260Y109154D02*
X382740Y109154D01*
X382740Y111548D02*
X376260Y111548D01*
X205390Y104260D02*
X201910Y104260D01*
X201910Y123740D01*
X205390Y123740D01*
X205390Y104260D01*
X205390Y106654D02*
X201910Y106654D01*
X201910Y109048D02*
X205390Y109048D01*
X205390Y111442D02*
X201910Y111442D01*
X201910Y113836D02*
X205390Y113836D01*
X205390Y116230D02*
X201910Y116230D01*
X201910Y118624D02*
X205390Y118624D01*
X205390Y121018D02*
X201910Y121018D01*
X201910Y123412D02*
X205390Y123412D01*
X205390Y156260D02*
X201910Y156260D01*
X201910Y175740D01*
X205390Y175740D01*
X205390Y156260D01*
X205390Y158654D02*
X201910Y158654D01*
X201910Y161048D02*
X205390Y161048D01*
X205390Y163442D02*
X201910Y163442D01*
X201910Y165836D02*
X205390Y165836D01*
X205390Y168230D02*
X201910Y168230D01*
X201910Y170624D02*
X205390Y170624D01*
X205390Y173018D02*
X201910Y173018D01*
X201910Y175412D02*
X205390Y175412D01*
X192690Y104260D02*
X189210Y104260D01*
X189210Y123740D01*
X192690Y123740D01*
X192690Y104260D01*
X192690Y106654D02*
X189210Y106654D01*
X189210Y109048D02*
X192690Y109048D01*
X192690Y111442D02*
X189210Y111442D01*
X189210Y113836D02*
X192690Y113836D01*
X192690Y116230D02*
X189210Y116230D01*
X189210Y118624D02*
X192690Y118624D01*
X192690Y121018D02*
X189210Y121018D01*
X189210Y123412D02*
X192690Y123412D01*
X214610Y104260D02*
X218090Y104260D01*
X214610Y104260D02*
X214610Y123740D01*
X218090Y123740D01*
X218090Y104260D01*
X218090Y106654D02*
X214610Y106654D01*
X214610Y109048D02*
X218090Y109048D01*
X218090Y111442D02*
X214610Y111442D01*
X214610Y113836D02*
X218090Y113836D01*
X218090Y116230D02*
X214610Y116230D01*
X214610Y118624D02*
X218090Y118624D01*
X218090Y121018D02*
X214610Y121018D01*
X214610Y123412D02*
X218090Y123412D01*
X227310Y104260D02*
X230790Y104260D01*
X227310Y104260D02*
X227310Y123740D01*
X230790Y123740D01*
X230790Y104260D01*
X230790Y106654D02*
X227310Y106654D01*
X227310Y109048D02*
X230790Y109048D01*
X230790Y111442D02*
X227310Y111442D01*
X227310Y113836D02*
X230790Y113836D01*
X230790Y116230D02*
X227310Y116230D01*
X227310Y118624D02*
X230790Y118624D01*
X230790Y121018D02*
X227310Y121018D01*
X227310Y123412D02*
X230790Y123412D01*
X192690Y156260D02*
X189210Y156260D01*
X189210Y175740D01*
X192690Y175740D01*
X192690Y156260D01*
X192690Y158654D02*
X189210Y158654D01*
X189210Y161048D02*
X192690Y161048D01*
X192690Y163442D02*
X189210Y163442D01*
X189210Y165836D02*
X192690Y165836D01*
X192690Y168230D02*
X189210Y168230D01*
X189210Y170624D02*
X192690Y170624D01*
X192690Y173018D02*
X189210Y173018D01*
X189210Y175412D02*
X192690Y175412D01*
X214610Y156260D02*
X218090Y156260D01*
X214610Y156260D02*
X214610Y175740D01*
X218090Y175740D01*
X218090Y156260D01*
X218090Y158654D02*
X214610Y158654D01*
X214610Y161048D02*
X218090Y161048D01*
X218090Y163442D02*
X214610Y163442D01*
X214610Y165836D02*
X218090Y165836D01*
X218090Y168230D02*
X214610Y168230D01*
X214610Y170624D02*
X218090Y170624D01*
X218090Y173018D02*
X214610Y173018D01*
X214610Y175412D02*
X218090Y175412D01*
X227310Y156260D02*
X230790Y156260D01*
X227310Y156260D02*
X227310Y175740D01*
X230790Y175740D01*
X230790Y156260D01*
X230790Y158654D02*
X227310Y158654D01*
X227310Y161048D02*
X230790Y161048D01*
X230790Y163442D02*
X227310Y163442D01*
X227310Y165836D02*
X230790Y165836D01*
X230790Y168230D02*
X227310Y168230D01*
X227310Y170624D02*
X230790Y170624D01*
X230790Y173018D02*
X227310Y173018D01*
X227310Y175412D02*
X230790Y175412D01*
D13*
X161250Y152750D02*
X161250Y144250D01*
X161250Y152750D02*
X168750Y152750D01*
X168750Y144250D01*
X161250Y144250D01*
X161250Y146625D02*
X168750Y146625D01*
X168750Y149000D02*
X161250Y149000D01*
X161250Y151375D02*
X168750Y151375D01*
X161250Y135750D02*
X161250Y127250D01*
X161250Y135750D02*
X168750Y135750D01*
X168750Y127250D01*
X161250Y127250D01*
X161250Y129625D02*
X168750Y129625D01*
X168750Y132000D02*
X161250Y132000D01*
X161250Y134375D02*
X168750Y134375D01*
D19*
X200000Y67112D02*
X200000Y52888D01*
X220000Y52888D02*
X220000Y67112D01*
X110000Y67112D02*
X110000Y52888D01*
X130000Y52888D02*
X130000Y67112D01*
X385000Y67112D02*
X385000Y52888D01*
X405000Y52888D02*
X405000Y67112D01*
X295000Y67112D02*
X295000Y52888D01*
X315000Y52888D02*
X315000Y67112D01*
X570000Y67112D02*
X570000Y52888D01*
X590000Y52888D02*
X590000Y67112D01*
X480000Y67112D02*
X480000Y52888D01*
X500000Y52888D02*
X500000Y67112D01*
D14*
X229390Y307560D02*
X209910Y307560D01*
X209910Y315540D01*
X229390Y315540D01*
X229390Y307560D01*
X229390Y309954D02*
X209910Y309954D01*
X209910Y312348D02*
X229390Y312348D01*
X229390Y314742D02*
X209910Y314742D01*
X209910Y278060D02*
X229390Y278060D01*
X209910Y278060D02*
X209910Y286040D01*
X229390Y286040D01*
X229390Y278060D01*
X229390Y280454D02*
X209910Y280454D01*
X209910Y282848D02*
X229390Y282848D01*
X229390Y285242D02*
X209910Y285242D01*
D20*
X238650Y293300D02*
X238650Y300300D01*
X238650Y293300D02*
X231650Y293300D01*
X231650Y300300D01*
X238650Y300300D01*
X238650Y296150D02*
X231650Y296150D01*
X231650Y299000D02*
X238650Y299000D01*
D13*
X594750Y429250D02*
X602250Y429250D01*
X602250Y420750D01*
X594750Y420750D01*
X594750Y429250D01*
X594750Y423125D02*
X602250Y423125D01*
X602250Y425500D02*
X594750Y425500D01*
X594750Y427875D02*
X602250Y427875D01*
X585250Y429250D02*
X577750Y429250D01*
X585250Y429250D02*
X585250Y420750D01*
X577750Y420750D01*
X577750Y429250D01*
X577750Y423125D02*
X585250Y423125D01*
X585250Y425500D02*
X577750Y425500D01*
X577750Y427875D02*
X585250Y427875D01*
X594750Y519250D02*
X602250Y519250D01*
X602250Y510750D01*
X594750Y510750D01*
X594750Y519250D01*
X594750Y513125D02*
X602250Y513125D01*
X602250Y515500D02*
X594750Y515500D01*
X594750Y517875D02*
X602250Y517875D01*
X585250Y519250D02*
X577750Y519250D01*
X585250Y519250D02*
X585250Y510750D01*
X577750Y510750D01*
X577750Y519250D01*
X577750Y513125D02*
X585250Y513125D01*
X585250Y515500D02*
X577750Y515500D01*
X577750Y517875D02*
X585250Y517875D01*
D21*
X624460Y426800D02*
X635540Y426800D01*
X635540Y513200D02*
X624460Y513200D01*
X665960Y513200D02*
X677040Y513200D01*
X677040Y426800D02*
X665960Y426800D01*
D22*
X635000Y498900D03*
X635000Y441100D03*
D23*
X627735Y439485D02*
X616765Y439485D01*
X627735Y439485D02*
X627735Y436515D01*
X616765Y436515D01*
X616765Y439485D01*
X616765Y438918D02*
X627735Y438918D01*
X627735Y503485D02*
X616765Y503485D01*
X627735Y503485D02*
X627735Y500515D01*
X616765Y500515D01*
X616765Y503485D01*
X616765Y502918D02*
X627735Y502918D01*
X627735Y495485D02*
X616765Y495485D01*
X627735Y495485D02*
X627735Y492515D01*
X616765Y492515D01*
X616765Y495485D01*
X616765Y494918D02*
X627735Y494918D01*
X627735Y447485D02*
X616765Y447485D01*
X627735Y447485D02*
X627735Y444515D01*
X616765Y444515D01*
X616765Y447485D01*
X616765Y446918D02*
X627735Y446918D01*
D24*
X628313Y468188D02*
X616187Y468188D01*
X628313Y468188D02*
X628313Y466812D01*
X616187Y466812D01*
X616187Y468188D01*
X616187Y468118D02*
X628313Y468118D01*
X628313Y473188D02*
X616187Y473188D01*
X628313Y473188D02*
X628313Y471812D01*
X616187Y471812D01*
X616187Y473188D01*
X616187Y473118D02*
X628313Y473118D01*
X628313Y478188D02*
X616187Y478188D01*
X628313Y478188D02*
X628313Y476812D01*
X616187Y476812D01*
X616187Y478188D01*
X616187Y478118D02*
X628313Y478118D01*
X628313Y463188D02*
X616187Y463188D01*
X628313Y463188D02*
X628313Y461812D01*
X616187Y461812D01*
X616187Y463188D01*
X616187Y463118D02*
X628313Y463118D01*
X628313Y458188D02*
X616187Y458188D01*
X628313Y458188D02*
X628313Y456812D01*
X616187Y456812D01*
X616187Y458188D01*
X616187Y458118D02*
X628313Y458118D01*
D25*
X628250Y453250D02*
X616250Y453250D01*
X628250Y453250D02*
X628250Y451750D01*
X616250Y451750D01*
X616250Y453250D01*
X616250Y453175D02*
X628250Y453175D01*
D24*
X628313Y488188D02*
X616187Y488188D01*
X628313Y488188D02*
X628313Y486812D01*
X616187Y486812D01*
X616187Y488188D01*
X616187Y488118D02*
X628313Y488118D01*
X628313Y483188D02*
X616187Y483188D01*
X628313Y483188D02*
X628313Y481812D01*
X616187Y481812D01*
X616187Y483188D01*
X616187Y483118D02*
X628313Y483118D01*
D14*
X695490Y96740D02*
X695490Y87260D01*
X678010Y87260D01*
X678010Y96740D01*
X695490Y96740D01*
X695490Y89654D02*
X678010Y89654D01*
X678010Y92048D02*
X695490Y92048D01*
X695490Y94442D02*
X678010Y94442D01*
X695490Y143260D02*
X695490Y152740D01*
X695490Y143260D02*
X678010Y143260D01*
X678010Y152740D01*
X695490Y152740D01*
X695490Y145654D02*
X678010Y145654D01*
X678010Y148048D02*
X695490Y148048D01*
X695490Y150442D02*
X678010Y150442D01*
X655490Y106740D02*
X655490Y103260D01*
X644510Y103260D01*
X644510Y106740D01*
X655490Y106740D01*
X655490Y105654D02*
X644510Y105654D01*
X655490Y113260D02*
X655490Y116740D01*
X655490Y113260D02*
X644510Y113260D01*
X644510Y116740D01*
X655490Y116740D01*
X655490Y115654D02*
X644510Y115654D01*
X655490Y123260D02*
X655490Y126740D01*
X655490Y123260D02*
X644510Y123260D01*
X644510Y126740D01*
X655490Y126740D01*
X655490Y125654D02*
X644510Y125654D01*
X655490Y133260D02*
X655490Y136740D01*
X655490Y133260D02*
X644510Y133260D01*
X644510Y136740D01*
X655490Y136740D01*
X655490Y135654D02*
X644510Y135654D01*
D25*
X540750Y545250D02*
X540750Y549750D01*
X540750Y545250D02*
X539250Y545250D01*
X539250Y549750D01*
X540750Y549750D01*
X540750Y546675D02*
X539250Y546675D01*
X539250Y548100D02*
X540750Y548100D01*
X540750Y549525D02*
X539250Y549525D01*
X540750Y534750D02*
X540750Y530250D01*
X539250Y530250D01*
X539250Y534750D01*
X540750Y534750D01*
X540750Y531675D02*
X539250Y531675D01*
X539250Y533100D02*
X540750Y533100D01*
X540750Y534525D02*
X539250Y534525D01*
D26*
X547625Y534375D02*
X547625Y530625D01*
X547625Y534375D02*
X549875Y534375D01*
X549875Y530625D01*
X547625Y530625D01*
X547625Y532762D02*
X549875Y532762D01*
X530125Y534375D02*
X530125Y530625D01*
X530125Y534375D02*
X532375Y534375D01*
X532375Y530625D01*
X530125Y530625D01*
X530125Y532762D02*
X532375Y532762D01*
X530125Y545625D02*
X530125Y549375D01*
X532375Y549375D01*
X532375Y545625D01*
X530125Y545625D01*
X530125Y547762D02*
X532375Y547762D01*
X547625Y549375D02*
X547625Y545625D01*
X547625Y549375D02*
X549875Y549375D01*
X549875Y545625D01*
X547625Y545625D01*
X547625Y547762D02*
X549875Y547762D01*
D16*
X538500Y539000D02*
X529500Y539000D01*
X529500Y541000D01*
X538500Y541000D01*
X538500Y539000D01*
X538500Y540900D02*
X529500Y540900D01*
X545500Y539000D02*
X550500Y539000D01*
X545500Y539000D02*
X545500Y541000D01*
X550500Y541000D01*
X550500Y539000D01*
X550500Y540900D02*
X545500Y540900D01*
D13*
X177750Y528750D02*
X169250Y528750D01*
X177750Y528750D02*
X177750Y521250D01*
X169250Y521250D01*
X169250Y528750D01*
X169250Y523625D02*
X177750Y523625D01*
X177750Y526000D02*
X169250Y526000D01*
X169250Y528375D02*
X177750Y528375D01*
X160750Y528750D02*
X152250Y528750D01*
X160750Y528750D02*
X160750Y521250D01*
X152250Y521250D01*
X152250Y528750D01*
X152250Y523625D02*
X160750Y523625D01*
X160750Y526000D02*
X152250Y526000D01*
X152250Y528375D02*
X160750Y528375D01*
X169250Y488750D02*
X177750Y488750D01*
X177750Y481250D01*
X169250Y481250D01*
X169250Y488750D01*
X169250Y483625D02*
X177750Y483625D01*
X177750Y486000D02*
X169250Y486000D01*
X169250Y488375D02*
X177750Y488375D01*
X160750Y488750D02*
X152250Y488750D01*
X160750Y488750D02*
X160750Y481250D01*
X152250Y481250D01*
X152250Y488750D01*
X152250Y483625D02*
X160750Y483625D01*
X160750Y486000D02*
X152250Y486000D01*
X152250Y488375D02*
X160750Y488375D01*
X169250Y468750D02*
X177750Y468750D01*
X177750Y461250D01*
X169250Y461250D01*
X169250Y468750D01*
X169250Y463625D02*
X177750Y463625D01*
X177750Y466000D02*
X169250Y466000D01*
X169250Y468375D02*
X177750Y468375D01*
X160750Y468750D02*
X152250Y468750D01*
X160750Y468750D02*
X160750Y461250D01*
X152250Y461250D01*
X152250Y468750D01*
X152250Y463625D02*
X160750Y463625D01*
X160750Y466000D02*
X152250Y466000D01*
X152250Y468375D02*
X160750Y468375D01*
X169250Y508750D02*
X177750Y508750D01*
X177750Y501250D01*
X169250Y501250D01*
X169250Y508750D01*
X169250Y503625D02*
X177750Y503625D01*
X177750Y506000D02*
X169250Y506000D01*
X169250Y508375D02*
X177750Y508375D01*
X160750Y508750D02*
X152250Y508750D01*
X160750Y508750D02*
X160750Y501250D01*
X152250Y501250D01*
X152250Y508750D01*
X152250Y503625D02*
X160750Y503625D01*
X160750Y506000D02*
X152250Y506000D01*
X152250Y508375D02*
X160750Y508375D01*
D27*
X675000Y195000D03*
D28*
X675000Y215000D03*
D27*
X675000Y280000D03*
D28*
X675000Y300000D03*
D27*
X675000Y365000D03*
D28*
X675000Y385000D03*
D14*
X82760Y430260D02*
X82760Y439740D01*
X92240Y439740D01*
X92240Y430260D01*
X82760Y430260D01*
X82760Y432654D02*
X92240Y432654D01*
X92240Y435048D02*
X82760Y435048D01*
X82760Y437442D02*
X92240Y437442D01*
X137760Y439740D02*
X137760Y430260D01*
X137760Y439740D02*
X147240Y439740D01*
X147240Y430260D01*
X137760Y430260D01*
X137760Y432654D02*
X147240Y432654D01*
X147240Y435048D02*
X137760Y435048D01*
X137760Y437442D02*
X147240Y437442D01*
X137760Y389740D02*
X137760Y380260D01*
X137760Y389740D02*
X147240Y389740D01*
X147240Y380260D01*
X137760Y380260D01*
X137760Y382654D02*
X147240Y382654D01*
X147240Y385048D02*
X137760Y385048D01*
X137760Y387442D02*
X147240Y387442D01*
X82760Y389740D02*
X82760Y380260D01*
X82760Y389740D02*
X92240Y389740D01*
X92240Y380260D01*
X82760Y380260D01*
X82760Y382654D02*
X92240Y382654D01*
X92240Y385048D02*
X82760Y385048D01*
X82760Y387442D02*
X92240Y387442D01*
X82760Y405260D02*
X82760Y414740D01*
X92240Y414740D01*
X92240Y405260D01*
X82760Y405260D01*
X82760Y407654D02*
X92240Y407654D01*
X92240Y410048D02*
X82760Y410048D01*
X82760Y412442D02*
X92240Y412442D01*
X137760Y414740D02*
X137760Y405260D01*
X137760Y414740D02*
X147240Y414740D01*
X147240Y405260D01*
X137760Y405260D01*
X137760Y407654D02*
X147240Y407654D01*
X147240Y410048D02*
X137760Y410048D01*
X137760Y412442D02*
X147240Y412442D01*
D29*
X115000Y425000D03*
X115000Y395000D03*
D12*
X143800Y704800D02*
X143800Y715200D01*
X156200Y715200D01*
X156200Y704800D01*
X143800Y704800D01*
X143800Y707270D02*
X156200Y707270D01*
X156200Y709740D02*
X143800Y709740D01*
X143800Y712210D02*
X156200Y712210D01*
X156200Y714680D02*
X143800Y714680D01*
X143800Y698200D02*
X143800Y687800D01*
X143800Y698200D02*
X156200Y698200D01*
X156200Y687800D01*
X143800Y687800D01*
X143800Y690270D02*
X156200Y690270D01*
X156200Y692740D02*
X143800Y692740D01*
X143800Y695210D02*
X156200Y695210D01*
X156200Y697680D02*
X143800Y697680D01*
X143800Y681200D02*
X143800Y670800D01*
X143800Y681200D02*
X156200Y681200D01*
X156200Y670800D01*
X143800Y670800D01*
X143800Y673270D02*
X156200Y673270D01*
X156200Y675740D02*
X143800Y675740D01*
X143800Y678210D02*
X156200Y678210D01*
X156200Y680680D02*
X143800Y680680D01*
X143800Y858800D02*
X143800Y869200D01*
X156200Y869200D01*
X156200Y858800D01*
X143800Y858800D01*
X143800Y861270D02*
X156200Y861270D01*
X156200Y863740D02*
X143800Y863740D01*
X143800Y866210D02*
X156200Y866210D01*
X156200Y868680D02*
X143800Y868680D01*
X143800Y852200D02*
X143800Y841800D01*
X143800Y852200D02*
X156200Y852200D01*
X156200Y841800D01*
X143800Y841800D01*
X143800Y844270D02*
X156200Y844270D01*
X156200Y846740D02*
X143800Y846740D01*
X143800Y849210D02*
X156200Y849210D01*
X156200Y851680D02*
X143800Y851680D01*
X143800Y835200D02*
X143800Y824800D01*
X143800Y835200D02*
X156200Y835200D01*
X156200Y824800D01*
X143800Y824800D01*
X143800Y827270D02*
X156200Y827270D01*
X156200Y829740D02*
X143800Y829740D01*
X143800Y832210D02*
X156200Y832210D01*
X156200Y834680D02*
X143800Y834680D01*
D13*
X379250Y135250D02*
X379250Y127750D01*
X370750Y127750D01*
X370750Y135250D01*
X379250Y135250D01*
X379250Y130125D02*
X370750Y130125D01*
X370750Y132500D02*
X379250Y132500D01*
X379250Y134875D02*
X370750Y134875D01*
X379250Y144750D02*
X379250Y152250D01*
X379250Y144750D02*
X370750Y144750D01*
X370750Y152250D01*
X379250Y152250D01*
X379250Y147125D02*
X370750Y147125D01*
X370750Y149500D02*
X379250Y149500D01*
X379250Y151875D02*
X370750Y151875D01*
X289250Y135250D02*
X289250Y127750D01*
X280750Y127750D01*
X280750Y135250D01*
X289250Y135250D01*
X289250Y130125D02*
X280750Y130125D01*
X280750Y132500D02*
X289250Y132500D01*
X289250Y134875D02*
X280750Y134875D01*
X289250Y144750D02*
X289250Y152250D01*
X289250Y144750D02*
X280750Y144750D01*
X280750Y152250D01*
X289250Y152250D01*
X289250Y147125D02*
X280750Y147125D01*
X280750Y149500D02*
X289250Y149500D01*
X289250Y151875D02*
X280750Y151875D01*
D14*
X510260Y242240D02*
X516740Y242240D01*
X516740Y235760D01*
X510260Y235760D01*
X510260Y242240D01*
X510260Y238154D02*
X516740Y238154D01*
X516740Y240548D02*
X510260Y240548D01*
X485740Y242240D02*
X479260Y242240D01*
X485740Y242240D02*
X485740Y235760D01*
X479260Y235760D01*
X479260Y242240D01*
X479260Y238154D02*
X485740Y238154D01*
X485740Y240548D02*
X479260Y240548D01*
D30*
X52620Y384600D02*
X37380Y384600D01*
X37380Y410000D02*
X52620Y410000D01*
X52620Y435400D02*
X37380Y435400D01*
D31*
X618280Y186720D02*
X618280Y177280D01*
X618280Y186720D02*
X623720Y186720D01*
X623720Y177280D01*
X618280Y177280D01*
X618280Y179712D02*
X623720Y179712D01*
X623720Y182144D02*
X618280Y182144D01*
X618280Y184576D02*
X623720Y184576D01*
X596280Y186720D02*
X596280Y177280D01*
X596280Y186720D02*
X601720Y186720D01*
X601720Y177280D01*
X596280Y177280D01*
X596280Y179712D02*
X601720Y179712D01*
X601720Y182144D02*
X596280Y182144D01*
X596280Y184576D02*
X601720Y184576D01*
X596280Y223280D02*
X596280Y232720D01*
X601720Y232720D01*
X601720Y223280D01*
X596280Y223280D01*
X596280Y225712D02*
X601720Y225712D01*
X601720Y228144D02*
X596280Y228144D01*
X596280Y230576D02*
X601720Y230576D01*
X618280Y232720D02*
X618280Y223280D01*
X618280Y232720D02*
X623720Y232720D01*
X623720Y223280D01*
X618280Y223280D01*
X618280Y225712D02*
X623720Y225712D01*
X623720Y228144D02*
X618280Y228144D01*
X618280Y230576D02*
X623720Y230576D01*
X618280Y262280D02*
X618280Y271720D01*
X623720Y271720D01*
X623720Y262280D01*
X618280Y262280D01*
X618280Y264712D02*
X623720Y264712D01*
X623720Y267144D02*
X618280Y267144D01*
X618280Y269576D02*
X623720Y269576D01*
X596280Y271720D02*
X596280Y262280D01*
X596280Y271720D02*
X601720Y271720D01*
X601720Y262280D01*
X596280Y262280D01*
X596280Y264712D02*
X601720Y264712D01*
X601720Y267144D02*
X596280Y267144D01*
X596280Y269576D02*
X601720Y269576D01*
X596280Y308280D02*
X596280Y317720D01*
X601720Y317720D01*
X601720Y308280D01*
X596280Y308280D01*
X596280Y310712D02*
X601720Y310712D01*
X601720Y313144D02*
X596280Y313144D01*
X596280Y315576D02*
X601720Y315576D01*
X618280Y317720D02*
X618280Y308280D01*
X618280Y317720D02*
X623720Y317720D01*
X623720Y308280D01*
X618280Y308280D01*
X618280Y310712D02*
X623720Y310712D01*
X623720Y313144D02*
X618280Y313144D01*
X618280Y315576D02*
X623720Y315576D01*
X618280Y347280D02*
X618280Y356720D01*
X623720Y356720D01*
X623720Y347280D01*
X618280Y347280D01*
X618280Y349712D02*
X623720Y349712D01*
X623720Y352144D02*
X618280Y352144D01*
X618280Y354576D02*
X623720Y354576D01*
X596280Y356720D02*
X596280Y347280D01*
X596280Y356720D02*
X601720Y356720D01*
X601720Y347280D01*
X596280Y347280D01*
X596280Y349712D02*
X601720Y349712D01*
X601720Y352144D02*
X596280Y352144D01*
X596280Y354576D02*
X601720Y354576D01*
X596280Y393280D02*
X596280Y402720D01*
X601720Y402720D01*
X601720Y393280D01*
X596280Y393280D01*
X596280Y395712D02*
X601720Y395712D01*
X601720Y398144D02*
X596280Y398144D01*
X596280Y400576D02*
X601720Y400576D01*
X618280Y402720D02*
X618280Y393280D01*
X618280Y402720D02*
X623720Y402720D01*
X623720Y393280D01*
X618280Y393280D01*
X618280Y395712D02*
X623720Y395712D01*
X623720Y398144D02*
X618280Y398144D01*
X618280Y400576D02*
X623720Y400576D01*
D19*
X154000Y556888D02*
X154000Y571112D01*
X174000Y571112D02*
X174000Y556888D01*
X62112Y780000D02*
X47888Y780000D01*
X47888Y760000D02*
X62112Y760000D01*
D13*
X595250Y118750D02*
X595250Y111250D01*
X595250Y118750D02*
X606750Y118750D01*
X606750Y111250D01*
X595250Y111250D01*
X595250Y113625D02*
X606750Y113625D01*
X606750Y116000D02*
X595250Y116000D01*
X595250Y118375D02*
X606750Y118375D01*
X573250Y109250D02*
X573250Y101750D01*
X573250Y109250D02*
X584750Y109250D01*
X584750Y101750D01*
X573250Y101750D01*
X573250Y104125D02*
X584750Y104125D01*
X584750Y106500D02*
X573250Y106500D01*
X573250Y108875D02*
X584750Y108875D01*
X573250Y120750D02*
X573250Y128250D01*
X584750Y128250D01*
X584750Y120750D01*
X573250Y120750D01*
X573250Y123125D02*
X584750Y123125D01*
X584750Y125500D02*
X573250Y125500D01*
X573250Y127875D02*
X584750Y127875D01*
X564250Y110250D02*
X564250Y102750D01*
X555750Y102750D01*
X555750Y110250D01*
X564250Y110250D01*
X564250Y105125D02*
X555750Y105125D01*
X555750Y107500D02*
X564250Y107500D01*
X564250Y109875D02*
X555750Y109875D01*
X564250Y119750D02*
X564250Y127250D01*
X564250Y119750D02*
X555750Y119750D01*
X555750Y127250D01*
X564250Y127250D01*
X564250Y122125D02*
X555750Y122125D01*
X555750Y124500D02*
X564250Y124500D01*
X564250Y126875D02*
X555750Y126875D01*
X505250Y118750D02*
X505250Y111250D01*
X505250Y118750D02*
X516750Y118750D01*
X516750Y111250D01*
X505250Y111250D01*
X505250Y113625D02*
X516750Y113625D01*
X516750Y116000D02*
X505250Y116000D01*
X505250Y118375D02*
X516750Y118375D01*
X483250Y109250D02*
X483250Y101750D01*
X483250Y109250D02*
X494750Y109250D01*
X494750Y101750D01*
X483250Y101750D01*
X483250Y104125D02*
X494750Y104125D01*
X494750Y106500D02*
X483250Y106500D01*
X483250Y108875D02*
X494750Y108875D01*
X483250Y120750D02*
X483250Y128250D01*
X494750Y128250D01*
X494750Y120750D01*
X483250Y120750D01*
X483250Y123125D02*
X494750Y123125D01*
X494750Y125500D02*
X483250Y125500D01*
X483250Y127875D02*
X494750Y127875D01*
X474250Y110250D02*
X474250Y102750D01*
X465750Y102750D01*
X465750Y110250D01*
X474250Y110250D01*
X474250Y105125D02*
X465750Y105125D01*
X465750Y107500D02*
X474250Y107500D01*
X474250Y109875D02*
X465750Y109875D01*
X474250Y119750D02*
X474250Y127250D01*
X474250Y119750D02*
X465750Y119750D01*
X465750Y127250D01*
X474250Y127250D01*
X474250Y122125D02*
X465750Y122125D01*
X465750Y124500D02*
X474250Y124500D01*
X474250Y126875D02*
X465750Y126875D01*
D32*
X352450Y306450D02*
X351550Y306450D01*
X351550Y311550D01*
X352450Y311550D01*
X352450Y306450D01*
X352450Y307305D02*
X351550Y307305D01*
X351550Y308160D02*
X352450Y308160D01*
X352450Y309015D02*
X351550Y309015D01*
X351550Y309870D02*
X352450Y309870D01*
X352450Y310725D02*
X351550Y310725D01*
X348450Y306450D02*
X347550Y306450D01*
X347550Y311550D01*
X348450Y311550D01*
X348450Y306450D01*
X348450Y307305D02*
X347550Y307305D01*
X347550Y308160D02*
X348450Y308160D01*
X348450Y309015D02*
X347550Y309015D01*
X347550Y309870D02*
X348450Y309870D01*
X348450Y310725D02*
X347550Y310725D01*
X355550Y306450D02*
X356450Y306450D01*
X355550Y306450D02*
X355550Y311550D01*
X356450Y311550D01*
X356450Y306450D01*
X356450Y307305D02*
X355550Y307305D01*
X355550Y308160D02*
X356450Y308160D01*
X356450Y309015D02*
X355550Y309015D01*
X355550Y309870D02*
X356450Y309870D01*
X356450Y310725D02*
X355550Y310725D01*
X359550Y306450D02*
X360450Y306450D01*
X359550Y306450D02*
X359550Y311550D01*
X360450Y311550D01*
X360450Y306450D01*
X360450Y307305D02*
X359550Y307305D01*
X359550Y308160D02*
X360450Y308160D01*
X360450Y309015D02*
X359550Y309015D01*
X359550Y309870D02*
X360450Y309870D01*
X360450Y310725D02*
X359550Y310725D01*
X363550Y306450D02*
X364450Y306450D01*
X363550Y306450D02*
X363550Y311550D01*
X364450Y311550D01*
X364450Y306450D01*
X364450Y307305D02*
X363550Y307305D01*
X363550Y308160D02*
X364450Y308160D01*
X364450Y309015D02*
X363550Y309015D01*
X363550Y309870D02*
X364450Y309870D01*
X364450Y310725D02*
X363550Y310725D01*
X367550Y306450D02*
X368450Y306450D01*
X367550Y306450D02*
X367550Y311550D01*
X368450Y311550D01*
X368450Y306450D01*
X368450Y307305D02*
X367550Y307305D01*
X367550Y308160D02*
X368450Y308160D01*
X368450Y309015D02*
X367550Y309015D01*
X367550Y309870D02*
X368450Y309870D01*
X368450Y310725D02*
X367550Y310725D01*
X371550Y306450D02*
X372450Y306450D01*
X371550Y306450D02*
X371550Y311550D01*
X372450Y311550D01*
X372450Y306450D01*
X372450Y307305D02*
X371550Y307305D01*
X371550Y308160D02*
X372450Y308160D01*
X372450Y309015D02*
X371550Y309015D01*
X371550Y309870D02*
X372450Y309870D01*
X372450Y310725D02*
X371550Y310725D01*
X375550Y306450D02*
X376450Y306450D01*
X375550Y306450D02*
X375550Y311550D01*
X376450Y311550D01*
X376450Y306450D01*
X376450Y307305D02*
X375550Y307305D01*
X375550Y308160D02*
X376450Y308160D01*
X376450Y309015D02*
X375550Y309015D01*
X375550Y309870D02*
X376450Y309870D01*
X376450Y310725D02*
X375550Y310725D01*
X344450Y306450D02*
X343550Y306450D01*
X343550Y311550D01*
X344450Y311550D01*
X344450Y306450D01*
X344450Y307305D02*
X343550Y307305D01*
X343550Y308160D02*
X344450Y308160D01*
X344450Y309015D02*
X343550Y309015D01*
X343550Y309870D02*
X344450Y309870D01*
X344450Y310725D02*
X343550Y310725D01*
X340450Y306450D02*
X339550Y306450D01*
X339550Y311550D01*
X340450Y311550D01*
X340450Y306450D01*
X340450Y307305D02*
X339550Y307305D01*
X339550Y308160D02*
X340450Y308160D01*
X340450Y309015D02*
X339550Y309015D01*
X339550Y309870D02*
X340450Y309870D01*
X340450Y310725D02*
X339550Y310725D01*
X336450Y306450D02*
X335550Y306450D01*
X335550Y311550D01*
X336450Y311550D01*
X336450Y306450D01*
X336450Y307305D02*
X335550Y307305D01*
X335550Y308160D02*
X336450Y308160D01*
X336450Y309015D02*
X335550Y309015D01*
X335550Y309870D02*
X336450Y309870D01*
X336450Y310725D02*
X335550Y310725D01*
X332450Y306450D02*
X331550Y306450D01*
X331550Y311550D01*
X332450Y311550D01*
X332450Y306450D01*
X332450Y307305D02*
X331550Y307305D01*
X331550Y308160D02*
X332450Y308160D01*
X332450Y309015D02*
X331550Y309015D01*
X331550Y309870D02*
X332450Y309870D01*
X332450Y310725D02*
X331550Y310725D01*
X328450Y306450D02*
X327550Y306450D01*
X327550Y311550D01*
X328450Y311550D01*
X328450Y306450D01*
X328450Y307305D02*
X327550Y307305D01*
X327550Y308160D02*
X328450Y308160D01*
X328450Y309015D02*
X327550Y309015D01*
X327550Y309870D02*
X328450Y309870D01*
X328450Y310725D02*
X327550Y310725D01*
X324450Y306450D02*
X323550Y306450D01*
X323550Y311550D01*
X324450Y311550D01*
X324450Y306450D01*
X324450Y307305D02*
X323550Y307305D01*
X323550Y308160D02*
X324450Y308160D01*
X324450Y309015D02*
X323550Y309015D01*
X323550Y309870D02*
X324450Y309870D01*
X324450Y310725D02*
X323550Y310725D01*
X318550Y277450D02*
X318550Y276550D01*
X313450Y276550D01*
X313450Y277450D01*
X318550Y277450D01*
X318550Y277405D02*
X313450Y277405D01*
X318550Y280550D02*
X318550Y281450D01*
X318550Y280550D02*
X313450Y280550D01*
X313450Y281450D01*
X318550Y281450D01*
X318550Y281405D02*
X313450Y281405D01*
X318550Y284550D02*
X318550Y285450D01*
X318550Y284550D02*
X313450Y284550D01*
X313450Y285450D01*
X318550Y285450D01*
X318550Y285405D02*
X313450Y285405D01*
X318550Y288550D02*
X318550Y289450D01*
X318550Y288550D02*
X313450Y288550D01*
X313450Y289450D01*
X318550Y289450D01*
X318550Y289405D02*
X313450Y289405D01*
X318550Y292550D02*
X318550Y293450D01*
X318550Y292550D02*
X313450Y292550D01*
X313450Y293450D01*
X318550Y293450D01*
X318550Y293405D02*
X313450Y293405D01*
X318550Y296550D02*
X318550Y297450D01*
X318550Y296550D02*
X313450Y296550D01*
X313450Y297450D01*
X318550Y297450D01*
X318550Y297405D02*
X313450Y297405D01*
X318550Y300550D02*
X318550Y301450D01*
X318550Y300550D02*
X313450Y300550D01*
X313450Y301450D01*
X318550Y301450D01*
X318550Y301405D02*
X313450Y301405D01*
X318550Y273450D02*
X318550Y272550D01*
X313450Y272550D01*
X313450Y273450D01*
X318550Y273450D01*
X318550Y273405D02*
X313450Y273405D01*
X318550Y269450D02*
X318550Y268550D01*
X313450Y268550D01*
X313450Y269450D01*
X318550Y269450D01*
X318550Y269405D02*
X313450Y269405D01*
X318550Y265450D02*
X318550Y264550D01*
X313450Y264550D01*
X313450Y265450D01*
X318550Y265450D01*
X318550Y265405D02*
X313450Y265405D01*
X318550Y261450D02*
X318550Y260550D01*
X313450Y260550D01*
X313450Y261450D01*
X318550Y261450D01*
X318550Y261405D02*
X313450Y261405D01*
X318550Y257450D02*
X318550Y256550D01*
X313450Y256550D01*
X313450Y257450D01*
X318550Y257450D01*
X318550Y257405D02*
X313450Y257405D01*
X318550Y253450D02*
X318550Y252550D01*
X313450Y252550D01*
X313450Y253450D01*
X318550Y253450D01*
X318550Y253405D02*
X313450Y253405D01*
X318550Y249450D02*
X318550Y248550D01*
X313450Y248550D01*
X313450Y249450D01*
X318550Y249450D01*
X318550Y249405D02*
X313450Y249405D01*
X347550Y243550D02*
X348450Y243550D01*
X348450Y238450D01*
X347550Y238450D01*
X347550Y243550D01*
X347550Y239305D02*
X348450Y239305D01*
X348450Y240160D02*
X347550Y240160D01*
X347550Y241015D02*
X348450Y241015D01*
X348450Y241870D02*
X347550Y241870D01*
X347550Y242725D02*
X348450Y242725D01*
X344450Y243550D02*
X343550Y243550D01*
X344450Y243550D02*
X344450Y238450D01*
X343550Y238450D01*
X343550Y243550D01*
X343550Y239305D02*
X344450Y239305D01*
X344450Y240160D02*
X343550Y240160D01*
X343550Y241015D02*
X344450Y241015D01*
X344450Y241870D02*
X343550Y241870D01*
X343550Y242725D02*
X344450Y242725D01*
X340450Y243550D02*
X339550Y243550D01*
X340450Y243550D02*
X340450Y238450D01*
X339550Y238450D01*
X339550Y243550D01*
X339550Y239305D02*
X340450Y239305D01*
X340450Y240160D02*
X339550Y240160D01*
X339550Y241015D02*
X340450Y241015D01*
X340450Y241870D02*
X339550Y241870D01*
X339550Y242725D02*
X340450Y242725D01*
X336450Y243550D02*
X335550Y243550D01*
X336450Y243550D02*
X336450Y238450D01*
X335550Y238450D01*
X335550Y243550D01*
X335550Y239305D02*
X336450Y239305D01*
X336450Y240160D02*
X335550Y240160D01*
X335550Y241015D02*
X336450Y241015D01*
X336450Y241870D02*
X335550Y241870D01*
X335550Y242725D02*
X336450Y242725D01*
X332450Y243550D02*
X331550Y243550D01*
X332450Y243550D02*
X332450Y238450D01*
X331550Y238450D01*
X331550Y243550D01*
X331550Y239305D02*
X332450Y239305D01*
X332450Y240160D02*
X331550Y240160D01*
X331550Y241015D02*
X332450Y241015D01*
X332450Y241870D02*
X331550Y241870D01*
X331550Y242725D02*
X332450Y242725D01*
X328450Y243550D02*
X327550Y243550D01*
X328450Y243550D02*
X328450Y238450D01*
X327550Y238450D01*
X327550Y243550D01*
X327550Y239305D02*
X328450Y239305D01*
X328450Y240160D02*
X327550Y240160D01*
X327550Y241015D02*
X328450Y241015D01*
X328450Y241870D02*
X327550Y241870D01*
X327550Y242725D02*
X328450Y242725D01*
X324450Y243550D02*
X323550Y243550D01*
X324450Y243550D02*
X324450Y238450D01*
X323550Y238450D01*
X323550Y243550D01*
X323550Y239305D02*
X324450Y239305D01*
X324450Y240160D02*
X323550Y240160D01*
X323550Y241015D02*
X324450Y241015D01*
X324450Y241870D02*
X323550Y241870D01*
X323550Y242725D02*
X324450Y242725D01*
X351550Y243550D02*
X352450Y243550D01*
X352450Y238450D01*
X351550Y238450D01*
X351550Y243550D01*
X351550Y239305D02*
X352450Y239305D01*
X352450Y240160D02*
X351550Y240160D01*
X351550Y241015D02*
X352450Y241015D01*
X352450Y241870D02*
X351550Y241870D01*
X351550Y242725D02*
X352450Y242725D01*
X355550Y243550D02*
X356450Y243550D01*
X356450Y238450D01*
X355550Y238450D01*
X355550Y243550D01*
X355550Y239305D02*
X356450Y239305D01*
X356450Y240160D02*
X355550Y240160D01*
X355550Y241015D02*
X356450Y241015D01*
X356450Y241870D02*
X355550Y241870D01*
X355550Y242725D02*
X356450Y242725D01*
X359550Y243550D02*
X360450Y243550D01*
X360450Y238450D01*
X359550Y238450D01*
X359550Y243550D01*
X359550Y239305D02*
X360450Y239305D01*
X360450Y240160D02*
X359550Y240160D01*
X359550Y241015D02*
X360450Y241015D01*
X360450Y241870D02*
X359550Y241870D01*
X359550Y242725D02*
X360450Y242725D01*
X363550Y243550D02*
X364450Y243550D01*
X364450Y238450D01*
X363550Y238450D01*
X363550Y243550D01*
X363550Y239305D02*
X364450Y239305D01*
X364450Y240160D02*
X363550Y240160D01*
X363550Y241015D02*
X364450Y241015D01*
X364450Y241870D02*
X363550Y241870D01*
X363550Y242725D02*
X364450Y242725D01*
X367550Y243550D02*
X368450Y243550D01*
X368450Y238450D01*
X367550Y238450D01*
X367550Y243550D01*
X367550Y239305D02*
X368450Y239305D01*
X368450Y240160D02*
X367550Y240160D01*
X367550Y241015D02*
X368450Y241015D01*
X368450Y241870D02*
X367550Y241870D01*
X367550Y242725D02*
X368450Y242725D01*
X371550Y243550D02*
X372450Y243550D01*
X372450Y238450D01*
X371550Y238450D01*
X371550Y243550D01*
X371550Y239305D02*
X372450Y239305D01*
X372450Y240160D02*
X371550Y240160D01*
X371550Y241015D02*
X372450Y241015D01*
X372450Y241870D02*
X371550Y241870D01*
X371550Y242725D02*
X372450Y242725D01*
X375550Y243550D02*
X376450Y243550D01*
X376450Y238450D01*
X375550Y238450D01*
X375550Y243550D01*
X375550Y239305D02*
X376450Y239305D01*
X376450Y240160D02*
X375550Y240160D01*
X375550Y241015D02*
X376450Y241015D01*
X376450Y241870D02*
X375550Y241870D01*
X375550Y242725D02*
X376450Y242725D01*
X381450Y248550D02*
X381450Y249450D01*
X386550Y249450D01*
X386550Y248550D01*
X381450Y248550D01*
X381450Y249405D02*
X386550Y249405D01*
X381450Y252550D02*
X381450Y253450D01*
X386550Y253450D01*
X386550Y252550D01*
X381450Y252550D01*
X381450Y253405D02*
X386550Y253405D01*
X381450Y256550D02*
X381450Y257450D01*
X386550Y257450D01*
X386550Y256550D01*
X381450Y256550D01*
X381450Y257405D02*
X386550Y257405D01*
X381450Y260550D02*
X381450Y261450D01*
X386550Y261450D01*
X386550Y260550D01*
X381450Y260550D01*
X381450Y261405D02*
X386550Y261405D01*
X381450Y264550D02*
X381450Y265450D01*
X386550Y265450D01*
X386550Y264550D01*
X381450Y264550D01*
X381450Y265405D02*
X386550Y265405D01*
X381450Y268550D02*
X381450Y269450D01*
X386550Y269450D01*
X386550Y268550D01*
X381450Y268550D01*
X381450Y269405D02*
X386550Y269405D01*
X381450Y272550D02*
X381450Y273450D01*
X386550Y273450D01*
X386550Y272550D01*
X381450Y272550D01*
X381450Y273405D02*
X386550Y273405D01*
X381450Y276550D02*
X381450Y277450D01*
X386550Y277450D01*
X386550Y276550D01*
X381450Y276550D01*
X381450Y277405D02*
X386550Y277405D01*
X381450Y280550D02*
X381450Y281450D01*
X386550Y281450D01*
X386550Y280550D01*
X381450Y280550D01*
X381450Y281405D02*
X386550Y281405D01*
X381450Y284550D02*
X381450Y285450D01*
X386550Y285450D01*
X386550Y284550D01*
X381450Y284550D01*
X381450Y285405D02*
X386550Y285405D01*
X381450Y288550D02*
X381450Y289450D01*
X386550Y289450D01*
X386550Y288550D01*
X381450Y288550D01*
X381450Y289405D02*
X386550Y289405D01*
X381450Y292550D02*
X381450Y293450D01*
X386550Y293450D01*
X386550Y292550D01*
X381450Y292550D01*
X381450Y293405D02*
X386550Y293405D01*
X381450Y296550D02*
X381450Y297450D01*
X386550Y297450D01*
X386550Y296550D01*
X381450Y296550D01*
X381450Y297405D02*
X386550Y297405D01*
X381450Y300550D02*
X381450Y301450D01*
X386550Y301450D01*
X386550Y300550D01*
X381450Y300550D01*
X381450Y301405D02*
X386550Y301405D01*
D33*
X368800Y293800D02*
X331200Y293800D01*
X368800Y293800D02*
X368800Y256200D01*
X331200Y256200D01*
X331200Y293800D01*
X331200Y258480D02*
X368800Y258480D01*
X368800Y260760D02*
X331200Y260760D01*
X331200Y263040D02*
X368800Y263040D01*
X368800Y265320D02*
X331200Y265320D01*
X331200Y267600D02*
X368800Y267600D01*
X368800Y269880D02*
X331200Y269880D01*
X331200Y272160D02*
X368800Y272160D01*
X368800Y274440D02*
X331200Y274440D01*
X331200Y276720D02*
X368800Y276720D01*
X368800Y279000D02*
X331200Y279000D01*
X331200Y281280D02*
X368800Y281280D01*
X368800Y283560D02*
X331200Y283560D01*
X331200Y285840D02*
X368800Y285840D01*
X368800Y288120D02*
X331200Y288120D01*
X331200Y290400D02*
X368800Y290400D01*
X368800Y292680D02*
X331200Y292680D01*
D31*
X339780Y347780D02*
X346220Y347780D01*
X339780Y347780D02*
X339780Y353220D01*
X346220Y353220D01*
X346220Y347780D01*
X346220Y350212D02*
X339780Y350212D01*
X339780Y352644D02*
X346220Y352644D01*
X346220Y336780D02*
X339780Y336780D01*
X339780Y342220D01*
X346220Y342220D01*
X346220Y336780D01*
X346220Y339212D02*
X339780Y339212D01*
X339780Y341644D02*
X346220Y341644D01*
X353780Y336780D02*
X360220Y336780D01*
X353780Y336780D02*
X353780Y342220D01*
X360220Y342220D01*
X360220Y336780D01*
X360220Y339212D02*
X353780Y339212D01*
X353780Y341644D02*
X360220Y341644D01*
X360220Y347780D02*
X353780Y347780D01*
X353780Y353220D01*
X360220Y353220D01*
X360220Y347780D01*
X360220Y350212D02*
X353780Y350212D01*
X353780Y352644D02*
X360220Y352644D01*
D13*
X326250Y349250D02*
X326250Y357750D01*
X333750Y357750D01*
X333750Y349250D01*
X326250Y349250D01*
X326250Y351625D02*
X333750Y351625D01*
X333750Y354000D02*
X326250Y354000D01*
X326250Y356375D02*
X333750Y356375D01*
X326250Y340750D02*
X326250Y332250D01*
X326250Y340750D02*
X333750Y340750D01*
X333750Y332250D01*
X326250Y332250D01*
X326250Y334625D02*
X333750Y334625D01*
X333750Y337000D02*
X326250Y337000D01*
X326250Y339375D02*
X333750Y339375D01*
X373750Y340750D02*
X373750Y332250D01*
X366250Y332250D01*
X366250Y340750D01*
X373750Y340750D01*
X373750Y334625D02*
X366250Y334625D01*
X366250Y337000D02*
X373750Y337000D01*
X373750Y339375D02*
X366250Y339375D01*
X373750Y349250D02*
X373750Y357750D01*
X373750Y349250D02*
X366250Y349250D01*
X366250Y357750D01*
X373750Y357750D01*
X373750Y351625D02*
X366250Y351625D01*
X366250Y354000D02*
X373750Y354000D01*
X373750Y356375D02*
X366250Y356375D01*
D14*
X136240Y334260D02*
X129760Y334260D01*
X129760Y337740D01*
X136240Y337740D01*
X136240Y334260D01*
X136240Y336654D02*
X129760Y336654D01*
X129760Y312260D02*
X136240Y312260D01*
X129760Y312260D02*
X129760Y315740D01*
X136240Y315740D01*
X136240Y312260D01*
X136240Y314654D02*
X129760Y314654D01*
X100240Y312260D02*
X93760Y312260D01*
X93760Y315740D01*
X100240Y315740D01*
X100240Y312260D01*
X100240Y314654D02*
X93760Y314654D01*
X93760Y334260D02*
X100240Y334260D01*
X93760Y334260D02*
X93760Y337740D01*
X100240Y337740D01*
X100240Y334260D01*
X100240Y336654D02*
X93760Y336654D01*
D26*
X112125Y343375D02*
X117875Y343375D01*
X112125Y343375D02*
X112125Y345625D01*
X117875Y345625D01*
X117875Y343375D01*
X117875Y345512D02*
X112125Y345512D01*
X112125Y304375D02*
X117875Y304375D01*
X112125Y304375D02*
X112125Y306625D01*
X117875Y306625D01*
X117875Y304375D01*
X117875Y306512D02*
X112125Y306512D01*
D14*
X129760Y284260D02*
X136240Y284260D01*
X129760Y284260D02*
X129760Y287740D01*
X136240Y287740D01*
X136240Y284260D01*
X136240Y286654D02*
X129760Y286654D01*
X129760Y262260D02*
X136240Y262260D01*
X129760Y262260D02*
X129760Y265740D01*
X136240Y265740D01*
X136240Y262260D01*
X136240Y264654D02*
X129760Y264654D01*
X100240Y262260D02*
X93760Y262260D01*
X93760Y265740D01*
X100240Y265740D01*
X100240Y262260D01*
X100240Y264654D02*
X93760Y264654D01*
X93760Y284260D02*
X100240Y284260D01*
X93760Y284260D02*
X93760Y287740D01*
X100240Y287740D01*
X100240Y284260D01*
X100240Y286654D02*
X93760Y286654D01*
D26*
X112125Y293375D02*
X117875Y293375D01*
X112125Y293375D02*
X112125Y295625D01*
X117875Y295625D01*
X117875Y293375D01*
X117875Y295512D02*
X112125Y295512D01*
X112125Y254375D02*
X117875Y254375D01*
X112125Y254375D02*
X112125Y256625D01*
X117875Y256625D01*
X117875Y254375D01*
X117875Y256512D02*
X112125Y256512D01*
D13*
X374750Y214250D02*
X382250Y214250D01*
X382250Y205750D01*
X374750Y205750D01*
X374750Y214250D01*
X374750Y208125D02*
X382250Y208125D01*
X382250Y210500D02*
X374750Y210500D01*
X374750Y212875D02*
X382250Y212875D01*
X365250Y214250D02*
X357750Y214250D01*
X365250Y214250D02*
X365250Y205750D01*
X357750Y205750D01*
X357750Y214250D01*
X357750Y208125D02*
X365250Y208125D01*
X365250Y210500D02*
X357750Y210500D01*
X357750Y212875D02*
X365250Y212875D01*
X325750Y206250D02*
X317250Y206250D01*
X317250Y213750D01*
X325750Y213750D01*
X325750Y206250D01*
X325750Y208625D02*
X317250Y208625D01*
X317250Y211000D02*
X325750Y211000D01*
X325750Y213375D02*
X317250Y213375D01*
X334250Y206250D02*
X342750Y206250D01*
X334250Y206250D02*
X334250Y213750D01*
X342750Y213750D01*
X342750Y206250D01*
X342750Y208625D02*
X334250Y208625D01*
X334250Y211000D02*
X342750Y211000D01*
X342750Y213375D02*
X334250Y213375D01*
X511250Y209750D02*
X511250Y202250D01*
X511250Y209750D02*
X522750Y209750D01*
X522750Y202250D01*
X511250Y202250D01*
X511250Y204625D02*
X522750Y204625D01*
X522750Y207000D02*
X511250Y207000D01*
X511250Y209375D02*
X522750Y209375D01*
X489250Y200250D02*
X489250Y192750D01*
X489250Y200250D02*
X500750Y200250D01*
X500750Y192750D01*
X489250Y192750D01*
X489250Y195125D02*
X500750Y195125D01*
X500750Y197500D02*
X489250Y197500D01*
X489250Y199875D02*
X500750Y199875D01*
X489250Y211750D02*
X489250Y219250D01*
X500750Y219250D01*
X500750Y211750D01*
X489250Y211750D01*
X489250Y214125D02*
X500750Y214125D01*
X500750Y216500D02*
X489250Y216500D01*
X489250Y218875D02*
X500750Y218875D01*
D34*
X130884Y467070D02*
X130884Y476702D01*
X130884Y467070D02*
X111092Y467070D01*
X111092Y476702D01*
X130884Y476702D01*
X130884Y469502D02*
X111092Y469502D01*
X111092Y471934D02*
X130884Y471934D01*
X130884Y474366D02*
X111092Y474366D01*
X130884Y490184D02*
X130884Y499816D01*
X130884Y490184D02*
X111092Y490184D01*
X111092Y499816D01*
X130884Y499816D01*
X130884Y492616D02*
X111092Y492616D01*
X111092Y495048D02*
X130884Y495048D01*
X130884Y497480D02*
X111092Y497480D01*
X130884Y513298D02*
X130884Y522930D01*
X130884Y513298D02*
X111092Y513298D01*
X111092Y522930D01*
X130884Y522930D01*
X130884Y515730D02*
X111092Y515730D01*
X111092Y518162D02*
X130884Y518162D01*
X130884Y520594D02*
X111092Y520594D01*
D35*
X68690Y511680D02*
X68690Y478320D01*
X49330Y478320D01*
X49330Y511680D01*
X68690Y511680D01*
X68690Y480828D02*
X49330Y480828D01*
X49330Y483336D02*
X68690Y483336D01*
X68690Y485844D02*
X49330Y485844D01*
X49330Y488352D02*
X68690Y488352D01*
X68690Y490860D02*
X49330Y490860D01*
X49330Y493368D02*
X68690Y493368D01*
X68690Y495876D02*
X49330Y495876D01*
X49330Y498384D02*
X68690Y498384D01*
X68690Y500892D02*
X49330Y500892D01*
X49330Y503400D02*
X68690Y503400D01*
X68690Y505908D02*
X49330Y505908D01*
X49330Y508416D02*
X68690Y508416D01*
X68690Y510924D02*
X49330Y510924D01*
D36*
X660000Y680000D03*
X660000Y560000D03*
X40000Y40000D03*
X660000Y40000D03*
X40000Y560000D03*
X40000Y860000D03*
X40000Y680000D03*
X660000Y860000D03*
M02*
