M48
;GenerationSoftware,Autodesk,EAGLE,9.6.2*%
;CreationDate,2022-04-21T11:51:04Z*%
FMAT,2
ICI,OFF
METRIC,TZ,000.000
T10C0.300
T9C0.500
T8C0.600
T7C0.650
T6C0.800
T5C0.900
T4C0.914
T3C1.016
T2C1.200
T1C3.200
%
G90
M71
T1
X4000Y56000
X4000Y86000
X4000Y68000
X66000Y86000
X66000Y4000
X4000Y4000
X66000Y56000
X66000Y68000
T2
X67010Y74500
X61990Y74500
X61990Y79500
X67010Y79500
T3
X4500Y43540
X4500Y41000
X4500Y38460
T4
X67500Y38500
X67500Y36500
X67500Y30000
X67500Y28000
X67500Y21500
X67500Y19500
T5
X11500Y42500
X11500Y39500
X49700Y74500
X49700Y79500
X20300Y84700
X20300Y69300
T6
X22000Y6000
X20000Y6000
X5500Y76000
X13000Y6000
X38500Y6000
X40500Y6000
X29500Y6000
X31500Y6000
X57000Y6000
X59000Y6000
X48000Y6000
X50000Y6000
X15400Y56400
X17400Y56400
X5500Y78000
X11000Y6000
T7
X63500Y44110
X63500Y49890
T8
X63000Y42680
X63000Y51320
X67150Y51320
X67150Y42680
T9
X43000Y44250
X27000Y44250
X10000Y56500
T10
X24300Y30600
X25900Y28700
X29700Y28900
X28900Y28900
X28100Y28900
X27100Y27900
X26300Y27900
X25500Y27900
X24700Y27900
X23900Y27900
X23900Y27100
X23100Y27100
X22300Y27100
X21500Y27100
X20700Y27100
X19900Y27100
X19900Y28100
X19900Y29100
X22300Y32300
X23100Y32300
X23900Y32300
X23900Y31500
X21500Y32300
X20700Y32300
X19900Y32300
X19900Y31300
X19900Y30300
X23100Y14400
X16850Y23150
X17850Y23100
X35000Y59000
X34000Y59000
X33000Y59000
X32000Y59000
X31000Y59000
X30000Y59000
X29000Y59000
X28000Y59000
X27000Y59000
X26000Y59000
X25000Y59000
X24000Y59000
X23000Y59000
X22000Y59000
X21000Y59000
X20000Y59000
X19000Y59000
X36000Y59000
X37000Y59000
X38000Y59000
X39000Y59000
X40000Y59000
X41000Y59000
X42000Y59000
X43000Y59000
X44000Y59000
X45000Y59000
X46000Y59000
X47000Y59000
X48000Y59000
X49000Y59000
X50000Y59000
X51000Y59000
X52000Y59000
X53000Y59000
X54000Y59000
X55000Y59000
X56000Y59000
X35000Y1000
X34000Y1000
X33000Y1000
X32000Y1000
X31000Y1000
X30000Y1000
X29000Y1000
X28000Y1000
X27000Y1000
X26000Y1000
X25000Y1000
X24000Y1000
X23000Y1000
X22000Y1000
X21000Y1000
X20000Y1000
X19000Y1000
X18000Y1000
X17000Y1000
X16000Y1000
X15000Y1000
X14000Y1000
X13000Y1000
X12000Y1000
X11000Y1000
X10000Y1000
X9000Y1000
X8000Y1000
X7000Y1000
X36000Y1000
X37000Y1000
X38000Y1000
X39000Y1000
X40000Y1000
X41000Y1000
X42000Y1000
X43000Y1000
X44000Y1000
X58000Y64000
X46000Y1000
X47000Y1000
X48000Y1000
X49000Y1000
X50000Y1000
X51000Y1000
X52000Y1000
X53000Y1000
X54000Y1000
X55000Y1000
X56000Y1000
X57000Y1000
X58000Y1000
X59000Y1000
X60000Y1000
X61000Y1000
X62000Y1000
X63000Y1000
X25100Y30600
X35300Y44400
X19300Y41400
X20300Y41400
X30800Y36900
X25900Y30600
X26700Y30600
X37000Y33650
X33000Y35350
X34300Y36000
X35700Y36000
X35000Y27500
X35300Y40900
X36800Y40900
X43900Y28900
X16300Y19400
X17800Y19400
X19300Y19400
X35000Y28700
X33800Y28700
X33800Y27500
X33800Y26300
X35000Y26300
X36200Y26300
X36200Y27500
X36200Y28700
X39700Y20700
X41100Y20700
X31900Y19300
X25500Y20900
X25500Y19100
X21100Y25300
X23100Y25300
X22700Y35700
X24500Y35700
X20900Y35700
X1500Y35300
X1500Y34100
X1500Y32900
X1500Y31700
X29400Y25500
X45600Y33100
X47000Y33100
X48400Y33100
X58000Y60000
X59000Y60000
X60000Y60000
X61000Y60000
X18150Y37000
X16500Y11500
X25500Y11500
X63000Y11500
X44500Y11500
X39400Y37000
X9000Y64000
X10000Y64000
X11000Y64000
X12000Y64000
X27500Y30600
X9000Y60000
X10000Y60000
X11000Y60000
X12000Y60000
X41425Y28425
X47609Y17211
X40122Y42022
X39250Y28100
X47000Y16606
X40800Y41300
X27300Y25600
X47000Y14700
X28000Y25100
X56000Y15000
X35500Y22056
X45600Y21800
X30000Y24500
X30000Y17500
X20605Y21958
X22900Y19000
X17300Y16600
X30241Y26200
X31000Y17500
X64500Y48500
X64500Y45500
X55400Y45600
X38607Y22393
X59465Y46065
X60000Y46744
X38000Y23000
X49500Y52000
X40115Y30971
X50107Y51393
X40100Y30100
X16500Y38500
X39400Y38500
X28300Y30600
X29100Y30600
X29900Y30600
X30700Y30600
X20300Y46800
X20300Y48200
X20300Y49600
X20300Y51000
X20300Y52400
X32300Y44400
X32400Y40900
X54000Y47000
X41000Y89000
X41000Y87500
X41000Y86000
X41000Y84500
X41000Y83000
X41000Y81500
X41000Y80000
X41000Y78500
X41000Y77000
X41000Y75500
X41000Y74000
X41000Y72500
X41000Y71000
X41000Y69500
X41500Y68000
X43000Y68000
X44500Y68000
X46000Y68000
X47500Y68000
X49000Y68000
X50500Y68000
X52000Y68000
X53500Y68000
X55000Y68000
X56500Y68000
X58000Y68000
X59500Y68000
X61000Y68000
X61000Y64000
X60000Y64000
X59000Y64000
X45000Y1000
M30